solid Visualization Toolkit generated SLA File
 facet normal -1 0 0
  outer loop
   vertex 64.524833679199219 52.957923889160156 0
   vertex 64.524833679199219 39.452064514160156 0
   vertex 64.524833679199219 52.957923889160156 5
  endloop
 endfacet
 facet normal -1 0 0
  outer loop
   vertex 64.524833679199219 52.957923889160156 5
   vertex 64.524833679199219 39.452064514160156 0
   vertex 64.524833679199219 39.452064514160156 5
  endloop
 endfacet
 facet normal 0 -1 0
  outer loop
   vertex 62.195735931396484 52.957923889160156 0
   vertex 64.524833679199219 52.957923889160156 0
   vertex 62.195735931396484 52.957923889160156 5
  endloop
 endfacet
 facet normal 0 -1 0
  outer loop
   vertex 62.195735931396484 52.957923889160156 5
   vertex 64.524833679199219 52.957923889160156 0
   vertex 64.524833679199219 52.957923889160156 5
  endloop
 endfacet
 facet normal -1 0 0
  outer loop
   vertex 62.195735931396484 55.008705139160156 0
   vertex 62.195735931396484 52.957923889160156 0
   vertex 62.195735931396484 55.008705139160156 5
  endloop
 endfacet
 facet normal -1 0 0
  outer loop
   vertex 62.195735931396484 55.008705139160156 5
   vertex 62.195735931396484 52.957923889160156 0
   vertex 62.195735931396484 52.957923889160156 5
  endloop
 endfacet
 facet normal 0 1 0
  outer loop
   vertex 64.524833679199219 55.008705139160156 0
   vertex 62.195735931396484 55.008705139160156 0
   vertex 64.524833679199219 55.008705139160156 5
  endloop
 endfacet
 facet normal 0 1 0
  outer loop
   vertex 64.524833679199219 55.008705139160156 5
   vertex 62.195735931396484 55.008705139160156 0
   vertex 62.195735931396484 55.008705139160156 5
  endloop
 endfacet
 facet normal -1 0 0
  outer loop
   vertex 64.524833679199219 56.663978576660156 0
   vertex 64.524833679199219 55.008705139160156 0
   vertex 64.524833679199219 56.663978576660156 5
  endloop
 endfacet
 facet normal -1 0 0
  outer loop
   vertex 64.524833679199219 56.663978576660156 5
   vertex 64.524833679199219 55.008705139160156 0
   vertex 64.524833679199219 55.008705139160156 5
  endloop
 endfacet
 facet normal -0.97247018137821972 0.23302735103462069 0
  outer loop
   vertex 64.803153991699219 58.993080139160156 0
   vertex 64.665786743164062 58.419818878173828 0
   vertex 64.803153991699219 58.993080139160156 5
  endloop
 endfacet
 facet normal -0.97247018137821972 0.23302735103462069 0
  outer loop
   vertex 64.803153991699219 58.993080139160156 5
   vertex 64.665786743164062 58.419818878173828 0
   vertex 64.665786743164062 58.419818878173828 5
  endloop
 endfacet
 facet normal -0.98201765585695122 0.18878909816305245 0
  outer loop
   vertex 64.665786743164062 58.419818878173828 5
   vertex 64.665786743164062 58.419818878173828 0
   vertex 64.610343933105469 58.131423950195312 0
  endloop
 endfacet
 facet normal -0.98201765585695122 0.18878909816305245 0
  outer loop
   vertex 64.665786743164062 58.419818878173828 5
   vertex 64.610343933105469 58.131423950195312 0
   vertex 64.610343933105469 58.131423950195312 5
  endloop
 endfacet
 facet normal -0.99067049775049243 0.136278996499063 0
  outer loop
   vertex 64.610343933105469 58.131423950195312 5
   vertex 64.610343933105469 58.131423950195312 0
   vertex 64.570388793945312 57.840972900390625 0
  endloop
 endfacet
 facet normal -0.99067049775049243 0.136278996499063 0
  outer loop
   vertex 64.610343933105469 58.131423950195312 5
   vertex 64.570388793945312 57.840972900390625 0
   vertex 64.570388793945312 57.840972900390625 5
  endloop
 endfacet
 facet normal -0.99643863972957891 0.084321036840557029 0
  outer loop
   vertex 64.570388793945312 57.840972900390625 5
   vertex 64.570388793945312 57.840972900390625 0
   vertex 64.545639038085938 57.548500061035156 0
  endloop
 endfacet
 facet normal -0.99643863972957891 0.084321036840557029 0
  outer loop
   vertex 64.570388793945312 57.840972900390625 5
   vertex 64.545639038085938 57.548500061035156 0
   vertex 64.545639038085938 57.548500061035156 5
  endloop
 endfacet
 facet normal -0.99897859133656919 0.045185993971626467 0
  outer loop
   vertex 64.545639038085938 57.548500061035156 5
   vertex 64.545639038085938 57.548500061035156 0
   vertex 64.532341003417969 57.254505157470703 0
  endloop
 endfacet
 facet normal -0.99897859133656919 0.045185993971626467 0
  outer loop
   vertex 64.545639038085938 57.548500061035156 5
   vertex 64.532341003417969 57.254505157470703 0
   vertex 64.532341003417969 57.254505157470703 5
  endloop
 endfacet
 facet normal -0.99991920047489968 0.012711904721062268 0
  outer loop
   vertex 64.532341003417969 57.254505157470703 5
   vertex 64.532341003417969 57.254505157470703 0
   vertex 64.524833679199219 56.663978576660156 0
  endloop
 endfacet
 facet normal -0.99991920047489968 0.012711904721062268 0
  outer loop
   vertex 64.532341003417969 57.254505157470703 5
   vertex 64.524833679199219 56.663978576660156 0
   vertex 64.524833679199219 56.663978576660156 5
  endloop
 endfacet
 facet normal -0.61240887274494193 0.79054118968164422 0
  outer loop
   vertex 66.143486022949219 60.655677795410156 0
   vertex 65.926467895507812 60.487560272216797 0
   vertex 66.143486022949219 60.655677795410156 5
  endloop
 endfacet
 facet normal -0.61240887274494193 0.79054118968164422 0
  outer loop
   vertex 66.143486022949219 60.655677795410156 5
   vertex 65.926467895507812 60.487560272216797 0
   vertex 65.926467895507812 60.487560272216797 5
  endloop
 endfacet
 facet normal -0.63475135287261919 0.77271645512851594 0
  outer loop
   vertex 65.926467895507812 60.487560272216797 5
   vertex 65.926467895507812 60.487560272216797 0
   vertex 65.7156982421875 60.314422607421875 0
  endloop
 endfacet
 facet normal -0.63475135287261919 0.77271645512851594 0
  outer loop
   vertex 65.926467895507812 60.487560272216797 5
   vertex 65.7156982421875 60.314422607421875 0
   vertex 65.7156982421875 60.314422607421875 5
  endloop
 endfacet
 facet normal -0.67864394340214751 0.73446742479403593 0
  outer loop
   vertex 65.7156982421875 60.314422607421875 5
   vertex 65.7156982421875 60.314422607421875 0
   vertex 65.517448425292969 60.131240844726562 0
  endloop
 endfacet
 facet normal -0.67864394340214751 0.73446742479403593 0
  outer loop
   vertex 65.7156982421875 60.314422607421875 5
   vertex 65.517448425292969 60.131240844726562 0
   vertex 65.517448425292969 60.131240844726562 5
  endloop
 endfacet
 facet normal -0.74134041630993686 0.67112918811910549 0
  outer loop
   vertex 65.517448425292969 60.131240844726562 5
   vertex 65.517448425292969 60.131240844726562 0
   vertex 65.337974548339844 59.932991027832031 0
  endloop
 endfacet
 facet normal -0.74134041630993686 0.67112918811910549 0
  outer loop
   vertex 65.517448425292969 60.131240844726562 5
   vertex 65.337974548339844 59.932991027832031 0
   vertex 65.337974548339844 59.932991027832031 5
  endloop
 endfacet
 facet normal -0.81143417872247359 0.58444381560675673 0
  outer loop
   vertex 65.337974548339844 59.932991027832031 5
   vertex 65.337974548339844 59.932991027832031 0
   vertex 65.181747436523438 59.716087341308594 0
  endloop
 endfacet
 facet normal -0.81143417872247359 0.58444381560675673 0
  outer loop
   vertex 65.337974548339844 59.932991027832031 5
   vertex 65.181747436523438 59.716087341308594 0
   vertex 65.181747436523438 59.716087341308594 5
  endloop
 endfacet
 facet normal -0.86159081609341459 0.50760345312407396 0
  outer loop
   vertex 65.181747436523438 59.716087341308594 5
   vertex 65.181747436523438 59.716087341308594 0
   vertex 65.044830322265625 59.483688354492188 0
  endloop
 endfacet
 facet normal -0.86159081609341459 0.50760345312407396 0
  outer loop
   vertex 65.181747436523438 59.716087341308594 5
   vertex 65.044830322265625 59.483688354492188 0
   vertex 65.044830322265625 59.483688354492188 5
  endloop
 endfacet
 facet normal -0.89044022731599726 0.45510021047834648 0
  outer loop
   vertex 65.044830322265625 59.483688354492188 5
   vertex 65.044830322265625 59.483688354492188 0
   vertex 64.9207763671875 59.240966796875 0
  endloop
 endfacet
 facet normal -0.89044022731599726 0.45510021047834648 0
  outer loop
   vertex 65.044830322265625 59.483688354492188 5
   vertex 64.9207763671875 59.240966796875 0
   vertex 64.9207763671875 59.240966796875 5
  endloop
 endfacet
 facet normal -0.90345227822518093 0.42868867604560079 0
  outer loop
   vertex 64.9207763671875 59.240966796875 5
   vertex 64.9207763671875 59.240966796875 0
   vertex 64.803153991699219 58.993080139160156 0
  endloop
 endfacet
 facet normal -0.90345227822518093 0.42868867604560079 0
  outer loop
   vertex 64.9207763671875 59.240966796875 5
   vertex 64.803153991699219 58.993080139160156 0
   vertex 64.803153991699219 58.993080139160156 5
  endloop
 endfacet
 facet normal -0.029204463738922208 0.99957345868011227 0
  outer loop
   vertex 68.831474304199219 61.292884826660156 0
   vertex 68.4779052734375 61.282554626464844 0
   vertex 68.831474304199219 61.292884826660156 5
  endloop
 endfacet
 facet normal -0.029204463738922208 0.99957345868011227 0
  outer loop
   vertex 68.831474304199219 61.292884826660156 5
   vertex 68.4779052734375 61.282554626464844 0
   vertex 68.4779052734375 61.282554626464844 5
  endloop
 endfacet
 facet normal -0.052868285497006 0.9986014942851863 0
  outer loop
   vertex 68.4779052734375 61.282554626464844 5
   vertex 68.4779052734375 61.282554626464844 0
   vertex 68.126426696777344 61.263946533203125 0
  endloop
 endfacet
 facet normal -0.052868285497006 0.9986014942851863 0
  outer loop
   vertex 68.4779052734375 61.282554626464844 5
   vertex 68.126426696777344 61.263946533203125 0
   vertex 68.126426696777344 61.263946533203125 5
  endloop
 endfacet
 facet normal -0.10076315165104958 0.99491044183350863 0
  outer loop
   vertex 68.126426696777344 61.263946533203125 5
   vertex 68.126426696777344 61.263946533203125 0
   vertex 67.779151916503906 61.228775024414062 0
  endloop
 endfacet
 facet normal -0.10076315165104958 0.99491044183350863 0
  outer loop
   vertex 68.126426696777344 61.263946533203125 5
   vertex 67.779151916503906 61.228775024414062 0
   vertex 67.779151916503906 61.228775024414062 5
  endloop
 endfacet
 facet normal -0.17333653220428419 0.98486265367481229 0
  outer loop
   vertex 67.779151916503906 61.228775024414062 5
   vertex 67.779151916503906 61.228775024414062 0
   vertex 67.43817138671875 61.16876220703125 0
  endloop
 endfacet
 facet normal -0.17333653220428419 0.98486265367481229 0
  outer loop
   vertex 67.779151916503906 61.228775024414062 5
   vertex 67.43817138671875 61.16876220703125 0
   vertex 67.43817138671875 61.16876220703125 5
  endloop
 endfacet
 facet normal -0.24275398595654932 0.97008788380342503 0
  outer loop
   vertex 67.43817138671875 61.16876220703125 5
   vertex 67.43817138671875 61.16876220703125 0
   vertex 67.270698547363281 61.126853942871094 0
  endloop
 endfacet
 facet normal -0.24275398595654932 0.97008788380342503 0
  outer loop
   vertex 67.43817138671875 61.16876220703125 5
   vertex 67.270698547363281 61.126853942871094 0
   vertex 67.270698547363281 61.126853942871094 5
  endloop
 endfacet
 facet normal -0.29301242427318885 0.95610863358801901 0
  outer loop
   vertex 67.270698547363281 61.126853942871094 5
   vertex 67.270698547363281 61.126853942871094 0
   vertex 67.105445861816406 61.076210021972656 0
  endloop
 endfacet
 facet normal -0.29301242427318885 0.95610863358801901 0
  outer loop
   vertex 67.270698547363281 61.126853942871094 5
   vertex 67.105445861816406 61.076210021972656 0
   vertex 67.105445861816406 61.076210021972656 5
  endloop
 endfacet
 facet normal -0.35418430015163005 0.9351756420727072 0
  outer loop
   vertex 67.105445861816406 61.076210021972656 5
   vertex 67.105445861816406 61.076210021972656 0
   vertex 66.78045654296875 60.953125 0
  endloop
 endfacet
 facet normal -0.35418430015163005 0.9351756420727072 0
  outer loop
   vertex 67.105445861816406 61.076210021972656 5
   vertex 66.78045654296875 60.953125 0
   vertex 66.78045654296875 60.953125 5
  endloop
 endfacet
 facet normal -0.40962699831186428 0.91225310207968713 0
  outer loop
   vertex 66.78045654296875 60.953125 5
   vertex 66.78045654296875 60.953125 0
   vertex 66.460670471191406 60.809532165527344 0
  endloop
 endfacet
 facet normal -0.40962699831186428 0.91225310207968713 0
  outer loop
   vertex 66.78045654296875 60.953125 5
   vertex 66.460670471191406 60.809532165527344 0
   vertex 66.460670471191406 60.809532165527344 5
  endloop
 endfacet
 facet normal -0.43642961092706944 0.89973840348517242 0
  outer loop
   vertex 66.460670471191406 60.809532165527344 5
   vertex 66.460670471191406 60.809532165527344 0
   vertex 66.143486022949219 60.655677795410156 0
  endloop
 endfacet
 facet normal -0.43642961092706944 0.89973840348517242 0
  outer loop
   vertex 66.460670471191406 60.809532165527344 5
   vertex 66.143486022949219 60.655677795410156 0
   vertex 66.143486022949219 60.655677795410156 5
  endloop
 endfacet
 facet normal 0.17090297168097082 0.98528786365742538 0
  outer loop
   vertex 71.292411804199219 61.029212951660156 0
   vertex 70.681373596191406 61.135200500488281 0
   vertex 71.292411804199219 61.029212951660156 5
  endloop
 endfacet
 facet normal 0.17090297168097082 0.98528786365742538 -0
  outer loop
   vertex 71.292411804199219 61.029212951660156 5
   vertex 70.681373596191406 61.135200500488281 0
   vertex 70.681373596191406 61.135200500488281 5
  endloop
 endfacet
 facet normal 0.14983639300357066 0.98871080470058559 -0
  outer loop
   vertex 70.681373596191406 61.135200500488281 5
   vertex 70.681373596191406 61.135200500488281 0
   vertex 70.375160217285156 61.181606292724609 0
  endloop
 endfacet
 facet normal 0.14983639300357066 0.98871080470058559 -0
  outer loop
   vertex 70.681373596191406 61.135200500488281 5
   vertex 70.375160217285156 61.181606292724609 0
   vertex 70.375160217285156 61.181606292724609 5
  endloop
 endfacet
 facet normal 0.12444741495014933 0.99222620450793653 -0
  outer loop
   vertex 70.375160217285156 61.181606292724609 5
   vertex 70.375160217285156 61.181606292724609 0
   vertex 70.068122863769531 61.220115661621094 0
  endloop
 endfacet
 facet normal 0.12444741495014933 0.99222620450793653 -0
  outer loop
   vertex 70.375160217285156 61.181606292724609 5
   vertex 70.068122863769531 61.220115661621094 0
   vertex 70.068122863769531 61.220115661621094 5
  endloop
 endfacet
 facet normal 0.091878555782860541 0.9957702199740941 -0
  outer loop
   vertex 70.068122863769531 61.220115661621094 5
   vertex 70.068122863769531 61.220115661621094 0
   vertex 69.760032653808594 61.248542785644531 0
  endloop
 endfacet
 facet normal 0.091878555782860541 0.9957702199740941 -0
  outer loop
   vertex 70.068122863769531 61.220115661621094 5
   vertex 69.760032653808594 61.248542785644531 0
   vertex 69.760032653808594 61.248542785644531 5
  endloop
 endfacet
 facet normal 0.063485816303420081 0.9979827408969999 -0
  outer loop
   vertex 69.760032653808594 61.248542785644531 5
   vertex 69.760032653808594 61.248542785644531 0
   vertex 69.451026916503906 61.268199920654297 0
  endloop
 endfacet
 facet normal 0.063485816303420081 0.9979827408969999 -0
  outer loop
   vertex 69.760032653808594 61.248542785644531 5
   vertex 69.451026916503906 61.268199920654297 0
   vertex 69.451026916503906 61.268199920654297 5
  endloop
 endfacet
 facet normal 0.039811527692914496 0.99920720687090536 -0
  outer loop
   vertex 69.451026916503906 61.268199920654297 5
   vertex 69.451026916503906 61.268199920654297 0
   vertex 68.831474304199219 61.292884826660156 0
  endloop
 endfacet
 facet normal 0.039811527692914496 0.99920720687090536 -0
  outer loop
   vertex 69.451026916503906 61.268199920654297 5
   vertex 68.831474304199219 61.292884826660156 0
   vertex 68.831474304199219 61.292884826660156 5
  endloop
 endfacet
 facet normal 0.98553251194400904 -0.169486482945785 0
  outer loop
   vertex 70.896903991699219 58.729408264160156 0
   vertex 71.292411804199219 61.029212951660156 0
   vertex 70.896903991699219 58.729408264160156 5
  endloop
 endfacet
 facet normal 0.98553251194400904 -0.169486482945785 0
  outer loop
   vertex 70.896903991699219 58.729408264160156 5
   vertex 71.292411804199219 61.029212951660156 0
   vertex 71.292411804199219 61.029212951660156 5
  endloop
 endfacet
 facet normal -0.032882345374325841 -0.99945922946495602 0
  outer loop
   vertex 69.344169616699219 58.875892639160156 0
   vertex 69.734565734863281 58.863048553466797 0
   vertex 69.344169616699219 58.875892639160156 5
  endloop
 endfacet
 facet normal -0.032882345374325841 -0.99945922946495602 0
  outer loop
   vertex 69.344169616699219 58.875892639160156 5
   vertex 69.734565734863281 58.863048553466797 0
   vertex 69.734565734863281 58.863048553466797 5
  endloop
 endfacet
 facet normal -0.066995470955356573 -0.99775327955936577 0
  outer loop
   vertex 69.734565734863281 58.863048553466797 5
   vertex 69.734565734863281 58.863048553466797 0
   vertex 70.123725891113281 58.836917877197266 0
  endloop
 endfacet
 facet normal -0.066995470955356573 -0.99775327955936577 0
  outer loop
   vertex 69.734565734863281 58.863048553466797 5
   vertex 70.123725891113281 58.836917877197266 0
   vertex 70.123725891113281 58.836917877197266 5
  endloop
 endfacet
 facet normal -0.1218414407071239 -0.99254957726373161 0
  outer loop
   vertex 70.123725891113281 58.836917877197266 5
   vertex 70.123725891113281 58.836917877197266 0
   vertex 70.510894775390625 58.789390563964844 0
  endloop
 endfacet
 facet normal -0.1218414407071239 -0.99254957726373161 0
  outer loop
   vertex 70.123725891113281 58.836917877197266 5
   vertex 70.510894775390625 58.789390563964844 0
   vertex 70.510894775390625 58.789390563964844 5
  endloop
 endfacet
 facet normal -0.15354809605127703 -0.98814117523713574 0
  outer loop
   vertex 70.510894775390625 58.789390563964844 5
   vertex 70.510894775390625 58.789390563964844 0
   vertex 70.896903991699219 58.729408264160156 0
  endloop
 endfacet
 facet normal -0.15354809605127703 -0.98814117523713574 0
  outer loop
   vertex 70.510894775390625 58.789390563964844 5
   vertex 70.896903991699219 58.729408264160156 0
   vertex 70.896903991699219 58.729408264160156 5
  endloop
 endfacet
 facet normal 0.5585605916962606 -0.82946372157191017 0
  outer loop
   vertex 67.644950866699219 58.363197326660156 5
   vertex 67.644950866699219 58.363197326660156 0
   vertex 67.835884094238281 58.491771697998047 2.5
  endloop
 endfacet
 facet normal 0.5585605916962606 -0.82946372157191017 0
  outer loop
   vertex 67.835884094238281 58.491771697998047 2.5
   vertex 67.644950866699219 58.363197326660156 0
   vertex 67.835884094238281 58.491771697998047 0
  endloop
 endfacet
 facet normal 0.52413947290544394 -0.85163244004817196 0
  outer loop
   vertex 67.835884094238281 58.491771697998047 2.5
   vertex 67.835884094238281 58.491771697998047 0
   vertex 68.029869079589844 58.611160278320312 0
  endloop
 endfacet
 facet normal 0.52413947290544394 -0.85163244004817196 0
  outer loop
   vertex 67.835884094238281 58.491771697998047 2.5
   vertex 68.029869079589844 58.611160278320312 0
   vertex 68.029869079589844 58.611160278320312 2.5
  endloop
 endfacet
 facet normal 0.45064116872133703 -0.89270517924646742 0
  outer loop
   vertex 68.029869079589844 58.611160278320312 2.5
   vertex 68.029869079589844 58.611160278320312 0
   vertex 68.229972839355469 58.712173461914062 0
  endloop
 endfacet
 facet normal 0.45064116872133703 -0.89270517924646742 0
  outer loop
   vertex 68.029869079589844 58.611160278320312 2.5
   vertex 68.229972839355469 58.712173461914062 0
   vertex 68.229972839355469 58.712173461914062 2.5
  endloop
 endfacet
 facet normal 0.36694440138878709 -0.93024287489312429 0
  outer loop
   vertex 68.229972839355469 58.712173461914062 2.5
   vertex 68.229972839355469 58.712173461914062 0
   vertex 68.333274841308594 58.752922058105469 0
  endloop
 endfacet
 facet normal 0.36694440138878709 -0.93024287489312429 0
  outer loop
   vertex 68.229972839355469 58.712173461914062 2.5
   vertex 68.333274841308594 58.752922058105469 0
   vertex 68.333274841308594 58.752922058105469 2.5
  endloop
 endfacet
 facet normal 0.29937936979052743 -0.95413415877633623 0
  outer loop
   vertex 68.333274841308594 58.752922058105469 2.5
   vertex 68.333274841308594 58.752922058105469 0
   vertex 68.439094543457031 58.786125183105469 0
  endloop
 endfacet
 facet normal 0.29937936979052743 -0.95413415877633623 0
  outer loop
   vertex 68.333274841308594 58.752922058105469 2.5
   vertex 68.439094543457031 58.786125183105469 0
   vertex 68.439094543457031 58.786125183105469 2.5
  endloop
 endfacet
 facet normal 0.20874682203646849 -0.9779697154256235 0
  outer loop
   vertex 68.439094543457031 58.786125183105469 2.5
   vertex 68.439094543457031 58.786125183105469 0
   vertex 68.657325744628906 58.832706451416016 0
  endloop
 endfacet
 facet normal 0.20874682203646849 -0.9779697154256235 0
  outer loop
   vertex 68.439094543457031 58.786125183105469 2.5
   vertex 68.657325744628906 58.832706451416016 0
   vertex 68.657325744628906 58.832706451416016 2.5
  endloop
 endfacet
 facet normal 0.11425350254463618 -0.99345162799015163 0
  outer loop
   vertex 68.657325744628906 58.832706451416016 2.5
   vertex 68.657325744628906 58.832706451416016 0
   vertex 68.8824462890625 58.858596801757812 0
  endloop
 endfacet
 facet normal 0.11425350254463618 -0.99345162799015163 0
  outer loop
   vertex 68.657325744628906 58.832706451416016 2.5
   vertex 68.8824462890625 58.858596801757812 0
   vertex 68.8824462890625 58.858596801757812 2.5
  endloop
 endfacet
 facet normal 0.037433056474780568 -0.99929913753738209 0
  outer loop
   vertex 68.8824462890625 58.858596801757812 2.5
   vertex 68.8824462890625 58.858596801757812 0
   vertex 69.344169616699219 58.875892639160156 0
  endloop
 endfacet
 facet normal 0.037433056474780568 -0.99929913753738209 0
  outer loop
   vertex 68.8824462890625 58.858596801757812 2.5
   vertex 69.344169616699219 58.875892639160156 0
   vertex 69.344169616699219 58.875892639160156 5
  endloop
 endfacet
 facet normal 0.037433056474780568 -0.99929913753738209 0
  outer loop
   vertex 69.344169616699219 58.875892639160156 5
   vertex 68.8824462890625 58.858596801757812 5
   vertex 68.8824462890625 58.858596801757812 2.5
  endloop
 endfacet
 facet normal 0.11425350254463618 -0.99345162799015163 0
  outer loop
   vertex 68.8824462890625 58.858596801757812 2.5
   vertex 68.8824462890625 58.858596801757812 5
   vertex 68.657325744628906 58.832706451416016 5
  endloop
 endfacet
 facet normal 0.11425350254463618 -0.99345162799015163 0
  outer loop
   vertex 68.8824462890625 58.858596801757812 2.5
   vertex 68.657325744628906 58.832706451416016 5
   vertex 68.657325744628906 58.832706451416016 2.5
  endloop
 endfacet
 facet normal 0.20874682203646849 -0.9779697154256235 0
  outer loop
   vertex 68.657325744628906 58.832706451416016 2.5
   vertex 68.657325744628906 58.832706451416016 5
   vertex 68.439094543457031 58.786125183105469 5
  endloop
 endfacet
 facet normal 0.20874682203646849 -0.9779697154256235 0
  outer loop
   vertex 68.657325744628906 58.832706451416016 2.5
   vertex 68.439094543457031 58.786125183105469 5
   vertex 68.439094543457031 58.786125183105469 2.5
  endloop
 endfacet
 facet normal 0.29937936979052743 -0.95413415877633623 0
  outer loop
   vertex 68.439094543457031 58.786125183105469 2.5
   vertex 68.439094543457031 58.786125183105469 5
   vertex 68.333274841308594 58.752922058105469 5
  endloop
 endfacet
 facet normal 0.29937936979052743 -0.95413415877633623 0
  outer loop
   vertex 68.439094543457031 58.786125183105469 2.5
   vertex 68.333274841308594 58.752922058105469 5
   vertex 68.333274841308594 58.752922058105469 2.5
  endloop
 endfacet
 facet normal 0.36694440138878709 -0.93024287489312429 0
  outer loop
   vertex 68.333274841308594 58.752922058105469 2.5
   vertex 68.333274841308594 58.752922058105469 5
   vertex 68.229972839355469 58.712173461914062 5
  endloop
 endfacet
 facet normal 0.36694440138878709 -0.93024287489312429 0
  outer loop
   vertex 68.333274841308594 58.752922058105469 2.5
   vertex 68.229972839355469 58.712173461914062 5
   vertex 68.229972839355469 58.712173461914062 2.5
  endloop
 endfacet
 facet normal 0.45064116872133703 -0.89270517924646742 0
  outer loop
   vertex 68.229972839355469 58.712173461914062 2.5
   vertex 68.229972839355469 58.712173461914062 5
   vertex 68.029869079589844 58.611160278320312 5
  endloop
 endfacet
 facet normal 0.45064116872133703 -0.89270517924646742 0
  outer loop
   vertex 68.229972839355469 58.712173461914062 2.5
   vertex 68.029869079589844 58.611160278320312 5
   vertex 68.029869079589844 58.611160278320312 2.5
  endloop
 endfacet
 facet normal 0.52413947290544394 -0.85163244004817196 0
  outer loop
   vertex 68.029869079589844 58.611160278320312 2.5
   vertex 68.029869079589844 58.611160278320312 5
   vertex 67.835884094238281 58.491771697998047 5
  endloop
 endfacet
 facet normal 0.52413947290544394 -0.85163244004817196 0
  outer loop
   vertex 68.029869079589844 58.611160278320312 2.5
   vertex 67.835884094238281 58.491771697998047 5
   vertex 67.835884094238281 58.491771697998047 2.5
  endloop
 endfacet
 facet normal 0.5585605916962606 -0.82946372157191017 0
  outer loop
   vertex 67.835884094238281 58.491771697998047 2.5
   vertex 67.835884094238281 58.491771697998047 5
   vertex 67.644950866699219 58.363197326660156 5
  endloop
 endfacet
 facet normal 0.99979918290778269 -0.020039806808700999 0
  outer loop
   vertex 67.146903991699219 56.444252014160156 0
   vertex 67.157196044921875 56.957729339599609 0
   vertex 67.146903991699219 56.444252014160156 5
  endloop
 endfacet
 facet normal 0.99979918290778269 -0.020039806808700999 0
  outer loop
   vertex 67.146903991699219 56.444252014160156 5
   vertex 67.157196044921875 56.957729339599609 0
   vertex 67.157196044921875 56.957729339599609 5
  endloop
 endfacet
 facet normal 0.99601215335637761 -0.089217657256799671 0
  outer loop
   vertex 67.157196044921875 56.957729339599609 5
   vertex 67.157196044921875 56.957729339599609 0
   vertex 67.179733276367188 57.209331512451172 0
  endloop
 endfacet
 facet normal 0.99601215335637761 -0.089217657256799671 0
  outer loop
   vertex 67.157196044921875 56.957729339599609 5
   vertex 67.179733276367188 57.209331512451172 0
   vertex 67.179733276367188 57.209331512451172 5
  endloop
 endfacet
 facet normal 0.9847209398591511 -0.1741398018917846 0
  outer loop
   vertex 67.179733276367188 57.209331512451172 5
   vertex 67.179733276367188 57.209331512451172 0
   vertex 67.223136901855469 57.454769134521484 0
  endloop
 endfacet
 facet normal 0.9847209398591511 -0.1741398018917846 0
  outer loop
   vertex 67.179733276367188 57.209331512451172 5
   vertex 67.223136901855469 57.454769134521484 0
   vertex 67.223136901855469 57.454769134521484 5
  endloop
 endfacet
 facet normal 0.96669335337095352 -0.25593741529604608 0
  outer loop
   vertex 67.223136901855469 57.454769134521484 5
   vertex 67.223136901855469 57.454769134521484 0
   vertex 67.254844665527344 57.574531555175781 0
  endloop
 endfacet
 facet normal 0.96669335337095352 -0.25593741529604608 0
  outer loop
   vertex 67.223136901855469 57.454769134521484 5
   vertex 67.254844665527344 57.574531555175781 0
   vertex 67.254844665527344 57.574531555175781 5
  endloop
 endfacet
 facet normal 0.94793264071233108 -0.31847089140476625 0
  outer loop
   vertex 67.254844665527344 57.574531555175781 5
   vertex 67.254844665527344 57.574531555175781 0
   vertex 67.2943115234375 57.692005157470703 0
  endloop
 endfacet
 facet normal 0.94793264071233108 -0.31847089140476625 0
  outer loop
   vertex 67.254844665527344 57.574531555175781 5
   vertex 67.2943115234375 57.692005157470703 0
   vertex 67.2943115234375 57.692005157470703 5
  endloop
 endfacet
 facet normal 0.91596118355484391 -0.40126688153996631 0
  outer loop
   vertex 67.2943115234375 57.692005157470703 5
   vertex 67.2943115234375 57.692005157470703 0
   vertex 67.394485473632812 57.920669555664062 0
  endloop
 endfacet
 facet normal 0.91596118355484391 -0.40126688153996631 0
  outer loop
   vertex 67.2943115234375 57.692005157470703 5
   vertex 67.394485473632812 57.920669555664062 0
   vertex 67.394485473632812 57.920669555664062 5
  endloop
 endfacet
 facet normal 0.88000077561043433 -0.47497224647871161 0
  outer loop
   vertex 67.394485473632812 57.920669555664062 5
   vertex 67.394485473632812 57.920669555664062 0
   vertex 67.51470947265625 58.143413543701172 0
  endloop
 endfacet
 facet normal 0.88000077561043433 -0.47497224647871161 0
  outer loop
   vertex 67.394485473632812 57.920669555664062 5
   vertex 67.51470947265625 58.143413543701172 0
   vertex 67.51470947265625 58.143413543701172 5
  endloop
 endfacet
 facet normal 0.86029298890818617 -0.50979993451884564 0
  outer loop
   vertex 67.51470947265625 58.143413543701172 5
   vertex 67.51470947265625 58.143413543701172 0
   vertex 67.644950866699219 58.363197326660156 0
  endloop
 endfacet
 facet normal 0.86029298890818617 -0.50979993451884564 0
  outer loop
   vertex 67.51470947265625 58.143413543701172 5
   vertex 67.644950866699219 58.363197326660156 0
   vertex 67.644950866699219 58.363197326660156 5
  endloop
 endfacet
 facet normal 1 0 0
  outer loop
   vertex 67.146903991699219 55.008705139160156 0
   vertex 67.146903991699219 56.444252014160156 0
   vertex 67.146903991699219 55.008705139160156 5
  endloop
 endfacet
 facet normal 1 0 -0
  outer loop
   vertex 67.146903991699219 55.008705139160156 5
   vertex 67.146903991699219 56.444252014160156 0
   vertex 67.146903991699219 56.444252014160156 5
  endloop
 endfacet
 facet normal 0 1 0
  outer loop
   vertex 70.179130554199219 55.008705139160156 0
   vertex 67.146903991699219 55.008705139160156 0
   vertex 70.179130554199219 55.008705139160156 5
  endloop
 endfacet
 facet normal 0 1 0
  outer loop
   vertex 70.179130554199219 55.008705139160156 5
   vertex 67.146903991699219 55.008705139160156 0
   vertex 67.146903991699219 55.008705139160156 5
  endloop
 endfacet
 facet normal 1 0 0
  outer loop
   vertex 70.179130554199219 52.957923889160156 0
   vertex 70.179130554199219 55.008705139160156 0
   vertex 70.179130554199219 52.957923889160156 5
  endloop
 endfacet
 facet normal 1 0 -0
  outer loop
   vertex 70.179130554199219 52.957923889160156 5
   vertex 70.179130554199219 55.008705139160156 0
   vertex 70.179130554199219 55.008705139160156 5
  endloop
 endfacet
 facet normal 0 -1 0
  outer loop
   vertex 67.146903991699219 52.957923889160156 0
   vertex 70.179130554199219 52.957923889160156 0
   vertex 67.146903991699219 52.957923889160156 5
  endloop
 endfacet
 facet normal 0 -1 0
  outer loop
   vertex 67.146903991699219 52.957923889160156 5
   vertex 70.179130554199219 52.957923889160156 0
   vertex 70.179130554199219 52.957923889160156 5
  endloop
 endfacet
 facet normal 1 0 0
  outer loop
   vertex 67.146903991699219 39.452064514160156 0
   vertex 67.146903991699219 52.957923889160156 0
   vertex 67.146903991699219 39.452064514160156 5
  endloop
 endfacet
 facet normal 1 0 -0
  outer loop
   vertex 67.146903991699219 39.452064514160156 5
   vertex 67.146903991699219 52.957923889160156 0
   vertex 67.146903991699219 52.957923889160156 5
  endloop
 endfacet
 facet normal 0 -1 0
  outer loop
   vertex 64.524833679199219 39.452064514160156 0
   vertex 67.146903991699219 39.452064514160156 0
   vertex 64.524833679199219 39.452064514160156 5
  endloop
 endfacet
 facet normal 0 -1 0
  outer loop
   vertex 64.524833679199219 39.452064514160156 5
   vertex 67.146903991699219 39.452064514160156 0
   vertex 67.146903991699219 39.452064514160156 5
  endloop
 endfacet
 facet normal 0 0 1
  outer loop
   vertex 64.524833679199219 39.452064514160156 5
   vertex 67.146903991699219 39.452064514160156 5
   vertex 64.524833679199219 52.957923889160156 5
  endloop
 endfacet
 facet normal 0 -0 1
  outer loop
   vertex 64.524833679199219 52.957923889160156 5
   vertex 67.146903991699219 39.452064514160156 5
   vertex 67.146903991699219 52.957923889160156 5
  endloop
 endfacet
 facet normal 0 0 1
  outer loop
   vertex 64.524833679199219 52.957923889160156 5
   vertex 67.146903991699219 52.957923889160156 5
   vertex 64.524833679199219 55.008705139160156 5
  endloop
 endfacet
 facet normal 0 -0 1
  outer loop
   vertex 64.524833679199219 55.008705139160156 5
   vertex 67.146903991699219 52.957923889160156 5
   vertex 67.146903991699219 55.008705139160156 5
  endloop
 endfacet
 facet normal 0 -0 1
  outer loop
   vertex 64.524833679199219 55.008705139160156 5
   vertex 67.146903991699219 55.008705139160156 5
   vertex 67.146903991699219 56.444252014160156 5
  endloop
 endfacet
 facet normal 0 0 1
  outer loop
   vertex 67.146903991699219 52.957923889160156 5
   vertex 70.179130554199219 52.957923889160156 5
   vertex 67.146903991699219 55.008705139160156 5
  endloop
 endfacet
 facet normal 0 -0 1
  outer loop
   vertex 67.146903991699219 55.008705139160156 5
   vertex 70.179130554199219 52.957923889160156 5
   vertex 70.179130554199219 55.008705139160156 5
  endloop
 endfacet
 facet normal 0 0 1
  outer loop
   vertex 64.524833679199219 55.008705139160156 5
   vertex 67.146903991699219 56.444252014160156 5
   vertex 64.524833679199219 56.663978576660156 5
  endloop
 endfacet
 facet normal 0 -0 1
  outer loop
   vertex 64.524833679199219 56.663978576660156 5
   vertex 67.146903991699219 56.444252014160156 5
   vertex 67.157196044921875 56.957729339599609 5
  endloop
 endfacet
 facet normal 0 0 1
  outer loop
   vertex 64.524833679199219 56.663978576660156 5
   vertex 67.157196044921875 56.957729339599609 5
   vertex 64.532341003417969 57.254505157470703 5
  endloop
 endfacet
 facet normal 0 0 1
  outer loop
   vertex 64.532341003417969 57.254505157470703 5
   vertex 67.157196044921875 56.957729339599609 5
   vertex 64.545639038085938 57.548500061035156 5
  endloop
 endfacet
 facet normal 0 0 1
  outer loop
   vertex 64.545639038085938 57.548500061035156 5
   vertex 67.157196044921875 56.957729339599609 5
   vertex 64.570388793945312 57.840972900390625 5
  endloop
 endfacet
 facet normal 0 0 1
  outer loop
   vertex 64.570388793945312 57.840972900390625 5
   vertex 67.157196044921875 56.957729339599609 5
   vertex 64.610343933105469 58.131423950195312 5
  endloop
 endfacet
 facet normal 0 0 1
  outer loop
   vertex 64.610343933105469 58.131423950195312 5
   vertex 67.157196044921875 56.957729339599609 5
   vertex 64.665786743164062 58.419818878173828 5
  endloop
 endfacet
 facet normal 0 0 1
  outer loop
   vertex 64.665786743164062 58.419818878173828 5
   vertex 67.157196044921875 56.957729339599609 5
   vertex 65.044830322265625 59.483688354492188 5
  endloop
 endfacet
 facet normal 0 0 1
  outer loop
   vertex 64.665786743164062 58.419818878173828 5
   vertex 65.044830322265625 59.483688354492188 5
   vertex 64.9207763671875 59.240966796875 5
  endloop
 endfacet
 facet normal 0 0 1
  outer loop
   vertex 67.157196044921875 56.957729339599609 5
   vertex 67.179733276367188 57.209331512451172 5
   vertex 65.044830322265625 59.483688354492188 5
  endloop
 endfacet
 facet normal 0 -0 1
  outer loop
   vertex 65.044830322265625 59.483688354492188 5
   vertex 67.179733276367188 57.209331512451172 5
   vertex 67.223136901855469 57.454769134521484 5
  endloop
 endfacet
 facet normal 0 -0 1
  outer loop
   vertex 65.044830322265625 59.483688354492188 5
   vertex 67.223136901855469 57.454769134521484 5
   vertex 67.254844665527344 57.574531555175781 5
  endloop
 endfacet
 facet normal 0 0 1
  outer loop
   vertex 67.254844665527344 57.574531555175781 5
   vertex 67.2943115234375 57.692005157470703 5
   vertex 65.044830322265625 59.483688354492188 5
  endloop
 endfacet
 facet normal 0 -0 1
  outer loop
   vertex 65.044830322265625 59.483688354492188 5
   vertex 67.2943115234375 57.692005157470703 5
   vertex 67.394485473632812 57.920669555664062 5
  endloop
 endfacet
 facet normal 0 -0 1
  outer loop
   vertex 65.044830322265625 59.483688354492188 5
   vertex 67.394485473632812 57.920669555664062 5
   vertex 67.51470947265625 58.143413543701172 5
  endloop
 endfacet
 facet normal 0 0 1
  outer loop
   vertex 67.51470947265625 58.143413543701172 5
   vertex 67.644950866699219 58.363197326660156 5
   vertex 65.044830322265625 59.483688354492188 5
  endloop
 endfacet
 facet normal 0 -0 1
  outer loop
   vertex 65.044830322265625 59.483688354492188 5
   vertex 67.644950866699219 58.363197326660156 5
   vertex 67.835884094238281 58.491771697998047 5
  endloop
 endfacet
 facet normal 0 0 1
  outer loop
   vertex 65.044830322265625 59.483688354492188 5
   vertex 67.835884094238281 58.491771697998047 5
   vertex 65.181747436523438 59.716087341308594 5
  endloop
 endfacet
 facet normal 0 0 1
  outer loop
   vertex 65.181747436523438 59.716087341308594 5
   vertex 67.835884094238281 58.491771697998047 5
   vertex 65.337974548339844 59.932991027832031 5
  endloop
 endfacet
 facet normal 0 0 1
  outer loop
   vertex 65.337974548339844 59.932991027832031 5
   vertex 67.835884094238281 58.491771697998047 5
   vertex 65.517448425292969 60.131240844726562 5
  endloop
 endfacet
 facet normal 0 -0 1
  outer loop
   vertex 65.517448425292969 60.131240844726562 5
   vertex 67.835884094238281 58.491771697998047 5
   vertex 68.029869079589844 58.611160278320312 5
  endloop
 endfacet
 facet normal 0 -0 1
  outer loop
   vertex 65.517448425292969 60.131240844726562 5
   vertex 68.029869079589844 58.611160278320312 5
   vertex 68.229972839355469 58.712173461914062 5
  endloop
 endfacet
 facet normal 0 0 1
  outer loop
   vertex 68.229972839355469 58.712173461914062 5
   vertex 68.333274841308594 58.752922058105469 5
   vertex 65.517448425292969 60.131240844726562 5
  endloop
 endfacet
 facet normal 0 0 1
  outer loop
   vertex 65.517448425292969 60.131240844726562 5
   vertex 68.333274841308594 58.752922058105469 5
   vertex 65.7156982421875 60.314422607421875 5
  endloop
 endfacet
 facet normal 0 -0 1
  outer loop
   vertex 65.7156982421875 60.314422607421875 5
   vertex 68.333274841308594 58.752922058105469 5
   vertex 68.439094543457031 58.786125183105469 5
  endloop
 endfacet
 facet normal 0 -0 1
  outer loop
   vertex 65.7156982421875 60.314422607421875 5
   vertex 68.439094543457031 58.786125183105469 5
   vertex 68.657325744628906 58.832706451416016 5
  endloop
 endfacet
 facet normal 0 0 1
  outer loop
   vertex 68.657325744628906 58.832706451416016 5
   vertex 68.8824462890625 58.858596801757812 5
   vertex 65.7156982421875 60.314422607421875 5
  endloop
 endfacet
 facet normal 0 0 1
  outer loop
   vertex 65.7156982421875 60.314422607421875 5
   vertex 68.8824462890625 58.858596801757812 5
   vertex 65.926467895507812 60.487560272216797 5
  endloop
 endfacet
 facet normal 0 0 1
  outer loop
   vertex 65.926467895507812 60.487560272216797 5
   vertex 68.8824462890625 58.858596801757812 5
   vertex 66.143486022949219 60.655677795410156 5
  endloop
 endfacet
 facet normal 0 0 1
  outer loop
   vertex 66.143486022949219 60.655677795410156 5
   vertex 68.8824462890625 58.858596801757812 5
   vertex 66.460670471191406 60.809532165527344 5
  endloop
 endfacet
 facet normal 0 0 1
  outer loop
   vertex 66.460670471191406 60.809532165527344 5
   vertex 68.8824462890625 58.858596801757812 5
   vertex 66.78045654296875 60.953125 5
  endloop
 endfacet
 facet normal 0 0 1
  outer loop
   vertex 66.78045654296875 60.953125 5
   vertex 68.8824462890625 58.858596801757812 5
   vertex 67.105445861816406 61.076210021972656 5
  endloop
 endfacet
 facet normal 0 0 1
  outer loop
   vertex 67.105445861816406 61.076210021972656 5
   vertex 68.8824462890625 58.858596801757812 5
   vertex 67.270698547363281 61.126853942871094 5
  endloop
 endfacet
 facet normal 0 0 1
  outer loop
   vertex 67.270698547363281 61.126853942871094 5
   vertex 68.8824462890625 58.858596801757812 5
   vertex 67.43817138671875 61.16876220703125 5
  endloop
 endfacet
 facet normal 0 0 1
  outer loop
   vertex 67.43817138671875 61.16876220703125 5
   vertex 68.8824462890625 58.858596801757812 5
   vertex 67.779151916503906 61.228775024414062 5
  endloop
 endfacet
 facet normal 0 0 1
  outer loop
   vertex 67.779151916503906 61.228775024414062 5
   vertex 68.8824462890625 58.858596801757812 5
   vertex 68.126426696777344 61.263946533203125 5
  endloop
 endfacet
 facet normal 0 0 1
  outer loop
   vertex 68.126426696777344 61.263946533203125 5
   vertex 68.8824462890625 58.858596801757812 5
   vertex 68.4779052734375 61.282554626464844 5
  endloop
 endfacet
 facet normal 0 0 1
  outer loop
   vertex 68.4779052734375 61.282554626464844 5
   vertex 68.8824462890625 58.858596801757812 5
   vertex 68.831474304199219 61.292884826660156 5
  endloop
 endfacet
 facet normal 0 -0 1
  outer loop
   vertex 68.831474304199219 61.292884826660156 5
   vertex 68.8824462890625 58.858596801757812 5
   vertex 69.344169616699219 58.875892639160156 5
  endloop
 endfacet
 facet normal 0 -0 1
  outer loop
   vertex 68.831474304199219 61.292884826660156 5
   vertex 69.344169616699219 58.875892639160156 5
   vertex 69.451026916503906 61.268199920654297 5
  endloop
 endfacet
 facet normal -0 0 1
  outer loop
   vertex 69.451026916503906 61.268199920654297 5
   vertex 69.344169616699219 58.875892639160156 5
   vertex 69.734565734863281 58.863048553466797 5
  endloop
 endfacet
 facet normal 0 -0 1
  outer loop
   vertex 69.451026916503906 61.268199920654297 5
   vertex 69.734565734863281 58.863048553466797 5
   vertex 69.760032653808594 61.248542785644531 5
  endloop
 endfacet
 facet normal 0 0 1
  outer loop
   vertex 69.760032653808594 61.248542785644531 5
   vertex 69.734565734863281 58.863048553466797 5
   vertex 70.068122863769531 61.220115661621094 5
  endloop
 endfacet
 facet normal -0 0 1
  outer loop
   vertex 70.068122863769531 61.220115661621094 5
   vertex 69.734565734863281 58.863048553466797 5
   vertex 70.123725891113281 58.836917877197266 5
  endloop
 endfacet
 facet normal 0 -0 1
  outer loop
   vertex 70.068122863769531 61.220115661621094 5
   vertex 70.123725891113281 58.836917877197266 5
   vertex 70.375160217285156 61.181606292724609 5
  endloop
 endfacet
 facet normal -0 0 1
  outer loop
   vertex 70.375160217285156 61.181606292724609 5
   vertex 70.123725891113281 58.836917877197266 5
   vertex 70.510894775390625 58.789390563964844 5
  endloop
 endfacet
 facet normal 0 -0 1
  outer loop
   vertex 70.375160217285156 61.181606292724609 5
   vertex 70.510894775390625 58.789390563964844 5
   vertex 70.681373596191406 61.135200500488281 5
  endloop
 endfacet
 facet normal -0 0 1
  outer loop
   vertex 70.681373596191406 61.135200500488281 5
   vertex 70.510894775390625 58.789390563964844 5
   vertex 70.896903991699219 58.729408264160156 5
  endloop
 endfacet
 facet normal 0 -0 1
  outer loop
   vertex 70.681373596191406 61.135200500488281 5
   vertex 70.896903991699219 58.729408264160156 5
   vertex 71.292411804199219 61.029212951660156 5
  endloop
 endfacet
 facet normal -0 0 1
  outer loop
   vertex 64.9207763671875 59.240966796875 5
   vertex 64.803153991699219 58.993080139160156 5
   vertex 64.665786743164062 58.419818878173828 5
  endloop
 endfacet
 facet normal -0 0 1
  outer loop
   vertex 64.524833679199219 55.008705139160156 5
   vertex 62.195735931396484 55.008705139160156 5
   vertex 64.524833679199219 52.957923889160156 5
  endloop
 endfacet
 facet normal 0 0 1
  outer loop
   vertex 64.524833679199219 52.957923889160156 5
   vertex 62.195735931396484 55.008705139160156 5
   vertex 62.195735931396484 52.957923889160156 5
  endloop
 endfacet
 facet normal 0 0 -1
  outer loop
   vertex 67.146903991699219 39.452064514160156 0
   vertex 64.524833679199219 39.452064514160156 0
   vertex 67.146903991699219 52.957923889160156 0
  endloop
 endfacet
 facet normal 0 0 -1
  outer loop
   vertex 67.146903991699219 52.957923889160156 0
   vertex 64.524833679199219 39.452064514160156 0
   vertex 64.524833679199219 52.957923889160156 0
  endloop
 endfacet
 facet normal 0 0 -1
  outer loop
   vertex 67.146903991699219 52.957923889160156 0
   vertex 64.524833679199219 52.957923889160156 0
   vertex 67.146903991699219 55.008705139160156 0
  endloop
 endfacet
 facet normal 0 0 -1
  outer loop
   vertex 67.146903991699219 55.008705139160156 0
   vertex 64.524833679199219 52.957923889160156 0
   vertex 64.524833679199219 55.008705139160156 0
  endloop
 endfacet
 facet normal 0 0 -1
  outer loop
   vertex 67.146903991699219 55.008705139160156 0
   vertex 64.524833679199219 55.008705139160156 0
   vertex 67.146903991699219 56.444252014160156 0
  endloop
 endfacet
 facet normal 0 0 -1
  outer loop
   vertex 67.146903991699219 56.444252014160156 0
   vertex 64.524833679199219 55.008705139160156 0
   vertex 64.524833679199219 56.663978576660156 0
  endloop
 endfacet
 facet normal 0 0 -1
  outer loop
   vertex 67.146903991699219 56.444252014160156 0
   vertex 64.524833679199219 56.663978576660156 0
   vertex 67.157196044921875 56.957729339599609 0
  endloop
 endfacet
 facet normal 0 0 -1
  outer loop
   vertex 67.157196044921875 56.957729339599609 0
   vertex 64.524833679199219 56.663978576660156 0
   vertex 64.532341003417969 57.254505157470703 0
  endloop
 endfacet
 facet normal 0 0 -1
  outer loop
   vertex 67.157196044921875 56.957729339599609 0
   vertex 64.532341003417969 57.254505157470703 0
   vertex 64.545639038085938 57.548500061035156 0
  endloop
 endfacet
 facet normal 0 0 -1
  outer loop
   vertex 64.524833679199219 52.957923889160156 0
   vertex 62.195735931396484 52.957923889160156 0
   vertex 64.524833679199219 55.008705139160156 0
  endloop
 endfacet
 facet normal 0 0 -1
  outer loop
   vertex 64.524833679199219 55.008705139160156 0
   vertex 62.195735931396484 52.957923889160156 0
   vertex 62.195735931396484 55.008705139160156 0
  endloop
 endfacet
 facet normal 0 -0 -1
  outer loop
   vertex 64.545639038085938 57.548500061035156 0
   vertex 64.570388793945312 57.840972900390625 0
   vertex 67.157196044921875 56.957729339599609 0
  endloop
 endfacet
 facet normal 0 0 -1
  outer loop
   vertex 67.157196044921875 56.957729339599609 0
   vertex 64.570388793945312 57.840972900390625 0
   vertex 64.610343933105469 58.131423950195312 0
  endloop
 endfacet
 facet normal 0 0 -1
  outer loop
   vertex 67.157196044921875 56.957729339599609 0
   vertex 64.610343933105469 58.131423950195312 0
   vertex 64.665786743164062 58.419818878173828 0
  endloop
 endfacet
 facet normal 0 -0 -1
  outer loop
   vertex 64.665786743164062 58.419818878173828 0
   vertex 64.803153991699219 58.993080139160156 0
   vertex 67.157196044921875 56.957729339599609 0
  endloop
 endfacet
 facet normal 0 0 -1
  outer loop
   vertex 67.157196044921875 56.957729339599609 0
   vertex 64.803153991699219 58.993080139160156 0
   vertex 65.926467895507812 60.487560272216797 0
  endloop
 endfacet
 facet normal 0 0 -1
  outer loop
   vertex 67.157196044921875 56.957729339599609 0
   vertex 65.926467895507812 60.487560272216797 0
   vertex 67.179733276367188 57.209331512451172 0
  endloop
 endfacet
 facet normal 0 0 -1
  outer loop
   vertex 67.179733276367188 57.209331512451172 0
   vertex 65.926467895507812 60.487560272216797 0
   vertex 67.223136901855469 57.454769134521484 0
  endloop
 endfacet
 facet normal 0 0 -1
  outer loop
   vertex 67.223136901855469 57.454769134521484 0
   vertex 65.926467895507812 60.487560272216797 0
   vertex 66.460670471191406 60.809532165527344 0
  endloop
 endfacet
 facet normal 0 0 -1
  outer loop
   vertex 67.223136901855469 57.454769134521484 0
   vertex 66.460670471191406 60.809532165527344 0
   vertex 67.254844665527344 57.574531555175781 0
  endloop
 endfacet
 facet normal 0 0 -1
  outer loop
   vertex 67.254844665527344 57.574531555175781 0
   vertex 66.460670471191406 60.809532165527344 0
   vertex 67.2943115234375 57.692005157470703 0
  endloop
 endfacet
 facet normal 0 0 -1
  outer loop
   vertex 67.2943115234375 57.692005157470703 0
   vertex 66.460670471191406 60.809532165527344 0
   vertex 66.78045654296875 60.953125 0
  endloop
 endfacet
 facet normal 0 0 -1
  outer loop
   vertex 67.2943115234375 57.692005157470703 0
   vertex 66.78045654296875 60.953125 0
   vertex 67.394485473632812 57.920669555664062 0
  endloop
 endfacet
 facet normal 0 0 -1
  outer loop
   vertex 67.394485473632812 57.920669555664062 0
   vertex 66.78045654296875 60.953125 0
   vertex 67.51470947265625 58.143413543701172 0
  endloop
 endfacet
 facet normal 0 0 -1
  outer loop
   vertex 67.51470947265625 58.143413543701172 0
   vertex 66.78045654296875 60.953125 0
   vertex 67.644950866699219 58.363197326660156 0
  endloop
 endfacet
 facet normal 0 0 -1
  outer loop
   vertex 67.644950866699219 58.363197326660156 0
   vertex 66.78045654296875 60.953125 0
   vertex 67.835884094238281 58.491771697998047 0
  endloop
 endfacet
 facet normal 0 0 -1
  outer loop
   vertex 67.835884094238281 58.491771697998047 0
   vertex 66.78045654296875 60.953125 0
   vertex 68.029869079589844 58.611160278320312 0
  endloop
 endfacet
 facet normal 0 0 -1
  outer loop
   vertex 68.029869079589844 58.611160278320312 0
   vertex 66.78045654296875 60.953125 0
   vertex 68.229972839355469 58.712173461914062 0
  endloop
 endfacet
 facet normal 0 0 -1
  outer loop
   vertex 68.229972839355469 58.712173461914062 0
   vertex 66.78045654296875 60.953125 0
   vertex 68.333274841308594 58.752922058105469 0
  endloop
 endfacet
 facet normal 0 0 -1
  outer loop
   vertex 68.333274841308594 58.752922058105469 0
   vertex 66.78045654296875 60.953125 0
   vertex 68.439094543457031 58.786125183105469 0
  endloop
 endfacet
 facet normal 0 0 -1
  outer loop
   vertex 68.439094543457031 58.786125183105469 0
   vertex 66.78045654296875 60.953125 0
   vertex 67.105445861816406 61.076210021972656 0
  endloop
 endfacet
 facet normal 0 0 -1
  outer loop
   vertex 68.439094543457031 58.786125183105469 0
   vertex 67.105445861816406 61.076210021972656 0
   vertex 67.270698547363281 61.126853942871094 0
  endloop
 endfacet
 facet normal 0 0 -1
  outer loop
   vertex 65.926467895507812 60.487560272216797 0
   vertex 64.803153991699219 58.993080139160156 0
   vertex 65.7156982421875 60.314422607421875 0
  endloop
 endfacet
 facet normal 0 0 -1
  outer loop
   vertex 65.7156982421875 60.314422607421875 0
   vertex 64.803153991699219 58.993080139160156 0
   vertex 64.9207763671875 59.240966796875 0
  endloop
 endfacet
 facet normal 0 0 -1
  outer loop
   vertex 65.7156982421875 60.314422607421875 0
   vertex 64.9207763671875 59.240966796875 0
   vertex 65.517448425292969 60.131240844726562 0
  endloop
 endfacet
 facet normal 0 0 -1
  outer loop
   vertex 65.517448425292969 60.131240844726562 0
   vertex 64.9207763671875 59.240966796875 0
   vertex 65.044830322265625 59.483688354492188 0
  endloop
 endfacet
 facet normal 0 0 -1
  outer loop
   vertex 65.517448425292969 60.131240844726562 0
   vertex 65.044830322265625 59.483688354492188 0
   vertex 65.181747436523438 59.716087341308594 0
  endloop
 endfacet
 facet normal 0 -0 -1
  outer loop
   vertex 65.181747436523438 59.716087341308594 0
   vertex 65.337974548339844 59.932991027832031 0
   vertex 65.517448425292969 60.131240844726562 0
  endloop
 endfacet
 facet normal 0 -0 -1
  outer loop
   vertex 65.926467895507812 60.487560272216797 0
   vertex 66.143486022949219 60.655677795410156 0
   vertex 66.460670471191406 60.809532165527344 0
  endloop
 endfacet
 facet normal 0 -0 -1
  outer loop
   vertex 67.270698547363281 61.126853942871094 0
   vertex 67.43817138671875 61.16876220703125 0
   vertex 68.439094543457031 58.786125183105469 0
  endloop
 endfacet
 facet normal 0 0 -1
  outer loop
   vertex 68.439094543457031 58.786125183105469 0
   vertex 67.43817138671875 61.16876220703125 0
   vertex 67.779151916503906 61.228775024414062 0
  endloop
 endfacet
 facet normal 0 0 -1
  outer loop
   vertex 68.439094543457031 58.786125183105469 0
   vertex 67.779151916503906 61.228775024414062 0
   vertex 68.126426696777344 61.263946533203125 0
  endloop
 endfacet
 facet normal 0 0 -1
  outer loop
   vertex 68.126426696777344 61.263946533203125 0
   vertex 68.4779052734375 61.282554626464844 0
   vertex 68.439094543457031 58.786125183105469 0
  endloop
 endfacet
 facet normal 0 -0 -1
  outer loop
   vertex 68.439094543457031 58.786125183105469 0
   vertex 68.4779052734375 61.282554626464844 0
   vertex 68.657325744628906 58.832706451416016 0
  endloop
 endfacet
 facet normal 0 0 -1
  outer loop
   vertex 68.657325744628906 58.832706451416016 0
   vertex 68.4779052734375 61.282554626464844 0
   vertex 68.831474304199219 61.292884826660156 0
  endloop
 endfacet
 facet normal 0 -0 -1
  outer loop
   vertex 68.657325744628906 58.832706451416016 0
   vertex 68.831474304199219 61.292884826660156 0
   vertex 68.8824462890625 58.858596801757812 0
  endloop
 endfacet
 facet normal 0 0 -1
  outer loop
   vertex 68.8824462890625 58.858596801757812 0
   vertex 68.831474304199219 61.292884826660156 0
   vertex 69.344169616699219 58.875892639160156 0
  endloop
 endfacet
 facet normal 0 0 -1
  outer loop
   vertex 69.344169616699219 58.875892639160156 0
   vertex 68.831474304199219 61.292884826660156 0
   vertex 69.451026916503906 61.268199920654297 0
  endloop
 endfacet
 facet normal 0 -0 -1
  outer loop
   vertex 69.344169616699219 58.875892639160156 0
   vertex 69.451026916503906 61.268199920654297 0
   vertex 69.734565734863281 58.863048553466797 0
  endloop
 endfacet
 facet normal 0 0 -1
  outer loop
   vertex 69.734565734863281 58.863048553466797 0
   vertex 69.451026916503906 61.268199920654297 0
   vertex 69.760032653808594 61.248542785644531 0
  endloop
 endfacet
 facet normal 0 -0 -1
  outer loop
   vertex 69.734565734863281 58.863048553466797 0
   vertex 69.760032653808594 61.248542785644531 0
   vertex 70.068122863769531 61.220115661621094 0
  endloop
 endfacet
 facet normal 0 -0 -1
  outer loop
   vertex 69.734565734863281 58.863048553466797 0
   vertex 70.068122863769531 61.220115661621094 0
   vertex 70.123725891113281 58.836917877197266 0
  endloop
 endfacet
 facet normal 0 0 -1
  outer loop
   vertex 70.123725891113281 58.836917877197266 0
   vertex 70.068122863769531 61.220115661621094 0
   vertex 70.375160217285156 61.181606292724609 0
  endloop
 endfacet
 facet normal 0 -0 -1
  outer loop
   vertex 70.123725891113281 58.836917877197266 0
   vertex 70.375160217285156 61.181606292724609 0
   vertex 70.510894775390625 58.789390563964844 0
  endloop
 endfacet
 facet normal 0 0 -1
  outer loop
   vertex 70.510894775390625 58.789390563964844 0
   vertex 70.375160217285156 61.181606292724609 0
   vertex 70.681373596191406 61.135200500488281 0
  endloop
 endfacet
 facet normal 0 -0 -1
  outer loop
   vertex 70.510894775390625 58.789390563964844 0
   vertex 70.681373596191406 61.135200500488281 0
   vertex 70.896903991699219 58.729408264160156 0
  endloop
 endfacet
 facet normal 0 0 -1
  outer loop
   vertex 70.896903991699219 58.729408264160156 0
   vertex 70.681373596191406 61.135200500488281 0
   vertex 71.292411804199219 61.029212951660156 0
  endloop
 endfacet
 facet normal -0 0 -1
  outer loop
   vertex 67.146903991699219 55.008705139160156 0
   vertex 70.179130554199219 55.008705139160156 0
   vertex 67.146903991699219 52.957923889160156 0
  endloop
 endfacet
 facet normal 0 -0 -1
  outer loop
   vertex 67.146903991699219 52.957923889160156 0
   vertex 70.179130554199219 55.008705139160156 0
   vertex 70.179130554199219 52.957923889160156 0
  endloop
 endfacet
endsolid
