solid Visualization Toolkit generated SLA File
 facet normal -1 0 0
  outer loop
   vertex -34.134624481201172 30.019649505615234 0
   vertex -34.134624481201172 8.5450401306152344 0
   vertex -34.134624481201172 30.019649505615234 5
  endloop
 endfacet
 facet normal -1 0 0
  outer loop
   vertex -34.134624481201172 30.019649505615234 5
   vertex -34.134624481201172 8.5450401306152344 0
   vertex -34.134624481201172 8.5450401306152344 5
  endloop
 endfacet
 facet normal 0 1 0
  outer loop
   vertex -31.497905731201172 30.019649505615234 0
   vertex -34.134624481201172 30.019649505615234 0
   vertex -31.497905731201172 30.019649505615234 5
  endloop
 endfacet
 facet normal 0 1 0
  outer loop
   vertex -31.497905731201172 30.019649505615234 5
   vertex -34.134624481201172 30.019649505615234 0
   vertex -34.134624481201172 30.019649505615234 5
  endloop
 endfacet
 facet normal 1 0 0
  outer loop
   vertex -31.497905731201172 22.314571380615234 0
   vertex -31.497905731201172 30.019649505615234 0
   vertex -31.497905731201172 22.314571380615234 5
  endloop
 endfacet
 facet normal 1 0 -0
  outer loop
   vertex -31.497905731201172 22.314571380615234 5
   vertex -31.497905731201172 30.019649505615234 0
   vertex -31.497905731201172 30.019649505615234 5
  endloop
 endfacet
 facet normal -0.10567652277535582 0.99440055939953587 0
  outer loop
   vertex -26.839702606201172 24.453243255615234 0
   vertex -27.511850357055664 24.381813049316406 0
   vertex -26.839702606201172 24.453243255615234 5
  endloop
 endfacet
 facet normal -0.10567652277535582 0.99440055939953587 0
  outer loop
   vertex -26.839702606201172 24.453243255615234 5
   vertex -27.511850357055664 24.381813049316406 0
   vertex -27.511850357055664 24.381813049316406 5
  endloop
 endfacet
 facet normal -0.12983547684286778 0.99153555102829527 0
  outer loop
   vertex -27.511850357055664 24.381813049316406 5
   vertex -27.511850357055664 24.381813049316406 0
   vertex -27.844337463378906 24.338275909423828 0
  endloop
 endfacet
 facet normal -0.12983547684286778 0.99153555102829527 0
  outer loop
   vertex -27.511850357055664 24.381813049316406 5
   vertex -27.844337463378906 24.338275909423828 0
   vertex -27.844337463378906 24.338275909423828 5
  endloop
 endfacet
 facet normal -0.15921133244813621 0.98724452473543201 0
  outer loop
   vertex -27.844337463378906 24.338275909423828 5
   vertex -27.844337463378906 24.338275909423828 0
   vertex -28.172517776489258 24.285350799560547 0
  endloop
 endfacet
 facet normal -0.15921133244813621 0.98724452473543201 0
  outer loop
   vertex -27.844337463378906 24.338275909423828 5
   vertex -28.172517776489258 24.285350799560547 0
   vertex -28.172517776489258 24.285350799560547 5
  endloop
 endfacet
 facet normal -0.19889689793744214 0.98002042019075442 0
  outer loop
   vertex -28.172517776489258 24.285350799560547 5
   vertex -28.172517776489258 24.285350799560547 0
   vertex -28.494955062866211 24.219911575317383 0
  endloop
 endfacet
 facet normal -0.19889689793744214 0.98002042019075442 0
  outer loop
   vertex -28.172517776489258 24.285350799560547 5
   vertex -28.494955062866211 24.219911575317383 0
   vertex -28.494955062866211 24.219911575317383 5
  endloop
 endfacet
 facet normal -0.24908704847866164 0.96848110063139015 0
  outer loop
   vertex -28.494955062866211 24.219911575317383 5
   vertex -28.494955062866211 24.219911575317383 0
   vertex -28.810216903686523 24.138828277587891 0
  endloop
 endfacet
 facet normal -0.24908704847866164 0.96848110063139015 0
  outer loop
   vertex -28.494955062866211 24.219911575317383 5
   vertex -28.810216903686523 24.138828277587891 0
   vertex -28.810216903686523 24.138828277587891 5
  endloop
 endfacet
 facet normal -0.30963218454518454 0.95085640887243161 0
  outer loop
   vertex -28.810216903686523 24.138828277587891 5
   vertex -28.810216903686523 24.138828277587891 0
   vertex -29.116865158081055 24.038972854614258 0
  endloop
 endfacet
 facet normal -0.30963218454518454 0.95085640887243161 0
  outer loop
   vertex -28.810216903686523 24.138828277587891 5
   vertex -29.116865158081055 24.038972854614258 0
   vertex -29.116865158081055 24.038972854614258 5
  endloop
 endfacet
 facet normal -0.37975532331984313 0.92508696586334049 0
  outer loop
   vertex -29.116865158081055 24.038972854614258 5
   vertex -29.116865158081055 24.038972854614258 0
   vertex -29.413467407226562 23.917215347290039 0
  endloop
 endfacet
 facet normal -0.37975532331984313 0.92508696586334049 0
  outer loop
   vertex -29.116865158081055 24.038972854614258 5
   vertex -29.413467407226562 23.917215347290039 0
   vertex -29.413467407226562 23.917215347290039 5
  endloop
 endfacet
 facet normal -0.45446099795603773 0.8907666368565913 0
  outer loop
   vertex -29.413467407226562 23.917215347290039 5
   vertex -29.413467407226562 23.917215347290039 0
   vertex -29.699077606201172 23.771499633789062 0
  endloop
 endfacet
 facet normal -0.45446099795603773 0.8907666368565913 0
  outer loop
   vertex -29.413467407226562 23.917215347290039 5
   vertex -29.699077606201172 23.771499633789062 0
   vertex -29.699077606201172 23.771499633789062 5
  endloop
 endfacet
 facet normal -0.51952138730759401 0.85445744664669698 0
  outer loop
   vertex -29.699077606201172 23.771499633789062 5
   vertex -29.699077606201172 23.771499633789062 0
   vertex -29.974664688110352 23.603939056396484 0
  endloop
 endfacet
 facet normal -0.51952138730759401 0.85445744664669698 0
  outer loop
   vertex -29.699077606201172 23.771499633789062 5
   vertex -29.974664688110352 23.603939056396484 0
   vertex -29.974664688110352 23.603939056396484 5
  endloop
 endfacet
 facet normal -0.57220029062546285 0.82011391123924715 0
  outer loop
   vertex -29.974664688110352 23.603939056396484 5
   vertex -29.974664688110352 23.603939056396484 0
   vertex -30.241662979125977 23.417652130126953 0
  endloop
 endfacet
 facet normal -0.57220029062546285 0.82011391123924715 0
  outer loop
   vertex -29.974664688110352 23.603939056396484 5
   vertex -30.241662979125977 23.417652130126953 0
   vertex -30.241662979125977 23.417652130126953 5
  endloop
 endfacet
 facet normal -0.61355168434199558 0.7896545641235162 0
  outer loop
   vertex -30.241662979125977 23.417652130126953 5
   vertex -30.241662979125977 23.417652130126953 0
   vertex -30.501501083374023 23.215761184692383 0
  endloop
 endfacet
 facet normal -0.61355168434199558 0.7896545641235162 0
  outer loop
   vertex -30.241662979125977 23.417652130126953 5
   vertex -30.501501083374023 23.215761184692383 0
   vertex -30.501501083374023 23.215761184692383 5
  endloop
 endfacet
 facet normal -0.64481354693962301 0.76433990454714751 0
  outer loop
   vertex -30.501501083374023 23.215761184692383 5
   vertex -30.501501083374023 23.215761184692383 0
   vertex -30.755613327026367 23.001386642456055 0
  endloop
 endfacet
 facet normal -0.64481354693962301 0.76433990454714751 0
  outer loop
   vertex -30.501501083374023 23.215761184692383 5
   vertex -30.755613327026367 23.001386642456055 0
   vertex -30.755613327026367 23.001386642456055 5
  endloop
 endfacet
 facet normal -0.66715470965960144 0.74491918580407968 0
  outer loop
   vertex -30.755613327026367 23.001386642456055 5
   vertex -30.755613327026367 23.001386642456055 0
   vertex -31.005430221557617 22.77764892578125 0
  endloop
 endfacet
 facet normal -0.66715470965960144 0.74491918580407968 0
  outer loop
   vertex -30.755613327026367 23.001386642456055 5
   vertex -31.005430221557617 22.77764892578125 0
   vertex -31.005430221557617 22.77764892578125 5
  endloop
 endfacet
 facet normal -0.68502824760595526 0.7285165063208342 0
  outer loop
   vertex -31.005430221557617 22.77764892578125 5
   vertex -31.005430221557617 22.77764892578125 0
   vertex -31.497905731201172 22.314571380615234 0
  endloop
 endfacet
 facet normal -0.68502824760595526 0.7285165063208342 0
  outer loop
   vertex -31.005430221557617 22.77764892578125 5
   vertex -31.497905731201172 22.314571380615234 0
   vertex -31.497905731201172 22.314571380615234 5
  endloop
 endfacet
 facet normal 0.39554629851496226 0.9184460385515919 0
  outer loop
   vertex -23.836772918701172 23.772090911865234 0
   vertex -24.195940017700195 23.926773071289062 0
   vertex -23.836772918701172 23.772090911865234 5
  endloop
 endfacet
 facet normal 0.39554629851496226 0.9184460385515919 -0
  outer loop
   vertex -23.836772918701172 23.772090911865234 5
   vertex -24.195940017700195 23.926773071289062 0
   vertex -24.195940017700195 23.926773071289062 5
  endloop
 endfacet
 facet normal 0.37356876790541754 0.92760248794708844 -0
  outer loop
   vertex -24.195940017700195 23.926773071289062 5
   vertex -24.195940017700195 23.926773071289062 0
   vertex -24.557243347167969 24.07227897644043 0
  endloop
 endfacet
 facet normal 0.37356876790541754 0.92760248794708844 -0
  outer loop
   vertex -24.195940017700195 23.926773071289062 5
   vertex -24.557243347167969 24.07227897644043 0
   vertex -24.557243347167969 24.07227897644043 5
  endloop
 endfacet
 facet normal 0.32851412660425572 0.94449905697223602 -0
  outer loop
   vertex -24.557243347167969 24.07227897644043 5
   vertex -24.557243347167969 24.07227897644043 0
   vertex -24.922822952270508 24.199434280395508 0
  endloop
 endfacet
 facet normal 0.32851412660425572 0.94449905697223602 -0
  outer loop
   vertex -24.557243347167969 24.07227897644043 5
   vertex -24.922822952270508 24.199434280395508 0
   vertex -24.922822952270508 24.199434280395508 5
  endloop
 endfacet
 facet normal 0.27928624192064677 0.96020789159110853 -0
  outer loop
   vertex -24.922822952270508 24.199434280395508 5
   vertex -24.922822952270508 24.199434280395508 0
   vertex -25.107885360717773 24.253261566162109 0
  endloop
 endfacet
 facet normal 0.27928624192064677 0.96020789159110853 -0
  outer loop
   vertex -24.922822952270508 24.199434280395508 5
   vertex -25.107885360717773 24.253261566162109 0
   vertex -25.107885360717773 24.253261566162109 5
  endloop
 endfacet
 facet normal 0.23806754759045998 0.97124859988792978 -0
  outer loop
   vertex -25.107885360717773 24.253261566162109 5
   vertex -25.107885360717773 24.253261566162109 0
   vertex -25.294811248779297 24.299079895019531 0
  endloop
 endfacet
 facet normal 0.23806754759045998 0.97124859988792978 -0
  outer loop
   vertex -25.107885360717773 24.253261566162109 5
   vertex -25.294811248779297 24.299079895019531 0
   vertex -25.294811248779297 24.299079895019531 5
  endloop
 endfacet
 facet normal 0.17588449929297292 0.98441081003230568 -0
  outer loop
   vertex -25.294811248779297 24.299079895019531 5
   vertex -25.294811248779297 24.299079895019531 0
   vertex -25.674221038818359 24.36686897277832 0
  endloop
 endfacet
 facet normal 0.17588449929297292 0.98441081003230568 -0
  outer loop
   vertex -25.294811248779297 24.299079895019531 5
   vertex -25.674221038818359 24.36686897277832 0
   vertex -25.674221038818359 24.36686897277832 5
  endloop
 endfacet
 facet normal 0.11021116751643431 0.9939081942285537 -0
  outer loop
   vertex -25.674221038818359 24.36686897277832 5
   vertex -25.674221038818359 24.36686897277832 0
   vertex -26.059469223022461 24.409587860107422 0
  endloop
 endfacet
 facet normal 0.11021116751643431 0.9939081942285537 -0
  outer loop
   vertex -25.674221038818359 24.36686897277832 5
   vertex -26.059469223022461 24.409587860107422 0
   vertex -26.059469223022461 24.409587860107422 5
  endloop
 endfacet
 facet normal 0.066681954139529501 0.99777428158483505 -0
  outer loop
   vertex -26.059469223022461 24.409587860107422 5
   vertex -26.059469223022461 24.409587860107422 0
   vertex -26.448612213134766 24.43559455871582 0
  endloop
 endfacet
 facet normal 0.066681954139529501 0.99777428158483505 -0
  outer loop
   vertex -26.059469223022461 24.409587860107422 5
   vertex -26.448612213134766 24.43559455871582 0
   vertex -26.448612213134766 24.43559455871582 5
  endloop
 endfacet
 facet normal 0.045081020607132698 0.99898333398561734 -0
  outer loop
   vertex -26.448612213134766 24.43559455871582 5
   vertex -26.448612213134766 24.43559455871582 0
   vertex -26.839702606201172 24.453243255615234 0
  endloop
 endfacet
 facet normal 0.045081020607132698 0.99898333398561734 -0
  outer loop
   vertex -26.448612213134766 24.43559455871582 5
   vertex -26.839702606201172 24.453243255615234 0
   vertex -26.839702606201172 24.453243255615234 5
  endloop
 endfacet
 facet normal 0.86534420290740577 0.50117802275693069 0
  outer loop
   vertex -22.013042449951172 21.889766693115234 0
   vertex -22.182100296020508 22.181665420532227 0
   vertex -22.013042449951172 21.889766693115234 5
  endloop
 endfacet
 facet normal 0.86534420290740577 0.50117802275693069 -0
  outer loop
   vertex -22.013042449951172 21.889766693115234 5
   vertex -22.182100296020508 22.181665420532227 0
   vertex -22.182100296020508 22.181665420532227 5
  endloop
 endfacet
 facet normal 0.84951916837730834 0.52755775281908857 -0
  outer loop
   vertex -22.182100296020508 22.181665420532227 5
   vertex -22.182100296020508 22.181665420532227 0
   vertex -22.358806610107422 22.466213226318359 0
  endloop
 endfacet
 facet normal 0.84951916837730834 0.52755775281908857 -0
  outer loop
   vertex -22.182100296020508 22.181665420532227 5
   vertex -22.358806610107422 22.466213226318359 0
   vertex -22.358806610107422 22.466213226318359 5
  endloop
 endfacet
 facet normal 0.81479560203218671 0.57974833066513121 -0
  outer loop
   vertex -22.358806610107422 22.466213226318359 5
   vertex -22.358806610107422 22.466213226318359 0
   vertex -22.550811767578125 22.736063003540039 0
  endloop
 endfacet
 facet normal 0.81479560203218671 0.57974833066513121 -0
  outer loop
   vertex -22.358806610107422 22.466213226318359 5
   vertex -22.550811767578125 22.736063003540039 0
   vertex -22.550811767578125 22.736063003540039 5
  endloop
 endfacet
 facet normal 0.77358583914244849 0.63369152549033969 -0
  outer loop
   vertex -22.550811767578125 22.736063003540039 5
   vertex -22.550811767578125 22.736063003540039 0
   vertex -22.654939651489258 22.863178253173828 0
  endloop
 endfacet
 facet normal 0.77358583914244849 0.63369152549033969 -0
  outer loop
   vertex -22.550811767578125 22.736063003540039 5
   vertex -22.654939651489258 22.863178253173828 0
   vertex -22.654939651489258 22.863178253173828 5
  endloop
 endfacet
 facet normal 0.73658610526786117 0.6763437805778385 -0
  outer loop
   vertex -22.654939651489258 22.863178253173828 5
   vertex -22.654939651489258 22.863178253173828 0
   vertex -22.765756607055664 22.983865737915039 0
  endloop
 endfacet
 facet normal 0.73658610526786117 0.6763437805778385 -0
  outer loop
   vertex -22.654939651489258 22.863178253173828 5
   vertex -22.765756607055664 22.983865737915039 0
   vertex -22.765756607055664 22.983865737915039 5
  endloop
 endfacet
 facet normal 0.6944935869985529 0.7194988934097698 -0
  outer loop
   vertex -22.765756607055664 22.983865737915039 5
   vertex -22.765756607055664 22.983865737915039 0
   vertex -22.883697509765625 23.097707748413086 0
  endloop
 endfacet
 facet normal 0.6944935869985529 0.7194988934097698 -0
  outer loop
   vertex -22.765756607055664 22.983865737915039 5
   vertex -22.883697509765625 23.097707748413086 0
   vertex -22.883697509765625 23.097707748413086 5
  endloop
 endfacet
 facet normal 0.65485283957891771 0.75575641478946654 -0
  outer loop
   vertex -22.883697509765625 23.097707748413086 5
   vertex -22.883697509765625 23.097707748413086 0
   vertex -23.008012771606445 23.205425262451172 0
  endloop
 endfacet
 facet normal 0.65485283957891771 0.75575641478946654 -0
  outer loop
   vertex -22.883697509765625 23.097707748413086 5
   vertex -23.008012771606445 23.205425262451172 0
   vertex -23.008012771606445 23.205425262451172 5
  endloop
 endfacet
 facet normal 0.60476166649439167 0.79640650847348449 -0
  outer loop
   vertex -23.008012771606445 23.205425262451172 5
   vertex -23.008012771606445 23.205425262451172 0
   vertex -23.272123336791992 23.405981063842773 0
  endloop
 endfacet
 facet normal 0.60476166649439167 0.79640650847348449 -0
  outer loop
   vertex -23.008012771606445 23.205425262451172 5
   vertex -23.272123336791992 23.405981063842773 0
   vertex -23.272123336791992 23.405981063842773 5
  endloop
 endfacet
 facet normal 0.55628336317306759 0.83099267136170407 -0
  outer loop
   vertex -23.272123336791992 23.405981063842773 5
   vertex -23.272123336791992 23.405981063842773 0
   vertex -23.550806045532227 23.592536926269531 0
  endloop
 endfacet
 facet normal 0.55628336317306759 0.83099267136170407 -0
  outer loop
   vertex -23.272123336791992 23.405981063842773 5
   vertex -23.550806045532227 23.592536926269531 0
   vertex -23.550806045532227 23.592536926269531 5
  endloop
 endfacet
 facet normal 0.53175409406022123 0.8468988035475038 -0
  outer loop
   vertex -23.550806045532227 23.592536926269531 5
   vertex -23.550806045532227 23.592536926269531 0
   vertex -23.836772918701172 23.772090911865234 0
  endloop
 endfacet
 facet normal 0.53175409406022123 0.8468988035475038 -0
  outer loop
   vertex -23.550806045532227 23.592536926269531 5
   vertex -23.836772918701172 23.772090911865234 0
   vertex -23.836772918701172 23.772090911865234 5
  endloop
 endfacet
 facet normal 0.99976599036604286 0.021632487314346738 0
  outer loop
   vertex -21.463726043701172 18.403438568115234 0
   vertex -21.483024597167969 19.295339584350586 0
   vertex -21.463726043701172 18.403438568115234 5
  endloop
 endfacet
 facet normal 0.99976599036604286 0.021632487314346738 -0
  outer loop
   vertex -21.463726043701172 18.403438568115234 5
   vertex -21.483024597167969 19.295339584350586 0
   vertex -21.483024597167969 19.295339584350586 5
  endloop
 endfacet
 facet normal 0.99799978422919555 0.063217328941352693 -0
  outer loop
   vertex -21.483024597167969 19.295339584350586 5
   vertex -21.483024597167969 19.295339584350586 0
   vertex -21.511072158813477 19.738121032714844 0
  endloop
 endfacet
 facet normal 0.99799978422919555 0.063217328941352693 -0
  outer loop
   vertex -21.483024597167969 19.295339584350586 5
   vertex -21.511072158813477 19.738121032714844 0
   vertex -21.511072158813477 19.738121032714844 5
  endloop
 endfacet
 facet normal 0.99354402163879918 0.11344724353549207 -0
  outer loop
   vertex -21.511072158813477 19.738121032714844 5
   vertex -21.511072158813477 19.738121032714844 0
   vertex -21.561197280883789 20.177104949951172 0
  endloop
 endfacet
 facet normal 0.99354402163879918 0.11344724353549207 -0
  outer loop
   vertex -21.511072158813477 19.738121032714844 5
   vertex -21.561197280883789 20.177104949951172 0
   vertex -21.561197280883789 20.177104949951172 5
  endloop
 endfacet
 facet normal 0.98685851643112232 0.16158672144506228 -0
  outer loop
   vertex -21.561197280883789 20.177104949951172 5
   vertex -21.561197280883789 20.177104949951172 0
   vertex -21.596837997436523 20.394773483276367 0
  endloop
 endfacet
 facet normal 0.98685851643112232 0.16158672144506228 -0
  outer loop
   vertex -21.561197280883789 20.177104949951172 5
   vertex -21.596837997436523 20.394773483276367 0
   vertex -21.596837997436523 20.394773483276367 5
  endloop
 endfacet
 facet normal 0.98022433071369097 0.19788951836036375 -0
  outer loop
   vertex -21.596837997436523 20.394773483276367 5
   vertex -21.596837997436523 20.394773483276367 0
   vertex -21.6405029296875 20.611063003540039 0
  endloop
 endfacet
 facet normal 0.98022433071369097 0.19788951836036375 -0
  outer loop
   vertex -21.596837997436523 20.394773483276367 5
   vertex -21.6405029296875 20.611063003540039 0
   vertex -21.6405029296875 20.611063003540039 5
  endloop
 endfacet
 facet normal 0.96975477079018269 0.24408130721069213 -0
  outer loop
   vertex -21.6405029296875 20.611063003540039 5
   vertex -21.6405029296875 20.611063003540039 0
   vertex -21.748485565185547 21.04008674621582 0
  endloop
 endfacet
 facet normal 0.96975477079018269 0.24408130721069213 -0
  outer loop
   vertex -21.6405029296875 20.611063003540039 5
   vertex -21.748485565185547 21.04008674621582 0
   vertex -21.748485565185547 21.04008674621582 5
  endloop
 endfacet
 facet normal 0.95800225802140326 0.28676065564489989 -0
  outer loop
   vertex -21.748485565185547 21.04008674621582 5
   vertex -21.748485565185547 21.04008674621582 0
   vertex -21.875904083251953 21.465763092041016 0
  endloop
 endfacet
 facet normal 0.95800225802140326 0.28676065564489989 -0
  outer loop
   vertex -21.748485565185547 21.04008674621582 5
   vertex -21.875904083251953 21.465763092041016 0
   vertex -21.875904083251953 21.465763092041016 5
  endloop
 endfacet
 facet normal 0.95147032328538694 0.30774051391911528 -0
  outer loop
   vertex -21.875904083251953 21.465763092041016 5
   vertex -21.875904083251953 21.465763092041016 0
   vertex -22.013042449951172 21.889766693115234 0
  endloop
 endfacet
 facet normal 0.95147032328538694 0.30774051391911528 -0
  outer loop
   vertex -21.875904083251953 21.465763092041016 5
   vertex -22.013042449951172 21.889766693115234 0
   vertex -22.013042449951172 21.889766693115234 5
  endloop
 endfacet
 facet normal 1 0 0
  outer loop
   vertex -21.463726043701172 8.5450401306152344 0
   vertex -21.463726043701172 18.403438568115234 0
   vertex -21.463726043701172 8.5450401306152344 5
  endloop
 endfacet
 facet normal 1 0 -0
  outer loop
   vertex -21.463726043701172 8.5450401306152344 5
   vertex -21.463726043701172 18.403438568115234 0
   vertex -21.463726043701172 18.403438568115234 5
  endloop
 endfacet
 facet normal 0 -1 0
  outer loop
   vertex -24.100444793701172 8.5450401306152344 0
   vertex -21.463726043701172 8.5450401306152344 0
   vertex -24.100444793701172 8.5450401306152344 5
  endloop
 endfacet
 facet normal 0 -1 0
  outer loop
   vertex -24.100444793701172 8.5450401306152344 5
   vertex -21.463726043701172 8.5450401306152344 0
   vertex -21.463726043701172 8.5450401306152344 5
  endloop
 endfacet
 facet normal -1 0 0
  outer loop
   vertex -24.100444793701172 18.403438568115234 0
   vertex -24.100444793701172 8.5450401306152344 0
   vertex -24.100444793701172 18.403438568115234 5
  endloop
 endfacet
 facet normal -1 0 0
  outer loop
   vertex -24.100444793701172 18.403438568115234 5
   vertex -24.100444793701172 8.5450401306152344 0
   vertex -24.100444793701172 8.5450401306152344 5
  endloop
 endfacet
 facet normal -0.83916410692974197 -0.54387829671794075 0
  outer loop
   vertex -24.957378387451172 21.281856536865234 0
   vertex -24.746076583862305 20.955833435058594 0
   vertex -24.957378387451172 21.281856536865234 5
  endloop
 endfacet
 facet normal -0.83916410692974197 -0.54387829671794075 0
  outer loop
   vertex -24.957378387451172 21.281856536865234 5
   vertex -24.746076583862305 20.955833435058594 0
   vertex -24.746076583862305 20.955833435058594 5
  endloop
 endfacet
 facet normal -0.85955330619619807 -0.5110460975364014 0
  outer loop
   vertex -24.746076583862305 20.955833435058594 5
   vertex -24.746076583862305 20.955833435058594 0
   vertex -24.549417495727539 20.625062942504883 0
  endloop
 endfacet
 facet normal -0.85955330619619807 -0.5110460975364014 0
  outer loop
   vertex -24.746076583862305 20.955833435058594 5
   vertex -24.549417495727539 20.625062942504883 0
   vertex -24.549417495727539 20.625062942504883 5
  endloop
 endfacet
 facet normal -0.88599524425106069 -0.46369432513726472 0
  outer loop
   vertex -24.549417495727539 20.625062942504883 5
   vertex -24.549417495727539 20.625062942504883 0
   vertex -24.461153030395508 20.456413269042969 0
  endloop
 endfacet
 facet normal -0.88599524425106069 -0.46369432513726472 0
  outer loop
   vertex -24.549417495727539 20.625062942504883 5
   vertex -24.461153030395508 20.456413269042969 0
   vertex -24.461153030395508 20.456413269042969 5
  endloop
 endfacet
 facet normal -0.90814894586974659 -0.4186472167776446 0
  outer loop
   vertex -24.461153030395508 20.456413269042969 5
   vertex -24.461153030395508 20.456413269042969 0
   vertex -24.382040023803711 20.284797668457031 0
  endloop
 endfacet
 facet normal -0.90814894586974659 -0.4186472167776446 0
  outer loop
   vertex -24.461153030395508 20.456413269042969 5
   vertex -24.382040023803711 20.284797668457031 0
   vertex -24.382040023803711 20.284797668457031 5
  endloop
 endfacet
 facet normal -0.93199343518967104 -0.36247515330482505 0
  outer loop
   vertex -24.382040023803711 20.284797668457031 5
   vertex -24.382040023803711 20.284797668457031 0
   vertex -24.313909530639648 20.109621047973633 0
  endloop
 endfacet
 facet normal -0.93199343518967104 -0.36247515330482505 0
  outer loop
   vertex -24.382040023803711 20.284797668457031 5
   vertex -24.313909530639648 20.109621047973633 0
   vertex -24.313909530639648 20.109621047973633 5
  endloop
 endfacet
 facet normal -0.95463194877272695 -0.29778825091394334 0
  outer loop
   vertex -24.313909530639648 20.109621047973633 5
   vertex -24.313909530639648 20.109621047973633 0
   vertex -24.258026123046875 19.930473327636719 0
  endloop
 endfacet
 facet normal -0.95463194877272695 -0.29778825091394334 0
  outer loop
   vertex -24.313909530639648 20.109621047973633 5
   vertex -24.258026123046875 19.930473327636719 0
   vertex -24.258026123046875 19.930473327636719 5
  endloop
 endfacet
 facet normal -0.97159501718011254 -0.23664978890921701 0
  outer loop
   vertex -24.258026123046875 19.930473327636719 5
   vertex -24.258026123046875 19.930473327636719 0
   vertex -24.213495254516602 19.747646331787109 0
  endloop
 endfacet
 facet normal -0.97159501718011254 -0.23664978890921701 0
  outer loop
   vertex -24.258026123046875 19.930473327636719 5
   vertex -24.213495254516602 19.747646331787109 0
   vertex -24.213495254516602 19.747646331787109 5
  endloop
 endfacet
 facet normal -0.98314551498672242 -0.18282476955131743 0
  outer loop
   vertex -24.213495254516602 19.747646331787109 5
   vertex -24.213495254516602 19.747646331787109 0
   vertex -24.178897857666016 19.56159782409668 0
  endloop
 endfacet
 facet normal -0.98314551498672242 -0.18282476955131743 0
  outer loop
   vertex -24.213495254516602 19.747646331787109 5
   vertex -24.178897857666016 19.56159782409668 0
   vertex -24.178897857666016 19.56159782409668 5
  endloop
 endfacet
 facet normal -0.99303661022560896 -0.11780615752850909 0
  outer loop
   vertex -24.178897857666016 19.56159782409668 5
   vertex -24.178897857666016 19.56159782409668 0
   vertex -24.133827209472656 19.181678771972656 0
  endloop
 endfacet
 facet normal -0.99303661022560896 -0.11780615752850909 0
  outer loop
   vertex -24.178897857666016 19.56159782409668 5
   vertex -24.133827209472656 19.181678771972656 0
   vertex -24.133827209472656 19.181678771972656 5
  endloop
 endfacet
 facet normal -0.99833631870603179 -0.057659298924704915 0
  outer loop
   vertex -24.133827209472656 19.181678771972656 5
   vertex -24.133827209472656 19.181678771972656 0
   vertex -24.111459732055664 18.794399261474609 0
  endloop
 endfacet
 facet normal -0.99833631870603179 -0.057659298924704915 0
  outer loop
   vertex -24.133827209472656 19.181678771972656 5
   vertex -24.111459732055664 18.794399261474609 0
   vertex -24.111459732055664 18.794399261474609 5
  endloop
 endfacet
 facet normal -0.999603348137032 -0.028162854848818204 0
  outer loop
   vertex -24.111459732055664 18.794399261474609 5
   vertex -24.111459732055664 18.794399261474609 0
   vertex -24.100444793701172 18.403438568115234 0
  endloop
 endfacet
 facet normal -0.999603348137032 -0.028162854848818204 0
  outer loop
   vertex -24.111459732055664 18.794399261474609 5
   vertex -24.100444793701172 18.403438568115234 0
   vertex -24.100444793701172 18.403438568115234 5
  endloop
 endfacet
 facet normal -0.061001705267101816 -0.99813766182551478 0
  outer loop
   vertex -27.381694793701172 22.182735443115234 0
   vertex -27.043046951293945 22.162038803100586 0
   vertex -27.381694793701172 22.182735443115234 5
  endloop
 endfacet
 facet normal -0.061001705267101816 -0.99813766182551478 0
  outer loop
   vertex -27.381694793701172 22.182735443115234 5
   vertex -27.043046951293945 22.162038803100586 0
   vertex -27.043046951293945 22.162038803100586 5
  endloop
 endfacet
 facet normal -0.09513099840877233 -0.99546476238074344 0
  outer loop
   vertex -27.043046951293945 22.162038803100586 5
   vertex -27.043046951293945 22.162038803100586 0
   vertex -26.708757400512695 22.130092620849609 0
  endloop
 endfacet
 facet normal -0.09513099840877233 -0.99546476238074344 0
  outer loop
   vertex -27.043046951293945 22.162038803100586 5
   vertex -26.708757400512695 22.130092620849609 0
   vertex -26.708757400512695 22.130092620849609 5
  endloop
 endfacet
 facet normal -0.16494429867042251 -0.98630288367018493 0
  outer loop
   vertex -26.708757400512695 22.130092620849609 5
   vertex -26.708757400512695 22.130092620849609 0
   vertex -26.383184432983398 22.075645446777344 0
  endloop
 endfacet
 facet normal -0.16494429867042251 -0.98630288367018493 0
  outer loop
   vertex -26.708757400512695 22.130092620849609 5
   vertex -26.383184432983398 22.075645446777344 0
   vertex -26.383184432983398 22.075645446777344 5
  endloop
 endfacet
 facet normal -0.24045824143668718 -0.9706594841267332 0
  outer loop
   vertex -26.383184432983398 22.075645446777344 5
   vertex -26.383184432983398 22.075645446777344 0
   vertex -26.225030899047852 22.036466598510742 0
  endloop
 endfacet
 facet normal -0.24045824143668718 -0.9706594841267332 0
  outer loop
   vertex -26.383184432983398 22.075645446777344 5
   vertex -26.225030899047852 22.036466598510742 0
   vertex -26.225030899047852 22.036466598510742 5
  endloop
 endfacet
 facet normal -0.30272281255478617 -0.95307864248388219 0
  outer loop
   vertex -26.225030899047852 22.036466598510742 5
   vertex -26.225030899047852 22.036466598510742 0
   vertex -26.070690155029297 21.987443923950195 0
  endloop
 endfacet
 facet normal -0.30272281255478617 -0.95307864248388219 0
  outer loop
   vertex -26.225030899047852 22.036466598510742 5
   vertex -26.070690155029297 21.987443923950195 0
   vertex -26.070690155029297 21.987443923950195 5
  endloop
 endfacet
 facet normal -0.37254596363757597 -0.92801374180415552 0
  outer loop
   vertex -26.070690155029297 21.987443923950195 5
   vertex -26.070690155029297 21.987443923950195 0
   vertex -25.920684814453125 21.927225112915039 0
  endloop
 endfacet
 facet normal -0.37254596363757597 -0.92801374180415552 0
  outer loop
   vertex -26.070690155029297 21.987443923950195 5
   vertex -25.920684814453125 21.927225112915039 0
   vertex -25.920684814453125 21.927225112915039 5
  endloop
 endfacet
 facet normal -0.43990441109429979 -0.89804460306812006 0
  outer loop
   vertex -25.920684814453125 21.927225112915039 5
   vertex -25.920684814453125 21.927225112915039 0
   vertex -25.774999618530273 21.855861663818359 0
  endloop
 endfacet
 facet normal -0.43990441109429979 -0.89804460306812006 0
  outer loop
   vertex -25.920684814453125 21.927225112915039 5
   vertex -25.774999618530273 21.855861663818359 0
   vertex -25.774999618530273 21.855861663818359 5
  endloop
 endfacet
 facet normal -0.49548524650507153 -0.86861635403428172 0
  outer loop
   vertex -25.774999618530273 21.855861663818359 5
   vertex -25.774999618530273 21.855861663818359 0
   vertex -25.633039474487305 21.774883270263672 0
  endloop
 endfacet
 facet normal -0.49548524650507153 -0.86861635403428172 0
  outer loop
   vertex -25.774999618530273 21.855861663818359 5
   vertex -25.633039474487305 21.774883270263672 0
   vertex -25.633039474487305 21.774883270263672 5
  endloop
 endfacet
 facet normal -0.53958162278644306 -0.84193329447833853 0
  outer loop
   vertex -25.633039474487305 21.774883270263672 5
   vertex -25.633039474487305 21.774883270263672 0
   vertex -25.494182586669922 21.685892105102539 0
  endloop
 endfacet
 facet normal -0.53958162278644306 -0.84193329447833853 0
  outer loop
   vertex -25.633039474487305 21.774883270263672 5
   vertex -25.494182586669922 21.685892105102539 0
   vertex -25.494182586669922 21.685892105102539 5
  endloop
 endfacet
 facet normal -0.58542885933424216 -0.81072378197423567 0
  outer loop
   vertex -25.494182586669922 21.685892105102539 5
   vertex -25.494182586669922 21.685892105102539 0
   vertex -25.223297119140625 21.490283966064453 0
  endloop
 endfacet
 facet normal -0.58542885933424216 -0.81072378197423567 0
  outer loop
   vertex -25.494182586669922 21.685892105102539 5
   vertex -25.223297119140625 21.490283966064453 0
   vertex -25.223297119140625 21.490283966064453 5
  endloop
 endfacet
 facet normal -0.61689016937951013 -0.78704924809246812 0
  outer loop
   vertex -25.223297119140625 21.490283966064453 5
   vertex -25.223297119140625 21.490283966064453 0
   vertex -24.957378387451172 21.281856536865234 0
  endloop
 endfacet
 facet normal -0.61689016937951013 -0.78704924809246812 0
  outer loop
   vertex -25.223297119140625 21.490283966064453 5
   vertex -24.957378387451172 21.281856536865234 0
   vertex -24.957378387451172 21.281856536865234 5
  endloop
 endfacet
 facet normal 0.4384771847247671 -0.89874232039881286 0
  outer loop
   vertex -29.586284637451172 21.574825286865234 0
   vertex -29.063474655151367 21.829893112182617 0
   vertex -29.586284637451172 21.574825286865234 5
  endloop
 endfacet
 facet normal 0.4384771847247671 -0.89874232039881286 0
  outer loop
   vertex -29.586284637451172 21.574825286865234 5
   vertex -29.063474655151367 21.829893112182617 0
   vertex -29.063474655151367 21.829893112182617 5
  endloop
 endfacet
 facet normal 0.38199365190524742 -0.92416494734657217 0
  outer loop
   vertex -29.063474655151367 21.829893112182617 5
   vertex -29.063474655151367 21.829893112182617 0
   vertex -28.797260284423828 21.939929962158203 0
  endloop
 endfacet
 facet normal 0.38199365190524742 -0.92416494734657217 0
  outer loop
   vertex -29.063474655151367 21.829893112182617 5
   vertex -28.797260284423828 21.939929962158203 0
   vertex -28.797260284423828 21.939929962158203 5
  endloop
 endfacet
 facet normal 0.31112475999843286 -0.95036907763032641 0
  outer loop
   vertex -28.797260284423828 21.939929962158203 5
   vertex -28.797260284423828 21.939929962158203 0
   vertex -28.525274276733398 22.028970718383789 0
  endloop
 endfacet
 facet normal 0.31112475999843286 -0.95036907763032641 0
  outer loop
   vertex -28.797260284423828 21.939929962158203 5
   vertex -28.525274276733398 22.028970718383789 0
   vertex -28.525274276733398 22.028970718383789 5
  endloop
 endfacet
 facet normal 0.22095353600703654 -0.97528433542530935 0
  outer loop
   vertex -28.525274276733398 22.028970718383789 5
   vertex -28.525274276733398 22.028970718383789 0
   vertex -28.246192932128906 22.092197418212891 0
  endloop
 endfacet
 facet normal 0.22095353600703654 -0.97528433542530935 0
  outer loop
   vertex -28.525274276733398 22.028970718383789 5
   vertex -28.246192932128906 22.092197418212891 0
   vertex -28.246192932128906 22.092197418212891 5
  endloop
 endfacet
 facet normal 0.14577407061383099 -0.98931790660872687 0
  outer loop
   vertex -28.246192932128906 22.092197418212891 5
   vertex -28.246192932128906 22.092197418212891 0
   vertex -27.961271286010742 22.134180068969727 0
  endloop
 endfacet
 facet normal 0.14577407061383099 -0.98931790660872687 0
  outer loop
   vertex -28.246192932128906 22.092197418212891 5
   vertex -27.961271286010742 22.134180068969727 0
   vertex -27.961271286010742 22.134180068969727 5
  endloop
 endfacet
 facet normal 0.083484872393368686 -0.996509044656125 0
  outer loop
   vertex -27.961271286010742 22.134180068969727 5
   vertex -27.961271286010742 22.134180068969727 0
   vertex -27.381694793701172 22.182735443115234 0
  endloop
 endfacet
 facet normal 0.083484872393368686 -0.996509044656125 0
  outer loop
   vertex -27.961271286010742 22.134180068969727 5
   vertex -27.381694793701172 22.182735443115234 0
   vertex -27.381694793701172 22.182735443115234 5
  endloop
 endfacet
 facet normal 0.88250600338025209 -0.47030113118917177 0
  outer loop
   vertex -31.058452606201172 19.926876068115234 0
   vertex -30.924816131591797 20.177640914916992 0
   vertex -31.058452606201172 19.926876068115234 5
  endloop
 endfacet
 facet normal 0.88250600338025209 -0.47030113118917177 0
  outer loop
   vertex -31.058452606201172 19.926876068115234 5
   vertex -30.924816131591797 20.177640914916992 0
   vertex -30.924816131591797 20.177640914916992 5
  endloop
 endfacet
 facet normal 0.86801598286600412 -0.4965362559664348 0
  outer loop
   vertex -30.924816131591797 20.177640914916992 5
   vertex -30.924816131591797 20.177640914916992 0
   vertex -30.784675598144531 20.422626495361328 0
  endloop
 endfacet
 facet normal 0.86801598286600412 -0.4965362559664348 0
  outer loop
   vertex -30.924816131591797 20.177640914916992 5
   vertex -30.784675598144531 20.422626495361328 0
   vertex -30.784675598144531 20.422626495361328 5
  endloop
 endfacet
 facet normal 0.83611116986454648 -0.54856003466142111 0
  outer loop
   vertex -30.784675598144531 20.422626495361328 5
   vertex -30.784675598144531 20.422626495361328 0
   vertex -30.631528854370117 20.656051635742188 0
  endloop
 endfacet
 facet normal 0.83611116986454648 -0.54856003466142111 0
  outer loop
   vertex -30.784675598144531 20.422626495361328 5
   vertex -30.631528854370117 20.656051635742188 0
   vertex -30.631528854370117 20.656051635742188 5
  endloop
 endfacet
 facet normal 0.78124608260988215 -0.62422316394596677 0
  outer loop
   vertex -30.631528854370117 20.656051635742188 5
   vertex -30.631528854370117 20.656051635742188 0
   vertex -30.458869934082031 20.872142791748047 0
  endloop
 endfacet
 facet normal 0.78124608260988215 -0.62422316394596677 0
  outer loop
   vertex -30.631528854370117 20.656051635742188 5
   vertex -30.458869934082031 20.872142791748047 0
   vertex -30.458869934082031 20.872142791748047 5
  endloop
 endfacet
 facet normal 0.70557847390967132 -0.70863179236843388 0
  outer loop
   vertex -30.458869934082031 20.872142791748047 5
   vertex -30.458869934082031 20.872142791748047 0
   vertex -30.262767791748047 21.067399978637695 0
  endloop
 endfacet
 facet normal 0.70557847390967132 -0.70863179236843388 0
  outer loop
   vertex -30.458869934082031 20.872142791748047 5
   vertex -30.262767791748047 21.067399978637695 0
   vertex -30.262767791748047 21.067399978637695 5
  endloop
 endfacet
 facet normal 0.63871214358395556 -0.76944577303302442 0
  outer loop
   vertex -30.262767791748047 21.067399978637695 5
   vertex -30.262767791748047 21.067399978637695 0
   vertex -30.047769546508789 21.245868682861328 0
  endloop
 endfacet
 facet normal 0.63871214358395556 -0.76944577303302442 0
  outer loop
   vertex -30.262767791748047 21.067399978637695 5
   vertex -30.047769546508789 21.245868682861328 0
   vertex -30.047769546508789 21.245868682861328 5
  endloop
 endfacet
 facet normal 0.5922240112513979 -0.80577336794988719 0
  outer loop
   vertex -30.047769546508789 21.245868682861328 5
   vertex -30.047769546508789 21.245868682861328 0
   vertex -29.820175170898438 21.413145065307617 0
  endloop
 endfacet
 facet normal 0.5922240112513979 -0.80577336794988719 0
  outer loop
   vertex -30.047769546508789 21.245868682861328 5
   vertex -29.820175170898438 21.413145065307617 0
   vertex -29.820175170898438 21.413145065307617 5
  endloop
 endfacet
 facet normal 0.56862974318414461 -0.82259359052106262 0
  outer loop
   vertex -29.820175170898438 21.413145065307617 5
   vertex -29.820175170898438 21.413145065307617 0
   vertex -29.586284637451172 21.574825286865234 0
  endloop
 endfacet
 facet normal 0.56862974318414461 -0.82259359052106262 0
  outer loop
   vertex -29.820175170898438 21.413145065307617 5
   vertex -29.586284637451172 21.574825286865234 0
   vertex -29.586284637451172 21.574825286865234 5
  endloop
 endfacet
 facet normal 0.99970629869660588 -0.024234610505073122 0
  outer loop
   vertex -31.497905731201172 17.055782318115234 0
   vertex -31.480136871337891 17.788768768310547 0
   vertex -31.497905731201172 17.055782318115234 5
  endloop
 endfacet
 facet normal 0.99970629869660588 -0.024234610505073122 0
  outer loop
   vertex -31.497905731201172 17.055782318115234 5
   vertex -31.480136871337891 17.788768768310547 0
   vertex -31.480136871337891 17.788768768310547 5
  endloop
 endfacet
 facet normal 0.99794561770908441 -0.064066715970416938 0
  outer loop
   vertex -31.480136871337891 17.788768768310547 5
   vertex -31.480136871337891 17.788768768310547 0
   vertex -31.456762313842773 18.152866363525391 0
  endloop
 endfacet
 facet normal 0.99794561770908441 -0.064066715970416938 0
  outer loop
   vertex -31.480136871337891 17.788768768310547 5
   vertex -31.456762313842773 18.152866363525391 0
   vertex -31.456762313842773 18.152866363525391 5
  endloop
 endfacet
 facet normal 0.99369339263043677 -0.11213135798077516 0
  outer loop
   vertex -31.456762313842773 18.152866363525391 5
   vertex -31.456762313842773 18.152866363525391 0
   vertex -31.416000366210938 18.514093399047852 0
  endloop
 endfacet
 facet normal 0.99369339263043677 -0.11213135798077516 0
  outer loop
   vertex -31.456762313842773 18.152866363525391 5
   vertex -31.416000366210938 18.514093399047852 0
   vertex -31.416000366210938 18.514093399047852 5
  endloop
 endfacet
 facet normal 0.98451126461401395 -0.17532133312325437 0
  outer loop
   vertex -31.416000366210938 18.514093399047852 5
   vertex -31.416000366210938 18.514093399047852 0
   vertex -31.352346420288086 18.871540069580078 0
  endloop
 endfacet
 facet normal 0.98451126461401395 -0.17532133312325437 0
  outer loop
   vertex -31.416000366210938 18.514093399047852 5
   vertex -31.352346420288086 18.871540069580078 0
   vertex -31.352346420288086 18.871540069580078 5
  endloop
 endfacet
 facet normal 0.97194770545202247 -0.23519706177277908 0
  outer loop
   vertex -31.352346420288086 18.871540069580078 5
   vertex -31.352346420288086 18.871540069580078 0
   vertex -31.266727447509766 19.225358963012695 0
  endloop
 endfacet
 facet normal 0.97194770545202247 -0.23519706177277908 0
  outer loop
   vertex -31.352346420288086 18.871540069580078 5
   vertex -31.266727447509766 19.225358963012695 0
   vertex -31.266727447509766 19.225358963012695 5
  endloop
 endfacet
 facet normal 0.95864241058523625 -0.28461329664533824 0
  outer loop
   vertex -31.266727447509766 19.225358963012695 5
   vertex -31.266727447509766 19.225358963012695 0
   vertex -31.058452606201172 19.926876068115234 0
  endloop
 endfacet
 facet normal 0.95864241058523625 -0.28461329664533824 0
  outer loop
   vertex -31.266727447509766 19.225358963012695 5
   vertex -31.058452606201172 19.926876068115234 0
   vertex -31.058452606201172 19.926876068115234 5
  endloop
 endfacet
 facet normal 1 0 0
  outer loop
   vertex -31.497905731201172 8.5450401306152344 0
   vertex -31.497905731201172 17.055782318115234 0
   vertex -31.497905731201172 8.5450401306152344 5
  endloop
 endfacet
 facet normal 1 0 -0
  outer loop
   vertex -31.497905731201172 8.5450401306152344 5
   vertex -31.497905731201172 17.055782318115234 0
   vertex -31.497905731201172 17.055782318115234 5
  endloop
 endfacet
 facet normal 0 -1 0
  outer loop
   vertex -34.134624481201172 8.5450401306152344 0
   vertex -31.497905731201172 8.5450401306152344 0
   vertex -34.134624481201172 8.5450401306152344 5
  endloop
 endfacet
 facet normal 0 -1 0
  outer loop
   vertex -34.134624481201172 8.5450401306152344 5
   vertex -31.497905731201172 8.5450401306152344 0
   vertex -31.497905731201172 8.5450401306152344 5
  endloop
 endfacet
 facet normal 0 0 1
  outer loop
   vertex -31.497905731201172 8.5450401306152344 5
   vertex -31.497905731201172 17.055782318115234 5
   vertex -34.134624481201172 8.5450401306152344 5
  endloop
 endfacet
 facet normal 0 -0 1
  outer loop
   vertex -34.134624481201172 8.5450401306152344 5
   vertex -31.497905731201172 17.055782318115234 5
   vertex -31.480136871337891 17.788768768310547 5
  endloop
 endfacet
 facet normal 0 -0 1
  outer loop
   vertex -34.134624481201172 8.5450401306152344 5
   vertex -31.480136871337891 17.788768768310547 5
   vertex -31.456762313842773 18.152866363525391 5
  endloop
 endfacet
 facet normal 0 0 1
  outer loop
   vertex -31.456762313842773 18.152866363525391 5
   vertex -31.416000366210938 18.514093399047852 5
   vertex -34.134624481201172 8.5450401306152344 5
  endloop
 endfacet
 facet normal 0 -0 1
  outer loop
   vertex -34.134624481201172 8.5450401306152344 5
   vertex -31.416000366210938 18.514093399047852 5
   vertex -31.352346420288086 18.871540069580078 5
  endloop
 endfacet
 facet normal 0 -0 1
  outer loop
   vertex -34.134624481201172 8.5450401306152344 5
   vertex -31.352346420288086 18.871540069580078 5
   vertex -31.266727447509766 19.225358963012695 5
  endloop
 endfacet
 facet normal 0 0 1
  outer loop
   vertex -34.134624481201172 8.5450401306152344 5
   vertex -31.266727447509766 19.225358963012695 5
   vertex -31.497905731201172 22.314571380615234 5
  endloop
 endfacet
 facet normal 0 -0 1
  outer loop
   vertex -31.497905731201172 22.314571380615234 5
   vertex -31.266727447509766 19.225358963012695 5
   vertex -31.058452606201172 19.926876068115234 5
  endloop
 endfacet
 facet normal 0 -0 1
  outer loop
   vertex -31.497905731201172 22.314571380615234 5
   vertex -31.058452606201172 19.926876068115234 5
   vertex -30.924816131591797 20.177640914916992 5
  endloop
 endfacet
 facet normal 0 0 1
  outer loop
   vertex -30.924816131591797 20.177640914916992 5
   vertex -30.784675598144531 20.422626495361328 5
   vertex -31.497905731201172 22.314571380615234 5
  endloop
 endfacet
 facet normal 0 -0 1
  outer loop
   vertex -31.497905731201172 22.314571380615234 5
   vertex -30.784675598144531 20.422626495361328 5
   vertex -30.631528854370117 20.656051635742188 5
  endloop
 endfacet
 facet normal 0 -0 1
  outer loop
   vertex -31.497905731201172 22.314571380615234 5
   vertex -30.631528854370117 20.656051635742188 5
   vertex -30.458869934082031 20.872142791748047 5
  endloop
 endfacet
 facet normal 0 0 1
  outer loop
   vertex -30.458869934082031 20.872142791748047 5
   vertex -30.262767791748047 21.067399978637695 5
   vertex -31.497905731201172 22.314571380615234 5
  endloop
 endfacet
 facet normal 0 -0 1
  outer loop
   vertex -31.497905731201172 22.314571380615234 5
   vertex -30.262767791748047 21.067399978637695 5
   vertex -30.047769546508789 21.245868682861328 5
  endloop
 endfacet
 facet normal 0 -0 1
  outer loop
   vertex -31.497905731201172 22.314571380615234 5
   vertex -30.047769546508789 21.245868682861328 5
   vertex -29.820175170898438 21.413145065307617 5
  endloop
 endfacet
 facet normal 0 0 1
  outer loop
   vertex -29.820175170898438 21.413145065307617 5
   vertex -29.586284637451172 21.574825286865234 5
   vertex -31.497905731201172 22.314571380615234 5
  endloop
 endfacet
 facet normal 0 -0 1
  outer loop
   vertex -31.497905731201172 22.314571380615234 5
   vertex -29.586284637451172 21.574825286865234 5
   vertex -29.063474655151367 21.829893112182617 5
  endloop
 endfacet
 facet normal 0 -0 1
  outer loop
   vertex -31.497905731201172 22.314571380615234 5
   vertex -29.063474655151367 21.829893112182617 5
   vertex -28.797260284423828 21.939929962158203 5
  endloop
 endfacet
 facet normal 0 0 1
  outer loop
   vertex -28.797260284423828 21.939929962158203 5
   vertex -28.525274276733398 22.028970718383789 5
   vertex -31.497905731201172 22.314571380615234 5
  endloop
 endfacet
 facet normal 0 -0 1
  outer loop
   vertex -31.497905731201172 22.314571380615234 5
   vertex -28.525274276733398 22.028970718383789 5
   vertex -28.246192932128906 22.092197418212891 5
  endloop
 endfacet
 facet normal 0 -0 1
  outer loop
   vertex -31.497905731201172 22.314571380615234 5
   vertex -28.246192932128906 22.092197418212891 5
   vertex -27.961271286010742 22.134180068969727 5
  endloop
 endfacet
 facet normal 0 0 1
  outer loop
   vertex -27.961271286010742 22.134180068969727 5
   vertex -27.381694793701172 22.182735443115234 5
   vertex -31.497905731201172 22.314571380615234 5
  endloop
 endfacet
 facet normal 0 0 1
  outer loop
   vertex -31.497905731201172 22.314571380615234 5
   vertex -27.381694793701172 22.182735443115234 5
   vertex -31.005430221557617 22.77764892578125 5
  endloop
 endfacet
 facet normal 0 0 1
  outer loop
   vertex -31.005430221557617 22.77764892578125 5
   vertex -27.381694793701172 22.182735443115234 5
   vertex -30.755613327026367 23.001386642456055 5
  endloop
 endfacet
 facet normal 0 0 1
  outer loop
   vertex -30.755613327026367 23.001386642456055 5
   vertex -27.381694793701172 22.182735443115234 5
   vertex -30.501501083374023 23.215761184692383 5
  endloop
 endfacet
 facet normal 0 0 1
  outer loop
   vertex -30.501501083374023 23.215761184692383 5
   vertex -27.381694793701172 22.182735443115234 5
   vertex -30.241662979125977 23.417652130126953 5
  endloop
 endfacet
 facet normal 0 0 1
  outer loop
   vertex -30.241662979125977 23.417652130126953 5
   vertex -27.381694793701172 22.182735443115234 5
   vertex -29.974664688110352 23.603939056396484 5
  endloop
 endfacet
 facet normal 0 0 1
  outer loop
   vertex -29.974664688110352 23.603939056396484 5
   vertex -27.381694793701172 22.182735443115234 5
   vertex -29.699077606201172 23.771499633789062 5
  endloop
 endfacet
 facet normal 0 0 1
  outer loop
   vertex -29.699077606201172 23.771499633789062 5
   vertex -27.381694793701172 22.182735443115234 5
   vertex -29.413467407226562 23.917215347290039 5
  endloop
 endfacet
 facet normal 0 0 1
  outer loop
   vertex -29.413467407226562 23.917215347290039 5
   vertex -27.381694793701172 22.182735443115234 5
   vertex -29.116865158081055 24.038972854614258 5
  endloop
 endfacet
 facet normal 0 0 1
  outer loop
   vertex -29.116865158081055 24.038972854614258 5
   vertex -27.381694793701172 22.182735443115234 5
   vertex -28.810216903686523 24.138828277587891 5
  endloop
 endfacet
 facet normal 0 0 1
  outer loop
   vertex -28.810216903686523 24.138828277587891 5
   vertex -27.381694793701172 22.182735443115234 5
   vertex -28.494955062866211 24.219911575317383 5
  endloop
 endfacet
 facet normal 0 0 1
  outer loop
   vertex -28.494955062866211 24.219911575317383 5
   vertex -27.381694793701172 22.182735443115234 5
   vertex -28.172517776489258 24.285350799560547 5
  endloop
 endfacet
 facet normal 0 0 1
  outer loop
   vertex -28.172517776489258 24.285350799560547 5
   vertex -27.381694793701172 22.182735443115234 5
   vertex -27.844337463378906 24.338275909423828 5
  endloop
 endfacet
 facet normal 0 0 1
  outer loop
   vertex -27.844337463378906 24.338275909423828 5
   vertex -27.381694793701172 22.182735443115234 5
   vertex -27.511850357055664 24.381813049316406 5
  endloop
 endfacet
 facet normal -0 -0 1
  outer loop
   vertex -27.511850357055664 24.381813049316406 5
   vertex -27.381694793701172 22.182735443115234 5
   vertex -27.043046951293945 22.162038803100586 5
  endloop
 endfacet
 facet normal 0 -0 1
  outer loop
   vertex -27.511850357055664 24.381813049316406 5
   vertex -27.043046951293945 22.162038803100586 5
   vertex -26.839702606201172 24.453243255615234 5
  endloop
 endfacet
 facet normal -0 0 1
  outer loop
   vertex -26.839702606201172 24.453243255615234 5
   vertex -27.043046951293945 22.162038803100586 5
   vertex -26.708757400512695 22.130092620849609 5
  endloop
 endfacet
 facet normal 0 -0 1
  outer loop
   vertex -26.839702606201172 24.453243255615234 5
   vertex -26.708757400512695 22.130092620849609 5
   vertex -26.448612213134766 24.43559455871582 5
  endloop
 endfacet
 facet normal -0 0 1
  outer loop
   vertex -26.448612213134766 24.43559455871582 5
   vertex -26.708757400512695 22.130092620849609 5
   vertex -26.383184432983398 22.075645446777344 5
  endloop
 endfacet
 facet normal 0 -0 1
  outer loop
   vertex -26.448612213134766 24.43559455871582 5
   vertex -26.383184432983398 22.075645446777344 5
   vertex -26.059469223022461 24.409587860107422 5
  endloop
 endfacet
 facet normal -0 0 1
  outer loop
   vertex -26.059469223022461 24.409587860107422 5
   vertex -26.383184432983398 22.075645446777344 5
   vertex -26.225030899047852 22.036466598510742 5
  endloop
 endfacet
 facet normal -0 0 1
  outer loop
   vertex -26.059469223022461 24.409587860107422 5
   vertex -26.225030899047852 22.036466598510742 5
   vertex -26.070690155029297 21.987443923950195 5
  endloop
 endfacet
 facet normal 0 0 1
  outer loop
   vertex -26.059469223022461 24.409587860107422 5
   vertex -26.070690155029297 21.987443923950195 5
   vertex -25.674221038818359 24.36686897277832 5
  endloop
 endfacet
 facet normal -0 0 1
  outer loop
   vertex -25.674221038818359 24.36686897277832 5
   vertex -26.070690155029297 21.987443923950195 5
   vertex -25.920684814453125 21.927225112915039 5
  endloop
 endfacet
 facet normal -0 0 1
  outer loop
   vertex -25.674221038818359 24.36686897277832 5
   vertex -25.920684814453125 21.927225112915039 5
   vertex -25.774999618530273 21.855861663818359 5
  endloop
 endfacet
 facet normal 0 0 1
  outer loop
   vertex -25.674221038818359 24.36686897277832 5
   vertex -25.774999618530273 21.855861663818359 5
   vertex -25.294811248779297 24.299079895019531 5
  endloop
 endfacet
 facet normal -0 0 1
  outer loop
   vertex -25.294811248779297 24.299079895019531 5
   vertex -25.774999618530273 21.855861663818359 5
   vertex -25.633039474487305 21.774883270263672 5
  endloop
 endfacet
 facet normal 0 0 1
  outer loop
   vertex -25.294811248779297 24.299079895019531 5
   vertex -25.633039474487305 21.774883270263672 5
   vertex -25.107885360717773 24.253261566162109 5
  endloop
 endfacet
 facet normal -0 0 1
  outer loop
   vertex -25.107885360717773 24.253261566162109 5
   vertex -25.633039474487305 21.774883270263672 5
   vertex -25.494182586669922 21.685892105102539 5
  endloop
 endfacet
 facet normal 0 0 1
  outer loop
   vertex -25.107885360717773 24.253261566162109 5
   vertex -25.494182586669922 21.685892105102539 5
   vertex -24.922822952270508 24.199434280395508 5
  endloop
 endfacet
 facet normal -0 0 1
  outer loop
   vertex -24.922822952270508 24.199434280395508 5
   vertex -25.494182586669922 21.685892105102539 5
   vertex -25.223297119140625 21.490283966064453 5
  endloop
 endfacet
 facet normal 0 0 1
  outer loop
   vertex -24.922822952270508 24.199434280395508 5
   vertex -25.223297119140625 21.490283966064453 5
   vertex -24.557243347167969 24.07227897644043 5
  endloop
 endfacet
 facet normal 0 0 1
  outer loop
   vertex -24.557243347167969 24.07227897644043 5
   vertex -25.223297119140625 21.490283966064453 5
   vertex -24.195940017700195 23.926773071289062 5
  endloop
 endfacet
 facet normal 0 0 1
  outer loop
   vertex -24.195940017700195 23.926773071289062 5
   vertex -25.223297119140625 21.490283966064453 5
   vertex -23.836772918701172 23.772090911865234 5
  endloop
 endfacet
 facet normal 0 0 1
  outer loop
   vertex -23.836772918701172 23.772090911865234 5
   vertex -25.223297119140625 21.490283966064453 5
   vertex -23.550806045532227 23.592536926269531 5
  endloop
 endfacet
 facet normal 0 0 1
  outer loop
   vertex -23.550806045532227 23.592536926269531 5
   vertex -25.223297119140625 21.490283966064453 5
   vertex -23.272123336791992 23.405981063842773 5
  endloop
 endfacet
 facet normal 0 0 1
  outer loop
   vertex -23.272123336791992 23.405981063842773 5
   vertex -25.223297119140625 21.490283966064453 5
   vertex -23.008012771606445 23.205425262451172 5
  endloop
 endfacet
 facet normal 0 0 1
  outer loop
   vertex -23.008012771606445 23.205425262451172 5
   vertex -25.223297119140625 21.490283966064453 5
   vertex -22.883697509765625 23.097707748413086 5
  endloop
 endfacet
 facet normal 0 0 1
  outer loop
   vertex -22.883697509765625 23.097707748413086 5
   vertex -25.223297119140625 21.490283966064453 5
   vertex -22.765756607055664 22.983865737915039 5
  endloop
 endfacet
 facet normal 0 0 1
  outer loop
   vertex -22.765756607055664 22.983865737915039 5
   vertex -25.223297119140625 21.490283966064453 5
   vertex -22.654939651489258 22.863178253173828 5
  endloop
 endfacet
 facet normal 0 0 1
  outer loop
   vertex -22.654939651489258 22.863178253173828 5
   vertex -25.223297119140625 21.490283966064453 5
   vertex -22.550811767578125 22.736063003540039 5
  endloop
 endfacet
 facet normal 0 0 1
  outer loop
   vertex -22.550811767578125 22.736063003540039 5
   vertex -25.223297119140625 21.490283966064453 5
   vertex -22.358806610107422 22.466213226318359 5
  endloop
 endfacet
 facet normal 0 0 1
  outer loop
   vertex -22.358806610107422 22.466213226318359 5
   vertex -25.223297119140625 21.490283966064453 5
   vertex -22.182100296020508 22.181665420532227 5
  endloop
 endfacet
 facet normal -0 0 1
  outer loop
   vertex -22.182100296020508 22.181665420532227 5
   vertex -25.223297119140625 21.490283966064453 5
   vertex -21.875904083251953 21.465763092041016 5
  endloop
 endfacet
 facet normal 0 0 1
  outer loop
   vertex -22.182100296020508 22.181665420532227 5
   vertex -21.875904083251953 21.465763092041016 5
   vertex -22.013042449951172 21.889766693115234 5
  endloop
 endfacet
 facet normal 0 -0 1
  outer loop
   vertex -25.223297119140625 21.490283966064453 5
   vertex -24.957378387451172 21.281856536865234 5
   vertex -21.875904083251953 21.465763092041016 5
  endloop
 endfacet
 facet normal -0 0 1
  outer loop
   vertex -21.875904083251953 21.465763092041016 5
   vertex -24.957378387451172 21.281856536865234 5
   vertex -21.748485565185547 21.04008674621582 5
  endloop
 endfacet
 facet normal 0 0 1
  outer loop
   vertex -21.748485565185547 21.04008674621582 5
   vertex -24.957378387451172 21.281856536865234 5
   vertex -24.746076583862305 20.955833435058594 5
  endloop
 endfacet
 facet normal -0 0 1
  outer loop
   vertex -21.748485565185547 21.04008674621582 5
   vertex -24.746076583862305 20.955833435058594 5
   vertex -21.6405029296875 20.611063003540039 5
  endloop
 endfacet
 facet normal 0 0 1
  outer loop
   vertex -21.6405029296875 20.611063003540039 5
   vertex -24.746076583862305 20.955833435058594 5
   vertex -24.549417495727539 20.625062942504883 5
  endloop
 endfacet
 facet normal 0 0 1
  outer loop
   vertex -21.6405029296875 20.611063003540039 5
   vertex -24.549417495727539 20.625062942504883 5
   vertex -24.461153030395508 20.456413269042969 5
  endloop
 endfacet
 facet normal -0 0 1
  outer loop
   vertex -21.6405029296875 20.611063003540039 5
   vertex -24.461153030395508 20.456413269042969 5
   vertex -21.596837997436523 20.394773483276367 5
  endloop
 endfacet
 facet normal 0 0 1
  outer loop
   vertex -21.596837997436523 20.394773483276367 5
   vertex -24.461153030395508 20.456413269042969 5
   vertex -24.382040023803711 20.284797668457031 5
  endloop
 endfacet
 facet normal -0 0 1
  outer loop
   vertex -21.596837997436523 20.394773483276367 5
   vertex -24.382040023803711 20.284797668457031 5
   vertex -21.561197280883789 20.177104949951172 5
  endloop
 endfacet
 facet normal 0 0 1
  outer loop
   vertex -21.561197280883789 20.177104949951172 5
   vertex -24.382040023803711 20.284797668457031 5
   vertex -24.313909530639648 20.109621047973633 5
  endloop
 endfacet
 facet normal -0 0 1
  outer loop
   vertex -21.561197280883789 20.177104949951172 5
   vertex -24.313909530639648 20.109621047973633 5
   vertex -21.511072158813477 19.738121032714844 5
  endloop
 endfacet
 facet normal 0 0 1
  outer loop
   vertex -21.511072158813477 19.738121032714844 5
   vertex -24.313909530639648 20.109621047973633 5
   vertex -24.258026123046875 19.930473327636719 5
  endloop
 endfacet
 facet normal 0 0 1
  outer loop
   vertex -21.511072158813477 19.738121032714844 5
   vertex -24.258026123046875 19.930473327636719 5
   vertex -24.213495254516602 19.747646331787109 5
  endloop
 endfacet
 facet normal 0 -0 1
  outer loop
   vertex -24.213495254516602 19.747646331787109 5
   vertex -24.178897857666016 19.56159782409668 5
   vertex -21.511072158813477 19.738121032714844 5
  endloop
 endfacet
 facet normal -0 0 1
  outer loop
   vertex -21.511072158813477 19.738121032714844 5
   vertex -24.178897857666016 19.56159782409668 5
   vertex -21.483024597167969 19.295339584350586 5
  endloop
 endfacet
 facet normal 0 0 1
  outer loop
   vertex -21.483024597167969 19.295339584350586 5
   vertex -24.178897857666016 19.56159782409668 5
   vertex -24.133827209472656 19.181678771972656 5
  endloop
 endfacet
 facet normal -0 0 1
  outer loop
   vertex -21.483024597167969 19.295339584350586 5
   vertex -24.133827209472656 19.181678771972656 5
   vertex -21.463726043701172 18.403438568115234 5
  endloop
 endfacet
 facet normal 0 0 1
  outer loop
   vertex -21.463726043701172 18.403438568115234 5
   vertex -24.133827209472656 19.181678771972656 5
   vertex -24.111459732055664 18.794399261474609 5
  endloop
 endfacet
 facet normal 0 0 1
  outer loop
   vertex -21.463726043701172 18.403438568115234 5
   vertex -24.111459732055664 18.794399261474609 5
   vertex -24.100444793701172 18.403438568115234 5
  endloop
 endfacet
 facet normal 0 0 1
  outer loop
   vertex -24.100444793701172 8.5450401306152344 5
   vertex -21.463726043701172 8.5450401306152344 5
   vertex -24.100444793701172 18.403438568115234 5
  endloop
 endfacet
 facet normal 0 -0 1
  outer loop
   vertex -24.100444793701172 18.403438568115234 5
   vertex -21.463726043701172 8.5450401306152344 5
   vertex -21.463726043701172 18.403438568115234 5
  endloop
 endfacet
 facet normal -0 0 1
  outer loop
   vertex -31.497905731201172 30.019649505615234 5
   vertex -34.134624481201172 30.019649505615234 5
   vertex -31.497905731201172 22.314571380615234 5
  endloop
 endfacet
 facet normal 0 0 1
  outer loop
   vertex -31.497905731201172 22.314571380615234 5
   vertex -34.134624481201172 30.019649505615234 5
   vertex -34.134624481201172 8.5450401306152344 5
  endloop
 endfacet
 facet normal 0 0 -1
  outer loop
   vertex -31.497905731201172 8.5450401306152344 0
   vertex -34.134624481201172 8.5450401306152344 0
   vertex -31.497905731201172 17.055782318115234 0
  endloop
 endfacet
 facet normal 0 0 -1
  outer loop
   vertex -31.497905731201172 17.055782318115234 0
   vertex -34.134624481201172 8.5450401306152344 0
   vertex -31.480136871337891 17.788768768310547 0
  endloop
 endfacet
 facet normal 0 0 -1
  outer loop
   vertex -31.480136871337891 17.788768768310547 0
   vertex -34.134624481201172 8.5450401306152344 0
   vertex -31.456762313842773 18.152866363525391 0
  endloop
 endfacet
 facet normal 0 0 -1
  outer loop
   vertex -31.456762313842773 18.152866363525391 0
   vertex -34.134624481201172 8.5450401306152344 0
   vertex -31.416000366210938 18.514093399047852 0
  endloop
 endfacet
 facet normal 0 0 -1
  outer loop
   vertex -31.416000366210938 18.514093399047852 0
   vertex -34.134624481201172 8.5450401306152344 0
   vertex -31.352346420288086 18.871540069580078 0
  endloop
 endfacet
 facet normal 0 0 -1
  outer loop
   vertex -31.352346420288086 18.871540069580078 0
   vertex -34.134624481201172 8.5450401306152344 0
   vertex -31.266727447509766 19.225358963012695 0
  endloop
 endfacet
 facet normal 0 0 -1
  outer loop
   vertex -31.266727447509766 19.225358963012695 0
   vertex -34.134624481201172 8.5450401306152344 0
   vertex -31.497905731201172 22.314571380615234 0
  endloop
 endfacet
 facet normal 0 0 -1
  outer loop
   vertex -31.266727447509766 19.225358963012695 0
   vertex -31.497905731201172 22.314571380615234 0
   vertex -31.058452606201172 19.926876068115234 0
  endloop
 endfacet
 facet normal 0 0 -1
  outer loop
   vertex -31.058452606201172 19.926876068115234 0
   vertex -31.497905731201172 22.314571380615234 0
   vertex -30.924816131591797 20.177640914916992 0
  endloop
 endfacet
 facet normal 0 0 -1
  outer loop
   vertex -30.924816131591797 20.177640914916992 0
   vertex -31.497905731201172 22.314571380615234 0
   vertex -30.784675598144531 20.422626495361328 0
  endloop
 endfacet
 facet normal 0 0 -1
  outer loop
   vertex -30.784675598144531 20.422626495361328 0
   vertex -31.497905731201172 22.314571380615234 0
   vertex -30.631528854370117 20.656051635742188 0
  endloop
 endfacet
 facet normal 0 0 -1
  outer loop
   vertex -30.631528854370117 20.656051635742188 0
   vertex -31.497905731201172 22.314571380615234 0
   vertex -30.458869934082031 20.872142791748047 0
  endloop
 endfacet
 facet normal 0 0 -1
  outer loop
   vertex -30.458869934082031 20.872142791748047 0
   vertex -31.497905731201172 22.314571380615234 0
   vertex -30.262767791748047 21.067399978637695 0
  endloop
 endfacet
 facet normal 0 0 -1
  outer loop
   vertex -30.262767791748047 21.067399978637695 0
   vertex -31.497905731201172 22.314571380615234 0
   vertex -30.047769546508789 21.245868682861328 0
  endloop
 endfacet
 facet normal 0 0 -1
  outer loop
   vertex -30.047769546508789 21.245868682861328 0
   vertex -31.497905731201172 22.314571380615234 0
   vertex -29.820175170898438 21.413145065307617 0
  endloop
 endfacet
 facet normal 0 0 -1
  outer loop
   vertex -29.820175170898438 21.413145065307617 0
   vertex -31.497905731201172 22.314571380615234 0
   vertex -29.586284637451172 21.574825286865234 0
  endloop
 endfacet
 facet normal 0 0 -1
  outer loop
   vertex -29.586284637451172 21.574825286865234 0
   vertex -31.497905731201172 22.314571380615234 0
   vertex -29.063474655151367 21.829893112182617 0
  endloop
 endfacet
 facet normal 0 0 -1
  outer loop
   vertex -29.063474655151367 21.829893112182617 0
   vertex -31.497905731201172 22.314571380615234 0
   vertex -28.797260284423828 21.939929962158203 0
  endloop
 endfacet
 facet normal 0 0 -1
  outer loop
   vertex -28.797260284423828 21.939929962158203 0
   vertex -31.497905731201172 22.314571380615234 0
   vertex -28.525274276733398 22.028970718383789 0
  endloop
 endfacet
 facet normal 0 0 -1
  outer loop
   vertex -28.525274276733398 22.028970718383789 0
   vertex -31.497905731201172 22.314571380615234 0
   vertex -28.246192932128906 22.092197418212891 0
  endloop
 endfacet
 facet normal 0 0 -1
  outer loop
   vertex -28.246192932128906 22.092197418212891 0
   vertex -31.497905731201172 22.314571380615234 0
   vertex -27.961271286010742 22.134180068969727 0
  endloop
 endfacet
 facet normal 0 0 -1
  outer loop
   vertex -27.961271286010742 22.134180068969727 0
   vertex -31.497905731201172 22.314571380615234 0
   vertex -27.381694793701172 22.182735443115234 0
  endloop
 endfacet
 facet normal 0 0 -1
  outer loop
   vertex -27.381694793701172 22.182735443115234 0
   vertex -31.497905731201172 22.314571380615234 0
   vertex -31.005430221557617 22.77764892578125 0
  endloop
 endfacet
 facet normal 0 0 -1
  outer loop
   vertex -27.381694793701172 22.182735443115234 0
   vertex -31.005430221557617 22.77764892578125 0
   vertex -30.755613327026367 23.001386642456055 0
  endloop
 endfacet
 facet normal -0 0 -1
  outer loop
   vertex -34.134624481201172 30.019649505615234 0
   vertex -31.497905731201172 30.019649505615234 0
   vertex -34.134624481201172 8.5450401306152344 0
  endloop
 endfacet
 facet normal 0 -0 -1
  outer loop
   vertex -34.134624481201172 8.5450401306152344 0
   vertex -31.497905731201172 30.019649505615234 0
   vertex -31.497905731201172 22.314571380615234 0
  endloop
 endfacet
 facet normal 0 -0 -1
  outer loop
   vertex -30.755613327026367 23.001386642456055 0
   vertex -30.501501083374023 23.215761184692383 0
   vertex -27.381694793701172 22.182735443115234 0
  endloop
 endfacet
 facet normal 0 0 -1
  outer loop
   vertex -27.381694793701172 22.182735443115234 0
   vertex -30.501501083374023 23.215761184692383 0
   vertex -30.241662979125977 23.417652130126953 0
  endloop
 endfacet
 facet normal 0 0 -1
  outer loop
   vertex -27.381694793701172 22.182735443115234 0
   vertex -30.241662979125977 23.417652130126953 0
   vertex -29.974664688110352 23.603939056396484 0
  endloop
 endfacet
 facet normal 0 -0 -1
  outer loop
   vertex -29.974664688110352 23.603939056396484 0
   vertex -29.699077606201172 23.771499633789062 0
   vertex -27.381694793701172 22.182735443115234 0
  endloop
 endfacet
 facet normal 0 0 -1
  outer loop
   vertex -27.381694793701172 22.182735443115234 0
   vertex -29.699077606201172 23.771499633789062 0
   vertex -29.413467407226562 23.917215347290039 0
  endloop
 endfacet
 facet normal 0 0 -1
  outer loop
   vertex -27.381694793701172 22.182735443115234 0
   vertex -29.413467407226562 23.917215347290039 0
   vertex -29.116865158081055 24.038972854614258 0
  endloop
 endfacet
 facet normal 0 -0 -1
  outer loop
   vertex -29.116865158081055 24.038972854614258 0
   vertex -28.810216903686523 24.138828277587891 0
   vertex -27.381694793701172 22.182735443115234 0
  endloop
 endfacet
 facet normal 0 0 -1
  outer loop
   vertex -27.381694793701172 22.182735443115234 0
   vertex -28.810216903686523 24.138828277587891 0
   vertex -28.494955062866211 24.219911575317383 0
  endloop
 endfacet
 facet normal 0 0 -1
  outer loop
   vertex -27.381694793701172 22.182735443115234 0
   vertex -28.494955062866211 24.219911575317383 0
   vertex -28.172517776489258 24.285350799560547 0
  endloop
 endfacet
 facet normal 0 -0 -1
  outer loop
   vertex -28.172517776489258 24.285350799560547 0
   vertex -27.844337463378906 24.338275909423828 0
   vertex -27.381694793701172 22.182735443115234 0
  endloop
 endfacet
 facet normal 0 0 -1
  outer loop
   vertex -27.381694793701172 22.182735443115234 0
   vertex -27.844337463378906 24.338275909423828 0
   vertex -27.511850357055664 24.381813049316406 0
  endloop
 endfacet
 facet normal 0 0 -1
  outer loop
   vertex -27.381694793701172 22.182735443115234 0
   vertex -27.511850357055664 24.381813049316406 0
   vertex -27.043046951293945 22.162038803100586 0
  endloop
 endfacet
 facet normal 0 0 -1
  outer loop
   vertex -27.043046951293945 22.162038803100586 0
   vertex -27.511850357055664 24.381813049316406 0
   vertex -26.839702606201172 24.453243255615234 0
  endloop
 endfacet
 facet normal 0 -0 -1
  outer loop
   vertex -27.043046951293945 22.162038803100586 0
   vertex -26.839702606201172 24.453243255615234 0
   vertex -26.708757400512695 22.130092620849609 0
  endloop
 endfacet
 facet normal 0 0 -1
  outer loop
   vertex -26.708757400512695 22.130092620849609 0
   vertex -26.839702606201172 24.453243255615234 0
   vertex -26.448612213134766 24.43559455871582 0
  endloop
 endfacet
 facet normal 0 -0 -1
  outer loop
   vertex -26.708757400512695 22.130092620849609 0
   vertex -26.448612213134766 24.43559455871582 0
   vertex -26.383184432983398 22.075645446777344 0
  endloop
 endfacet
 facet normal 0 0 -1
  outer loop
   vertex -26.383184432983398 22.075645446777344 0
   vertex -26.448612213134766 24.43559455871582 0
   vertex -26.059469223022461 24.409587860107422 0
  endloop
 endfacet
 facet normal 0 0 -1
  outer loop
   vertex -26.383184432983398 22.075645446777344 0
   vertex -26.059469223022461 24.409587860107422 0
   vertex -26.225030899047852 22.036466598510742 0
  endloop
 endfacet
 facet normal 0 0 -1
  outer loop
   vertex -26.225030899047852 22.036466598510742 0
   vertex -26.059469223022461 24.409587860107422 0
   vertex -26.070690155029297 21.987443923950195 0
  endloop
 endfacet
 facet normal 0 -0 -1
  outer loop
   vertex -26.070690155029297 21.987443923950195 0
   vertex -26.059469223022461 24.409587860107422 0
   vertex -25.674221038818359 24.36686897277832 0
  endloop
 endfacet
 facet normal 0 0 -1
  outer loop
   vertex -26.070690155029297 21.987443923950195 0
   vertex -25.674221038818359 24.36686897277832 0
   vertex -25.920684814453125 21.927225112915039 0
  endloop
 endfacet
 facet normal 0 0 -1
  outer loop
   vertex -25.920684814453125 21.927225112915039 0
   vertex -25.674221038818359 24.36686897277832 0
   vertex -25.774999618530273 21.855861663818359 0
  endloop
 endfacet
 facet normal 0 -0 -1
  outer loop
   vertex -25.774999618530273 21.855861663818359 0
   vertex -25.674221038818359 24.36686897277832 0
   vertex -25.294811248779297 24.299079895019531 0
  endloop
 endfacet
 facet normal 0 0 -1
  outer loop
   vertex -25.774999618530273 21.855861663818359 0
   vertex -25.294811248779297 24.299079895019531 0
   vertex -25.633039474487305 21.774883270263672 0
  endloop
 endfacet
 facet normal 0 -0 -1
  outer loop
   vertex -25.633039474487305 21.774883270263672 0
   vertex -25.294811248779297 24.299079895019531 0
   vertex -25.107885360717773 24.253261566162109 0
  endloop
 endfacet
 facet normal 0 0 -1
  outer loop
   vertex -25.633039474487305 21.774883270263672 0
   vertex -25.107885360717773 24.253261566162109 0
   vertex -25.494182586669922 21.685892105102539 0
  endloop
 endfacet
 facet normal 0 -0 -1
  outer loop
   vertex -25.494182586669922 21.685892105102539 0
   vertex -25.107885360717773 24.253261566162109 0
   vertex -24.922822952270508 24.199434280395508 0
  endloop
 endfacet
 facet normal 0 -0 -1
  outer loop
   vertex -25.494182586669922 21.685892105102539 0
   vertex -24.922822952270508 24.199434280395508 0
   vertex -24.557243347167969 24.07227897644043 0
  endloop
 endfacet
 facet normal -0 0 -1
  outer loop
   vertex -24.557243347167969 24.07227897644043 0
   vertex -24.195940017700195 23.926773071289062 0
   vertex -25.494182586669922 21.685892105102539 0
  endloop
 endfacet
 facet normal 0 -0 -1
  outer loop
   vertex -25.494182586669922 21.685892105102539 0
   vertex -24.195940017700195 23.926773071289062 0
   vertex -23.836772918701172 23.772090911865234 0
  endloop
 endfacet
 facet normal 0 -0 -1
  outer loop
   vertex -25.494182586669922 21.685892105102539 0
   vertex -23.836772918701172 23.772090911865234 0
   vertex -23.550806045532227 23.592536926269531 0
  endloop
 endfacet
 facet normal 0 0 -1
  outer loop
   vertex -25.494182586669922 21.685892105102539 0
   vertex -23.550806045532227 23.592536926269531 0
   vertex -25.223297119140625 21.490283966064453 0
  endloop
 endfacet
 facet normal 0 -0 -1
  outer loop
   vertex -25.223297119140625 21.490283966064453 0
   vertex -23.550806045532227 23.592536926269531 0
   vertex -23.272123336791992 23.405981063842773 0
  endloop
 endfacet
 facet normal 0 -0 -1
  outer loop
   vertex -25.223297119140625 21.490283966064453 0
   vertex -23.272123336791992 23.405981063842773 0
   vertex -23.008012771606445 23.205425262451172 0
  endloop
 endfacet
 facet normal -0 0 -1
  outer loop
   vertex -23.008012771606445 23.205425262451172 0
   vertex -22.883697509765625 23.097707748413086 0
   vertex -25.223297119140625 21.490283966064453 0
  endloop
 endfacet
 facet normal 0 -0 -1
  outer loop
   vertex -25.223297119140625 21.490283966064453 0
   vertex -22.883697509765625 23.097707748413086 0
   vertex -22.765756607055664 22.983865737915039 0
  endloop
 endfacet
 facet normal 0 -0 -1
  outer loop
   vertex -25.223297119140625 21.490283966064453 0
   vertex -22.765756607055664 22.983865737915039 0
   vertex -22.654939651489258 22.863178253173828 0
  endloop
 endfacet
 facet normal -0 0 -1
  outer loop
   vertex -22.654939651489258 22.863178253173828 0
   vertex -22.550811767578125 22.736063003540039 0
   vertex -25.223297119140625 21.490283966064453 0
  endloop
 endfacet
 facet normal 0 -0 -1
  outer loop
   vertex -25.223297119140625 21.490283966064453 0
   vertex -22.550811767578125 22.736063003540039 0
   vertex -22.358806610107422 22.466213226318359 0
  endloop
 endfacet
 facet normal 0 -0 -1
  outer loop
   vertex -25.223297119140625 21.490283966064453 0
   vertex -22.358806610107422 22.466213226318359 0
   vertex -22.182100296020508 22.181665420532227 0
  endloop
 endfacet
 facet normal 0 0 -1
  outer loop
   vertex -22.013042449951172 21.889766693115234 0
   vertex -21.875904083251953 21.465763092041016 0
   vertex -22.182100296020508 22.181665420532227 0
  endloop
 endfacet
 facet normal 0 0 -1
  outer loop
   vertex -22.182100296020508 22.181665420532227 0
   vertex -21.875904083251953 21.465763092041016 0
   vertex -25.223297119140625 21.490283966064453 0
  endloop
 endfacet
 facet normal -0 0 -1
  outer loop
   vertex -25.223297119140625 21.490283966064453 0
   vertex -21.875904083251953 21.465763092041016 0
   vertex -24.957378387451172 21.281856536865234 0
  endloop
 endfacet
 facet normal 0 -0 -1
  outer loop
   vertex -24.957378387451172 21.281856536865234 0
   vertex -21.875904083251953 21.465763092041016 0
   vertex -21.748485565185547 21.04008674621582 0
  endloop
 endfacet
 facet normal -0 0 -1
  outer loop
   vertex -24.957378387451172 21.281856536865234 0
   vertex -21.748485565185547 21.04008674621582 0
   vertex -24.746076583862305 20.955833435058594 0
  endloop
 endfacet
 facet normal 0 -0 -1
  outer loop
   vertex -24.746076583862305 20.955833435058594 0
   vertex -21.748485565185547 21.04008674621582 0
   vertex -21.6405029296875 20.611063003540039 0
  endloop
 endfacet
 facet normal 0 0 -1
  outer loop
   vertex -24.746076583862305 20.955833435058594 0
   vertex -21.6405029296875 20.611063003540039 0
   vertex -24.549417495727539 20.625062942504883 0
  endloop
 endfacet
 facet normal -0 0 -1
  outer loop
   vertex -24.549417495727539 20.625062942504883 0
   vertex -21.6405029296875 20.611063003540039 0
   vertex -24.461153030395508 20.456413269042969 0
  endloop
 endfacet
 facet normal 0 -0 -1
  outer loop
   vertex -24.461153030395508 20.456413269042969 0
   vertex -21.6405029296875 20.611063003540039 0
   vertex -21.596837997436523 20.394773483276367 0
  endloop
 endfacet
 facet normal -0 0 -1
  outer loop
   vertex -24.461153030395508 20.456413269042969 0
   vertex -21.596837997436523 20.394773483276367 0
   vertex -24.382040023803711 20.284797668457031 0
  endloop
 endfacet
 facet normal 0 -0 -1
  outer loop
   vertex -24.382040023803711 20.284797668457031 0
   vertex -21.596837997436523 20.394773483276367 0
   vertex -21.561197280883789 20.177104949951172 0
  endloop
 endfacet
 facet normal -0 0 -1
  outer loop
   vertex -24.382040023803711 20.284797668457031 0
   vertex -21.561197280883789 20.177104949951172 0
   vertex -24.313909530639648 20.109621047973633 0
  endloop
 endfacet
 facet normal 0 -0 -1
  outer loop
   vertex -24.313909530639648 20.109621047973633 0
   vertex -21.561197280883789 20.177104949951172 0
   vertex -21.511072158813477 19.738121032714844 0
  endloop
 endfacet
 facet normal 0 0 -1
  outer loop
   vertex -24.313909530639648 20.109621047973633 0
   vertex -21.511072158813477 19.738121032714844 0
   vertex -24.258026123046875 19.930473327636719 0
  endloop
 endfacet
 facet normal 0 0 -1
  outer loop
   vertex -24.258026123046875 19.930473327636719 0
   vertex -21.511072158813477 19.738121032714844 0
   vertex -24.213495254516602 19.747646331787109 0
  endloop
 endfacet
 facet normal -0 0 -1
  outer loop
   vertex -24.213495254516602 19.747646331787109 0
   vertex -21.511072158813477 19.738121032714844 0
   vertex -24.178897857666016 19.56159782409668 0
  endloop
 endfacet
 facet normal 0 -0 -1
  outer loop
   vertex -24.178897857666016 19.56159782409668 0
   vertex -21.511072158813477 19.738121032714844 0
   vertex -21.483024597167969 19.295339584350586 0
  endloop
 endfacet
 facet normal -0 0 -1
  outer loop
   vertex -24.178897857666016 19.56159782409668 0
   vertex -21.483024597167969 19.295339584350586 0
   vertex -24.133827209472656 19.181678771972656 0
  endloop
 endfacet
 facet normal 0 -0 -1
  outer loop
   vertex -24.133827209472656 19.181678771972656 0
   vertex -21.483024597167969 19.295339584350586 0
   vertex -21.463726043701172 18.403438568115234 0
  endloop
 endfacet
 facet normal 0 0 -1
  outer loop
   vertex -24.133827209472656 19.181678771972656 0
   vertex -21.463726043701172 18.403438568115234 0
   vertex -24.111459732055664 18.794399261474609 0
  endloop
 endfacet
 facet normal 0 0 -1
  outer loop
   vertex -24.111459732055664 18.794399261474609 0
   vertex -21.463726043701172 18.403438568115234 0
   vertex -24.100444793701172 18.403438568115234 0
  endloop
 endfacet
 facet normal -0 0 -1
  outer loop
   vertex -24.100444793701172 18.403438568115234 0
   vertex -21.463726043701172 18.403438568115234 0
   vertex -24.100444793701172 8.5450401306152344 0
  endloop
 endfacet
 facet normal 0 -0 -1
  outer loop
   vertex -24.100444793701172 8.5450401306152344 0
   vertex -21.463726043701172 18.403438568115234 0
   vertex -21.463726043701172 8.5450401306152344 0
  endloop
 endfacet
endsolid
