solid Visualization Toolkit generated SLA File
 facet normal -1 0 0
  outer loop
   vertex -9.1004438400268555 24.101680755615234 0
   vertex -9.1004438400268555 8.5450401306152344 0
   vertex -9.1004438400268555 24.101680755615234 5
  endloop
 endfacet
 facet normal -1 0 0
  outer loop
   vertex -9.1004438400268555 24.101680755615234 5
   vertex -9.1004438400268555 8.5450401306152344 0
   vertex -9.1004438400268555 8.5450401306152344 5
  endloop
 endfacet
 facet normal 0 1 0
  outer loop
   vertex -6.4637250900268555 24.101680755615234 0
   vertex -9.1004438400268555 24.101680755615234 0
   vertex -6.4637250900268555 24.101680755615234 5
  endloop
 endfacet
 facet normal 0 1 0
  outer loop
   vertex -6.4637250900268555 24.101680755615234 5
   vertex -9.1004438400268555 24.101680755615234 0
   vertex -9.1004438400268555 24.101680755615234 5
  endloop
 endfacet
 facet normal 1 0 0
  outer loop
   vertex -6.4637250900268555 8.5450401306152344 0
   vertex -6.4637250900268555 24.101680755615234 0
   vertex -6.4637250900268555 8.5450401306152344 5
  endloop
 endfacet
 facet normal 1 0 -0
  outer loop
   vertex -6.4637250900268555 8.5450401306152344 5
   vertex -6.4637250900268555 24.101680755615234 0
   vertex -6.4637250900268555 24.101680755615234 5
  endloop
 endfacet
 facet normal 0 -1 0
  outer loop
   vertex -9.1004438400268555 8.5450401306152344 0
   vertex -6.4637250900268555 8.5450401306152344 0
   vertex -9.1004438400268555 8.5450401306152344 5
  endloop
 endfacet
 facet normal 0 -1 0
  outer loop
   vertex -9.1004438400268555 8.5450401306152344 5
   vertex -6.4637250900268555 8.5450401306152344 0
   vertex -6.4637250900268555 8.5450401306152344 5
  endloop
 endfacet
 facet normal 0 0 1
  outer loop
   vertex -9.1004438400268555 8.5450401306152344 5
   vertex -6.4637250900268555 8.5450401306152344 5
   vertex -9.1004438400268555 24.101680755615234 5
  endloop
 endfacet
 facet normal 0 -0 1
  outer loop
   vertex -9.1004438400268555 24.101680755615234 5
   vertex -6.4637250900268555 8.5450401306152344 5
   vertex -6.4637250900268555 24.101680755615234 5
  endloop
 endfacet
 facet normal 0 0 -1
  outer loop
   vertex -6.4637250900268555 8.5450401306152344 0
   vertex -9.1004438400268555 8.5450401306152344 0
   vertex -6.4637250900268555 24.101680755615234 0
  endloop
 endfacet
 facet normal 0 0 -1
  outer loop
   vertex -6.4637250900268555 24.101680755615234 0
   vertex -9.1004438400268555 8.5450401306152344 0
   vertex -9.1004438400268555 24.101680755615234 0
  endloop
 endfacet
  facet normal -1 0 0
  outer loop
   vertex -9.1004438400268555 30.019649505615234 0
   vertex -9.1004438400268555 26.987422943115234 0
   vertex -9.1004438400268555 30.019649505615234 5
  endloop
 endfacet
 facet normal -1 0 0
  outer loop
   vertex -9.1004438400268555 30.019649505615234 5
   vertex -9.1004438400268555 26.987422943115234 0
   vertex -9.1004438400268555 26.987422943115234 5
  endloop
 endfacet
 facet normal 0 1 0
  outer loop
   vertex -6.4637250900268555 30.019649505615234 0
   vertex -9.1004438400268555 30.019649505615234 0
   vertex -6.4637250900268555 30.019649505615234 5
  endloop
 endfacet
 facet normal 0 1 0
  outer loop
   vertex -6.4637250900268555 30.019649505615234 5
   vertex -9.1004438400268555 30.019649505615234 0
   vertex -9.1004438400268555 30.019649505615234 5
  endloop
 endfacet
 facet normal 1 0 0
  outer loop
   vertex -6.4637250900268555 26.987422943115234 0
   vertex -6.4637250900268555 30.019649505615234 0
   vertex -6.4637250900268555 26.987422943115234 5
  endloop
 endfacet
 facet normal 1 0 -0
  outer loop
   vertex -6.4637250900268555 26.987422943115234 5
   vertex -6.4637250900268555 30.019649505615234 0
   vertex -6.4637250900268555 30.019649505615234 5
  endloop
 endfacet
 facet normal 0 -1 0
  outer loop
   vertex -9.1004438400268555 26.987422943115234 0
   vertex -6.4637250900268555 26.987422943115234 0
   vertex -9.1004438400268555 26.987422943115234 5
  endloop
 endfacet
 facet normal 0 -1 0
  outer loop
   vertex -9.1004438400268555 26.987422943115234 5
   vertex -6.4637250900268555 26.987422943115234 0
   vertex -6.4637250900268555 26.987422943115234 5
  endloop
 endfacet
 facet normal 0 0 1
  outer loop
   vertex -9.1004438400268555 26.987422943115234 5
   vertex -6.4637250900268555 26.987422943115234 5
   vertex -9.1004438400268555 30.019649505615234 5
  endloop
 endfacet
 facet normal 0 -0 1
  outer loop
   vertex -9.1004438400268555 30.019649505615234 5
   vertex -6.4637250900268555 26.987422943115234 5
   vertex -6.4637250900268555 30.019649505615234 5
  endloop
 endfacet
 facet normal 0 0 -1
  outer loop
   vertex -6.4637250900268555 26.987422943115234 0
   vertex -9.1004438400268555 26.987422943115234 0
   vertex -6.4637250900268555 30.019649505615234 0
  endloop
 endfacet
 facet normal 0 0 -1
  outer loop
   vertex -6.4637250900268555 30.019649505615234 0
   vertex -9.1004438400268555 26.987422943115234 0
   vertex -9.1004438400268555 30.019649505615234 0
  endloop
 endfacet
endsolid
