999
DXF-file created by Varkon 1.18A
  0
SECTION
  2
HEADER
  9
$ACADVER
  1
AC1009
  0
ENDSEC
  0
SECTION
  2
ENTITIES
  0
POLYLINE
  8
LAY0
 62
2
 66
1
  0
VERTEX
  8
LAY0
 10
5900
 20
-98.675
  0
VERTEX
  8
LAY0
 10
5900
 20
-91.4845
  0
VERTEX
  8
LAY0
 10
5900
 20
-69.9135
  0
VERTEX
  8
LAY0
 10
5900
 20
-34.8334
  0
VERTEX
  8
LAY0
 10
5900
 20
18.1624
  0
VERTEX
  8
LAY0
 10
5900
 20
86.8903
  0
VERTEX
  8
LAY0
 10
5900
 20
167.644
  0
VERTEX
  8
LAY0
 10
5900
 20
260.32
  0
VERTEX
  8
LAY0
 10
5900
 20
364.957
  0
VERTEX
  8
LAY0
 10
5900
 20
475.898
  0
VERTEX
  8
LAY0
 10
5900
 20
584.024
  0
VERTEX
  8
LAY0
 10
5900
 20
697.128
  0
VERTEX
  8
LAY0
 10
5900
 20
810.598
  0
VERTEX
  8
LAY0
 10
5900
 20
906.134
  0
VERTEX
  8
LAY0
 10
5900
 20
1001.32
  0
VERTEX
  8
LAY0
 10
5900
 20
1092.43
  0
VERTEX
  8
LAY0
 10
5900
 20
1185.79
  0
VERTEX
  8
LAY0
 10
5900
 20
1273.87
  0
VERTEX
  8
LAY0
 10
5900
 20
1352
  0
VERTEX
  8
LAY0
 10
5900
 20
1419.96
  0
VERTEX
  8
LAY0
 10
5900
 20
1477.82
  0
VERTEX
  8
LAY0
 10
5900
 20
1522.5
  0
VERTEX
  8
LAY0
 10
5900
 20
1552.04
  0
VERTEX
  8
LAY0
 10
5900
 20
1570.2
  0
VERTEX
  8
LAY0
 10
5900
 20
1576.26
  0
VERTEX
  8
LAY0
 10
5900
 20
1570.2
  0
VERTEX
  8
LAY0
 10
5900
 20
1552.04
  0
VERTEX
  8
LAY0
 10
5900
 20
1522.5
  0
VERTEX
  8
LAY0
 10
5900
 20
1477.82
  0
VERTEX
  8
LAY0
 10
5900
 20
1419.96
  0
VERTEX
  8
LAY0
 10
5900
 20
1352
  0
VERTEX
  8
LAY0
 10
5900
 20
1273.87
  0
VERTEX
  8
LAY0
 10
5900
 20
1185.79
  0
VERTEX
  8
LAY0
 10
5900
 20
1092.43
  0
VERTEX
  8
LAY0
 10
5900
 20
1001.33
  0
VERTEX
  8
LAY0
 10
5900
 20
906.134
  0
VERTEX
  8
LAY0
 10
5900
 20
810.598
  0
VERTEX
  8
LAY0
 10
5900
 20
697.128
  0
VERTEX
  8
LAY0
 10
5900
 20
584.023
  0
VERTEX
  8
LAY0
 10
5900
 20
475.898
  0
VERTEX
  8
LAY0
 10
5900
 20
364.956
  0
VERTEX
  8
LAY0
 10
5900
 20
260.319
  0
VERTEX
  8
LAY0
 10
5900
 20
167.644
  0
VERTEX
  8
LAY0
 10
5900
 20
86.8893
  0
VERTEX
  8
LAY0
 10
5900
 20
18.1613
  0
VERTEX
  8
LAY0
 10
5900
 20
-34.8336
  0
VERTEX
  8
LAY0
 10
5900
 20
-69.9138
  0
VERTEX
  8
LAY0
 10
5900
 20
-91.4848
  0
VERTEX
  8
LAY0
 10
5900
 20
-98.675
  0
SEQEND
  0
POLYLINE
  8
LAY0
 62
2
 66
1
  0
VERTEX
  8
LAY0
 10
5700
 20
-115.725
  0
VERTEX
  8
LAY0
 10
5700
 20
-108.575
  0
VERTEX
  8
LAY0
 10
5700
 20
-87.1231
  0
VERTEX
  8
LAY0
 10
5700
 20
-52.2273
  0
VERTEX
  8
LAY0
 10
5700
 20
0.507591
  0
VERTEX
  8
LAY0
 10
5700
 20
68.8512
  0
VERTEX
  8
LAY0
 10
5700
 20
149.16
  0
VERTEX
  8
LAY0
 10
5700
 20
241.382
  0
VERTEX
  8
LAY0
 10
5700
 20
345.428
  0
VERTEX
  8
LAY0
 10
5700
 20
455.754
  0
VERTEX
  8
LAY0
 10
5700
 20
563.33
  0
VERTEX
  8
LAY0
 10
5700
 20
675.789
  0
VERTEX
  8
LAY0
 10
5700
 20
788.651
  0
VERTEX
  8
LAY0
 10
5700
 20
884.786
  0
VERTEX
  8
LAY0
 10
5700
 20
980.596
  0
VERTEX
  8
LAY0
 10
5700
 20
1072.19
  0
VERTEX
  8
LAY0
 10
5700
 20
1166.19
  0
VERTEX
  8
LAY0
 10
5700
 20
1254.83
  0
VERTEX
  8
LAY0
 10
5700
 20
1333.33
  0
VERTEX
  8
LAY0
 10
5700
 20
1401.75
  0
VERTEX
  8
LAY0
 10
5700
 20
1459.97
  0
VERTEX
  8
LAY0
 10
5700
 20
1504.86
  0
VERTEX
  8
LAY0
 10
5700
 20
1534.58
  0
VERTEX
  8
LAY0
 10
5700
 20
1552.85
  0
VERTEX
  8
LAY0
 10
5700
 20
1558.94
  0
VERTEX
  8
LAY0
 10
5700
 20
1552.85
  0
VERTEX
  8
LAY0
 10
5700
 20
1534.58
  0
VERTEX
  8
LAY0
 10
5700
 20
1504.86
  0
VERTEX
  8
LAY0
 10
5700
 20
1459.97
  0
VERTEX
  8
LAY0
 10
5700
 20
1401.75
  0
VERTEX
  8
LAY0
 10
5700
 20
1333.33
  0
VERTEX
  8
LAY0
 10
5700
 20
1254.83
  0
VERTEX
  8
LAY0
 10
5700
 20
1166.19
  0
VERTEX
  8
LAY0
 10
5700
 20
1072.19
  0
VERTEX
  8
LAY0
 10
5700
 20
980.596
  0
VERTEX
  8
LAY0
 10
5700
 20
884.787
  0
VERTEX
  8
LAY0
 10
5700
 20
788.651
  0
VERTEX
  8
LAY0
 10
5700
 20
675.789
  0
VERTEX
  8
LAY0
 10
5700
 20
563.33
  0
VERTEX
  8
LAY0
 10
5700
 20
455.754
  0
VERTEX
  8
LAY0
 10
5700
 20
345.428
  0
VERTEX
  8
LAY0
 10
5700
 20
241.383
  0
VERTEX
  8
LAY0
 10
5700
 20
149.16
  0
VERTEX
  8
LAY0
 10
5700
 20
68.8514
  0
VERTEX
  8
LAY0
 10
5700
 20
0.507905
  0
VERTEX
  8
LAY0
 10
5700
 20
-52.2274
  0
VERTEX
  8
LAY0
 10
5700
 20
-87.123
  0
VERTEX
  8
LAY0
 10
5700
 20
-108.574
  0
VERTEX
  8
LAY0
 10
5700
 20
-115.725
  0
SEQEND
  0
POLYLINE
  8
LAY0
 62
2
 66
1
  0
VERTEX
  8
LAY0
 10
5500
 20
-71.2144
  0
VERTEX
  8
LAY0
 10
5500
 20
-105.924
  0
VERTEX
  8
LAY0
 10
5500
 20
-127.262
  0
VERTEX
  8
LAY0
 10
5500
 20
-134.375
  0
VERTEX
  8
LAY0
 10
5500
 20
-127.262
  0
VERTEX
  8
LAY0
 10
5500
 20
-105.924
  0
VERTEX
  8
LAY0
 10
5500
 20
-71.2145
  0
VERTEX
  8
LAY0
 10
5500
 20
-18.765
  0
VERTEX
  8
LAY0
 10
5500
 20
49.2194
  0
VERTEX
  8
LAY0
 10
5500
 20
129.103
  0
VERTEX
  8
LAY0
 10
5500
 20
220.826
  0
VERTEX
  8
LAY0
 10
5500
 20
324.326
  0
VERTEX
  8
LAY0
 10
5500
 20
434.07
  0
VERTEX
  8
LAY0
 10
5500
 20
541.067
  0
VERTEX
  8
LAY0
 10
5500
 20
652.938
  0
VERTEX
  8
LAY0
 10
5500
 20
765.2
  0
VERTEX
  8
LAY0
 10
5500
 20
861.753
  0
VERTEX
  8
LAY0
 10
5500
 20
957.97
  0
VERTEX
  8
LAY0
 10
5500
 20
1050
  0
VERTEX
  8
LAY0
 10
5500
 20
1144.38
  0
VERTEX
  8
LAY0
 10
5500
 20
1233.4
  0
VERTEX
  8
LAY0
 10
5500
 20
1312.29
  0
VERTEX
  8
LAY0
 10
5500
 20
1381
  0
VERTEX
  8
LAY0
 10
5500
 20
1439.47
  0
VERTEX
  8
LAY0
 10
5500
 20
1484.58
  0
VERTEX
  8
LAY0
 10
5500
 20
1514.43
  0
VERTEX
  8
LAY0
 10
5500
 20
1532.78
  0
VERTEX
  8
LAY0
 10
5500
 20
1538.9
  0
VERTEX
  8
LAY0
 10
5500
 20
1532.78
  0
VERTEX
  8
LAY0
 10
5500
 20
1514.43
  0
VERTEX
  8
LAY0
 10
5500
 20
1484.58
  0
VERTEX
  8
LAY0
 10
5500
 20
1439.47
  0
VERTEX
  8
LAY0
 10
5500
 20
1381
  0
VERTEX
  8
LAY0
 10
5500
 20
1312.29
  0
VERTEX
  8
LAY0
 10
5500
 20
1233.4
  0
VERTEX
  8
LAY0
 10
5500
 20
1144.38
  0
VERTEX
  8
LAY0
 10
5500
 20
1050
  0
VERTEX
  8
LAY0
 10
5500
 20
957.971
  0
VERTEX
  8
LAY0
 10
5500
 20
861.753
  0
VERTEX
  8
LAY0
 10
5500
 20
765.2
  0
VERTEX
  8
LAY0
 10
5500
 20
652.938
  0
VERTEX
  8
LAY0
 10
5500
 20
541.068
  0
VERTEX
  8
LAY0
 10
5500
 20
434.07
  0
VERTEX
  8
LAY0
 10
5500
 20
324.327
  0
VERTEX
  8
LAY0
 10
5500
 20
220.826
  0
VERTEX
  8
LAY0
 10
5500
 20
129.104
  0
VERTEX
  8
LAY0
 10
5500
 20
49.2196
  0
VERTEX
  8
LAY0
 10
5500
 20
-18.7648
  0
VERTEX
  8
LAY0
 10
5500
 20
-71.2144
  0
SEQEND
  0
POLYLINE
  8
LAY0
 62
2
 66
1
  0
VERTEX
  8
LAY0
 10
5300
 20
-150.625
  0
VERTEX
  8
LAY0
 10
5300
 20
-143.58
  0
VERTEX
  8
LAY0
 10
5300
 20
-122.445
  0
VERTEX
  8
LAY0
 10
5300
 20
-88.0746
  0
VERTEX
  8
LAY0
 10
5300
 20
-36.1581
  0
VERTEX
  8
LAY0
 10
5300
 20
31.1823
  0
VERTEX
  8
LAY0
 10
5300
 20
110.308
  0
VERTEX
  8
LAY0
 10
5300
 20
201.096
  0
VERTEX
  8
LAY0
 10
5300
 20
303.622
  0
VERTEX
  8
LAY0
 10
5300
 20
412.328
  0
VERTEX
  8
LAY0
 10
5300
 20
518.257
  0
VERTEX
  8
LAY0
 10
5300
 20
629.082
  0
VERTEX
  8
LAY0
 10
5300
 20
740.259
  0
VERTEX
  8
LAY0
 10
5300
 20
837.044
  0
VERTEX
  8
LAY0
 10
5300
 20
933.503
  0
VERTEX
  8
LAY0
 10
5300
 20
1025.75
  0
VERTEX
  8
LAY0
 10
5300
 20
1120.36
  0
VERTEX
  8
LAY0
 10
5300
 20
1209.61
  0
VERTEX
  8
LAY0
 10
5300
 20
1288.69
  0
VERTEX
  8
LAY0
 10
5300
 20
1357.56
  0
VERTEX
  8
LAY0
 10
5300
 20
1416.18
  0
VERTEX
  8
LAY0
 10
5300
 20
1461.4
  0
VERTEX
  8
LAY0
 10
5300
 20
1491.33
  0
VERTEX
  8
LAY0
 10
5300
 20
1509.73
  0
VERTEX
  8
LAY0
 10
5300
 20
1515.86
  0
VERTEX
  8
LAY0
 10
5300
 20
1509.73
  0
VERTEX
  8
LAY0
 10
5300
 20
1491.33
  0
VERTEX
  8
LAY0
 10
5300
 20
1461.4
  0
VERTEX
  8
LAY0
 10
5300
 20
1416.18
  0
VERTEX
  8
LAY0
 10
5300
 20
1357.56
  0
VERTEX
  8
LAY0
 10
5300
 20
1288.69
  0
VERTEX
  8
LAY0
 10
5300
 20
1209.61
  0
VERTEX
  8
LAY0
 10
5300
 20
1120.36
  0
VERTEX
  8
LAY0
 10
5300
 20
1025.75
  0
VERTEX
  8
LAY0
 10
5300
 20
933.502
  0
VERTEX
  8
LAY0
 10
5300
 20
837.043
  0
VERTEX
  8
LAY0
 10
5300
 20
740.259
  0
VERTEX
  8
LAY0
 10
5300
 20
629.082
  0
VERTEX
  8
LAY0
 10
5300
 20
518.257
  0
VERTEX
  8
LAY0
 10
5300
 20
412.328
  0
VERTEX
  8
LAY0
 10
5300
 20
303.621
  0
VERTEX
  8
LAY0
 10
5300
 20
201.096
  0
VERTEX
  8
LAY0
 10
5300
 20
110.308
  0
VERTEX
  8
LAY0
 10
5300
 20
31.1818
  0
VERTEX
  8
LAY0
 10
5300
 20
-36.1586
  0
VERTEX
  8
LAY0
 10
5300
 20
-88.0747
  0
VERTEX
  8
LAY0
 10
5300
 20
-122.445
  0
VERTEX
  8
LAY0
 10
5300
 20
-143.58
  0
VERTEX
  8
LAY0
 10
5300
 20
-150.625
  0
SEQEND
  0
POLYLINE
  8
LAY0
 62
2
 66
1
  0
VERTEX
  8
LAY0
 10
5100
 20
-166.875
  0
VERTEX
  8
LAY0
 10
5100
 20
-159.913
  0
VERTEX
  8
LAY0
 10
5100
 20
-139.028
  0
VERTEX
  8
LAY0
 10
5100
 20
-105.041
  0
VERTEX
  8
LAY0
 10
5100
 20
-53.6461
  0
VERTEX
  8
LAY0
 10
5100
 20
12.8877
  0
VERTEX
  8
LAY0
 10
5100
 20
91.0692
  0
VERTEX
  8
LAY0
 10
5100
 20
180.952
  0
VERTEX
  8
LAY0
 10
5100
 20
282.233
  0
VERTEX
  8
LAY0
 10
5100
 20
389.63
  0
VERTEX
  8
LAY0
 10
5100
 20
494.442
  0
VERTEX
  8
LAY0
 10
5100
 20
603.901
  0
VERTEX
  8
LAY0
 10
5100
 20
713.805
  0
VERTEX
  8
LAY0
 10
5100
 20
810.623
  0
VERTEX
  8
LAY0
 10
5100
 20
907.089
  0
VERTEX
  8
LAY0
 10
5100
 20
999.344
  0
VERTEX
  8
LAY0
 10
5100
 20
1094.01
  0
VERTEX
  8
LAY0
 10
5100
 20
1183.25
  0
VERTEX
  8
LAY0
 10
5100
 20
1262.32
  0
VERTEX
  8
LAY0
 10
5100
 20
1331.23
  0
VERTEX
  8
LAY0
 10
5100
 20
1389.84
  0
VERTEX
  8
LAY0
 10
5100
 20
1435.06
  0
VERTEX
  8
LAY0
 10
5100
 20
1464.99
  0
VERTEX
  8
LAY0
 10
5100
 20
1483.39
  0
VERTEX
  8
LAY0
 10
5100
 20
1489.52
  0
VERTEX
  8
LAY0
 10
5100
 20
1483.39
  0
VERTEX
  8
LAY0
 10
5100
 20
1464.99
  0
VERTEX
  8
LAY0
 10
5100
 20
1435.06
  0
VERTEX
  8
LAY0
 10
5100
 20
1389.84
  0
VERTEX
  8
LAY0
 10
5100
 20
1331.23
  0
VERTEX
  8
LAY0
 10
5100
 20
1262.32
  0
VERTEX
  8
LAY0
 10
5100
 20
1183.25
  0
VERTEX
  8
LAY0
 10
5100
 20
1094.01
  0
VERTEX
  8
LAY0
 10
5100
 20
999.344
  0
VERTEX
  8
LAY0
 10
5100
 20
907.088
  0
VERTEX
  8
LAY0
 10
5100
 20
810.623
  0
VERTEX
  8
LAY0
 10
5100
 20
713.805
  0
VERTEX
  8
LAY0
 10
5100
 20
603.902
  0
VERTEX
  8
LAY0
 10
5100
 20
494.443
  0
VERTEX
  8
LAY0
 10
5100
 20
389.63
  0
VERTEX
  8
LAY0
 10
5100
 20
282.234
  0
VERTEX
  8
LAY0
 10
5100
 20
180.953
  0
VERTEX
  8
LAY0
 10
5100
 20
91.0692
  0
VERTEX
  8
LAY0
 10
5100
 20
12.8884
  0
VERTEX
  8
LAY0
 10
5100
 20
-53.6452
  0
VERTEX
  8
LAY0
 10
5100
 20
-105.041
  0
VERTEX
  8
LAY0
 10
5100
 20
-139.028
  0
VERTEX
  8
LAY0
 10
5100
 20
-159.913
  0
VERTEX
  8
LAY0
 10
5100
 20
-166.875
  0
SEQEND
  0
POLYLINE
  8
LAY0
 62
2
 66
1
  0
VERTEX
  8
LAY0
 10
4900
 20
-183.092
  0
VERTEX
  8
LAY0
 10
4900
 20
-176.218
  0
VERTEX
  8
LAY0
 10
4900
 20
-155.596
  0
VERTEX
  8
LAY0
 10
4900
 20
-122.072
  0
VERTEX
  8
LAY0
 10
4900
 20
-71.4512
  0
VERTEX
  8
LAY0
 10
4900
 20
-5.74362
  0
VERTEX
  8
LAY0
 10
4900
 20
71.4581
  0
VERTEX
  8
LAY0
 10
4900
 20
159.977
  0
VERTEX
  8
LAY0
 10
4900
 20
260.023
  0
VERTEX
  8
LAY0
 10
4900
 20
366.09
  0
VERTEX
  8
LAY0
 10
4900
 20
469.393
  0
VERTEX
  8
LAY0
 10
4900
 20
577.544
  0
VERTEX
  8
LAY0
 10
4900
 20
686
  0
VERTEX
  8
LAY0
 10
4900
 20
782.572
  0
VERTEX
  8
LAY0
 10
4900
 20
878.837
  0
VERTEX
  8
LAY0
 10
4900
 20
970.892
  0
VERTEX
  8
LAY0
 10
4900
 20
1065.29
  0
VERTEX
  8
LAY0
 10
4900
 20
1154.35
  0
VERTEX
  8
LAY0
 10
4900
 20
1233.27
  0
VERTEX
  8
LAY0
 10
4900
 20
1301.98
  0
VERTEX
  8
LAY0
 10
4900
 20
1360.49
  0
VERTEX
  8
LAY0
 10
4900
 20
1405.62
  0
VERTEX
  8
LAY0
 10
4900
 20
1435.48
  0
VERTEX
  8
LAY0
 10
4900
 20
1453.84
  0
VERTEX
  8
LAY0
 10
4900
 20
1459.96
  0
VERTEX
  8
LAY0
 10
4900
 20
1453.84
  0
VERTEX
  8
LAY0
 10
4900
 20
1435.48
  0
VERTEX
  8
LAY0
 10
4900
 20
1405.62
  0
VERTEX
  8
LAY0
 10
4900
 20
1360.49
  0
VERTEX
  8
LAY0
 10
4900
 20
1301.99
  0
VERTEX
  8
LAY0
 10
4900
 20
1233.27
  0
VERTEX
  8
LAY0
 10
4900
 20
1154.35
  0
VERTEX
  8
LAY0
 10
4900
 20
1065.29
  0
VERTEX
  8
LAY0
 10
4900
 20
970.892
  0
VERTEX
  8
LAY0
 10
4900
 20
878.838
  0
VERTEX
  8
LAY0
 10
4900
 20
782.572
  0
VERTEX
  8
LAY0
 10
4900
 20
686
  0
VERTEX
  8
LAY0
 10
4900
 20
577.544
  0
VERTEX
  8
LAY0
 10
4900
 20
469.393
  0
VERTEX
  8
LAY0
 10
4900
 20
366.09
  0
VERTEX
  8
LAY0
 10
4900
 20
260.023
  0
VERTEX
  8
LAY0
 10
4900
 20
159.976
  0
VERTEX
  8
LAY0
 10
4900
 20
71.4581
  0
VERTEX
  8
LAY0
 10
4900
 20
-5.74427
  0
VERTEX
  8
LAY0
 10
4900
 20
-71.452
  0
VERTEX
  8
LAY0
 10
4900
 20
-122.072
  0
VERTEX
  8
LAY0
 10
4900
 20
-155.597
  0
VERTEX
  8
LAY0
 10
4900
 20
-176.218
  0
VERTEX
  8
LAY0
 10
4900
 20
-183.092
  0
SEQEND
  0
POLYLINE
  8
LAY0
 62
2
 66
1
  0
VERTEX
  8
LAY0
 10
4700
 20
-199.042
  0
VERTEX
  8
LAY0
 10
4700
 20
-192.267
  0
VERTEX
  8
LAY0
 10
4700
 20
-171.94
  0
VERTEX
  8
LAY0
 10
4700
 20
-138.868
  0
VERTEX
  8
LAY0
 10
4700
 20
-88.8722
  0
VERTEX
  8
LAY0
 10
4700
 20
-24.1148
  0
VERTEX
  8
LAY0
 10
4700
 20
51.9781
  0
VERTEX
  8
LAY0
 10
4700
 20
139.413
  0
VERTEX
  8
LAY0
 10
4700
 20
237.994
  0
VERTEX
  8
LAY0
 10
4700
 20
342.525
  0
VERTEX
  8
LAY0
 10
4700
 20
444.499
  0
VERTEX
  8
LAY0
 10
4700
 20
551.046
  0
VERTEX
  8
LAY0
 10
4700
 20
658
  0
VERTEX
  8
LAY0
 10
4700
 20
754.297
  0
VERTEX
  8
LAY0
 10
4700
 20
850.247
  0
VERTEX
  8
LAY0
 10
4700
 20
942.024
  0
VERTEX
  8
LAY0
 10
4700
 20
1036.16
  0
VERTEX
  8
LAY0
 10
4700
 20
1124.93
  0
VERTEX
  8
LAY0
 10
4700
 20
1203.61
  0
VERTEX
  8
LAY0
 10
4700
 20
1272.13
  0
VERTEX
  8
LAY0
 10
4700
 20
1330.44
  0
VERTEX
  8
LAY0
 10
4700
 20
1375.43
  0
VERTEX
  8
LAY0
 10
4700
 20
1405.2
  0
VERTEX
  8
LAY0
 10
4700
 20
1423.5
  0
VERTEX
  8
LAY0
 10
4700
 20
1429.6
  0
VERTEX
  8
LAY0
 10
4700
 20
1423.5
  0
VERTEX
  8
LAY0
 10
4700
 20
1405.2
  0
VERTEX
  8
LAY0
 10
4700
 20
1375.43
  0
VERTEX
  8
LAY0
 10
4700
 20
1330.44
  0
VERTEX
  8
LAY0
 10
4700
 20
1272.13
  0
VERTEX
  8
LAY0
 10
4700
 20
1203.61
  0
VERTEX
  8
LAY0
 10
4700
 20
1124.93
  0
VERTEX
  8
LAY0
 10
4700
 20
1036.16
  0
VERTEX
  8
LAY0
 10
4700
 20
942.024
  0
VERTEX
  8
LAY0
 10
4700
 20
850.247
  0
VERTEX
  8
LAY0
 10
4700
 20
754.297
  0
VERTEX
  8
LAY0
 10
4700
 20
658
  0
VERTEX
  8
LAY0
 10
4700
 20
551.046
  0
VERTEX
  8
LAY0
 10
4700
 20
444.499
  0
VERTEX
  8
LAY0
 10
4700
 20
342.526
  0
VERTEX
  8
LAY0
 10
4700
 20
237.995
  0
VERTEX
  8
LAY0
 10
4700
 20
139.414
  0
VERTEX
  8
LAY0
 10
4700
 20
51.9786
  0
VERTEX
  8
LAY0
 10
4700
 20
-24.1141
  0
VERTEX
  8
LAY0
 10
4700
 20
-88.8715
  0
VERTEX
  8
LAY0
 10
4700
 20
-138.868
  0
VERTEX
  8
LAY0
 10
4700
 20
-171.94
  0
VERTEX
  8
LAY0
 10
4700
 20
-192.267
  0
VERTEX
  8
LAY0
 10
4700
 20
-199.042
  0
SEQEND
  0
POLYLINE
  8
LAY0
 62
2
 66
1
  0
VERTEX
  8
LAY0
 10
4500
 20
-155.3
  0
VERTEX
  8
LAY0
 10
4500
 20
-187.888
  0
VERTEX
  8
LAY0
 10
4500
 20
-207.922
  0
VERTEX
  8
LAY0
 10
4500
 20
-214.6
  0
VERTEX
  8
LAY0
 10
4500
 20
-207.922
  0
VERTEX
  8
LAY0
 10
4500
 20
-187.887
  0
VERTEX
  8
LAY0
 10
4500
 20
-155.299
  0
VERTEX
  8
LAY0
 10
4500
 20
-106.055
  0
VERTEX
  8
LAY0
 10
4500
 20
-42.2255
  0
VERTEX
  8
LAY0
 10
4500
 20
32.7766
  0
VERTEX
  8
LAY0
 10
4500
 20
118.894
  0
VERTEX
  8
LAY0
 10
4500
 20
216.069
  0
VERTEX
  8
LAY0
 10
4500
 20
319.106
  0
VERTEX
  8
LAY0
 10
4500
 20
419.564
  0
VERTEX
  8
LAY0
 10
4500
 20
524.599
  0
VERTEX
  8
LAY0
 10
4500
 20
630
  0
VERTEX
  8
LAY0
 10
4500
 20
725.942
  0
VERTEX
  8
LAY0
 10
4500
 20
821.549
  0
VERTEX
  8
LAY0
 10
4500
 20
912.992
  0
VERTEX
  8
LAY0
 10
4500
 20
1006.78
  0
VERTEX
  8
LAY0
 10
4500
 20
1095.24
  0
VERTEX
  8
LAY0
 10
4500
 20
1173.62
  0
VERTEX
  8
LAY0
 10
4500
 20
1241.9
  0
VERTEX
  8
LAY0
 10
4500
 20
1300
  0
VERTEX
  8
LAY0
 10
4500
 20
1344.82
  0
VERTEX
  8
LAY0
 10
4500
 20
1374.48
  0
VERTEX
  8
LAY0
 10
4500
 20
1392.72
  0
VERTEX
  8
LAY0
 10
4500
 20
1398.8
  0
VERTEX
  8
LAY0
 10
4500
 20
1392.72
  0
VERTEX
  8
LAY0
 10
4500
 20
1374.48
  0
VERTEX
  8
LAY0
 10
4500
 20
1344.82
  0
VERTEX
  8
LAY0
 10
4500
 20
1300
  0
VERTEX
  8
LAY0
 10
4500
 20
1241.9
  0
VERTEX
  8
LAY0
 10
4500
 20
1173.62
  0
VERTEX
  8
LAY0
 10
4500
 20
1095.24
  0
VERTEX
  8
LAY0
 10
4500
 20
1006.78
  0
VERTEX
  8
LAY0
 10
4500
 20
912.993
  0
VERTEX
  8
LAY0
 10
4500
 20
821.55
  0
VERTEX
  8
LAY0
 10
4500
 20
725.942
  0
VERTEX
  8
LAY0
 10
4500
 20
630
  0
VERTEX
  8
LAY0
 10
4500
 20
524.598
  0
VERTEX
  8
LAY0
 10
4500
 20
419.564
  0
VERTEX
  8
LAY0
 10
4500
 20
319.105
  0
VERTEX
  8
LAY0
 10
4500
 20
216.068
  0
VERTEX
  8
LAY0
 10
4500
 20
118.893
  0
VERTEX
  8
LAY0
 10
4500
 20
32.7759
  0
VERTEX
  8
LAY0
 10
4500
 20
-42.2261
  0
VERTEX
  8
LAY0
 10
4500
 20
-106.056
  0
VERTEX
  8
LAY0
 10
4500
 20
-155.3
  0
SEQEND
  0
POLYLINE
  8
LAY0
 62
2
 66
1
  0
VERTEX
  8
LAY0
 10
4300
 20
-229.606
  0
VERTEX
  8
LAY0
 10
4300
 20
-223.029
  0
VERTEX
  8
LAY0
 10
4300
 20
-203.297
  0
VERTEX
  8
LAY0
 10
4300
 20
-171.217
  0
VERTEX
  8
LAY0
 10
4300
 20
-122.755
  0
VERTEX
  8
LAY0
 10
4300
 20
-59.8877
  0
VERTEX
  8
LAY0
 10
4300
 20
13.9652
  0
VERTEX
  8
LAY0
 10
4300
 20
98.7122
  0
VERTEX
  8
LAY0
 10
4300
 20
194.427
  0
VERTEX
  8
LAY0
 10
4300
 20
295.889
  0
VERTEX
  8
LAY0
 10
4300
 20
394.767
  0
VERTEX
  8
LAY0
 10
4300
 20
498.228
  0
VERTEX
  8
LAY0
 10
4300
 20
602
  0
VERTEX
  8
LAY0
 10
4300
 20
697.501
  0
VERTEX
  8
LAY0
 10
4300
 20
792.699
  0
VERTEX
  8
LAY0
 10
4300
 20
883.731
  0
VERTEX
  8
LAY0
 10
4300
 20
977.082
  0
VERTEX
  8
LAY0
 10
4300
 20
1065.16
  0
VERTEX
  8
LAY0
 10
4300
 20
1143.2
  0
VERTEX
  8
LAY0
 10
4300
 20
1211.15
  0
VERTEX
  8
LAY0
 10
4300
 20
1269.01
  0
VERTEX
  8
LAY0
 10
4300
 20
1313.63
  0
VERTEX
  8
LAY0
 10
4300
 20
1343.16
  0
VERTEX
  8
LAY0
 10
4300
 20
1361.32
  0
VERTEX
  8
LAY0
 10
4300
 20
1367.37
  0
VERTEX
  8
LAY0
 10
4300
 20
1361.32
  0
VERTEX
  8
LAY0
 10
4300
 20
1343.16
  0
VERTEX
  8
LAY0
 10
4300
 20
1313.63
  0
VERTEX
  8
LAY0
 10
4300
 20
1269.01
  0
VERTEX
  8
LAY0
 10
4300
 20
1211.15
  0
VERTEX
  8
LAY0
 10
4300
 20
1143.2
  0
VERTEX
  8
LAY0
 10
4300
 20
1065.16
  0
VERTEX
  8
LAY0
 10
4300
 20
977.083
  0
VERTEX
  8
LAY0
 10
4300
 20
883.731
  0
VERTEX
  8
LAY0
 10
4300
 20
792.699
  0
VERTEX
  8
LAY0
 10
4300
 20
697.501
  0
VERTEX
  8
LAY0
 10
4300
 20
602
  0
VERTEX
  8
LAY0
 10
4300
 20
498.228
  0
VERTEX
  8
LAY0
 10
4300
 20
394.766
  0
VERTEX
  8
LAY0
 10
4300
 20
295.889
  0
VERTEX
  8
LAY0
 10
4300
 20
194.426
  0
VERTEX
  8
LAY0
 10
4300
 20
98.7114
  0
VERTEX
  8
LAY0
 10
4300
 20
13.9649
  0
VERTEX
  8
LAY0
 10
4300
 20
-59.8883
  0
VERTEX
  8
LAY0
 10
4300
 20
-122.755
  0
VERTEX
  8
LAY0
 10
4300
 20
-171.218
  0
VERTEX
  8
LAY0
 10
4300
 20
-203.297
  0
VERTEX
  8
LAY0
 10
4300
 20
-223.029
  0
VERTEX
  8
LAY0
 10
4300
 20
-229.606
  0
SEQEND
  0
POLYLINE
  8
LAY0
 62
2
 66
1
  0
VERTEX
  8
LAY0
 10
4100
 20
-244.007
  0
VERTEX
  8
LAY0
 10
4100
 20
-237.542
  0
VERTEX
  8
LAY0
 10
4100
 20
-218.147
  0
VERTEX
  8
LAY0
 10
4100
 20
-186.573
  0
VERTEX
  8
LAY0
 10
4100
 20
-138.83
  0
VERTEX
  8
LAY0
 10
4100
 20
-77.0462
  0
VERTEX
  8
LAY0
 10
4100
 20
-4.41855
  0
VERTEX
  8
LAY0
 10
4100
 20
79.0795
  0
VERTEX
  8
LAY0
 10
4100
 20
173.13
  0
VERTEX
  8
LAY0
 10
4100
 20
272.895
  0
VERTEX
  8
LAY0
 10
4100
 20
370.261
  0
VERTEX
  8
LAY0
 10
4100
 20
471.905
  0
VERTEX
  8
LAY0
 10
4100
 20
574
  0
VERTEX
  8
LAY0
 10
4100
 20
669.026
  0
VERTEX
  8
LAY0
 10
4100
 20
763.668
  0
VERTEX
  8
LAY0
 10
4100
 20
854.221
  0
VERTEX
  8
LAY0
 10
4100
 20
947.128
  0
VERTEX
  8
LAY0
 10
4100
 20
1034.69
  0
VERTEX
  8
LAY0
 10
4100
 20
1112.3
  0
VERTEX
  8
LAY0
 10
4100
 20
1179.93
  0
VERTEX
  8
LAY0
 10
4100
 20
1237.44
  0
VERTEX
  8
LAY0
 10
4100
 20
1281.82
  0
VERTEX
  8
LAY0
 10
4100
 20
1311.2
  0
VERTEX
  8
LAY0
 10
4100
 20
1329.25
  0
VERTEX
  8
LAY0
 10
4100
 20
1335.27
  0
VERTEX
  8
LAY0
 10
4100
 20
1329.25
  0
VERTEX
  8
LAY0
 10
4100
 20
1311.2
  0
VERTEX
  8
LAY0
 10
4100
 20
1281.82
  0
VERTEX
  8
LAY0
 10
4100
 20
1237.44
  0
VERTEX
  8
LAY0
 10
4100
 20
1179.93
  0
VERTEX
  8
LAY0
 10
4100
 20
1112.3
  0
VERTEX
  8
LAY0
 10
4100
 20
1034.68
  0
VERTEX
  8
LAY0
 10
4100
 20
947.126
  0
VERTEX
  8
LAY0
 10
4100
 20
854.22
  0
VERTEX
  8
LAY0
 10
4100
 20
763.667
  0
VERTEX
  8
LAY0
 10
4100
 20
669.025
  0
VERTEX
  8
LAY0
 10
4100
 20
574
  0
VERTEX
  8
LAY0
 10
4100
 20
471.905
  0
VERTEX
  8
LAY0
 10
4100
 20
370.262
  0
VERTEX
  8
LAY0
 10
4100
 20
272.895
  0
VERTEX
  8
LAY0
 10
4100
 20
173.13
  0
VERTEX
  8
LAY0
 10
4100
 20
79.0799
  0
VERTEX
  8
LAY0
 10
4100
 20
-4.41899
  0
VERTEX
  8
LAY0
 10
4100
 20
-77.0458
  0
VERTEX
  8
LAY0
 10
4100
 20
-138.83
  0
VERTEX
  8
LAY0
 10
4100
 20
-186.573
  0
VERTEX
  8
LAY0
 10
4100
 20
-218.147
  0
VERTEX
  8
LAY0
 10
4100
 20
-237.542
  0
VERTEX
  8
LAY0
 10
4100
 20
-244.007
  0
SEQEND
  0
POLYLINE
  8
LAY0
 62
2
 66
1
  0
VERTEX
  8
LAY0
 10
3900
 20
-257.852
  0
VERTEX
  8
LAY0
 10
3900
 20
-251.498
  0
VERTEX
  8
LAY0
 10
3900
 20
-232.437
  0
VERTEX
  8
LAY0
 10
3900
 20
-201.412
  0
VERTEX
  8
LAY0
 10
3900
 20
-154.492
  0
VERTEX
  8
LAY0
 10
3900
 20
-93.7703
  0
VERTEX
  8
LAY0
 10
3900
 20
-22.41
  0
VERTEX
  8
LAY0
 10
3900
 20
59.6485
  0
VERTEX
  8
LAY0
 10
3900
 20
152.08
  0
VERTEX
  8
LAY0
 10
3900
 20
250.105
  0
VERTEX
  8
LAY0
 10
3900
 20
345.787
  0
VERTEX
  8
LAY0
 10
3900
 20
445.681
  0
VERTEX
  8
LAY0
 10
3900
 20
546
  0
VERTEX
  8
LAY0
 10
3900
 20
640.432
  0
VERTEX
  8
LAY0
 10
3900
 20
734.502
  0
VERTEX
  8
LAY0
 10
3900
 20
824.491
  0
VERTEX
  8
LAY0
 10
3900
 20
916.816
  0
VERTEX
  8
LAY0
 10
3900
 20
1003.85
  0
VERTEX
  8
LAY0
 10
3900
 20
1080.98
  0
VERTEX
  8
LAY0
 10
3900
 20
1148.18
  0
VERTEX
  8
LAY0
 10
3900
 20
1205.35
  0
VERTEX
  8
LAY0
 10
3900
 20
1249.45
  0
VERTEX
  8
LAY0
 10
3900
 20
1278.65
  0
VERTEX
  8
LAY0
 10
3900
 20
1296.59
  0
VERTEX
  8
LAY0
 10
3900
 20
1302.57
  0
VERTEX
  8
LAY0
 10
3900
 20
1296.59
  0
VERTEX
  8
LAY0
 10
3900
 20
1278.65
  0
VERTEX
  8
LAY0
 10
3900
 20
1249.45
  0
VERTEX
  8
LAY0
 10
3900
 20
1205.35
  0
VERTEX
  8
LAY0
 10
3900
 20
1148.18
  0
VERTEX
  8
LAY0
 10
3900
 20
1080.98
  0
VERTEX
  8
LAY0
 10
3900
 20
1003.84
  0
VERTEX
  8
LAY0
 10
3900
 20
916.816
  0
VERTEX
  8
LAY0
 10
3900
 20
824.491
  0
VERTEX
  8
LAY0
 10
3900
 20
734.502
  0
VERTEX
  8
LAY0
 10
3900
 20
640.432
  0
VERTEX
  8
LAY0
 10
3900
 20
546
  0
VERTEX
  8
LAY0
 10
3900
 20
445.681
  0
VERTEX
  8
LAY0
 10
3900
 20
345.787
  0
VERTEX
  8
LAY0
 10
3900
 20
250.105
  0
VERTEX
  8
LAY0
 10
3900
 20
152.08
  0
VERTEX
  8
LAY0
 10
3900
 20
59.6487
  0
VERTEX
  8
LAY0
 10
3900
 20
-22.4101
  0
VERTEX
  8
LAY0
 10
3900
 20
-93.7701
  0
VERTEX
  8
LAY0
 10
3900
 20
-154.492
  0
VERTEX
  8
LAY0
 10
3900
 20
-201.412
  0
VERTEX
  8
LAY0
 10
3900
 20
-232.437
  0
VERTEX
  8
LAY0
 10
3900
 20
-251.498
  0
VERTEX
  8
LAY0
 10
3900
 20
-257.852
  0
SEQEND
  0
POLYLINE
  8
LAY0
 62
2
 66
1
  0
VERTEX
  8
LAY0
 10
3700
 20
-270.975
  0
VERTEX
  8
LAY0
 10
3700
 20
-264.744
  0
VERTEX
  8
LAY0
 10
3700
 20
-246.052
  0
VERTEX
  8
LAY0
 10
3700
 20
-215.58
  0
VERTEX
  8
LAY0
 10
3700
 20
-169.487
  0
VERTEX
  8
LAY0
 10
3700
 20
-109.944
  0
VERTEX
  8
LAY0
 10
3700
 20
-39.8903
  0
VERTEX
  8
LAY0
 10
3700
 20
40.7309
  0
VERTEX
  8
LAY0
 10
3700
 20
131.361
  0
VERTEX
  8
LAY0
 10
3700
 20
227.581
  0
VERTEX
  8
LAY0
 10
3700
 20
321.565
  0
VERTEX
  8
LAY0
 10
3700
 20
419.503
  0
VERTEX
  8
LAY0
 10
3700
 20
518
  0
VERTEX
  8
LAY0
 10
3700
 20
611.789
  0
VERTEX
  8
LAY0
 10
3700
 20
705.117
  0
VERTEX
  8
LAY0
 10
3700
 20
794.458
  0
VERTEX
  8
LAY0
 10
3700
 20
886.178
  0
VERTEX
  8
LAY0
 10
3700
 20
972.516
  0
VERTEX
  8
LAY0
 10
3700
 20
1049.07
  0
VERTEX
  8
LAY0
 10
3700
 20
1115.84
  0
VERTEX
  8
LAY0
 10
3700
 20
1172.54
  0
VERTEX
  8
LAY0
 10
3700
 20
1216.32
  0
VERTEX
  8
LAY0
 10
3700
 20
1245.32
  0
VERTEX
  8
LAY0
 10
3700
 20
1263.12
  0
VERTEX
  8
LAY0
 10
3700
 20
1269.05
  0
VERTEX
  8
LAY0
 10
3700
 20
1263.12
  0
VERTEX
  8
LAY0
 10
3700
 20
1245.32
  0
VERTEX
  8
LAY0
 10
3700
 20
1216.32
  0
VERTEX
  8
LAY0
 10
3700
 20
1172.54
  0
VERTEX
  8
LAY0
 10
3700
 20
1115.84
  0
VERTEX
  8
LAY0
 10
3700
 20
1049.07
  0
VERTEX
  8
LAY0
 10
3700
 20
972.515
  0
VERTEX
  8
LAY0
 10
3700
 20
886.177
  0
VERTEX
  8
LAY0
 10
3700
 20
794.458
  0
VERTEX
  8
LAY0
 10
3700
 20
705.116
  0
VERTEX
  8
LAY0
 10
3700
 20
611.788
  0
VERTEX
  8
LAY0
 10
3700
 20
518
  0
VERTEX
  8
LAY0
 10
3700
 20
419.503
  0
VERTEX
  8
LAY0
 10
3700
 20
321.565
  0
VERTEX
  8
LAY0
 10
3700
 20
227.581
  0
VERTEX
  8
LAY0
 10
3700
 20
131.361
  0
VERTEX
  8
LAY0
 10
3700
 20
40.7315
  0
VERTEX
  8
LAY0
 10
3700
 20
-39.8906
  0
VERTEX
  8
LAY0
 10
3700
 20
-109.943
  0
VERTEX
  8
LAY0
 10
3700
 20
-169.487
  0
VERTEX
  8
LAY0
 10
3700
 20
-215.58
  0
VERTEX
  8
LAY0
 10
3700
 20
-246.051
  0
VERTEX
  8
LAY0
 10
3700
 20
-264.744
  0
VERTEX
  8
LAY0
 10
3700
 20
-270.975
  0
SEQEND
  0
POLYLINE
  8
LAY0
 62
2
 66
1
  0
VERTEX
  8
LAY0
 10
3500
 20
-228.773
  0
VERTEX
  8
LAY0
 10
3500
 20
-258.601
  0
VERTEX
  8
LAY0
 10
3500
 20
-276.938
  0
VERTEX
  8
LAY0
 10
3500
 20
-283.05
  0
VERTEX
  8
LAY0
 10
3500
 20
-276.938
  0
VERTEX
  8
LAY0
 10
3500
 20
-258.601
  0
VERTEX
  8
LAY0
 10
3500
 20
-228.773
  0
VERTEX
  8
LAY0
 10
3500
 20
-183.701
  0
VERTEX
  8
LAY0
 10
3500
 20
-125.278
  0
VERTEX
  8
LAY0
 10
3500
 20
-56.63
  0
VERTEX
  8
LAY0
 10
3500
 20
22.1919
  0
VERTEX
  8
LAY0
 10
3500
 20
111.135
  0
VERTEX
  8
LAY0
 10
3500
 20
205.443
  0
VERTEX
  8
LAY0
 10
3500
 20
297.391
  0
VERTEX
  8
LAY0
 10
3500
 20
393.528
  0
VERTEX
  8
LAY0
 10
3500
 20
490
  0
VERTEX
  8
LAY0
 10
3500
 20
582.897
  0
VERTEX
  8
LAY0
 10
3500
 20
675.47
  0
VERTEX
  8
LAY0
 10
3500
 20
764.01
  0
VERTEX
  8
LAY0
 10
3500
 20
854.823
  0
VERTEX
  8
LAY0
 10
3500
 20
940.469
  0
VERTEX
  8
LAY0
 10
3500
 20
1016.37
  0
VERTEX
  8
LAY0
 10
3500
 20
1082.47
  0
VERTEX
  8
LAY0
 10
3500
 20
1138.73
  0
VERTEX
  8
LAY0
 10
3500
 20
1182.13
  0
VERTEX
  8
LAY0
 10
3500
 20
1210.85
  0
VERTEX
  8
LAY0
 10
3500
 20
1228.51
  0
VERTEX
  8
LAY0
 10
3500
 20
1234.4
  0
VERTEX
  8
LAY0
 10
3500
 20
1228.51
  0
VERTEX
  8
LAY0
 10
3500
 20
1210.85
  0
VERTEX
  8
LAY0
 10
3500
 20
1182.13
  0
VERTEX
  8
LAY0
 10
3500
 20
1138.73
  0
VERTEX
  8
LAY0
 10
3500
 20
1082.47
  0
VERTEX
  8
LAY0
 10
3500
 20
1016.37
  0
VERTEX
  8
LAY0
 10
3500
 20
940.469
  0
VERTEX
  8
LAY0
 10
3500
 20
854.823
  0
VERTEX
  8
LAY0
 10
3500
 20
764.01
  0
VERTEX
  8
LAY0
 10
3500
 20
675.47
  0
VERTEX
  8
LAY0
 10
3500
 20
582.897
  0
VERTEX
  8
LAY0
 10
3500
 20
490
  0
VERTEX
  8
LAY0
 10
3500
 20
393.528
  0
VERTEX
  8
LAY0
 10
3500
 20
297.392
  0
VERTEX
  8
LAY0
 10
3500
 20
205.443
  0
VERTEX
  8
LAY0
 10
3500
 20
111.135
  0
VERTEX
  8
LAY0
 10
3500
 20
22.1922
  0
VERTEX
  8
LAY0
 10
3500
 20
-56.6297
  0
VERTEX
  8
LAY0
 10
3500
 20
-125.278
  0
VERTEX
  8
LAY0
 10
3500
 20
-183.701
  0
VERTEX
  8
LAY0
 10
3500
 20
-228.773
  0
SEQEND
  0
POLYLINE
  8
LAY0
 62
2
 66
1
  0
VERTEX
  8
LAY0
 10
3300
 20
-293.749
  0
VERTEX
  8
LAY0
 10
3300
 20
-287.762
  0
VERTEX
  8
LAY0
 10
3300
 20
-269.799
  0
VERTEX
  8
LAY0
 10
3300
 20
-240.687
  0
VERTEX
  8
LAY0
 10
3300
 20
-196.713
  0
VERTEX
  8
LAY0
 10
3300
 20
-139.476
  0
VERTEX
  8
LAY0
 10
3300
 20
-72.3959
  0
VERTEX
  8
LAY0
 10
3300
 20
4.48303
  0
VERTEX
  8
LAY0
 10
3300
 20
91.6377
  0
VERTEX
  8
LAY0
 10
3300
 20
183.812
  0
VERTEX
  8
LAY0
 10
3300
 20
273.542
  0
VERTEX
  8
LAY0
 10
3300
 20
367.765
  0
VERTEX
  8
LAY0
 10
3300
 20
462
  0
VERTEX
  8
LAY0
 10
3300
 20
553.788
  0
VERTEX
  8
LAY0
 10
3300
 20
645.492
  0
VERTEX
  8
LAY0
 10
3300
 20
733.045
  0
VERTEX
  8
LAY0
 10
3300
 20
822.724
  0
VERTEX
  8
LAY0
 10
3300
 20
907.576
  0
VERTEX
  8
LAY0
 10
3300
 20
982.673
  0
VERTEX
  8
LAY0
 10
3300
 20
1047.95
  0
VERTEX
  8
LAY0
 10
3300
 20
1103.69
  0
VERTEX
  8
LAY0
 10
3300
 20
1146.64
  0
VERTEX
  8
LAY0
 10
3300
 20
1175.01
  0
VERTEX
  8
LAY0
 10
3300
 20
1192.51
  0
VERTEX
  8
LAY0
 10
3300
 20
1198.34
  0
VERTEX
  8
LAY0
 10
3300
 20
1192.51
  0
VERTEX
  8
LAY0
 10
3300
 20
1175.01
  0
VERTEX
  8
LAY0
 10
3300
 20
1146.64
  0
VERTEX
  8
LAY0
 10
3300
 20
1103.69
  0
VERTEX
  8
LAY0
 10
3300
 20
1047.95
  0
VERTEX
  8
LAY0
 10
3300
 20
982.673
  0
VERTEX
  8
LAY0
 10
3300
 20
907.577
  0
VERTEX
  8
LAY0
 10
3300
 20
822.725
  0
VERTEX
  8
LAY0
 10
3300
 20
733.045
  0
VERTEX
  8
LAY0
 10
3300
 20
645.493
  0
VERTEX
  8
LAY0
 10
3300
 20
553.788
  0
VERTEX
  8
LAY0
 10
3300
 20
462
  0
VERTEX
  8
LAY0
 10
3300
 20
367.765
  0
VERTEX
  8
LAY0
 10
3300
 20
273.541
  0
VERTEX
  8
LAY0
 10
3300
 20
183.811
  0
VERTEX
  8
LAY0
 10
3300
 20
91.6367
  0
VERTEX
  8
LAY0
 10
3300
 20
4.48169
  0
VERTEX
  8
LAY0
 10
3300
 20
-72.3963
  0
VERTEX
  8
LAY0
 10
3300
 20
-139.476
  0
VERTEX
  8
LAY0
 10
3300
 20
-196.714
  0
VERTEX
  8
LAY0
 10
3300
 20
-240.687
  0
VERTEX
  8
LAY0
 10
3300
 20
-269.799
  0
VERTEX
  8
LAY0
 10
3300
 20
-287.762
  0
VERTEX
  8
LAY0
 10
3300
 20
-293.749
  0
SEQEND
  0
POLYLINE
  8
LAY0
 62
2
 66
1
  0
VERTEX
  8
LAY0
 10
3100
 20
-302.744
  0
VERTEX
  8
LAY0
 10
3100
 20
-296.91
  0
VERTEX
  8
LAY0
 10
3100
 20
-279.407
  0
VERTEX
  8
LAY0
 10
3100
 20
-251.016
  0
VERTEX
  8
LAY0
 10
3100
 20
-208.109
  0
VERTEX
  8
LAY0
 10
3100
 20
-152.342
  0
VERTEX
  8
LAY0
 10
3100
 20
-86.9578
  0
VERTEX
  8
LAY0
 10
3100
 20
-11.9384
  0
VERTEX
  8
LAY0
 10
3100
 20
72.9697
  0
VERTEX
  8
LAY0
 10
3100
 20
162.807
  0
VERTEX
  8
LAY0
 10
3100
 20
250.338
  0
VERTEX
  8
LAY0
 10
3100
 20
342.123
  0
VERTEX
  8
LAY0
 10
3100
 20
434
  0
VERTEX
  8
LAY0
 10
3100
 20
524.597
  0
VERTEX
  8
LAY0
 10
3100
 20
615.066
  0
VERTEX
  8
LAY0
 10
3100
 20
701.457
  0
VERTEX
  8
LAY0
 10
3100
 20
789.991
  0
VERTEX
  8
LAY0
 10
3100
 20
873.695
  0
VERTEX
  8
LAY0
 10
3100
 20
947.781
  0
VERTEX
  8
LAY0
 10
3100
 20
1012.22
  0
VERTEX
  8
LAY0
 10
3100
 20
1067.21
  0
VERTEX
  8
LAY0
 10
3100
 20
1109.58
  0
VERTEX
  8
LAY0
 10
3100
 20
1137.58
  0
VERTEX
  8
LAY0
 10
3100
 20
1154.84
  0
VERTEX
  8
LAY0
 10
3100
 20
1160.59
  0
VERTEX
  8
LAY0
 10
3100
 20
1154.84
  0
VERTEX
  8
LAY0
 10
3100
 20
1137.58
  0
VERTEX
  8
LAY0
 10
3100
 20
1109.58
  0
VERTEX
  8
LAY0
 10
3100
 20
1067.21
  0
VERTEX
  8
LAY0
 10
3100
 20
1012.22
  0
VERTEX
  8
LAY0
 10
3100
 20
947.781
  0
VERTEX
  8
LAY0
 10
3100
 20
873.696
  0
VERTEX
  8
LAY0
 10
3100
 20
789.991
  0
VERTEX
  8
LAY0
 10
3100
 20
701.457
  0
VERTEX
  8
LAY0
 10
3100
 20
615.066
  0
VERTEX
  8
LAY0
 10
3100
 20
524.597
  0
VERTEX
  8
LAY0
 10
3100
 20
434
  0
VERTEX
  8
LAY0
 10
3100
 20
342.123
  0
VERTEX
  8
LAY0
 10
3100
 20
250.338
  0
VERTEX
  8
LAY0
 10
3100
 20
162.807
  0
VERTEX
  8
LAY0
 10
3100
 20
72.9696
  0
VERTEX
  8
LAY0
 10
3100
 20
-11.9387
  0
VERTEX
  8
LAY0
 10
3100
 20
-86.9577
  0
VERTEX
  8
LAY0
 10
3100
 20
-152.342
  0
VERTEX
  8
LAY0
 10
3100
 20
-208.11
  0
VERTEX
  8
LAY0
 10
3100
 20
-251.016
  0
VERTEX
  8
LAY0
 10
3100
 20
-279.407
  0
VERTEX
  8
LAY0
 10
3100
 20
-296.91
  0
VERTEX
  8
LAY0
 10
3100
 20
-302.744
  0
SEQEND
  0
POLYLINE
  8
LAY0
 62
2
 66
1
  0
VERTEX
  8
LAY0
 10
2900
 20
-309.681
  0
VERTEX
  8
LAY0
 10
2900
 20
-304.026
  0
VERTEX
  8
LAY0
 10
2900
 20
-287.062
  0
VERTEX
  8
LAY0
 10
2900
 20
-259.432
  0
VERTEX
  8
LAY0
 10
2900
 20
-217.664
  0
VERTEX
  8
LAY0
 10
2900
 20
-163.62
  0
VERTEX
  8
LAY0
 10
2900
 20
-100.064
  0
VERTEX
  8
LAY0
 10
2900
 20
-27.0137
  0
VERTEX
  8
LAY0
 10
2900
 20
55.2564
  0
VERTEX
  8
LAY0
 10
2900
 20
142.56
  0
VERTEX
  8
LAY0
 10
2900
 20
227.75
  0
VERTEX
  8
LAY0
 10
2900
 20
316.664
  0
VERTEX
  8
LAY0
 10
2900
 20
406
  0
VERTEX
  8
LAY0
 10
2900
 20
495.249
  0
VERTEX
  8
LAY0
 10
2900
 20
584.114
  0
VERTEX
  8
LAY0
 10
2900
 20
669.145
  0
VERTEX
  8
LAY0
 10
2900
 20
756.415
  0
VERTEX
  8
LAY0
 10
2900
 20
838.625
  0
VERTEX
  8
LAY0
 10
2900
 20
911.497
  0
VERTEX
  8
LAY0
 10
2900
 20
975.023
  0
VERTEX
  8
LAY0
 10
2900
 20
1029.02
  0
VERTEX
  8
LAY0
 10
2900
 20
1070.69
  0
VERTEX
  8
LAY0
 10
2900
 20
1098.28
  0
VERTEX
  8
LAY0
 10
2900
 20
1115.23
  0
VERTEX
  8
LAY0
 10
2900
 20
1120.88
  0
VERTEX
  8
LAY0
 10
2900
 20
1115.23
  0
VERTEX
  8
LAY0
 10
2900
 20
1098.28
  0
VERTEX
  8
LAY0
 10
2900
 20
1070.69
  0
VERTEX
  8
LAY0
 10
2900
 20
1029.02
  0
VERTEX
  8
LAY0
 10
2900
 20
975.022
  0
VERTEX
  8
LAY0
 10
2900
 20
911.497
  0
VERTEX
  8
LAY0
 10
2900
 20
838.625
  0
VERTEX
  8
LAY0
 10
2900
 20
756.414
  0
VERTEX
  8
LAY0
 10
2900
 20
669.145
  0
VERTEX
  8
LAY0
 10
2900
 20
584.114
  0
VERTEX
  8
LAY0
 10
2900
 20
495.249
  0
VERTEX
  8
LAY0
 10
2900
 20
406
  0
VERTEX
  8
LAY0
 10
2900
 20
316.664
  0
VERTEX
  8
LAY0
 10
2900
 20
227.75
  0
VERTEX
  8
LAY0
 10
2900
 20
142.56
  0
VERTEX
  8
LAY0
 10
2900
 20
55.2567
  0
VERTEX
  8
LAY0
 10
2900
 20
-27.0131
  0
VERTEX
  8
LAY0
 10
2900
 20
-100.064
  0
VERTEX
  8
LAY0
 10
2900
 20
-163.62
  0
VERTEX
  8
LAY0
 10
2900
 20
-217.664
  0
VERTEX
  8
LAY0
 10
2900
 20
-259.432
  0
VERTEX
  8
LAY0
 10
2900
 20
-287.062
  0
VERTEX
  8
LAY0
 10
2900
 20
-304.026
  0
VERTEX
  8
LAY0
 10
2900
 20
-309.681
  0
SEQEND
  0
POLYLINE
  8
LAY0
 62
2
 66
1
  0
VERTEX
  8
LAY0
 10
2700
 20
-313.988
  0
VERTEX
  8
LAY0
 10
2700
 20
-308.531
  0
VERTEX
  8
LAY0
 10
2700
 20
-292.161
  0
VERTEX
  8
LAY0
 10
2700
 20
-265.402
  0
VERTEX
  8
LAY0
 10
2700
 20
-224.956
  0
VERTEX
  8
LAY0
 10
2700
 20
-172.811
  0
VERTEX
  8
LAY0
 10
2700
 20
-111.309
  0
VERTEX
  8
LAY0
 10
2700
 20
-40.5519
  0
VERTEX
  8
LAY0
 10
2700
 20
38.8178
  0
VERTEX
  8
LAY0
 10
2700
 20
123.282
  0
VERTEX
  8
LAY0
 10
2700
 20
205.775
  0
VERTEX
  8
LAY0
 10
2700
 20
291.542
  0
VERTEX
  8
LAY0
 10
2700
 20
378
  0
VERTEX
  8
LAY0
 10
2700
 20
465.58
  0
VERTEX
  8
LAY0
 10
2700
 20
552.542
  0
VERTEX
  8
LAY0
 10
2700
 20
635.932
  0
VERTEX
  8
LAY0
 10
2700
 20
721.606
  0
VERTEX
  8
LAY0
 10
2700
 20
802.051
  0
VERTEX
  8
LAY0
 10
2700
 20
873.483
  0
VERTEX
  8
LAY0
 10
2700
 20
935.853
  0
VERTEX
  8
LAY0
 10
2700
 20
988.684
  0
VERTEX
  8
LAY0
 10
2700
 20
1029.52
  0
VERTEX
  8
LAY0
 10
2700
 20
1056.61
  0
VERTEX
  8
LAY0
 10
2700
 20
1073.19
  0
VERTEX
  8
LAY0
 10
2700
 20
1078.72
  0
VERTEX
  8
LAY0
 10
2700
 20
1073.19
  0
VERTEX
  8
LAY0
 10
2700
 20
1056.61
  0
VERTEX
  8
LAY0
 10
2700
 20
1029.52
  0
VERTEX
  8
LAY0
 10
2700
 20
988.683
  0
VERTEX
  8
LAY0
 10
2700
 20
935.852
  0
VERTEX
  8
LAY0
 10
2700
 20
873.483
  0
VERTEX
  8
LAY0
 10
2700
 20
802.05
  0
VERTEX
  8
LAY0
 10
2700
 20
721.605
  0
VERTEX
  8
LAY0
 10
2700
 20
635.932
  0
VERTEX
  8
LAY0
 10
2700
 20
552.542
  0
VERTEX
  8
LAY0
 10
2700
 20
465.579
  0
VERTEX
  8
LAY0
 10
2700
 20
378
  0
VERTEX
  8
LAY0
 10
2700
 20
291.542
  0
VERTEX
  8
LAY0
 10
2700
 20
205.775
  0
VERTEX
  8
LAY0
 10
2700
 20
123.282
  0
VERTEX
  8
LAY0
 10
2700
 20
38.8178
  0
VERTEX
  8
LAY0
 10
2700
 20
-40.5516
  0
VERTEX
  8
LAY0
 10
2700
 20
-111.31
  0
VERTEX
  8
LAY0
 10
2700
 20
-172.811
  0
VERTEX
  8
LAY0
 10
2700
 20
-224.956
  0
VERTEX
  8
LAY0
 10
2700
 20
-265.402
  0
VERTEX
  8
LAY0
 10
2700
 20
-292.161
  0
VERTEX
  8
LAY0
 10
2700
 20
-308.531
  0
VERTEX
  8
LAY0
 10
2700
 20
-313.988
  0
SEQEND
  0
POLYLINE
  8
LAY0
 62
2
 66
1
  0
VERTEX
  8
LAY0
 10
2500
 20
-268.382
  0
VERTEX
  8
LAY0
 10
2500
 20
-294.044
  0
VERTEX
  8
LAY0
 10
2500
 20
-309.82
  0
VERTEX
  8
LAY0
 10
2500
 20
-315.078
  0
VERTEX
  8
LAY0
 10
2500
 20
-309.82
  0
VERTEX
  8
LAY0
 10
2500
 20
-294.044
  0
VERTEX
  8
LAY0
 10
2500
 20
-268.382
  0
VERTEX
  8
LAY0
 10
2500
 20
-229.605
  0
VERTEX
  8
LAY0
 10
2500
 20
-179.343
  0
VERTEX
  8
LAY0
 10
2500
 20
-120.282
  0
VERTEX
  8
LAY0
 10
2500
 20
-52.4694
  0
VERTEX
  8
LAY0
 10
2500
 20
24.0509
  0
VERTEX
  8
LAY0
 10
2500
 20
105.187
  0
VERTEX
  8
LAY0
 10
2500
 20
184.293
  0
VERTEX
  8
LAY0
 10
2500
 20
267.002
  0
VERTEX
  8
LAY0
 10
2500
 20
350
  0
VERTEX
  8
LAY0
 10
2500
 20
435.272
  0
VERTEX
  8
LAY0
 10
2500
 20
520.246
  0
VERTEX
  8
LAY0
 10
2500
 20
601.519
  0
VERTEX
  8
LAY0
 10
2500
 20
684.878
  0
VERTEX
  8
LAY0
 10
2500
 20
763.494
  0
VERTEX
  8
LAY0
 10
2500
 20
833.165
  0
VERTEX
  8
LAY0
 10
2500
 20
893.843
  0
VERTEX
  8
LAY0
 10
2500
 20
945.483
  0
VERTEX
  8
LAY0
 10
2500
 20
985.322
  0
VERTEX
  8
LAY0
 10
2500
 20
1011.69
  0
VERTEX
  8
LAY0
 10
2500
 20
1027.89
  0
VERTEX
  8
LAY0
 10
2500
 20
1033.3
  0
VERTEX
  8
LAY0
 10
2500
 20
1027.89
  0
VERTEX
  8
LAY0
 10
2500
 20
1011.69
  0
VERTEX
  8
LAY0
 10
2500
 20
985.322
  0
VERTEX
  8
LAY0
 10
2500
 20
945.483
  0
VERTEX
  8
LAY0
 10
2500
 20
893.843
  0
VERTEX
  8
LAY0
 10
2500
 20
833.165
  0
VERTEX
  8
LAY0
 10
2500
 20
763.495
  0
VERTEX
  8
LAY0
 10
2500
 20
684.878
  0
VERTEX
  8
LAY0
 10
2500
 20
601.519
  0
VERTEX
  8
LAY0
 10
2500
 20
520.246
  0
VERTEX
  8
LAY0
 10
2500
 20
435.272
  0
VERTEX
  8
LAY0
 10
2500
 20
350
  0
VERTEX
  8
LAY0
 10
2500
 20
267.002
  0
VERTEX
  8
LAY0
 10
2500
 20
184.293
  0
VERTEX
  8
LAY0
 10
2500
 20
105.187
  0
VERTEX
  8
LAY0
 10
2500
 20
24.051
  0
VERTEX
  8
LAY0
 10
2500
 20
-52.4693
  0
VERTEX
  8
LAY0
 10
2500
 20
-120.282
  0
VERTEX
  8
LAY0
 10
2500
 20
-179.342
  0
VERTEX
  8
LAY0
 10
2500
 20
-229.605
  0
VERTEX
  8
LAY0
 10
2500
 20
-268.382
  0
SEQEND
  0
POLYLINE
  8
LAY0
 62
2
 66
1
  0
VERTEX
  8
LAY0
 10
2300
 20
-312.384
  0
VERTEX
  8
LAY0
 10
2300
 20
-307.344
  0
VERTEX
  8
LAY0
 10
2300
 20
-292.223
  0
VERTEX
  8
LAY0
 10
2300
 20
-267.843
  0
VERTEX
  8
LAY0
 10
2300
 20
-230.991
  0
VERTEX
  8
LAY0
 10
2300
 20
-182.807
  0
VERTEX
  8
LAY0
 10
2300
 20
-126.578
  0
VERTEX
  8
LAY0
 10
2300
 20
-62.1751
  0
VERTEX
  8
LAY0
 10
2300
 20
11.2018
  0
VERTEX
  8
LAY0
 10
2300
 20
88.4854
  0
VERTEX
  8
LAY0
 10
2300
 20
163.668
  0
VERTEX
  8
LAY0
 10
2300
 20
243.007
  0
VERTEX
  8
LAY0
 10
2300
 20
322
  0
VERTEX
  8
LAY0
 10
2300
 20
404.373
  0
VERTEX
  8
LAY0
 10
2300
 20
487.024
  0
VERTEX
  8
LAY0
 10
2300
 20
565.6
  0
VERTEX
  8
LAY0
 10
2300
 20
646.074
  0
VERTEX
  8
LAY0
 10
2300
 20
722.545
  0
VERTEX
  8
LAY0
 10
2300
 20
789.952
  0
VERTEX
  8
LAY0
 10
2300
 20
848.514
  0
VERTEX
  8
LAY0
 10
2300
 20
898.751
  0
VERTEX
  8
LAY0
 10
2300
 20
937.318
  0
VERTEX
  8
LAY0
 10
2300
 20
962.755
  0
VERTEX
  8
LAY0
 10
2300
 20
978.525
  0
VERTEX
  8
LAY0
 10
2300
 20
983.783
  0
VERTEX
  8
LAY0
 10
2300
 20
978.526
  0
VERTEX
  8
LAY0
 10
2300
 20
962.755
  0
VERTEX
  8
LAY0
 10
2300
 20
937.318
  0
VERTEX
  8
LAY0
 10
2300
 20
898.751
  0
VERTEX
  8
LAY0
 10
2300
 20
848.515
  0
VERTEX
  8
LAY0
 10
2300
 20
789.951
  0
VERTEX
  8
LAY0
 10
2300
 20
722.546
  0
VERTEX
  8
LAY0
 10
2300
 20
646.074
  0
VERTEX
  8
LAY0
 10
2300
 20
565.599
  0
VERTEX
  8
LAY0
 10
2300
 20
487.024
  0
VERTEX
  8
LAY0
 10
2300
 20
404.373
  0
VERTEX
  8
LAY0
 10
2300
 20
322
  0
VERTEX
  8
LAY0
 10
2300
 20
243.007
  0
VERTEX
  8
LAY0
 10
2300
 20
163.667
  0
VERTEX
  8
LAY0
 10
2300
 20
88.4853
  0
VERTEX
  8
LAY0
 10
2300
 20
11.2012
  0
VERTEX
  8
LAY0
 10
2300
 20
-62.176
  0
VERTEX
  8
LAY0
 10
2300
 20
-126.578
  0
VERTEX
  8
LAY0
 10
2300
 20
-182.808
  0
VERTEX
  8
LAY0
 10
2300
 20
-230.992
  0
VERTEX
  8
LAY0
 10
2300
 20
-267.843
  0
VERTEX
  8
LAY0
 10
2300
 20
-292.224
  0
VERTEX
  8
LAY0
 10
2300
 20
-307.344
  0
VERTEX
  8
LAY0
 10
2300
 20
-312.384
  0
SEQEND
  0
POLYLINE
  8
LAY0
 62
2
 66
1
  0
VERTEX
  8
LAY0
 10
2100
 20
-305.335
  0
VERTEX
  8
LAY0
 10
2100
 20
-300.578
  0
VERTEX
  8
LAY0
 10
2100
 20
-286.307
  0
VERTEX
  8
LAY0
 10
2100
 20
-263.255
  0
VERTEX
  8
LAY0
 10
2100
 20
-228.405
  0
VERTEX
  8
LAY0
 10
2100
 20
-182.931
  0
VERTEX
  8
LAY0
 10
2100
 20
-129.795
  0
VERTEX
  8
LAY0
 10
2100
 20
-68.8806
  0
VERTEX
  8
LAY0
 10
2100
 20
0.362078
  0
VERTEX
  8
LAY0
 10
2100
 20
73.387
  0
VERTEX
  8
LAY0
 10
2100
 20
144.478
  0
VERTEX
  8
LAY0
 10
2100
 20
219.34
  0
VERTEX
  8
LAY0
 10
2100
 20
294
  0
VERTEX
  8
LAY0
 10
2100
 20
373.131
  0
VERTEX
  8
LAY0
 10
2100
 20
452.439
  0
VERTEX
  8
LAY0
 10
2100
 20
527.865
  0
VERTEX
  8
LAY0
 10
2100
 20
605.211
  0
VERTEX
  8
LAY0
 10
2100
 20
678.581
  0
VERTEX
  8
LAY0
 10
2100
 20
743.25
  0
VERTEX
  8
LAY0
 10
2100
 20
799.537
  0
VERTEX
  8
LAY0
 10
2100
 20
847.729
  0
VERTEX
  8
LAY0
 10
2100
 20
884.727
  0
VERTEX
  8
LAY0
 10
2100
 20
909.166
  0
VERTEX
  8
LAY0
 10
2100
 20
924.293
  0
VERTEX
  8
LAY0
 10
2100
 20
929.335
  0
VERTEX
  8
LAY0
 10
2100
 20
924.293
  0
VERTEX
  8
LAY0
 10
2100
 20
909.166
  0
VERTEX
  8
LAY0
 10
2100
 20
884.727
  0
VERTEX
  8
LAY0
 10
2100
 20
847.73
  0
VERTEX
  8
LAY0
 10
2100
 20
799.538
  0
VERTEX
  8
LAY0
 10
2100
 20
743.251
  0
VERTEX
  8
LAY0
 10
2100
 20
678.581
  0
VERTEX
  8
LAY0
 10
2100
 20
605.212
  0
VERTEX
  8
LAY0
 10
2100
 20
527.865
  0
VERTEX
  8
LAY0
 10
2100
 20
452.44
  0
VERTEX
  8
LAY0
 10
2100
 20
373.132
  0
VERTEX
  8
LAY0
 10
2100
 20
294
  0
VERTEX
  8
LAY0
 10
2100
 20
219.34
  0
VERTEX
  8
LAY0
 10
2100
 20
144.478
  0
VERTEX
  8
LAY0
 10
2100
 20
73.3867
  0
VERTEX
  8
LAY0
 10
2100
 20
0.361509
  0
VERTEX
  8
LAY0
 10
2100
 20
-68.8813
  0
VERTEX
  8
LAY0
 10
2100
 20
-129.795
  0
VERTEX
  8
LAY0
 10
2100
 20
-182.932
  0
VERTEX
  8
LAY0
 10
2100
 20
-228.405
  0
VERTEX
  8
LAY0
 10
2100
 20
-263.255
  0
VERTEX
  8
LAY0
 10
2100
 20
-286.308
  0
VERTEX
  8
LAY0
 10
2100
 20
-300.579
  0
VERTEX
  8
LAY0
 10
2100
 20
-305.335
  0
SEQEND
  0
POLYLINE
  8
LAY0
 62
2
 66
1
  0
VERTEX
  8
LAY0
 10
1900
 20
-293.363
  0
VERTEX
  8
LAY0
 10
1900
 20
-288.948
  0
VERTEX
  8
LAY0
 10
1900
 20
-275.705
  0
VERTEX
  8
LAY0
 10
1900
 20
-254.089
  0
VERTEX
  8
LAY0
 10
1900
 20
-221.409
  0
VERTEX
  8
LAY0
 10
1900
 20
-179.222
  0
VERTEX
  8
LAY0
 10
1900
 20
-129.529
  0
VERTEX
  8
LAY0
 10
1900
 20
-72.3638
  0
VERTEX
  8
LAY0
 10
1900
 20
-8.15
  0
VERTEX
  8
LAY0
 10
1900
 20
60.101
  0
VERTEX
  8
LAY0
 10
1900
 20
126.749
  0
VERTEX
  8
LAY0
 10
1900
 20
196.142
  0
VERTEX
  8
LAY0
 10
1900
 20
266
  0
VERTEX
  8
LAY0
 10
1900
 20
341.336
  0
VERTEX
  8
LAY0
 10
1900
 20
416.229
  0
VERTEX
  8
LAY0
 10
1900
 20
487.974
  0
VERTEX
  8
LAY0
 10
1900
 20
561.66
  0
VERTEX
  8
LAY0
 10
1900
 20
630.941
  0
VERTEX
  8
LAY0
 10
1900
 20
692.41
  0
VERTEX
  8
LAY0
 10
1900
 20
746.05
  0
VERTEX
  8
LAY0
 10
1900
 20
791.551
  0
VERTEX
  8
LAY0
 10
1900
 20
826.693
  0
VERTEX
  8
LAY0
 10
1900
 20
849.994
  0
VERTEX
  8
LAY0
 10
1900
 20
864.273
  0
VERTEX
  8
LAY0
 10
1900
 20
869.033
  0
VERTEX
  8
LAY0
 10
1900
 20
864.273
  0
VERTEX
  8
LAY0
 10
1900
 20
849.994
  0
VERTEX
  8
LAY0
 10
1900
 20
826.694
  0
VERTEX
  8
LAY0
 10
1900
 20
791.551
  0
VERTEX
  8
LAY0
 10
1900
 20
746.05
  0
VERTEX
  8
LAY0
 10
1900
 20
692.41
  0
VERTEX
  8
LAY0
 10
1900
 20
630.941
  0
VERTEX
  8
LAY0
 10
1900
 20
561.66
  0
VERTEX
  8
LAY0
 10
1900
 20
487.975
  0
VERTEX
  8
LAY0
 10
1900
 20
416.229
  0
VERTEX
  8
LAY0
 10
1900
 20
341.336
  0
VERTEX
  8
LAY0
 10
1900
 20
266
  0
VERTEX
  8
LAY0
 10
1900
 20
196.141
  0
VERTEX
  8
LAY0
 10
1900
 20
126.749
  0
VERTEX
  8
LAY0
 10
1900
 20
60.1006
  0
VERTEX
  8
LAY0
 10
1900
 20
-8.1502
  0
VERTEX
  8
LAY0
 10
1900
 20
-72.3638
  0
VERTEX
  8
LAY0
 10
1900
 20
-129.53
  0
VERTEX
  8
LAY0
 10
1900
 20
-179.222
  0
VERTEX
  8
LAY0
 10
1900
 20
-221.409
  0
VERTEX
  8
LAY0
 10
1900
 20
-254.089
  0
VERTEX
  8
LAY0
 10
1900
 20
-275.704
  0
VERTEX
  8
LAY0
 10
1900
 20
-288.948
  0
VERTEX
  8
LAY0
 10
1900
 20
-293.363
  0
SEQEND
  0
POLYLINE
  8
LAY0
 62
2
 66
1
  0
VERTEX
  8
LAY0
 10
1700
 20
-276.311
  0
VERTEX
  8
LAY0
 10
1700
 20
-272.275
  0
VERTEX
  8
LAY0
 10
1700
 20
-260.165
  0
VERTEX
  8
LAY0
 10
1700
 20
-240.201
  0
VERTEX
  8
LAY0
 10
1700
 20
-210.039
  0
VERTEX
  8
LAY0
 10
1700
 20
-171.471
  0
VERTEX
  8
LAY0
 10
1700
 20
-125.674
  0
VERTEX
  8
LAY0
 10
1700
 20
-72.8734
  0
VERTEX
  8
LAY0
 10
1700
 20
-14.1845
  0
VERTEX
  8
LAY0
 10
1700
 20
48.6835
  0
VERTEX
  8
LAY0
 10
1700
 20
110.203
  0
VERTEX
  8
LAY0
 10
1700
 20
173.603
  0
VERTEX
  8
LAY0
 10
1700
 20
238
  0
VERTEX
  8
LAY0
 10
1700
 20
308.641
  0
VERTEX
  8
LAY0
 10
1700
 20
378.278
  0
VERTEX
  8
LAY0
 10
1700
 20
445.575
  0
VERTEX
  8
LAY0
 10
1700
 20
514.662
  0
VERTEX
  8
LAY0
 10
1700
 20
579.092
  0
VERTEX
  8
LAY0
 10
1700
 20
636.749
  0
VERTEX
  8
LAY0
 10
1700
 20
687.063
  0
VERTEX
  8
LAY0
 10
1700
 20
729.382
  0
VERTEX
  8
LAY0
 10
1700
 20
762.322
  0
VERTEX
  8
LAY0
 10
1700
 20
784.208
  0
VERTEX
  8
LAY0
 10
1700
 20
797.489
  0
VERTEX
  8
LAY0
 10
1700
 20
801.916
  0
VERTEX
  8
LAY0
 10
1700
 20
797.488
  0
VERTEX
  8
LAY0
 10
1700
 20
784.207
  0
VERTEX
  8
LAY0
 10
1700
 20
762.322
  0
VERTEX
  8
LAY0
 10
1700
 20
729.381
  0
VERTEX
  8
LAY0
 10
1700
 20
687.062
  0
VERTEX
  8
LAY0
 10
1700
 20
636.749
  0
VERTEX
  8
LAY0
 10
1700
 20
579.091
  0
VERTEX
  8
LAY0
 10
1700
 20
514.661
  0
VERTEX
  8
LAY0
 10
1700
 20
445.575
  0
VERTEX
  8
LAY0
 10
1700
 20
378.277
  0
VERTEX
  8
LAY0
 10
1700
 20
308.64
  0
VERTEX
  8
LAY0
 10
1700
 20
238
  0
VERTEX
  8
LAY0
 10
1700
 20
173.603
  0
VERTEX
  8
LAY0
 10
1700
 20
110.203
  0
VERTEX
  8
LAY0
 10
1700
 20
48.6838
  0
VERTEX
  8
LAY0
 10
1700
 20
-14.1839
  0
VERTEX
  8
LAY0
 10
1700
 20
-72.8724
  0
VERTEX
  8
LAY0
 10
1700
 20
-125.674
  0
VERTEX
  8
LAY0
 10
1700
 20
-171.47
  0
VERTEX
  8
LAY0
 10
1700
 20
-210.038
  0
VERTEX
  8
LAY0
 10
1700
 20
-240.201
  0
VERTEX
  8
LAY0
 10
1700
 20
-260.165
  0
VERTEX
  8
LAY0
 10
1700
 20
-272.275
  0
VERTEX
  8
LAY0
 10
1700
 20
-276.311
  0
SEQEND
  0
POLYLINE
  8
LAY0
 62
2
 66
1
  0
VERTEX
  8
LAY0
 10
1500
 20
-222.046
  0
VERTEX
  8
LAY0
 10
1500
 20
-239.975
  0
VERTEX
  8
LAY0
 10
1500
 20
-250.997
  0
VERTEX
  8
LAY0
 10
1500
 20
-254.671
  0
VERTEX
  8
LAY0
 10
1500
 20
-250.997
  0
VERTEX
  8
LAY0
 10
1500
 20
-239.975
  0
VERTEX
  8
LAY0
 10
1500
 20
-222.046
  0
VERTEX
  8
LAY0
 10
1500
 20
-194.953
  0
VERTEX
  8
LAY0
 10
1500
 20
-159.836
  0
VERTEX
  8
LAY0
 10
1500
 20
-118.573
  0
VERTEX
  8
LAY0
 10
1500
 20
-71.1937
  0
VERTEX
  8
LAY0
 10
1500
 20
-17.7312
  0
VERTEX
  8
LAY0
 10
1500
 20
38.9562
  0
VERTEX
  8
LAY0
 10
1500
 20
94.2253
  0
VERTEX
  8
LAY0
 10
1500
 20
152.012
  0
VERTEX
  8
LAY0
 10
1500
 20
210
  0
VERTEX
  8
LAY0
 10
1500
 20
274.649
  0
VERTEX
  8
LAY0
 10
1500
 20
339.072
  0
VERTEX
  8
LAY0
 10
1500
 20
400.69
  0
VERTEX
  8
LAY0
 10
1500
 20
463.888
  0
VERTEX
  8
LAY0
 10
1500
 20
523.491
  0
VERTEX
  8
LAY0
 10
1500
 20
576.311
  0
VERTEX
  8
LAY0
 10
1500
 20
622.314
  0
VERTEX
  8
LAY0
 10
1500
 20
661.464
  0
VERTEX
  8
LAY0
 10
1500
 20
691.668
  0
VERTEX
  8
LAY0
 10
1500
 20
711.656
  0
VERTEX
  8
LAY0
 10
1500
 20
723.944
  0
VERTEX
  8
LAY0
 10
1500
 20
728.04
  0
VERTEX
  8
LAY0
 10
1500
 20
723.944
  0
VERTEX
  8
LAY0
 10
1500
 20
711.656
  0
VERTEX
  8
LAY0
 10
1500
 20
691.668
  0
VERTEX
  8
LAY0
 10
1500
 20
661.464
  0
VERTEX
  8
LAY0
 10
1500
 20
622.313
  0
VERTEX
  8
LAY0
 10
1500
 20
576.31
  0
VERTEX
  8
LAY0
 10
1500
 20
523.49
  0
VERTEX
  8
LAY0
 10
1500
 20
463.887
  0
VERTEX
  8
LAY0
 10
1500
 20
400.689
  0
VERTEX
  8
LAY0
 10
1500
 20
339.072
  0
VERTEX
  8
LAY0
 10
1500
 20
274.648
  0
VERTEX
  8
LAY0
 10
1500
 20
210
  0
VERTEX
  8
LAY0
 10
1500
 20
152.012
  0
VERTEX
  8
LAY0
 10
1500
 20
94.2258
  0
VERTEX
  8
LAY0
 10
1500
 20
38.9568
  0
VERTEX
  8
LAY0
 10
1500
 20
-17.7306
  0
VERTEX
  8
LAY0
 10
1500
 20
-71.1931
  0
VERTEX
  8
LAY0
 10
1500
 20
-118.572
  0
VERTEX
  8
LAY0
 10
1500
 20
-159.836
  0
VERTEX
  8
LAY0
 10
1500
 20
-194.953
  0
VERTEX
  8
LAY0
 10
1500
 20
-222.046
  0
SEQEND
  0
POLYLINE
  8
LAY0
 62
2
 66
1
  0
VERTEX
  8
LAY0
 10
5300
 20
1300.75
  0
VERTEX
  8
LAY0
 10
5300
 20
1385.2
  0
VERTEX
  8
LAY0
 10
5300
 20
1469.48
  0
VERTEX
  8
LAY0
 10
5300
 20
1549.67
  0
VERTEX
  8
LAY0
 10
5300
 20
1632.41
  0
VERTEX
  8
LAY0
 10
5300
 20
1710.34
  0
VERTEX
  8
LAY0
 10
5300
 20
1778.92
  0
VERTEX
  8
LAY0
 10
5300
 20
1839.13
  0
VERTEX
  8
LAY0
 10
5300
 20
1890.29
  0
VERTEX
  8
LAY0
 10
5300
 20
1929.51
  0
VERTEX
  8
LAY0
 10
5300
 20
1955.6
  0
VERTEX
  8
LAY0
 10
5300
 20
1971.64
  0
VERTEX
  8
LAY0
 10
5300
 20
1976.99
  0
VERTEX
  8
LAY0
 10
5300
 20
1971.64
  0
VERTEX
  8
LAY0
 10
5300
 20
1955.6
  0
VERTEX
  8
LAY0
 10
5300
 20
1929.51
  0
VERTEX
  8
LAY0
 10
5300
 20
1890.29
  0
VERTEX
  8
LAY0
 10
5300
 20
1839.13
  0
VERTEX
  8
LAY0
 10
5300
 20
1778.92
  0
VERTEX
  8
LAY0
 10
5300
 20
1710.34
  0
VERTEX
  8
LAY0
 10
5300
 20
1632.41
  0
VERTEX
  8
LAY0
 10
5300
 20
1549.67
  0
VERTEX
  8
LAY0
 10
5300
 20
1469.48
  0
VERTEX
  8
LAY0
 10
5300
 20
1385.19
  0
VERTEX
  8
LAY0
 10
5300
 20
1300.75
  0
SEQEND
  0
POLYLINE
  8
LAY0
 62
2
 66
1
  0
VERTEX
  8
LAY0
 10
5100
 20
1194.55
  0
VERTEX
  8
LAY0
 10
5100
 20
1282.54
  0
VERTEX
  8
LAY0
 10
5100
 20
1370.29
  0
VERTEX
  8
LAY0
 10
5100
 20
1454
  0
VERTEX
  8
LAY0
 10
5100
 20
1540.11
  0
VERTEX
  8
LAY0
 10
5100
 20
1621.27
  0
VERTEX
  8
LAY0
 10
5100
 20
1692.96
  0
VERTEX
  8
LAY0
 10
5100
 20
1755.63
  0
VERTEX
  8
LAY0
 10
5100
 20
1808.93
  0
VERTEX
  8
LAY0
 10
5100
 20
1849.92
  0
VERTEX
  8
LAY0
 10
5100
 20
1877.11
  0
VERTEX
  8
LAY0
 10
5100
 20
1893.83
  0
VERTEX
  8
LAY0
 10
5100
 20
1899.41
  0
VERTEX
  8
LAY0
 10
5100
 20
1893.83
  0
VERTEX
  8
LAY0
 10
5100
 20
1877.11
  0
VERTEX
  8
LAY0
 10
5100
 20
1849.92
  0
VERTEX
  8
LAY0
 10
5100
 20
1808.92
  0
VERTEX
  8
LAY0
 10
5100
 20
1755.63
  0
VERTEX
  8
LAY0
 10
5100
 20
1692.96
  0
VERTEX
  8
LAY0
 10
5100
 20
1621.27
  0
VERTEX
  8
LAY0
 10
5100
 20
1540.11
  0
VERTEX
  8
LAY0
 10
5100
 20
1454
  0
VERTEX
  8
LAY0
 10
5100
 20
1370.29
  0
VERTEX
  8
LAY0
 10
5100
 20
1282.54
  0
VERTEX
  8
LAY0
 10
5100
 20
1194.55
  0
SEQEND
  0
POLYLINE
  8
LAY0
 62
2
 66
1
  0
VERTEX
  8
LAY0
 10
4900
 20
1088.35
  0
VERTEX
  8
LAY0
 10
4900
 20
1176.77
  0
VERTEX
  8
LAY0
 10
4900
 20
1264.89
  0
VERTEX
  8
LAY0
 10
4900
 20
1349.16
  0
VERTEX
  8
LAY0
 10
4900
 20
1435.6
  0
VERTEX
  8
LAY0
 10
4900
 20
1517.12
  0
VERTEX
  8
LAY0
 10
4900
 20
1589.37
  0
VERTEX
  8
LAY0
 10
4900
 20
1652.29
  0
VERTEX
  8
LAY0
 10
4900
 20
1705.84
  0
VERTEX
  8
LAY0
 10
4900
 20
1747.15
  0
VERTEX
  8
LAY0
 10
4900
 20
1774.49
  0
VERTEX
  8
LAY0
 10
4900
 20
1791.3
  0
VERTEX
  8
LAY0
 10
4900
 20
1796.9
  0
VERTEX
  8
LAY0
 10
4900
 20
1791.3
  0
VERTEX
  8
LAY0
 10
4900
 20
1774.49
  0
VERTEX
  8
LAY0
 10
4900
 20
1747.15
  0
VERTEX
  8
LAY0
 10
4900
 20
1705.84
  0
VERTEX
  8
LAY0
 10
4900
 20
1652.29
  0
VERTEX
  8
LAY0
 10
4900
 20
1589.37
  0
VERTEX
  8
LAY0
 10
4900
 20
1517.12
  0
VERTEX
  8
LAY0
 10
4900
 20
1435.6
  0
VERTEX
  8
LAY0
 10
4900
 20
1349.16
  0
VERTEX
  8
LAY0
 10
4900
 20
1264.89
  0
VERTEX
  8
LAY0
 10
4900
 20
1176.77
  0
VERTEX
  8
LAY0
 10
4900
 20
1088.35
  0
SEQEND
  0
POLYLINE
  8
LAY0
 62
2
 66
1
  0
VERTEX
  8
LAY0
 10
4700
 20
982.154
  0
VERTEX
  8
LAY0
 10
4700
 20
1070.57
  0
VERTEX
  8
LAY0
 10
4700
 20
1158.68
  0
VERTEX
  8
LAY0
 10
4700
 20
1242.96
  0
VERTEX
  8
LAY0
 10
4700
 20
1329.4
  0
VERTEX
  8
LAY0
 10
4700
 20
1410.92
  0
VERTEX
  8
LAY0
 10
4700
 20
1483.17
  0
VERTEX
  8
LAY0
 10
4700
 20
1546.09
  0
VERTEX
  8
LAY0
 10
4700
 20
1599.64
  0
VERTEX
  8
LAY0
 10
4700
 20
1640.95
  0
VERTEX
  8
LAY0
 10
4700
 20
1668.29
  0
VERTEX
  8
LAY0
 10
4700
 20
1685.1
  0
VERTEX
  8
LAY0
 10
4700
 20
1690.7
  0
VERTEX
  8
LAY0
 10
4700
 20
1685.1
  0
VERTEX
  8
LAY0
 10
4700
 20
1668.29
  0
VERTEX
  8
LAY0
 10
4700
 20
1640.95
  0
VERTEX
  8
LAY0
 10
4700
 20
1599.64
  0
VERTEX
  8
LAY0
 10
4700
 20
1546.09
  0
VERTEX
  8
LAY0
 10
4700
 20
1483.17
  0
VERTEX
  8
LAY0
 10
4700
 20
1410.92
  0
VERTEX
  8
LAY0
 10
4700
 20
1329.4
  0
VERTEX
  8
LAY0
 10
4700
 20
1242.96
  0
VERTEX
  8
LAY0
 10
4700
 20
1158.68
  0
VERTEX
  8
LAY0
 10
4700
 20
1070.57
  0
VERTEX
  8
LAY0
 10
4700
 20
982.154
  0
SEQEND
  0
POLYLINE
  8
LAY0
 62
2
 66
1
  0
VERTEX
  8
LAY0
 10
4500
 20
875.954
  0
VERTEX
  8
LAY0
 10
4500
 20
964.372
  0
VERTEX
  8
LAY0
 10
4500
 20
1052.48
  0
VERTEX
  8
LAY0
 10
4500
 20
1136.76
  0
VERTEX
  8
LAY0
 10
4500
 20
1223.2
  0
VERTEX
  8
LAY0
 10
4500
 20
1304.72
  0
VERTEX
  8
LAY0
 10
4500
 20
1376.97
  0
VERTEX
  8
LAY0
 10
4500
 20
1439.89
  0
VERTEX
  8
LAY0
 10
4500
 20
1493.44
  0
VERTEX
  8
LAY0
 10
4500
 20
1534.75
  0
VERTEX
  8
LAY0
 10
4500
 20
1562.09
  0
VERTEX
  8
LAY0
 10
4500
 20
1578.9
  0
VERTEX
  8
LAY0
 10
4500
 20
1584.5
  0
VERTEX
  8
LAY0
 10
4500
 20
1578.9
  0
VERTEX
  8
LAY0
 10
4500
 20
1562.09
  0
VERTEX
  8
LAY0
 10
4500
 20
1534.75
  0
VERTEX
  8
LAY0
 10
4500
 20
1493.44
  0
VERTEX
  8
LAY0
 10
4500
 20
1439.89
  0
VERTEX
  8
LAY0
 10
4500
 20
1376.97
  0
VERTEX
  8
LAY0
 10
4500
 20
1304.72
  0
VERTEX
  8
LAY0
 10
4500
 20
1223.2
  0
VERTEX
  8
LAY0
 10
4500
 20
1136.76
  0
VERTEX
  8
LAY0
 10
4500
 20
1052.48
  0
VERTEX
  8
LAY0
 10
4500
 20
964.372
  0
VERTEX
  8
LAY0
 10
4500
 20
875.954
  0
SEQEND
  0
POLYLINE
  8
LAY0
 62
2
 66
1
  0
VERTEX
  8
LAY0
 10
4300
 20
769.754
  0
VERTEX
  8
LAY0
 10
4300
 20
858.173
  0
VERTEX
  8
LAY0
 10
4300
 20
946.285
  0
VERTEX
  8
LAY0
 10
4300
 20
1030.56
  0
VERTEX
  8
LAY0
 10
4300
 20
1117
  0
VERTEX
  8
LAY0
 10
4300
 20
1198.52
  0
VERTEX
  8
LAY0
 10
4300
 20
1270.77
  0
VERTEX
  8
LAY0
 10
4300
 20
1333.69
  0
VERTEX
  8
LAY0
 10
4300
 20
1387.24
  0
VERTEX
  8
LAY0
 10
4300
 20
1428.55
  0
VERTEX
  8
LAY0
 10
4300
 20
1455.89
  0
VERTEX
  8
LAY0
 10
4300
 20
1472.7
  0
VERTEX
  8
LAY0
 10
4300
 20
1478.3
  0
VERTEX
  8
LAY0
 10
4300
 20
1472.7
  0
VERTEX
  8
LAY0
 10
4300
 20
1455.89
  0
VERTEX
  8
LAY0
 10
4300
 20
1428.55
  0
VERTEX
  8
LAY0
 10
4300
 20
1387.24
  0
VERTEX
  8
LAY0
 10
4300
 20
1333.69
  0
VERTEX
  8
LAY0
 10
4300
 20
1270.77
  0
VERTEX
  8
LAY0
 10
4300
 20
1198.52
  0
VERTEX
  8
LAY0
 10
4300
 20
1117
  0
VERTEX
  8
LAY0
 10
4300
 20
1030.56
  0
VERTEX
  8
LAY0
 10
4300
 20
946.285
  0
VERTEX
  8
LAY0
 10
4300
 20
858.174
  0
VERTEX
  8
LAY0
 10
4300
 20
769.754
  0
SEQEND
  0
POLYLINE
  8
LAY0
 62
2
 66
1
  0
VERTEX
  8
LAY0
 10
4100
 20
663.555
  0
VERTEX
  8
LAY0
 10
4100
 20
751.972
  0
VERTEX
  8
LAY0
 10
4100
 20
840.084
  0
VERTEX
  8
LAY0
 10
4100
 20
924.359
  0
VERTEX
  8
LAY0
 10
4100
 20
1010.8
  0
VERTEX
  8
LAY0
 10
4100
 20
1092.32
  0
VERTEX
  8
LAY0
 10
4100
 20
1164.57
  0
VERTEX
  8
LAY0
 10
4100
 20
1227.49
  0
VERTEX
  8
LAY0
 10
4100
 20
1281.04
  0
VERTEX
  8
LAY0
 10
4100
 20
1322.35
  0
VERTEX
  8
LAY0
 10
4100
 20
1349.69
  0
VERTEX
  8
LAY0
 10
4100
 20
1366.5
  0
VERTEX
  8
LAY0
 10
4100
 20
1372.1
  0
VERTEX
  8
LAY0
 10
4100
 20
1366.5
  0
VERTEX
  8
LAY0
 10
4100
 20
1349.69
  0
VERTEX
  8
LAY0
 10
4100
 20
1322.35
  0
VERTEX
  8
LAY0
 10
4100
 20
1281.04
  0
VERTEX
  8
LAY0
 10
4100
 20
1227.49
  0
VERTEX
  8
LAY0
 10
4100
 20
1164.57
  0
VERTEX
  8
LAY0
 10
4100
 20
1092.32
  0
VERTEX
  8
LAY0
 10
4100
 20
1010.8
  0
VERTEX
  8
LAY0
 10
4100
 20
924.359
  0
VERTEX
  8
LAY0
 10
4100
 20
840.083
  0
VERTEX
  8
LAY0
 10
4100
 20
751.972
  0
VERTEX
  8
LAY0
 10
4100
 20
663.555
  0
SEQEND
  0
POLYLINE
  8
LAY0
 62
2
 66
1
  0
VERTEX
  8
LAY0
 10
5900
 20
1430.7
  0
VERTEX
  8
LAY0
 10
5900
 20
1512.54
  0
VERTEX
  8
LAY0
 10
5900
 20
1594.07
  0
VERTEX
  8
LAY0
 10
5900
 20
1672.08
  0
VERTEX
  8
LAY0
 10
5900
 20
1752.09
  0
VERTEX
  8
LAY0
 10
5900
 20
1827.52
  0
VERTEX
  8
LAY0
 10
5900
 20
1894.4
  0
VERTEX
  8
LAY0
 10
5900
 20
1952.64
  0
VERTEX
  8
LAY0
 10
5900
 20
2002.19
  0
VERTEX
  8
LAY0
 10
5900
 20
2040.44
  0
VERTEX
  8
LAY0
 10
5900
 20
2065.75
  0
VERTEX
  8
LAY0
 10
5900
 20
2081.3
  0
VERTEX
  8
LAY0
 10
5900
 20
2086.48
  0
VERTEX
  8
LAY0
 10
5900
 20
2081.3
  0
VERTEX
  8
LAY0
 10
5900
 20
2065.75
  0
VERTEX
  8
LAY0
 10
5900
 20
2040.44
  0
VERTEX
  8
LAY0
 10
5900
 20
2002.2
  0
VERTEX
  8
LAY0
 10
5900
 20
1952.65
  0
VERTEX
  8
LAY0
 10
5900
 20
1894.4
  0
VERTEX
  8
LAY0
 10
5900
 20
1827.54
  0
VERTEX
  8
LAY0
 10
5900
 20
1752.11
  0
VERTEX
  8
LAY0
 10
5900
 20
1672.08
  0
VERTEX
  8
LAY0
 10
5900
 20
1594.1
  0
VERTEX
  8
LAY0
 10
5900
 20
1512.57
  0
VERTEX
  8
LAY0
 10
5900
 20
1430.7
  0
SEQEND
  0
POLYLINE
  8
LAY0
 62
2
 66
1
  0
VERTEX
  8
LAY0
 10
5700
 20
1411.24
  0
VERTEX
  8
LAY0
 10
5700
 20
1493.13
  0
VERTEX
  8
LAY0
 10
5700
 20
1574.78
  0
VERTEX
  8
LAY0
 10
5700
 20
1652.79
  0
VERTEX
  8
LAY0
 10
5700
 20
1732.87
  0
VERTEX
  8
LAY0
 10
5700
 20
1808.41
  0
VERTEX
  8
LAY0
 10
5700
 20
1875.26
  0
VERTEX
  8
LAY0
 10
5700
 20
1933.55
  0
VERTEX
  8
LAY0
 10
5700
 20
1983.16
  0
VERTEX
  8
LAY0
 10
5700
 20
2021.39
  0
VERTEX
  8
LAY0
 10
5700
 20
2046.71
  0
VERTEX
  8
LAY0
 10
5700
 20
2062.28
  0
VERTEX
  8
LAY0
 10
5700
 20
2067.47
  0
VERTEX
  8
LAY0
 10
5700
 20
2062.28
  0
VERTEX
  8
LAY0
 10
5700
 20
2046.71
  0
VERTEX
  8
LAY0
 10
5700
 20
2021.4
  0
VERTEX
  8
LAY0
 10
5700
 20
1983.16
  0
VERTEX
  8
LAY0
 10
5700
 20
1933.55
  0
VERTEX
  8
LAY0
 10
5700
 20
1875.26
  0
VERTEX
  8
LAY0
 10
5700
 20
1808.4
  0
VERTEX
  8
LAY0
 10
5700
 20
1732.85
  0
VERTEX
  8
LAY0
 10
5700
 20
1652.79
  0
VERTEX
  8
LAY0
 10
5700
 20
1574.76
  0
VERTEX
  8
LAY0
 10
5700
 20
1493.1
  0
VERTEX
  8
LAY0
 10
5700
 20
1411.24
  0
SEQEND
  0
POLYLINE
  8
LAY0
 62
2
 66
1
  0
VERTEX
  8
LAY0
 10
5500
 20
1391.78
  0
VERTEX
  8
LAY0
 10
5500
 20
1471.25
  0
VERTEX
  8
LAY0
 10
5500
 20
1550.44
  0
VERTEX
  8
LAY0
 10
5500
 20
1626.19
  0
VERTEX
  8
LAY0
 10
5500
 20
1703.87
  0
VERTEX
  8
LAY0
 10
5500
 20
1777.14
  0
VERTEX
  8
LAY0
 10
5500
 20
1842.08
  0
VERTEX
  8
LAY0
 10
5500
 20
1898.63
  0
VERTEX
  8
LAY0
 10
5500
 20
1946.76
  0
VERTEX
  8
LAY0
 10
5500
 20
1983.89
  0
VERTEX
  8
LAY0
 10
5500
 20
2008.46
  0
VERTEX
  8
LAY0
 10
5500
 20
2023.56
  0
VERTEX
  8
LAY0
 10
5500
 20
2028.6
  0
VERTEX
  8
LAY0
 10
5500
 20
2023.56
  0
VERTEX
  8
LAY0
 10
5500
 20
2008.46
  0
VERTEX
  8
LAY0
 10
5500
 20
1983.89
  0
VERTEX
  8
LAY0
 10
5500
 20
1946.76
  0
VERTEX
  8
LAY0
 10
5500
 20
1898.63
  0
VERTEX
  8
LAY0
 10
5500
 20
1842.08
  0
VERTEX
  8
LAY0
 10
5500
 20
1777.14
  0
VERTEX
  8
LAY0
 10
5500
 20
1703.87
  0
VERTEX
  8
LAY0
 10
5500
 20
1626.19
  0
VERTEX
  8
LAY0
 10
5500
 20
1550.44
  0
VERTEX
  8
LAY0
 10
5500
 20
1471.25
  0
VERTEX
  8
LAY0
 10
5500
 20
1391.78
  0
SEQEND
  0
ENDSEC
  0
EOF
