999
DXF-file created by Varkon 1.18A
  0
SECTION
  2
HEADER
  9
$ACADVER
  1
AC1009
  0
ENDSEC
  0
SECTION
  2
ENTITIES
  0
POLYLINE
  8
LAY0
 62
2
 66
1
  0
VERTEX
  8
LAY0
 10
5900
 20
-1.63588e-010
  0
VERTEX
  8
LAY0
 10
5900
 20
-96.2997
  0
VERTEX
  8
LAY0
 10
5900
 20
-192.291
  0
VERTEX
  8
LAY0
 10
5900
 20
-284.097
  0
VERTEX
  8
LAY0
 10
5900
 20
-378.221
  0
VERTEX
  8
LAY0
 10
5900
 20
-467.034
  0
VERTEX
  8
LAY0
 10
5900
 20
-545.746
  0
VERTEX
  8
LAY0
 10
5900
 20
-614.261
  0
VERTEX
  8
LAY0
 10
5900
 20
-672.6
  0
VERTEX
  8
LAY0
 10
5900
 20
-717.611
  0
VERTEX
  8
LAY0
 10
5900
 20
-747.385
  0
VERTEX
  8
LAY0
 10
5900
 20
-765.697
  0
VERTEX
  8
LAY0
 10
5900
 20
-771.801
  0
VERTEX
  8
LAY0
 10
5900
 20
-765.7
  0
VERTEX
  8
LAY0
 10
5900
 20
-747.397
  0
VERTEX
  8
LAY0
 10
5900
 20
-717.611
  0
VERTEX
  8
LAY0
 10
5900
 20
-672.645
  0
VERTEX
  8
LAY0
 10
5900
 20
-614.328
  0
VERTEX
  8
LAY0
 10
5900
 20
-545.746
  0
VERTEX
  8
LAY0
 10
5900
 20
-467.11
  0
VERTEX
  8
LAY0
 10
5900
 20
-378.317
  0
VERTEX
  8
LAY0
 10
5900
 20
-284.097
  0
VERTEX
  8
LAY0
 10
5900
 20
-192.329
  0
VERTEX
  8
LAY0
 10
5900
 20
-96.3443
  0
VERTEX
  8
LAY0
 10
5900
 20
1.63346e-010
  0
VERTEX
  8
LAY0
 10
5900
 20
96.3422
  0
VERTEX
  8
LAY0
 10
5900
 20
192.327
  0
VERTEX
  8
LAY0
 10
5900
 20
284.097
  0
VERTEX
  8
LAY0
 10
5900
 20
378.315
  0
VERTEX
  8
LAY0
 10
5900
 20
467.109
  0
VERTEX
  8
LAY0
 10
5900
 20
545.746
  0
VERTEX
  8
LAY0
 10
5900
 20
614.327
  0
VERTEX
  8
LAY0
 10
5900
 20
672.645
  0
VERTEX
  8
LAY0
 10
5900
 20
717.611
  0
VERTEX
  8
LAY0
 10
5900
 20
747.397
  0
VERTEX
  8
LAY0
 10
5900
 20
765.7
  0
VERTEX
  8
LAY0
 10
5900
 20
771.801
  0
VERTEX
  8
LAY0
 10
5900
 20
765.697
  0
VERTEX
  8
LAY0
 10
5900
 20
747.385
  0
VERTEX
  8
LAY0
 10
5900
 20
717.611
  0
VERTEX
  8
LAY0
 10
5900
 20
672.6
  0
VERTEX
  8
LAY0
 10
5900
 20
614.26
  0
VERTEX
  8
LAY0
 10
5900
 20
545.746
  0
VERTEX
  8
LAY0
 10
5900
 20
467.033
  0
VERTEX
  8
LAY0
 10
5900
 20
378.22
  0
VERTEX
  8
LAY0
 10
5900
 20
284.097
  0
VERTEX
  8
LAY0
 10
5900
 20
192.29
  0
VERTEX
  8
LAY0
 10
5900
 20
96.2981
  0
VERTEX
  8
LAY0
 10
5900
 20
1.09482e-010
  0
SEQEND
  0
POLYLINE
  8
LAY0
 62
2
 66
1
  0
VERTEX
  8
LAY0
 10
5700
 20
-1.63295e-010
  0
VERTEX
  8
LAY0
 10
5700
 20
-96.1436
  0
VERTEX
  8
LAY0
 10
5700
 20
-191.943
  0
VERTEX
  8
LAY0
 10
5700
 20
-283.572
  0
VERTEX
  8
LAY0
 10
5700
 20
-377.564
  0
VERTEX
  8
LAY0
 10
5700
 20
-466.194
  0
VERTEX
  8
LAY0
 10
5700
 20
-544.739
  0
VERTEX
  8
LAY0
 10
5700
 20
-613.156
  0
VERTEX
  8
LAY0
 10
5700
 20
-671.373
  0
VERTEX
  8
LAY0
 10
5700
 20
-716.286
  0
VERTEX
  8
LAY0
 10
5700
 20
-746.012
  0
VERTEX
  8
LAY0
 10
5700
 20
-764.284
  0
VERTEX
  8
LAY0
 10
5700
 20
-770.375
  0
VERTEX
  8
LAY0
 10
5700
 20
-764.283
  0
VERTEX
  8
LAY0
 10
5700
 20
-746.006
  0
VERTEX
  8
LAY0
 10
5700
 20
-716.286
  0
VERTEX
  8
LAY0
 10
5700
 20
-671.351
  0
VERTEX
  8
LAY0
 10
5700
 20
-613.124
  0
VERTEX
  8
LAY0
 10
5700
 20
-544.739
  0
VERTEX
  8
LAY0
 10
5700
 20
-466.157
  0
VERTEX
  8
LAY0
 10
5700
 20
-377.518
  0
VERTEX
  8
LAY0
 10
5700
 20
-283.572
  0
VERTEX
  8
LAY0
 10
5700
 20
-191.925
  0
VERTEX
  8
LAY0
 10
5700
 20
-96.1222
  0
VERTEX
  8
LAY0
 10
5700
 20
1.63052e-010
  0
VERTEX
  8
LAY0
 10
5700
 20
96.1232
  0
VERTEX
  8
LAY0
 10
5700
 20
191.926
  0
VERTEX
  8
LAY0
 10
5700
 20
283.572
  0
VERTEX
  8
LAY0
 10
5700
 20
377.518
  0
VERTEX
  8
LAY0
 10
5700
 20
466.158
  0
VERTEX
  8
LAY0
 10
5700
 20
544.739
  0
VERTEX
  8
LAY0
 10
5700
 20
613.124
  0
VERTEX
  8
LAY0
 10
5700
 20
671.351
  0
VERTEX
  8
LAY0
 10
5700
 20
716.286
  0
VERTEX
  8
LAY0
 10
5700
 20
746.006
  0
VERTEX
  8
LAY0
 10
5700
 20
764.283
  0
VERTEX
  8
LAY0
 10
5700
 20
770.375
  0
VERTEX
  8
LAY0
 10
5700
 20
764.284
  0
VERTEX
  8
LAY0
 10
5700
 20
746.012
  0
VERTEX
  8
LAY0
 10
5700
 20
716.286
  0
VERTEX
  8
LAY0
 10
5700
 20
671.373
  0
VERTEX
  8
LAY0
 10
5700
 20
613.156
  0
VERTEX
  8
LAY0
 10
5700
 20
544.739
  0
VERTEX
  8
LAY0
 10
5700
 20
466.195
  0
VERTEX
  8
LAY0
 10
5700
 20
377.564
  0
VERTEX
  8
LAY0
 10
5700
 20
283.572
  0
VERTEX
  8
LAY0
 10
5700
 20
191.944
  0
VERTEX
  8
LAY0
 10
5700
 20
96.1444
  0
VERTEX
  8
LAY0
 10
5700
 20
1.09365e-010
  0
SEQEND
  0
POLYLINE
  8
LAY0
 62
2
 66
1
  0
VERTEX
  8
LAY0
 10
5500
 20
-282.919
  0
VERTEX
  8
LAY0
 10
5500
 20
-191.5
  0
VERTEX
  8
LAY0
 10
5500
 20
-95.9169
  0
VERTEX
  8
LAY0
 10
5500
 20
1.90141e-010
  0
VERTEX
  8
LAY0
 10
5500
 20
95.917
  0
VERTEX
  8
LAY0
 10
5500
 20
191.5
  0
VERTEX
  8
LAY0
 10
5500
 20
282.919
  0
VERTEX
  8
LAY0
 10
5500
 20
376.684
  0
VERTEX
  8
LAY0
 10
5500
 20
465.115
  0
VERTEX
  8
LAY0
 10
5500
 20
543.483
  0
VERTEX
  8
LAY0
 10
5500
 20
611.736
  0
VERTEX
  8
LAY0
 10
5500
 20
669.822
  0
VERTEX
  8
LAY0
 10
5500
 20
714.635
  0
VERTEX
  8
LAY0
 10
5500
 20
744.291
  0
VERTEX
  8
LAY0
 10
5500
 20
762.523
  0
VERTEX
  8
LAY0
 10
5500
 20
768.6
  0
VERTEX
  8
LAY0
 10
5500
 20
762.523
  0
VERTEX
  8
LAY0
 10
5500
 20
744.291
  0
VERTEX
  8
LAY0
 10
5500
 20
714.635
  0
VERTEX
  8
LAY0
 10
5500
 20
669.822
  0
VERTEX
  8
LAY0
 10
5500
 20
611.736
  0
VERTEX
  8
LAY0
 10
5500
 20
543.483
  0
VERTEX
  8
LAY0
 10
5500
 20
465.115
  0
VERTEX
  8
LAY0
 10
5500
 20
376.684
  0
VERTEX
  8
LAY0
 10
5500
 20
282.919
  0
VERTEX
  8
LAY0
 10
5500
 20
191.5
  0
VERTEX
  8
LAY0
 10
5500
 20
95.9169
  0
VERTEX
  8
LAY0
 10
5500
 20
-1.89686e-010
  0
VERTEX
  8
LAY0
 10
5500
 20
-95.917
  0
VERTEX
  8
LAY0
 10
5500
 20
-191.5
  0
VERTEX
  8
LAY0
 10
5500
 20
-282.919
  0
VERTEX
  8
LAY0
 10
5500
 20
-376.684
  0
VERTEX
  8
LAY0
 10
5500
 20
-465.115
  0
VERTEX
  8
LAY0
 10
5500
 20
-543.483
  0
VERTEX
  8
LAY0
 10
5500
 20
-611.736
  0
VERTEX
  8
LAY0
 10
5500
 20
-669.822
  0
VERTEX
  8
LAY0
 10
5500
 20
-714.635
  0
VERTEX
  8
LAY0
 10
5500
 20
-744.291
  0
VERTEX
  8
LAY0
 10
5500
 20
-762.523
  0
VERTEX
  8
LAY0
 10
5500
 20
-768.6
  0
VERTEX
  8
LAY0
 10
5500
 20
-762.523
  0
VERTEX
  8
LAY0
 10
5500
 20
-744.291
  0
VERTEX
  8
LAY0
 10
5500
 20
-714.635
  0
VERTEX
  8
LAY0
 10
5500
 20
-669.822
  0
VERTEX
  8
LAY0
 10
5500
 20
-611.736
  0
VERTEX
  8
LAY0
 10
5500
 20
-543.483
  0
VERTEX
  8
LAY0
 10
5500
 20
-465.115
  0
VERTEX
  8
LAY0
 10
5500
 20
-376.684
  0
VERTEX
  8
LAY0
 10
5500
 20
-282.919
  0
SEQEND
  0
POLYLINE
  8
LAY0
 62
2
 66
1
  0
VERTEX
  8
LAY0
 10
5300
 20
-1.62447e-010
  0
VERTEX
  8
LAY0
 10
5300
 20
-95.6221
  0
VERTEX
  8
LAY0
 10
5300
 20
-190.946
  0
VERTEX
  8
LAY0
 10
5300
 20
-282.116
  0
VERTEX
  8
LAY0
 10
5300
 20
-375.571
  0
VERTEX
  8
LAY0
 10
5300
 20
-463.767
  0
VERTEX
  8
LAY0
 10
5300
 20
-541.94
  0
VERTEX
  8
LAY0
 10
5300
 20
-609.968
  0
VERTEX
  8
LAY0
 10
5300
 20
-667.904
  0
VERTEX
  8
LAY0
 10
5300
 20
-712.606
  0
VERTEX
  8
LAY0
 10
5300
 20
-742.17
  0
VERTEX
  8
LAY0
 10
5300
 20
-760.356
  0
VERTEX
  8
LAY0
 10
5300
 20
-766.417
  0
VERTEX
  8
LAY0
 10
5300
 20
-760.357
  0
VERTEX
  8
LAY0
 10
5300
 20
-742.176
  0
VERTEX
  8
LAY0
 10
5300
 20
-712.606
  0
VERTEX
  8
LAY0
 10
5300
 20
-667.926
  0
VERTEX
  8
LAY0
 10
5300
 20
-610
  0
VERTEX
  8
LAY0
 10
5300
 20
-541.94
  0
VERTEX
  8
LAY0
 10
5300
 20
-463.804
  0
VERTEX
  8
LAY0
 10
5300
 20
-375.617
  0
VERTEX
  8
LAY0
 10
5300
 20
-282.116
  0
VERTEX
  8
LAY0
 10
5300
 20
-190.964
  0
VERTEX
  8
LAY0
 10
5300
 20
-95.6436
  0
VERTEX
  8
LAY0
 10
5300
 20
1.62206e-010
  0
VERTEX
  8
LAY0
 10
5300
 20
95.6426
  0
VERTEX
  8
LAY0
 10
5300
 20
190.963
  0
VERTEX
  8
LAY0
 10
5300
 20
282.116
  0
VERTEX
  8
LAY0
 10
5300
 20
375.617
  0
VERTEX
  8
LAY0
 10
5300
 20
463.804
  0
VERTEX
  8
LAY0
 10
5300
 20
541.94
  0
VERTEX
  8
LAY0
 10
5300
 20
610
  0
VERTEX
  8
LAY0
 10
5300
 20
667.925
  0
VERTEX
  8
LAY0
 10
5300
 20
712.606
  0
VERTEX
  8
LAY0
 10
5300
 20
742.176
  0
VERTEX
  8
LAY0
 10
5300
 20
760.357
  0
VERTEX
  8
LAY0
 10
5300
 20
766.417
  0
VERTEX
  8
LAY0
 10
5300
 20
760.356
  0
VERTEX
  8
LAY0
 10
5300
 20
742.17
  0
VERTEX
  8
LAY0
 10
5300
 20
712.606
  0
VERTEX
  8
LAY0
 10
5300
 20
667.904
  0
VERTEX
  8
LAY0
 10
5300
 20
609.968
  0
VERTEX
  8
LAY0
 10
5300
 20
541.94
  0
VERTEX
  8
LAY0
 10
5300
 20
463.767
  0
VERTEX
  8
LAY0
 10
5300
 20
375.57
  0
VERTEX
  8
LAY0
 10
5300
 20
282.116
  0
VERTEX
  8
LAY0
 10
5300
 20
190.945
  0
VERTEX
  8
LAY0
 10
5300
 20
95.6213
  0
VERTEX
  8
LAY0
 10
5300
 20
1.08909e-010
  0
SEQEND
  0
POLYLINE
  8
LAY0
 62
2
 66
1
  0
VERTEX
  8
LAY0
 10
5100
 20
-1.61908e-010
  0
VERTEX
  8
LAY0
 10
5100
 20
-95.3571
  0
VERTEX
  8
LAY0
 10
5100
 20
-190.319
  0
VERTEX
  8
LAY0
 10
5100
 20
-281.148
  0
VERTEX
  8
LAY0
 10
5100
 20
-374.405
  0
VERTEX
  8
LAY0
 10
5100
 20
-462.253
  0
VERTEX
  8
LAY0
 10
5100
 20
-540.082
  0
VERTEX
  8
LAY0
 10
5100
 20
-607.964
  0
VERTEX
  8
LAY0
 10
5100
 20
-665.66
  0
VERTEX
  8
LAY0
 10
5100
 20
-710.163
  0
VERTEX
  8
LAY0
 10
5100
 20
-739.646
  0
VERTEX
  8
LAY0
 10
5100
 20
-757.754
  0
VERTEX
  8
LAY0
 10
5100
 20
-763.79
  0
VERTEX
  8
LAY0
 10
5100
 20
-757.751
  0
VERTEX
  8
LAY0
 10
5100
 20
-739.634
  0
VERTEX
  8
LAY0
 10
5100
 20
-710.163
  0
VERTEX
  8
LAY0
 10
5100
 20
-665.615
  0
VERTEX
  8
LAY0
 10
5100
 20
-607.896
  0
VERTEX
  8
LAY0
 10
5100
 20
-540.082
  0
VERTEX
  8
LAY0
 10
5100
 20
-462.176
  0
VERTEX
  8
LAY0
 10
5100
 20
-374.308
  0
VERTEX
  8
LAY0
 10
5100
 20
-281.148
  0
VERTEX
  8
LAY0
 10
5100
 20
-190.282
  0
VERTEX
  8
LAY0
 10
5100
 20
-95.3121
  0
VERTEX
  8
LAY0
 10
5100
 20
1.61668e-010
  0
VERTEX
  8
LAY0
 10
5100
 20
95.3141
  0
VERTEX
  8
LAY0
 10
5100
 20
190.283
  0
VERTEX
  8
LAY0
 10
5100
 20
281.148
  0
VERTEX
  8
LAY0
 10
5100
 20
374.31
  0
VERTEX
  8
LAY0
 10
5100
 20
462.177
  0
VERTEX
  8
LAY0
 10
5100
 20
540.082
  0
VERTEX
  8
LAY0
 10
5100
 20
607.897
  0
VERTEX
  8
LAY0
 10
5100
 20
665.615
  0
VERTEX
  8
LAY0
 10
5100
 20
710.163
  0
VERTEX
  8
LAY0
 10
5100
 20
739.634
  0
VERTEX
  8
LAY0
 10
5100
 20
757.751
  0
VERTEX
  8
LAY0
 10
5100
 20
763.79
  0
VERTEX
  8
LAY0
 10
5100
 20
757.754
  0
VERTEX
  8
LAY0
 10
5100
 20
739.646
  0
VERTEX
  8
LAY0
 10
5100
 20
710.163
  0
VERTEX
  8
LAY0
 10
5100
 20
665.661
  0
VERTEX
  8
LAY0
 10
5100
 20
607.964
  0
VERTEX
  8
LAY0
 10
5100
 20
540.082
  0
VERTEX
  8
LAY0
 10
5100
 20
462.254
  0
VERTEX
  8
LAY0
 10
5100
 20
374.406
  0
VERTEX
  8
LAY0
 10
5100
 20
281.148
  0
VERTEX
  8
LAY0
 10
5100
 20
190.321
  0
VERTEX
  8
LAY0
 10
5100
 20
95.3588
  0
VERTEX
  8
LAY0
 10
5100
 20
1.08402e-010
  0
SEQEND
  0
POLYLINE
  8
LAY0
 62
2
 66
1
  0
VERTEX
  8
LAY0
 10
4900
 20
-1.61222e-010
  0
VERTEX
  8
LAY0
 10
4900
 20
-94.8826
  0
VERTEX
  8
LAY0
 10
4900
 20
-189.509
  0
VERTEX
  8
LAY0
 10
4900
 20
-280.005
  0
VERTEX
  8
LAY0
 10
4900
 20
-372.716
  0
VERTEX
  8
LAY0
 10
4900
 20
-460.272
  0
VERTEX
  8
LAY0
 10
4900
 20
-537.885
  0
VERTEX
  8
LAY0
 10
4900
 20
-605.372
  0
VERTEX
  8
LAY0
 10
4900
 20
-662.89
  0
VERTEX
  8
LAY0
 10
4900
 20
-707.274
  0
VERTEX
  8
LAY0
 10
4900
 20
-736.608
  0
VERTEX
  8
LAY0
 10
4900
 20
-754.664
  0
VERTEX
  8
LAY0
 10
4900
 20
-760.682
  0
VERTEX
  8
LAY0
 10
4900
 20
-754.667
  0
VERTEX
  8
LAY0
 10
4900
 20
-736.62
  0
VERTEX
  8
LAY0
 10
4900
 20
-707.274
  0
VERTEX
  8
LAY0
 10
4900
 20
-662.932
  0
VERTEX
  8
LAY0
 10
4900
 20
-605.434
  0
VERTEX
  8
LAY0
 10
4900
 20
-537.885
  0
VERTEX
  8
LAY0
 10
4900
 20
-460.344
  0
VERTEX
  8
LAY0
 10
4900
 20
-372.806
  0
VERTEX
  8
LAY0
 10
4900
 20
-280.005
  0
VERTEX
  8
LAY0
 10
4900
 20
-189.544
  0
VERTEX
  8
LAY0
 10
4900
 20
-94.9244
  0
VERTEX
  8
LAY0
 10
4900
 20
1.60984e-010
  0
VERTEX
  8
LAY0
 10
4900
 20
94.9223
  0
VERTEX
  8
LAY0
 10
4900
 20
189.542
  0
VERTEX
  8
LAY0
 10
4900
 20
280.005
  0
VERTEX
  8
LAY0
 10
4900
 20
372.804
  0
VERTEX
  8
LAY0
 10
4900
 20
460.342
  0
VERTEX
  8
LAY0
 10
4900
 20
537.885
  0
VERTEX
  8
LAY0
 10
4900
 20
605.434
  0
VERTEX
  8
LAY0
 10
4900
 20
662.932
  0
VERTEX
  8
LAY0
 10
4900
 20
707.274
  0
VERTEX
  8
LAY0
 10
4900
 20
736.62
  0
VERTEX
  8
LAY0
 10
4900
 20
754.667
  0
VERTEX
  8
LAY0
 10
4900
 20
760.682
  0
VERTEX
  8
LAY0
 10
4900
 20
754.664
  0
VERTEX
  8
LAY0
 10
4900
 20
736.608
  0
VERTEX
  8
LAY0
 10
4900
 20
707.274
  0
VERTEX
  8
LAY0
 10
4900
 20
662.89
  0
VERTEX
  8
LAY0
 10
4900
 20
605.371
  0
VERTEX
  8
LAY0
 10
4900
 20
537.885
  0
VERTEX
  8
LAY0
 10
4900
 20
460.271
  0
VERTEX
  8
LAY0
 10
4900
 20
372.715
  0
VERTEX
  8
LAY0
 10
4900
 20
280.005
  0
VERTEX
  8
LAY0
 10
4900
 20
189.508
  0
VERTEX
  8
LAY0
 10
4900
 20
94.881
  0
VERTEX
  8
LAY0
 10
4900
 20
1.07951e-010
  0
SEQEND
  0
POLYLINE
  8
LAY0
 62
2
 66
1
  0
VERTEX
  8
LAY0
 10
4700
 20
-1.60466e-010
  0
VERTEX
  8
LAY0
 10
4700
 20
-94.4941
  0
VERTEX
  8
LAY0
 10
4700
 20
-188.624
  0
VERTEX
  8
LAY0
 10
4700
 20
-278.654
  0
VERTEX
  8
LAY0
 10
4700
 20
-371.05
  0
VERTEX
  8
LAY0
 10
4700
 20
-458.131
  0
VERTEX
  8
LAY0
 10
4700
 20
-535.29
  0
VERTEX
  8
LAY0
 10
4700
 20
-602.546
  0
VERTEX
  8
LAY0
 10
4700
 20
-659.742
  0
VERTEX
  8
LAY0
 10
4700
 20
-703.862
  0
VERTEX
  8
LAY0
 10
4700
 20
-733.078
  0
VERTEX
  8
LAY0
 10
4700
 20
-751.029
  0
VERTEX
  8
LAY0
 10
4700
 20
-757.013
  0
VERTEX
  8
LAY0
 10
4700
 20
-751.028
  0
VERTEX
  8
LAY0
 10
4700
 20
-733.072
  0
VERTEX
  8
LAY0
 10
4700
 20
-703.862
  0
VERTEX
  8
LAY0
 10
4700
 20
-659.72
  0
VERTEX
  8
LAY0
 10
4700
 20
-602.514
  0
VERTEX
  8
LAY0
 10
4700
 20
-535.29
  0
VERTEX
  8
LAY0
 10
4700
 20
-458.095
  0
VERTEX
  8
LAY0
 10
4700
 20
-371.004
  0
VERTEX
  8
LAY0
 10
4700
 20
-278.654
  0
VERTEX
  8
LAY0
 10
4700
 20
-188.606
  0
VERTEX
  8
LAY0
 10
4700
 20
-94.4727
  0
VERTEX
  8
LAY0
 10
4700
 20
1.60228e-010
  0
VERTEX
  8
LAY0
 10
4700
 20
94.4737
  0
VERTEX
  8
LAY0
 10
4700
 20
188.606
  0
VERTEX
  8
LAY0
 10
4700
 20
278.654
  0
VERTEX
  8
LAY0
 10
4700
 20
371.005
  0
VERTEX
  8
LAY0
 10
4700
 20
458.095
  0
VERTEX
  8
LAY0
 10
4700
 20
535.29
  0
VERTEX
  8
LAY0
 10
4700
 20
602.515
  0
VERTEX
  8
LAY0
 10
4700
 20
659.721
  0
VERTEX
  8
LAY0
 10
4700
 20
703.862
  0
VERTEX
  8
LAY0
 10
4700
 20
733.072
  0
VERTEX
  8
LAY0
 10
4700
 20
751.028
  0
VERTEX
  8
LAY0
 10
4700
 20
757.013
  0
VERTEX
  8
LAY0
 10
4700
 20
751.029
  0
VERTEX
  8
LAY0
 10
4700
 20
733.078
  0
VERTEX
  8
LAY0
 10
4700
 20
703.862
  0
VERTEX
  8
LAY0
 10
4700
 20
659.742
  0
VERTEX
  8
LAY0
 10
4700
 20
602.546
  0
VERTEX
  8
LAY0
 10
4700
 20
535.29
  0
VERTEX
  8
LAY0
 10
4700
 20
458.132
  0
VERTEX
  8
LAY0
 10
4700
 20
371.051
  0
VERTEX
  8
LAY0
 10
4700
 20
278.654
  0
VERTEX
  8
LAY0
 10
4700
 20
188.624
  0
VERTEX
  8
LAY0
 10
4700
 20
94.4949
  0
VERTEX
  8
LAY0
 10
4700
 20
1.07603e-010
  0
SEQEND
  0
POLYLINE
  8
LAY0
 62
2
 66
1
  0
VERTEX
  8
LAY0
 10
4500
 20
-277.066
  0
VERTEX
  8
LAY0
 10
4500
 20
-187.538
  0
VERTEX
  8
LAY0
 10
4500
 20
-93.9328
  0
VERTEX
  8
LAY0
 10
4500
 20
1.86276e-010
  0
VERTEX
  8
LAY0
 10
4500
 20
93.9327
  0
VERTEX
  8
LAY0
 10
4500
 20
187.538
  0
VERTEX
  8
LAY0
 10
4500
 20
277.066
  0
VERTEX
  8
LAY0
 10
4500
 20
368.892
  0
VERTEX
  8
LAY0
 10
4500
 20
455.493
  0
VERTEX
  8
LAY0
 10
4500
 20
532.24
  0
VERTEX
  8
LAY0
 10
4500
 20
599.081
  0
VERTEX
  8
LAY0
 10
4500
 20
655.966
  0
VERTEX
  8
LAY0
 10
4500
 20
699.852
  0
VERTEX
  8
LAY0
 10
4500
 20
728.894
  0
VERTEX
  8
LAY0
 10
4500
 20
746.748
  0
VERTEX
  8
LAY0
 10
4500
 20
752.7
  0
VERTEX
  8
LAY0
 10
4500
 20
746.748
  0
VERTEX
  8
LAY0
 10
4500
 20
728.894
  0
VERTEX
  8
LAY0
 10
4500
 20
699.852
  0
VERTEX
  8
LAY0
 10
4500
 20
655.966
  0
VERTEX
  8
LAY0
 10
4500
 20
599.081
  0
VERTEX
  8
LAY0
 10
4500
 20
532.24
  0
VERTEX
  8
LAY0
 10
4500
 20
455.493
  0
VERTEX
  8
LAY0
 10
4500
 20
368.892
  0
VERTEX
  8
LAY0
 10
4500
 20
277.066
  0
VERTEX
  8
LAY0
 10
4500
 20
187.538
  0
VERTEX
  8
LAY0
 10
4500
 20
93.9327
  0
VERTEX
  8
LAY0
 10
4500
 20
-1.85707e-010
  0
VERTEX
  8
LAY0
 10
4500
 20
-93.9327
  0
VERTEX
  8
LAY0
 10
4500
 20
-187.538
  0
VERTEX
  8
LAY0
 10
4500
 20
-277.066
  0
VERTEX
  8
LAY0
 10
4500
 20
-368.892
  0
VERTEX
  8
LAY0
 10
4500
 20
-455.493
  0
VERTEX
  8
LAY0
 10
4500
 20
-532.24
  0
VERTEX
  8
LAY0
 10
4500
 20
-599.081
  0
VERTEX
  8
LAY0
 10
4500
 20
-655.966
  0
VERTEX
  8
LAY0
 10
4500
 20
-699.852
  0
VERTEX
  8
LAY0
 10
4500
 20
-728.894
  0
VERTEX
  8
LAY0
 10
4500
 20
-746.748
  0
VERTEX
  8
LAY0
 10
4500
 20
-752.7
  0
VERTEX
  8
LAY0
 10
4500
 20
-746.748
  0
VERTEX
  8
LAY0
 10
4500
 20
-728.894
  0
VERTEX
  8
LAY0
 10
4500
 20
-699.852
  0
VERTEX
  8
LAY0
 10
4500
 20
-655.966
  0
VERTEX
  8
LAY0
 10
4500
 20
-599.081
  0
VERTEX
  8
LAY0
 10
4500
 20
-532.24
  0
VERTEX
  8
LAY0
 10
4500
 20
-455.493
  0
VERTEX
  8
LAY0
 10
4500
 20
-368.892
  0
VERTEX
  8
LAY0
 10
4500
 20
-277.066
  0
SEQEND
  0
POLYLINE
  8
LAY0
 62
2
 66
1
  0
VERTEX
  8
LAY0
 10
4300
 20
-1.58466e-010
  0
VERTEX
  8
LAY0
 10
4300
 20
-93.279
  0
VERTEX
  8
LAY0
 10
4300
 20
-186.283
  0
VERTEX
  8
LAY0
 10
4300
 20
-275.216
  0
VERTEX
  8
LAY0
 10
4300
 20
-366.383
  0
VERTEX
  8
LAY0
 10
4300
 20
-452.432
  0
VERTEX
  8
LAY0
 10
4300
 20
-528.686
  0
VERTEX
  8
LAY0
 10
4300
 20
-595.048
  0
VERTEX
  8
LAY0
 10
4300
 20
-651.572
  0
VERTEX
  8
LAY0
 10
4300
 20
-695.178
  0
VERTEX
  8
LAY0
 10
4300
 20
-724.016
  0
VERTEX
  8
LAY0
 10
4300
 20
-741.759
  0
VERTEX
  8
LAY0
 10
4300
 20
-747.673
  0
VERTEX
  8
LAY0
 10
4300
 20
-741.76
  0
VERTEX
  8
LAY0
 10
4300
 20
-724.022
  0
VERTEX
  8
LAY0
 10
4300
 20
-695.178
  0
VERTEX
  8
LAY0
 10
4300
 20
-651.593
  0
VERTEX
  8
LAY0
 10
4300
 20
-595.078
  0
VERTEX
  8
LAY0
 10
4300
 20
-528.686
  0
VERTEX
  8
LAY0
 10
4300
 20
-452.468
  0
VERTEX
  8
LAY0
 10
4300
 20
-366.427
  0
VERTEX
  8
LAY0
 10
4300
 20
-275.216
  0
VERTEX
  8
LAY0
 10
4300
 20
-186.3
  0
VERTEX
  8
LAY0
 10
4300
 20
-93.2995
  0
VERTEX
  8
LAY0
 10
4300
 20
1.58231e-010
  0
VERTEX
  8
LAY0
 10
4300
 20
93.2985
  0
VERTEX
  8
LAY0
 10
4300
 20
186.3
  0
VERTEX
  8
LAY0
 10
4300
 20
275.216
  0
VERTEX
  8
LAY0
 10
4300
 20
366.426
  0
VERTEX
  8
LAY0
 10
4300
 20
452.467
  0
VERTEX
  8
LAY0
 10
4300
 20
528.686
  0
VERTEX
  8
LAY0
 10
4300
 20
595.078
  0
VERTEX
  8
LAY0
 10
4300
 20
651.593
  0
VERTEX
  8
LAY0
 10
4300
 20
695.178
  0
VERTEX
  8
LAY0
 10
4300
 20
724.022
  0
VERTEX
  8
LAY0
 10
4300
 20
741.76
  0
VERTEX
  8
LAY0
 10
4300
 20
747.673
  0
VERTEX
  8
LAY0
 10
4300
 20
741.759
  0
VERTEX
  8
LAY0
 10
4300
 20
724.016
  0
VERTEX
  8
LAY0
 10
4300
 20
695.178
  0
VERTEX
  8
LAY0
 10
4300
 20
651.572
  0
VERTEX
  8
LAY0
 10
4300
 20
595.047
  0
VERTEX
  8
LAY0
 10
4300
 20
528.686
  0
VERTEX
  8
LAY0
 10
4300
 20
452.432
  0
VERTEX
  8
LAY0
 10
4300
 20
366.382
  0
VERTEX
  8
LAY0
 10
4300
 20
275.216
  0
VERTEX
  8
LAY0
 10
4300
 20
186.283
  0
VERTEX
  8
LAY0
 10
4300
 20
93.2782
  0
VERTEX
  8
LAY0
 10
4300
 20
1.06075e-010
  0
SEQEND
  0
POLYLINE
  8
LAY0
 62
2
 66
1
  0
VERTEX
  8
LAY0
 10
4100
 20
-1.57262e-010
  0
VERTEX
  8
LAY0
 10
4100
 20
-92.6248
  0
VERTEX
  8
LAY0
 10
4100
 20
-184.832
  0
VERTEX
  8
LAY0
 10
4100
 20
-273.055
  0
VERTEX
  8
LAY0
 10
4100
 20
-363.642
  0
VERTEX
  8
LAY0
 10
4100
 20
-448.941
  0
VERTEX
  8
LAY0
 10
4100
 20
-524.535
  0
VERTEX
  8
LAY0
 10
4100
 20
-590.475
  0
VERTEX
  8
LAY0
 10
4100
 20
-646.497
  0
VERTEX
  8
LAY0
 10
4100
 20
-689.72
  0
VERTEX
  8
LAY0
 10
4100
 20
-718.361
  0
VERTEX
  8
LAY0
 10
4100
 20
-735.942
  0
VERTEX
  8
LAY0
 10
4100
 20
-741.803
  0
VERTEX
  8
LAY0
 10
4100
 20
-735.94
  0
VERTEX
  8
LAY0
 10
4100
 20
-718.349
  0
VERTEX
  8
LAY0
 10
4100
 20
-689.72
  0
VERTEX
  8
LAY0
 10
4100
 20
-646.454
  0
VERTEX
  8
LAY0
 10
4100
 20
-590.412
  0
VERTEX
  8
LAY0
 10
4100
 20
-524.535
  0
VERTEX
  8
LAY0
 10
4100
 20
-448.869
  0
VERTEX
  8
LAY0
 10
4100
 20
-363.552
  0
VERTEX
  8
LAY0
 10
4100
 20
-273.055
  0
VERTEX
  8
LAY0
 10
4100
 20
-184.796
  0
VERTEX
  8
LAY0
 10
4100
 20
-92.5828
  0
VERTEX
  8
LAY0
 10
4100
 20
1.57028e-010
  0
VERTEX
  8
LAY0
 10
4100
 20
92.5848
  0
VERTEX
  8
LAY0
 10
4100
 20
184.798
  0
VERTEX
  8
LAY0
 10
4100
 20
273.055
  0
VERTEX
  8
LAY0
 10
4100
 20
363.553
  0
VERTEX
  8
LAY0
 10
4100
 20
448.87
  0
VERTEX
  8
LAY0
 10
4100
 20
524.535
  0
VERTEX
  8
LAY0
 10
4100
 20
590.412
  0
VERTEX
  8
LAY0
 10
4100
 20
646.455
  0
VERTEX
  8
LAY0
 10
4100
 20
689.72
  0
VERTEX
  8
LAY0
 10
4100
 20
718.349
  0
VERTEX
  8
LAY0
 10
4100
 20
735.94
  0
VERTEX
  8
LAY0
 10
4100
 20
741.803
  0
VERTEX
  8
LAY0
 10
4100
 20
735.942
  0
VERTEX
  8
LAY0
 10
4100
 20
718.361
  0
VERTEX
  8
LAY0
 10
4100
 20
689.72
  0
VERTEX
  8
LAY0
 10
4100
 20
646.497
  0
VERTEX
  8
LAY0
 10
4100
 20
590.475
  0
VERTEX
  8
LAY0
 10
4100
 20
524.535
  0
VERTEX
  8
LAY0
 10
4100
 20
448.942
  0
VERTEX
  8
LAY0
 10
4100
 20
363.643
  0
VERTEX
  8
LAY0
 10
4100
 20
273.055
  0
VERTEX
  8
LAY0
 10
4100
 20
184.833
  0
VERTEX
  8
LAY0
 10
4100
 20
92.6266
  0
VERTEX
  8
LAY0
 10
4100
 20
1.05162e-010
  0
SEQEND
  0
POLYLINE
  8
LAY0
 62
2
 66
1
  0
VERTEX
  8
LAY0
 10
3900
 20
-1.55798e-010
  0
VERTEX
  8
LAY0
 10
3900
 20
-91.7654
  0
VERTEX
  8
LAY0
 10
3900
 20
-183.13
  0
VERTEX
  8
LAY0
 10
3900
 20
-270.528
  0
VERTEX
  8
LAY0
 10
3900
 20
-360.278
  0
VERTEX
  8
LAY0
 10
3900
 20
-444.797
  0
VERTEX
  8
LAY0
 10
3900
 20
-519.68
  0
VERTEX
  8
LAY0
 10
3900
 20
-585.01
  0
VERTEX
  8
LAY0
 10
3900
 20
-640.519
  0
VERTEX
  8
LAY0
 10
3900
 20
-683.336
  0
VERTEX
  8
LAY0
 10
3900
 20
-711.709
  0
VERTEX
  8
LAY0
 10
3900
 20
-729.13
  0
VERTEX
  8
LAY0
 10
3900
 20
-734.937
  0
VERTEX
  8
LAY0
 10
3900
 20
-729.127
  0
VERTEX
  8
LAY0
 10
3900
 20
-711.697
  0
VERTEX
  8
LAY0
 10
3900
 20
-683.336
  0
VERTEX
  8
LAY0
 10
3900
 20
-640.473
  0
VERTEX
  8
LAY0
 10
3900
 20
-584.943
  0
VERTEX
  8
LAY0
 10
3900
 20
-519.68
  0
VERTEX
  8
LAY0
 10
3900
 20
-444.72
  0
VERTEX
  8
LAY0
 10
3900
 20
-360.183
  0
VERTEX
  8
LAY0
 10
3900
 20
-270.528
  0
VERTEX
  8
LAY0
 10
3900
 20
-183.093
  0
VERTEX
  8
LAY0
 10
3900
 20
-91.721
  0
VERTEX
  8
LAY0
 10
3900
 20
1.55567e-010
  0
VERTEX
  8
LAY0
 10
3900
 20
91.722
  0
VERTEX
  8
LAY0
 10
3900
 20
183.094
  0
VERTEX
  8
LAY0
 10
3900
 20
270.528
  0
VERTEX
  8
LAY0
 10
3900
 20
360.183
  0
VERTEX
  8
LAY0
 10
3900
 20
444.721
  0
VERTEX
  8
LAY0
 10
3900
 20
519.68
  0
VERTEX
  8
LAY0
 10
3900
 20
584.943
  0
VERTEX
  8
LAY0
 10
3900
 20
640.474
  0
VERTEX
  8
LAY0
 10
3900
 20
683.336
  0
VERTEX
  8
LAY0
 10
3900
 20
711.697
  0
VERTEX
  8
LAY0
 10
3900
 20
729.127
  0
VERTEX
  8
LAY0
 10
3900
 20
734.937
  0
VERTEX
  8
LAY0
 10
3900
 20
729.13
  0
VERTEX
  8
LAY0
 10
3900
 20
711.71
  0
VERTEX
  8
LAY0
 10
3900
 20
683.336
  0
VERTEX
  8
LAY0
 10
3900
 20
640.519
  0
VERTEX
  8
LAY0
 10
3900
 20
585.01
  0
VERTEX
  8
LAY0
 10
3900
 20
519.68
  0
VERTEX
  8
LAY0
 10
3900
 20
444.797
  0
VERTEX
  8
LAY0
 10
3900
 20
360.279
  0
VERTEX
  8
LAY0
 10
3900
 20
270.528
  0
VERTEX
  8
LAY0
 10
3900
 20
183.131
  0
VERTEX
  8
LAY0
 10
3900
 20
91.7663
  0
VERTEX
  8
LAY0
 10
3900
 20
1.04363e-010
  0
SEQEND
  0
POLYLINE
  8
LAY0
 62
2
 66
1
  0
VERTEX
  8
LAY0
 10
3700
 20
-1.54154e-010
  0
VERTEX
  8
LAY0
 10
3700
 20
-90.8298
  0
VERTEX
  8
LAY0
 10
3700
 20
-181.126
  0
VERTEX
  8
LAY0
 10
3700
 20
-267.59
  0
VERTEX
  8
LAY0
 10
3700
 20
-356.455
  0
VERTEX
  8
LAY0
 10
3700
 20
-439.979
  0
VERTEX
  8
LAY0
 10
3700
 20
-514.036
  0
VERTEX
  8
LAY0
 10
3700
 20
-578.724
  0
VERTEX
  8
LAY0
 10
3700
 20
-633.575
  0
VERTEX
  8
LAY0
 10
3700
 20
-675.915
  0
VERTEX
  8
LAY0
 10
3700
 20
-704.005
  0
VERTEX
  8
LAY0
 10
3700
 20
-721.218
  0
VERTEX
  8
LAY0
 10
3700
 20
-726.955
  0
VERTEX
  8
LAY0
 10
3700
 20
-721.212
  0
VERTEX
  8
LAY0
 10
3700
 20
-703.981
  0
VERTEX
  8
LAY0
 10
3700
 20
-675.915
  0
VERTEX
  8
LAY0
 10
3700
 20
-633.489
  0
VERTEX
  8
LAY0
 10
3700
 20
-578.596
  0
VERTEX
  8
LAY0
 10
3700
 20
-514.036
  0
VERTEX
  8
LAY0
 10
3700
 20
-439.833
  0
VERTEX
  8
LAY0
 10
3700
 20
-356.273
  0
VERTEX
  8
LAY0
 10
3700
 20
-267.59
  0
VERTEX
  8
LAY0
 10
3700
 20
-181.054
  0
VERTEX
  8
LAY0
 10
3700
 20
-90.7452
  0
VERTEX
  8
LAY0
 10
3700
 20
1.53925e-010
  0
VERTEX
  8
LAY0
 10
3700
 20
90.7472
  0
VERTEX
  8
LAY0
 10
3700
 20
181.056
  0
VERTEX
  8
LAY0
 10
3700
 20
267.59
  0
VERTEX
  8
LAY0
 10
3700
 20
356.274
  0
VERTEX
  8
LAY0
 10
3700
 20
439.834
  0
VERTEX
  8
LAY0
 10
3700
 20
514.036
  0
VERTEX
  8
LAY0
 10
3700
 20
578.597
  0
VERTEX
  8
LAY0
 10
3700
 20
633.489
  0
VERTEX
  8
LAY0
 10
3700
 20
675.915
  0
VERTEX
  8
LAY0
 10
3700
 20
703.981
  0
VERTEX
  8
LAY0
 10
3700
 20
721.212
  0
VERTEX
  8
LAY0
 10
3700
 20
726.955
  0
VERTEX
  8
LAY0
 10
3700
 20
721.218
  0
VERTEX
  8
LAY0
 10
3700
 20
704.005
  0
VERTEX
  8
LAY0
 10
3700
 20
675.915
  0
VERTEX
  8
LAY0
 10
3700
 20
633.576
  0
VERTEX
  8
LAY0
 10
3700
 20
578.725
  0
VERTEX
  8
LAY0
 10
3700
 20
514.036
  0
VERTEX
  8
LAY0
 10
3700
 20
439.98
  0
VERTEX
  8
LAY0
 10
3700
 20
356.457
  0
VERTEX
  8
LAY0
 10
3700
 20
267.59
  0
VERTEX
  8
LAY0
 10
3700
 20
181.127
  0
VERTEX
  8
LAY0
 10
3700
 20
90.8316
  0
VERTEX
  8
LAY0
 10
3700
 20
1.03174e-010
  0
SEQEND
  0
POLYLINE
  8
LAY0
 62
2
 66
1
  0
VERTEX
  8
LAY0
 10
3500
 20
-264.156
  0
VERTEX
  8
LAY0
 10
3500
 20
-178.8
  0
VERTEX
  8
LAY0
 10
3500
 20
-89.5559
  0
VERTEX
  8
LAY0
 10
3500
 20
1.77636e-010
  0
VERTEX
  8
LAY0
 10
3500
 20
89.5559
  0
VERTEX
  8
LAY0
 10
3500
 20
178.8
  0
VERTEX
  8
LAY0
 10
3500
 20
264.156
  0
VERTEX
  8
LAY0
 10
3500
 20
351.703
  0
VERTEX
  8
LAY0
 10
3500
 20
434.269
  0
VERTEX
  8
LAY0
 10
3500
 20
507.44
  0
VERTEX
  8
LAY0
 10
3500
 20
571.167
  0
VERTEX
  8
LAY0
 10
3500
 20
625.401
  0
VERTEX
  8
LAY0
 10
3500
 20
667.242
  0
VERTEX
  8
LAY0
 10
3500
 20
694.931
  0
VERTEX
  8
LAY0
 10
3500
 20
711.953
  0
VERTEX
  8
LAY0
 10
3500
 20
717.627
  0
VERTEX
  8
LAY0
 10
3500
 20
711.953
  0
VERTEX
  8
LAY0
 10
3500
 20
694.931
  0
VERTEX
  8
LAY0
 10
3500
 20
667.242
  0
VERTEX
  8
LAY0
 10
3500
 20
625.401
  0
VERTEX
  8
LAY0
 10
3500
 20
571.167
  0
VERTEX
  8
LAY0
 10
3500
 20
507.44
  0
VERTEX
  8
LAY0
 10
3500
 20
434.269
  0
VERTEX
  8
LAY0
 10
3500
 20
351.703
  0
VERTEX
  8
LAY0
 10
3500
 20
264.156
  0
VERTEX
  8
LAY0
 10
3500
 20
178.8
  0
VERTEX
  8
LAY0
 10
3500
 20
89.5559
  0
VERTEX
  8
LAY0
 10
3500
 20
-1.77181e-010
  0
VERTEX
  8
LAY0
 10
3500
 20
-89.5559
  0
VERTEX
  8
LAY0
 10
3500
 20
-178.8
  0
VERTEX
  8
LAY0
 10
3500
 20
-264.156
  0
VERTEX
  8
LAY0
 10
3500
 20
-351.703
  0
VERTEX
  8
LAY0
 10
3500
 20
-434.269
  0
VERTEX
  8
LAY0
 10
3500
 20
-507.44
  0
VERTEX
  8
LAY0
 10
3500
 20
-571.167
  0
VERTEX
  8
LAY0
 10
3500
 20
-625.401
  0
VERTEX
  8
LAY0
 10
3500
 20
-667.242
  0
VERTEX
  8
LAY0
 10
3500
 20
-694.931
  0
VERTEX
  8
LAY0
 10
3500
 20
-711.953
  0
VERTEX
  8
LAY0
 10
3500
 20
-717.627
  0
VERTEX
  8
LAY0
 10
3500
 20
-711.953
  0
VERTEX
  8
LAY0
 10
3500
 20
-694.931
  0
VERTEX
  8
LAY0
 10
3500
 20
-667.242
  0
VERTEX
  8
LAY0
 10
3500
 20
-625.401
  0
VERTEX
  8
LAY0
 10
3500
 20
-571.167
  0
VERTEX
  8
LAY0
 10
3500
 20
-507.44
  0
VERTEX
  8
LAY0
 10
3500
 20
-434.269
  0
VERTEX
  8
LAY0
 10
3500
 20
-351.703
  0
VERTEX
  8
LAY0
 10
3500
 20
-264.156
  0
SEQEND
  0
POLYLINE
  8
LAY0
 62
2
 66
1
  0
VERTEX
  8
LAY0
 10
3300
 20
-1.49686e-010
  0
VERTEX
  8
LAY0
 10
3300
 20
-88.0552
  0
VERTEX
  8
LAY0
 10
3300
 20
-176.116
  0
VERTEX
  8
LAY0
 10
3300
 20
-260.136
  0
VERTEX
  8
LAY0
 10
3300
 20
-346.15
  0
VERTEX
  8
LAY0
 10
3300
 20
-427.634
  0
VERTEX
  8
LAY0
 10
3300
 20
-499.718
  0
VERTEX
  8
LAY0
 10
3300
 20
-562.324
  0
VERTEX
  8
LAY0
 10
3300
 20
-615.856
  0
VERTEX
  8
LAY0
 10
3300
 20
-657.088
  0
VERTEX
  8
LAY0
 10
3300
 20
-684.299
  0
VERTEX
  8
LAY0
 10
3300
 20
-701.105
  0
VERTEX
  8
LAY0
 10
3300
 20
-706.707
  0
VERTEX
  8
LAY0
 10
3300
 20
-701.111
  0
VERTEX
  8
LAY0
 10
3300
 20
-684.323
  0
VERTEX
  8
LAY0
 10
3300
 20
-657.088
  0
VERTEX
  8
LAY0
 10
3300
 20
-615.943
  0
VERTEX
  8
LAY0
 10
3300
 20
-562.451
  0
VERTEX
  8
LAY0
 10
3300
 20
-499.718
  0
VERTEX
  8
LAY0
 10
3300
 20
-427.78
  0
VERTEX
  8
LAY0
 10
3300
 20
-346.333
  0
VERTEX
  8
LAY0
 10
3300
 20
-260.136
  0
VERTEX
  8
LAY0
 10
3300
 20
-176.188
  0
VERTEX
  8
LAY0
 10
3300
 20
-88.1402
  0
VERTEX
  8
LAY0
 10
3300
 20
1.49465e-010
  0
VERTEX
  8
LAY0
 10
3300
 20
88.1381
  0
VERTEX
  8
LAY0
 10
3300
 20
176.186
  0
VERTEX
  8
LAY0
 10
3300
 20
260.136
  0
VERTEX
  8
LAY0
 10
3300
 20
346.332
  0
VERTEX
  8
LAY0
 10
3300
 20
427.779
  0
VERTEX
  8
LAY0
 10
3300
 20
499.718
  0
VERTEX
  8
LAY0
 10
3300
 20
562.451
  0
VERTEX
  8
LAY0
 10
3300
 20
615.943
  0
VERTEX
  8
LAY0
 10
3300
 20
657.088
  0
VERTEX
  8
LAY0
 10
3300
 20
684.323
  0
VERTEX
  8
LAY0
 10
3300
 20
701.111
  0
VERTEX
  8
LAY0
 10
3300
 20
706.707
  0
VERTEX
  8
LAY0
 10
3300
 20
701.105
  0
VERTEX
  8
LAY0
 10
3300
 20
684.299
  0
VERTEX
  8
LAY0
 10
3300
 20
657.088
  0
VERTEX
  8
LAY0
 10
3300
 20
615.856
  0
VERTEX
  8
LAY0
 10
3300
 20
562.323
  0
VERTEX
  8
LAY0
 10
3300
 20
499.718
  0
VERTEX
  8
LAY0
 10
3300
 20
427.633
  0
VERTEX
  8
LAY0
 10
3300
 20
346.149
  0
VERTEX
  8
LAY0
 10
3300
 20
260.136
  0
VERTEX
  8
LAY0
 10
3300
 20
176.114
  0
VERTEX
  8
LAY0
 10
3300
 20
88.0535
  0
VERTEX
  8
LAY0
 10
3300
 20
1.00384e-010
  0
SEQEND
  0
POLYLINE
  8
LAY0
 62
2
 66
1
  0
VERTEX
  8
LAY0
 10
3100
 20
-1.47007e-010
  0
VERTEX
  8
LAY0
 10
3100
 20
-86.5102
  0
VERTEX
  8
LAY0
 10
3100
 20
-172.941
  0
VERTEX
  8
LAY0
 10
3100
 20
-255.439
  0
VERTEX
  8
LAY0
 10
3100
 20
-339.976
  0
VERTEX
  8
LAY0
 10
3100
 20
-419.945
  0
VERTEX
  8
LAY0
 10
3100
 20
-490.695
  0
VERTEX
  8
LAY0
 10
3100
 20
-552.226
  0
VERTEX
  8
LAY0
 10
3100
 20
-604.759
  0
VERTEX
  8
LAY0
 10
3100
 20
-645.224
  0
VERTEX
  8
LAY0
 10
3100
 20
-671.96
  0
VERTEX
  8
LAY0
 10
3100
 20
-688.45
  0
VERTEX
  8
LAY0
 10
3100
 20
-693.947
  0
VERTEX
  8
LAY0
 10
3100
 20
-688.453
  0
VERTEX
  8
LAY0
 10
3100
 20
-671.972
  0
VERTEX
  8
LAY0
 10
3100
 20
-645.224
  0
VERTEX
  8
LAY0
 10
3100
 20
-604.803
  0
VERTEX
  8
LAY0
 10
3100
 20
-552.292
  0
VERTEX
  8
LAY0
 10
3100
 20
-490.695
  0
VERTEX
  8
LAY0
 10
3100
 20
-420.021
  0
VERTEX
  8
LAY0
 10
3100
 20
-340.071
  0
VERTEX
  8
LAY0
 10
3100
 20
-255.439
  0
VERTEX
  8
LAY0
 10
3100
 20
-172.978
  0
VERTEX
  8
LAY0
 10
3100
 20
-86.5541
  0
VERTEX
  8
LAY0
 10
3100
 20
1.4679e-010
  0
VERTEX
  8
LAY0
 10
3100
 20
86.553
  0
VERTEX
  8
LAY0
 10
3100
 20
172.977
  0
VERTEX
  8
LAY0
 10
3100
 20
255.439
  0
VERTEX
  8
LAY0
 10
3100
 20
340.07
  0
VERTEX
  8
LAY0
 10
3100
 20
420.02
  0
VERTEX
  8
LAY0
 10
3100
 20
490.695
  0
VERTEX
  8
LAY0
 10
3100
 20
552.292
  0
VERTEX
  8
LAY0
 10
3100
 20
604.803
  0
VERTEX
  8
LAY0
 10
3100
 20
645.224
  0
VERTEX
  8
LAY0
 10
3100
 20
671.972
  0
VERTEX
  8
LAY0
 10
3100
 20
688.453
  0
VERTEX
  8
LAY0
 10
3100
 20
693.947
  0
VERTEX
  8
LAY0
 10
3100
 20
688.45
  0
VERTEX
  8
LAY0
 10
3100
 20
671.96
  0
VERTEX
  8
LAY0
 10
3100
 20
645.224
  0
VERTEX
  8
LAY0
 10
3100
 20
604.758
  0
VERTEX
  8
LAY0
 10
3100
 20
552.226
  0
VERTEX
  8
LAY0
 10
3100
 20
490.695
  0
VERTEX
  8
LAY0
 10
3100
 20
419.945
  0
VERTEX
  8
LAY0
 10
3100
 20
339.976
  0
VERTEX
  8
LAY0
 10
3100
 20
255.439
  0
VERTEX
  8
LAY0
 10
3100
 20
172.94
  0
VERTEX
  8
LAY0
 10
3100
 20
86.5093
  0
VERTEX
  8
LAY0
 10
3100
 20
9.86461e-011
  0
SEQEND
  0
POLYLINE
  8
LAY0
 62
2
 66
1
  0
VERTEX
  8
LAY0
 10
2900
 20
-1.4398e-010
  0
VERTEX
  8
LAY0
 10
2900
 20
-84.8009
  0
VERTEX
  8
LAY0
 10
2900
 20
-169.194
  0
VERTEX
  8
LAY0
 10
2900
 20
-249.972
  0
VERTEX
  8
LAY0
 10
2900
 20
-332.903
  0
VERTEX
  8
LAY0
 10
2900
 20
-410.974
  0
VERTEX
  8
LAY0
 10
2900
 20
-480.193
  0
VERTEX
  8
LAY0
 10
2900
 20
-540.56
  0
VERTEX
  8
LAY0
 10
2900
 20
-591.837
  0
VERTEX
  8
LAY0
 10
2900
 20
-631.414
  0
VERTEX
  8
LAY0
 10
2900
 20
-657.637
  0
VERTEX
  8
LAY0
 10
2900
 20
-673.729
  0
VERTEX
  8
LAY0
 10
2900
 20
-679.094
  0
VERTEX
  8
LAY0
 10
2900
 20
-673.727
  0
VERTEX
  8
LAY0
 10
2900
 20
-657.625
  0
VERTEX
  8
LAY0
 10
2900
 20
-631.414
  0
VERTEX
  8
LAY0
 10
2900
 20
-591.794
  0
VERTEX
  8
LAY0
 10
2900
 20
-540.497
  0
VERTEX
  8
LAY0
 10
2900
 20
-480.193
  0
VERTEX
  8
LAY0
 10
2900
 20
-410.901
  0
VERTEX
  8
LAY0
 10
2900
 20
-332.811
  0
VERTEX
  8
LAY0
 10
2900
 20
-249.972
  0
VERTEX
  8
LAY0
 10
2900
 20
-169.158
  0
VERTEX
  8
LAY0
 10
2900
 20
-84.7585
  0
VERTEX
  8
LAY0
 10
2900
 20
1.43766e-010
  0
VERTEX
  8
LAY0
 10
2900
 20
84.7595
  0
VERTEX
  8
LAY0
 10
2900
 20
169.159
  0
VERTEX
  8
LAY0
 10
2900
 20
249.972
  0
VERTEX
  8
LAY0
 10
2900
 20
332.812
  0
VERTEX
  8
LAY0
 10
2900
 20
410.902
  0
VERTEX
  8
LAY0
 10
2900
 20
480.193
  0
VERTEX
  8
LAY0
 10
2900
 20
540.497
  0
VERTEX
  8
LAY0
 10
2900
 20
591.794
  0
VERTEX
  8
LAY0
 10
2900
 20
631.414
  0
VERTEX
  8
LAY0
 10
2900
 20
657.625
  0
VERTEX
  8
LAY0
 10
2900
 20
673.727
  0
VERTEX
  8
LAY0
 10
2900
 20
679.094
  0
VERTEX
  8
LAY0
 10
2900
 20
673.729
  0
VERTEX
  8
LAY0
 10
2900
 20
657.637
  0
VERTEX
  8
LAY0
 10
2900
 20
631.414
  0
VERTEX
  8
LAY0
 10
2900
 20
591.837
  0
VERTEX
  8
LAY0
 10
2900
 20
540.561
  0
VERTEX
  8
LAY0
 10
2900
 20
480.193
  0
VERTEX
  8
LAY0
 10
2900
 20
410.975
  0
VERTEX
  8
LAY0
 10
2900
 20
332.903
  0
VERTEX
  8
LAY0
 10
2900
 20
249.972
  0
VERTEX
  8
LAY0
 10
2900
 20
169.195
  0
VERTEX
  8
LAY0
 10
2900
 20
84.8018
  0
VERTEX
  8
LAY0
 10
2900
 20
9.64064e-011
  0
SEQEND
  0
POLYLINE
  8
LAY0
 62
2
 66
1
  0
VERTEX
  8
LAY0
 10
2700
 20
-1.40415e-010
  0
VERTEX
  8
LAY0
 10
2700
 20
-82.7525
  0
VERTEX
  8
LAY0
 10
2700
 20
-164.828
  0
VERTEX
  8
LAY0
 10
2700
 20
-243.597
  0
VERTEX
  8
LAY0
 10
2700
 20
-324.566
  0
VERTEX
  8
LAY0
 10
2700
 20
-400.487
  0
VERTEX
  8
LAY0
 10
2700
 20
-467.947
  0
VERTEX
  8
LAY0
 10
2700
 20
-526.893
  0
VERTEX
  8
LAY0
 10
2700
 20
-576.751
  0
VERTEX
  8
LAY0
 10
2700
 20
-615.312
  0
VERTEX
  8
LAY0
 10
2700
 20
-640.916
  0
VERTEX
  8
LAY0
 10
2700
 20
-656.561
  0
VERTEX
  8
LAY0
 10
2700
 20
-661.776
  0
VERTEX
  8
LAY0
 10
2700
 20
-656.554
  0
VERTEX
  8
LAY0
 10
2700
 20
-640.889
  0
VERTEX
  8
LAY0
 10
2700
 20
-615.312
  0
VERTEX
  8
LAY0
 10
2700
 20
-576.654
  0
VERTEX
  8
LAY0
 10
2700
 20
-526.75
  0
VERTEX
  8
LAY0
 10
2700
 20
-467.947
  0
VERTEX
  8
LAY0
 10
2700
 20
-400.324
  0
VERTEX
  8
LAY0
 10
2700
 20
-324.362
  0
VERTEX
  8
LAY0
 10
2700
 20
-243.597
  0
VERTEX
  8
LAY0
 10
2700
 20
-164.748
  0
VERTEX
  8
LAY0
 10
2700
 20
-82.6579
  0
VERTEX
  8
LAY0
 10
2700
 20
1.40206e-010
  0
VERTEX
  8
LAY0
 10
2700
 20
82.6601
  0
VERTEX
  8
LAY0
 10
2700
 20
164.75
  0
VERTEX
  8
LAY0
 10
2700
 20
243.597
  0
VERTEX
  8
LAY0
 10
2700
 20
324.363
  0
VERTEX
  8
LAY0
 10
2700
 20
400.325
  0
VERTEX
  8
LAY0
 10
2700
 20
467.947
  0
VERTEX
  8
LAY0
 10
2700
 20
526.751
  0
VERTEX
  8
LAY0
 10
2700
 20
576.655
  0
VERTEX
  8
LAY0
 10
2700
 20
615.312
  0
VERTEX
  8
LAY0
 10
2700
 20
640.889
  0
VERTEX
  8
LAY0
 10
2700
 20
656.555
  0
VERTEX
  8
LAY0
 10
2700
 20
661.776
  0
VERTEX
  8
LAY0
 10
2700
 20
656.561
  0
VERTEX
  8
LAY0
 10
2700
 20
640.916
  0
VERTEX
  8
LAY0
 10
2700
 20
615.312
  0
VERTEX
  8
LAY0
 10
2700
 20
576.752
  0
VERTEX
  8
LAY0
 10
2700
 20
526.894
  0
VERTEX
  8
LAY0
 10
2700
 20
467.947
  0
VERTEX
  8
LAY0
 10
2700
 20
400.488
  0
VERTEX
  8
LAY0
 10
2700
 20
324.567
  0
VERTEX
  8
LAY0
 10
2700
 20
243.597
  0
VERTEX
  8
LAY0
 10
2700
 20
164.829
  0
VERTEX
  8
LAY0
 10
2700
 20
82.7543
  0
VERTEX
  8
LAY0
 10
2700
 20
9.39907e-011
  0
SEQEND
  0
POLYLINE
  8
LAY0
 62
2
 66
1
  0
VERTEX
  8
LAY0
 10
2500
 20
-236.144
  0
VERTEX
  8
LAY0
 10
2500
 20
-159.839
  0
VERTEX
  8
LAY0
 10
2500
 20
-80.059
  0
VERTEX
  8
LAY0
 10
2500
 20
1.58821e-010
  0
VERTEX
  8
LAY0
 10
2500
 20
80.059
  0
VERTEX
  8
LAY0
 10
2500
 20
159.839
  0
VERTEX
  8
LAY0
 10
2500
 20
236.144
  0
VERTEX
  8
LAY0
 10
2500
 20
314.407
  0
VERTEX
  8
LAY0
 10
2500
 20
388.217
  0
VERTEX
  8
LAY0
 10
2500
 20
453.629
  0
VERTEX
  8
LAY0
 10
2500
 20
510.598
  0
VERTEX
  8
LAY0
 10
2500
 20
559.08
  0
VERTEX
  8
LAY0
 10
2500
 20
596.485
  0
VERTEX
  8
LAY0
 10
2500
 20
621.237
  0
VERTEX
  8
LAY0
 10
2500
 20
636.455
  0
VERTEX
  8
LAY0
 10
2500
 20
641.527
  0
VERTEX
  8
LAY0
 10
2500
 20
636.455
  0
VERTEX
  8
LAY0
 10
2500
 20
621.237
  0
VERTEX
  8
LAY0
 10
2500
 20
596.485
  0
VERTEX
  8
LAY0
 10
2500
 20
559.08
  0
VERTEX
  8
LAY0
 10
2500
 20
510.598
  0
VERTEX
  8
LAY0
 10
2500
 20
453.629
  0
VERTEX
  8
LAY0
 10
2500
 20
388.217
  0
VERTEX
  8
LAY0
 10
2500
 20
314.407
  0
VERTEX
  8
LAY0
 10
2500
 20
236.144
  0
VERTEX
  8
LAY0
 10
2500
 20
159.839
  0
VERTEX
  8
LAY0
 10
2500
 20
80.059
  0
VERTEX
  8
LAY0
 10
2500
 20
-1.58394e-010
  0
VERTEX
  8
LAY0
 10
2500
 20
-80.059
  0
VERTEX
  8
LAY0
 10
2500
 20
-159.839
  0
VERTEX
  8
LAY0
 10
2500
 20
-236.144
  0
VERTEX
  8
LAY0
 10
2500
 20
-314.407
  0
VERTEX
  8
LAY0
 10
2500
 20
-388.217
  0
VERTEX
  8
LAY0
 10
2500
 20
-453.629
  0
VERTEX
  8
LAY0
 10
2500
 20
-510.598
  0
VERTEX
  8
LAY0
 10
2500
 20
-559.08
  0
VERTEX
  8
LAY0
 10
2500
 20
-596.485
  0
VERTEX
  8
LAY0
 10
2500
 20
-621.237
  0
VERTEX
  8
LAY0
 10
2500
 20
-636.455
  0
VERTEX
  8
LAY0
 10
2500
 20
-641.527
  0
VERTEX
  8
LAY0
 10
2500
 20
-636.455
  0
VERTEX
  8
LAY0
 10
2500
 20
-621.237
  0
VERTEX
  8
LAY0
 10
2500
 20
-596.485
  0
VERTEX
  8
LAY0
 10
2500
 20
-559.08
  0
VERTEX
  8
LAY0
 10
2500
 20
-510.598
  0
VERTEX
  8
LAY0
 10
2500
 20
-453.629
  0
VERTEX
  8
LAY0
 10
2500
 20
-388.217
  0
VERTEX
  8
LAY0
 10
2500
 20
-314.407
  0
VERTEX
  8
LAY0
 10
2500
 20
-236.144
  0
SEQEND
  0
POLYLINE
  8
LAY0
 62
2
 66
1
  0
VERTEX
  8
LAY0
 10
2300
 20
-1.3073e-010
  0
VERTEX
  8
LAY0
 10
2300
 20
-76.8501
  0
VERTEX
  8
LAY0
 10
2300
 20
-154.06
  0
VERTEX
  8
LAY0
 10
2300
 20
-227.439
  0
VERTEX
  8
LAY0
 10
2300
 20
-302.47
  0
VERTEX
  8
LAY0
 10
2300
 20
-373.917
  0
VERTEX
  8
LAY0
 10
2300
 20
-436.906
  0
VERTEX
  8
LAY0
 10
2300
 20
-491.509
  0
VERTEX
  8
LAY0
 10
2300
 20
-538.453
  0
VERTEX
  8
LAY0
 10
2300
 20
-574.495
  0
VERTEX
  8
LAY0
 10
2300
 20
-598.225
  0
VERTEX
  8
LAY0
 10
2300
 20
-612.964
  0
VERTEX
  8
LAY0
 10
2300
 20
-617.877
  0
VERTEX
  8
LAY0
 10
2300
 20
-612.971
  0
VERTEX
  8
LAY0
 10
2300
 20
-598.252
  0
VERTEX
  8
LAY0
 10
2300
 20
-574.495
  0
VERTEX
  8
LAY0
 10
2300
 20
-538.55
  0
VERTEX
  8
LAY0
 10
2300
 20
-491.653
  0
VERTEX
  8
LAY0
 10
2300
 20
-436.906
  0
VERTEX
  8
LAY0
 10
2300
 20
-374.082
  0
VERTEX
  8
LAY0
 10
2300
 20
-302.676
  0
VERTEX
  8
LAY0
 10
2300
 20
-227.439
  0
VERTEX
  8
LAY0
 10
2300
 20
-154.141
  0
VERTEX
  8
LAY0
 10
2300
 20
-76.9456
  0
VERTEX
  8
LAY0
 10
2300
 20
1.30538e-010
  0
VERTEX
  8
LAY0
 10
2300
 20
76.9434
  0
VERTEX
  8
LAY0
 10
2300
 20
154.139
  0
VERTEX
  8
LAY0
 10
2300
 20
227.439
  0
VERTEX
  8
LAY0
 10
2300
 20
302.674
  0
VERTEX
  8
LAY0
 10
2300
 20
374.081
  0
VERTEX
  8
LAY0
 10
2300
 20
436.906
  0
VERTEX
  8
LAY0
 10
2300
 20
491.652
  0
VERTEX
  8
LAY0
 10
2300
 20
538.55
  0
VERTEX
  8
LAY0
 10
2300
 20
574.495
  0
VERTEX
  8
LAY0
 10
2300
 20
598.252
  0
VERTEX
  8
LAY0
 10
2300
 20
612.971
  0
VERTEX
  8
LAY0
 10
2300
 20
617.877
  0
VERTEX
  8
LAY0
 10
2300
 20
612.964
  0
VERTEX
  8
LAY0
 10
2300
 20
598.225
  0
VERTEX
  8
LAY0
 10
2300
 20
574.495
  0
VERTEX
  8
LAY0
 10
2300
 20
538.452
  0
VERTEX
  8
LAY0
 10
2300
 20
491.508
  0
VERTEX
  8
LAY0
 10
2300
 20
436.906
  0
VERTEX
  8
LAY0
 10
2300
 20
373.916
  0
VERTEX
  8
LAY0
 10
2300
 20
302.469
  0
VERTEX
  8
LAY0
 10
2300
 20
227.439
  0
VERTEX
  8
LAY0
 10
2300
 20
154.058
  0
VERTEX
  8
LAY0
 10
2300
 20
76.8484
  0
VERTEX
  8
LAY0
 10
2300
 20
8.78196e-011
  0
SEQEND
  0
POLYLINE
  8
LAY0
 62
2
 66
1
  0
VERTEX
  8
LAY0
 10
2100
 20
-1.24954e-010
  0
VERTEX
  8
LAY0
 10
2100
 20
-73.4844
  0
VERTEX
  8
LAY0
 10
2100
 20
-147.181
  0
VERTEX
  8
LAY0
 10
2100
 20
-217.309
  0
VERTEX
  8
LAY0
 10
2100
 20
-289.081
  0
VERTEX
  8
LAY0
 10
2100
 20
-357.273
  0
VERTEX
  8
LAY0
 10
2100
 20
-417.447
  0
VERTEX
  8
LAY0
 10
2100
 20
-469.68
  0
VERTEX
  8
LAY0
 10
2100
 20
-514.481
  0
VERTEX
  8
LAY0
 10
2100
 20
-548.908
  0
VERTEX
  8
LAY0
 10
2100
 20
-571.604
  0
VERTEX
  8
LAY0
 10
2100
 20
-585.669
  0
VERTEX
  8
LAY0
 10
2100
 20
-590.358
  0
VERTEX
  8
LAY0
 10
2100
 20
-585.672
  0
VERTEX
  8
LAY0
 10
2100
 20
-571.616
  0
VERTEX
  8
LAY0
 10
2100
 20
-548.908
  0
VERTEX
  8
LAY0
 10
2100
 20
-514.523
  0
VERTEX
  8
LAY0
 10
2100
 20
-469.742
  0
VERTEX
  8
LAY0
 10
2100
 20
-417.447
  0
VERTEX
  8
LAY0
 10
2100
 20
-357.345
  0
VERTEX
  8
LAY0
 10
2100
 20
-289.17
  0
VERTEX
  8
LAY0
 10
2100
 20
-217.309
  0
VERTEX
  8
LAY0
 10
2100
 20
-147.217
  0
VERTEX
  8
LAY0
 10
2100
 20
-73.526
  0
VERTEX
  8
LAY0
 10
2100
 20
1.2477e-010
  0
VERTEX
  8
LAY0
 10
2100
 20
73.525
  0
VERTEX
  8
LAY0
 10
2100
 20
147.216
  0
VERTEX
  8
LAY0
 10
2100
 20
217.309
  0
VERTEX
  8
LAY0
 10
2100
 20
289.17
  0
VERTEX
  8
LAY0
 10
2100
 20
357.344
  0
VERTEX
  8
LAY0
 10
2100
 20
417.447
  0
VERTEX
  8
LAY0
 10
2100
 20
469.742
  0
VERTEX
  8
LAY0
 10
2100
 20
514.523
  0
VERTEX
  8
LAY0
 10
2100
 20
548.908
  0
VERTEX
  8
LAY0
 10
2100
 20
571.616
  0
VERTEX
  8
LAY0
 10
2100
 20
585.672
  0
VERTEX
  8
LAY0
 10
2100
 20
590.358
  0
VERTEX
  8
LAY0
 10
2100
 20
585.669
  0
VERTEX
  8
LAY0
 10
2100
 20
571.604
  0
VERTEX
  8
LAY0
 10
2100
 20
548.908
  0
VERTEX
  8
LAY0
 10
2100
 20
514.481
  0
VERTEX
  8
LAY0
 10
2100
 20
469.68
  0
VERTEX
  8
LAY0
 10
2100
 20
417.447
  0
VERTEX
  8
LAY0
 10
2100
 20
357.272
  0
VERTEX
  8
LAY0
 10
2100
 20
289.08
  0
VERTEX
  8
LAY0
 10
2100
 20
217.309
  0
VERTEX
  8
LAY0
 10
2100
 20
147.181
  0
VERTEX
  8
LAY0
 10
2100
 20
73.4835
  0
VERTEX
  8
LAY0
 10
2100
 20
8.37031e-011
  0
SEQEND
  0
POLYLINE
  8
LAY0
 62
2
 66
1
  0
VERTEX
  8
LAY0
 10
1900
 20
-1.18456e-010
  0
VERTEX
  8
LAY0
 10
1900
 20
-69.7987
  0
VERTEX
  8
LAY0
 10
1900
 20
-139.119
  0
VERTEX
  8
LAY0
 10
1900
 20
-205.568
  0
VERTEX
  8
LAY0
 10
1900
 20
-273.854
  0
VERTEX
  8
LAY0
 10
1900
 20
-337.977
  0
VERTEX
  8
LAY0
 10
1900
 20
-394.893
  0
VERTEX
  8
LAY0
 10
1900
 20
-444.604
  0
VERTEX
  8
LAY0
 10
1900
 20
-486.715
  0
VERTEX
  8
LAY0
 10
1900
 20
-519.252
  0
VERTEX
  8
LAY0
 10
1900
 20
-540.843
  0
VERTEX
  8
LAY0
 10
1900
 20
-554.058
  0
VERTEX
  8
LAY0
 10
1900
 20
-558.463
  0
VERTEX
  8
LAY0
 10
1900
 20
-554.053
  0
VERTEX
  8
LAY0
 10
1900
 20
-540.824
  0
VERTEX
  8
LAY0
 10
1900
 20
-519.252
  0
VERTEX
  8
LAY0
 10
1900
 20
-486.645
  0
VERTEX
  8
LAY0
 10
1900
 20
-444.501
  0
VERTEX
  8
LAY0
 10
1900
 20
-394.893
  0
VERTEX
  8
LAY0
 10
1900
 20
-337.859
  0
VERTEX
  8
LAY0
 10
1900
 20
-273.707
  0
VERTEX
  8
LAY0
 10
1900
 20
-205.568
  0
VERTEX
  8
LAY0
 10
1900
 20
-139.061
  0
VERTEX
  8
LAY0
 10
1900
 20
-69.7305
  0
VERTEX
  8
LAY0
 10
1900
 20
1.1828e-010
  0
VERTEX
  8
LAY0
 10
1900
 20
69.7317
  0
VERTEX
  8
LAY0
 10
1900
 20
139.062
  0
VERTEX
  8
LAY0
 10
1900
 20
205.568
  0
VERTEX
  8
LAY0
 10
1900
 20
273.708
  0
VERTEX
  8
LAY0
 10
1900
 20
337.86
  0
VERTEX
  8
LAY0
 10
1900
 20
394.893
  0
VERTEX
  8
LAY0
 10
1900
 20
444.501
  0
VERTEX
  8
LAY0
 10
1900
 20
486.645
  0
VERTEX
  8
LAY0
 10
1900
 20
519.252
  0
VERTEX
  8
LAY0
 10
1900
 20
540.824
  0
VERTEX
  8
LAY0
 10
1900
 20
554.053
  0
VERTEX
  8
LAY0
 10
1900
 20
558.463
  0
VERTEX
  8
LAY0
 10
1900
 20
554.058
  0
VERTEX
  8
LAY0
 10
1900
 20
540.843
  0
VERTEX
  8
LAY0
 10
1900
 20
519.252
  0
VERTEX
  8
LAY0
 10
1900
 20
486.715
  0
VERTEX
  8
LAY0
 10
1900
 20
444.604
  0
VERTEX
  8
LAY0
 10
1900
 20
394.893
  0
VERTEX
  8
LAY0
 10
1900
 20
337.977
  0
VERTEX
  8
LAY0
 10
1900
 20
273.855
  0
VERTEX
  8
LAY0
 10
1900
 20
205.568
  0
VERTEX
  8
LAY0
 10
1900
 20
139.119
  0
VERTEX
  8
LAY0
 10
1900
 20
69.7995
  0
VERTEX
  8
LAY0
 10
1900
 20
7.92975e-011
  0
SEQEND
  0
POLYLINE
  8
LAY0
 62
2
 66
1
  0
VERTEX
  8
LAY0
 10
1700
 20
-1.1087e-010
  0
VERTEX
  8
LAY0
 10
1700
 20
-65.4328
  0
VERTEX
  8
LAY0
 10
1700
 20
-129.824
  0
VERTEX
  8
LAY0
 10
1700
 20
-192.007
  0
VERTEX
  8
LAY0
 10
1700
 20
-256.102
  0
VERTEX
  8
LAY0
 10
1700
 20
-315.653
  0
VERTEX
  8
LAY0
 10
1700
 20
-368.843
  0
VERTEX
  8
LAY0
 10
1700
 20
-415.516
  0
VERTEX
  8
LAY0
 10
1700
 20
-454.614
  0
VERTEX
  8
LAY0
 10
1700
 20
-484.998
  0
VERTEX
  8
LAY0
 10
1700
 20
-505.269
  0
VERTEX
  8
LAY0
 10
1700
 20
-517.534
  0
VERTEX
  8
LAY0
 10
1700
 20
-521.622
  0
VERTEX
  8
LAY0
 10
1700
 20
-517.527
  0
VERTEX
  8
LAY0
 10
1700
 20
-505.24
  0
VERTEX
  8
LAY0
 10
1700
 20
-484.998
  0
VERTEX
  8
LAY0
 10
1700
 20
-454.512
  0
VERTEX
  8
LAY0
 10
1700
 20
-415.365
  0
VERTEX
  8
LAY0
 10
1700
 20
-368.843
  0
VERTEX
  8
LAY0
 10
1700
 20
-315.481
  0
VERTEX
  8
LAY0
 10
1700
 20
-255.885
  0
VERTEX
  8
LAY0
 10
1700
 20
-192.007
  0
VERTEX
  8
LAY0
 10
1700
 20
-129.74
  0
VERTEX
  8
LAY0
 10
1700
 20
-65.3325
  0
VERTEX
  8
LAY0
 10
1700
 20
1.10705e-010
  0
VERTEX
  8
LAY0
 10
1700
 20
65.3347
  0
VERTEX
  8
LAY0
 10
1700
 20
129.742
  0
VERTEX
  8
LAY0
 10
1700
 20
192.007
  0
VERTEX
  8
LAY0
 10
1700
 20
255.887
  0
VERTEX
  8
LAY0
 10
1700
 20
315.482
  0
VERTEX
  8
LAY0
 10
1700
 20
368.843
  0
VERTEX
  8
LAY0
 10
1700
 20
415.365
  0
VERTEX
  8
LAY0
 10
1700
 20
454.512
  0
VERTEX
  8
LAY0
 10
1700
 20
484.998
  0
VERTEX
  8
LAY0
 10
1700
 20
505.24
  0
VERTEX
  8
LAY0
 10
1700
 20
517.527
  0
VERTEX
  8
LAY0
 10
1700
 20
521.622
  0
VERTEX
  8
LAY0
 10
1700
 20
517.534
  0
VERTEX
  8
LAY0
 10
1700
 20
505.269
  0
VERTEX
  8
LAY0
 10
1700
 20
484.998
  0
VERTEX
  8
LAY0
 10
1700
 20
454.614
  0
VERTEX
  8
LAY0
 10
1700
 20
415.516
  0
VERTEX
  8
LAY0
 10
1700
 20
368.843
  0
VERTEX
  8
LAY0
 10
1700
 20
315.654
  0
VERTEX
  8
LAY0
 10
1700
 20
256.103
  0
VERTEX
  8
LAY0
 10
1700
 20
192.007
  0
VERTEX
  8
LAY0
 10
1700
 20
129.825
  0
VERTEX
  8
LAY0
 10
1700
 20
65.4343
  0
VERTEX
  8
LAY0
 10
1700
 20
7.39818e-011
  0
SEQEND
  0
POLYLINE
  8
LAY0
 62
2
 66
1
  0
VERTEX
  8
LAY0
 10
1500
 20
-176.548
  0
VERTEX
  8
LAY0
 10
1500
 20
-119.5
  0
VERTEX
  8
LAY0
 10
1500
 20
-59.8544
  0
VERTEX
  8
LAY0
 10
1500
 20
1.18604e-010
  0
VERTEX
  8
LAY0
 10
1500
 20
59.8544
  0
VERTEX
  8
LAY0
 10
1500
 20
119.5
  0
VERTEX
  8
LAY0
 10
1500
 20
176.548
  0
VERTEX
  8
LAY0
 10
1500
 20
235.06
  0
VERTEX
  8
LAY0
 10
1500
 20
290.243
  0
VERTEX
  8
LAY0
 10
1500
 20
339.146
  0
VERTEX
  8
LAY0
 10
1500
 20
381.738
  0
VERTEX
  8
LAY0
 10
1500
 20
417.985
  0
VERTEX
  8
LAY0
 10
1500
 20
445.949
  0
VERTEX
  8
LAY0
 10
1500
 20
464.455
  0
VERTEX
  8
LAY0
 10
1500
 20
475.832
  0
VERTEX
  8
LAY0
 10
1500
 20
479.624
  0
VERTEX
  8
LAY0
 10
1500
 20
475.832
  0
VERTEX
  8
LAY0
 10
1500
 20
464.455
  0
VERTEX
  8
LAY0
 10
1500
 20
445.949
  0
VERTEX
  8
LAY0
 10
1500
 20
417.985
  0
VERTEX
  8
LAY0
 10
1500
 20
381.738
  0
VERTEX
  8
LAY0
 10
1500
 20
339.146
  0
VERTEX
  8
LAY0
 10
1500
 20
290.243
  0
VERTEX
  8
LAY0
 10
1500
 20
235.06
  0
VERTEX
  8
LAY0
 10
1500
 20
176.548
  0
VERTEX
  8
LAY0
 10
1500
 20
119.5
  0
VERTEX
  8
LAY0
 10
1500
 20
59.8545
  0
VERTEX
  8
LAY0
 10
1500
 20
-1.18433e-010
  0
VERTEX
  8
LAY0
 10
1500
 20
-59.8544
  0
VERTEX
  8
LAY0
 10
1500
 20
-119.5
  0
VERTEX
  8
LAY0
 10
1500
 20
-176.548
  0
VERTEX
  8
LAY0
 10
1500
 20
-235.06
  0
VERTEX
  8
LAY0
 10
1500
 20
-290.243
  0
VERTEX
  8
LAY0
 10
1500
 20
-339.146
  0
VERTEX
  8
LAY0
 10
1500
 20
-381.738
  0
VERTEX
  8
LAY0
 10
1500
 20
-417.985
  0
VERTEX
  8
LAY0
 10
1500
 20
-445.949
  0
VERTEX
  8
LAY0
 10
1500
 20
-464.455
  0
VERTEX
  8
LAY0
 10
1500
 20
-475.832
  0
VERTEX
  8
LAY0
 10
1500
 20
-479.624
  0
VERTEX
  8
LAY0
 10
1500
 20
-475.832
  0
VERTEX
  8
LAY0
 10
1500
 20
-464.455
  0
VERTEX
  8
LAY0
 10
1500
 20
-445.949
  0
VERTEX
  8
LAY0
 10
1500
 20
-417.985
  0
VERTEX
  8
LAY0
 10
1500
 20
-381.738
  0
VERTEX
  8
LAY0
 10
1500
 20
-339.146
  0
VERTEX
  8
LAY0
 10
1500
 20
-290.243
  0
VERTEX
  8
LAY0
 10
1500
 20
-235.06
  0
VERTEX
  8
LAY0
 10
1500
 20
-176.548
  0
SEQEND
  0
POLYLINE
  8
LAY0
 62
2
 66
1
  0
VERTEX
  8
LAY0
 10
5300
 20
-450
  0
VERTEX
  8
LAY0
 10
5300
 20
-446.434
  0
VERTEX
  8
LAY0
 10
5300
 20
-435.735
  0
VERTEX
  8
LAY0
 10
5300
 20
-418.404
  0
VERTEX
  8
LAY0
 10
5300
 20
-392.049
  0
VERTEX
  8
LAY0
 10
5300
 20
-357.987
  0
VERTEX
  8
LAY0
 10
5300
 20
-318.195
  0
VERTEX
  8
LAY0
 10
5300
 20
-272.114
  0
VERTEX
  8
LAY0
 10
5300
 20
-220.292
  0
VERTEX
  8
LAY0
 10
5300
 20
-165.638
  0
VERTEX
  8
LAY0
 10
5300
 20
-112.018
  0
VERTEX
  8
LAY0
 10
5300
 20
-56.0416
  0
VERTEX
  8
LAY0
 10
5300
 20
9.55192e-011
  0
VERTEX
  8
LAY0
 10
5300
 20
56.0423
  0
VERTEX
  8
LAY0
 10
5300
 20
112.019
  0
VERTEX
  8
LAY0
 10
5300
 20
165.638
  0
VERTEX
  8
LAY0
 10
5300
 20
220.293
  0
VERTEX
  8
LAY0
 10
5300
 20
272.114
  0
VERTEX
  8
LAY0
 10
5300
 20
318.195
  0
VERTEX
  8
LAY0
 10
5300
 20
357.987
  0
VERTEX
  8
LAY0
 10
5300
 20
392.05
  0
VERTEX
  8
LAY0
 10
5300
 20
418.404
  0
VERTEX
  8
LAY0
 10
5300
 20
435.735
  0
VERTEX
  8
LAY0
 10
5300
 20
446.434
  0
VERTEX
  8
LAY0
 10
5300
 20
450
  0
SEQEND
  0
POLYLINE
  8
LAY0
 62
2
 66
1
  0
VERTEX
  8
LAY0
 10
5100
 20
-450
  0
VERTEX
  8
LAY0
 10
5100
 20
-446.438
  0
VERTEX
  8
LAY0
 10
5100
 20
-435.752
  0
VERTEX
  8
LAY0
 10
5100
 20
-418.404
  0
VERTEX
  8
LAY0
 10
5100
 20
-392.11
  0
VERTEX
  8
LAY0
 10
5100
 20
-358.074
  0
VERTEX
  8
LAY0
 10
5100
 20
-318.195
  0
VERTEX
  8
LAY0
 10
5100
 20
-272.216
  0
VERTEX
  8
LAY0
 10
5100
 20
-220.417
  0
VERTEX
  8
LAY0
 10
5100
 20
-165.638
  0
VERTEX
  8
LAY0
 10
5100
 20
-112.068
  0
VERTEX
  8
LAY0
 10
5100
 20
-56.0992
  0
VERTEX
  8
LAY0
 10
5100
 20
9.55191e-011
  0
VERTEX
  8
LAY0
 10
5100
 20
56.1008
  0
VERTEX
  8
LAY0
 10
5100
 20
112.069
  0
VERTEX
  8
LAY0
 10
5100
 20
165.638
  0
VERTEX
  8
LAY0
 10
5100
 20
220.418
  0
VERTEX
  8
LAY0
 10
5100
 20
272.216
  0
VERTEX
  8
LAY0
 10
5100
 20
318.195
  0
VERTEX
  8
LAY0
 10
5100
 20
358.075
  0
VERTEX
  8
LAY0
 10
5100
 20
392.11
  0
VERTEX
  8
LAY0
 10
5100
 20
418.404
  0
VERTEX
  8
LAY0
 10
5100
 20
435.752
  0
VERTEX
  8
LAY0
 10
5100
 20
446.438
  0
VERTEX
  8
LAY0
 10
5100
 20
450
  0
SEQEND
  0
POLYLINE
  8
LAY0
 62
2
 66
1
  0
VERTEX
  8
LAY0
 10
4900
 20
-450
  0
VERTEX
  8
LAY0
 10
4900
 20
-446.442
  0
VERTEX
  8
LAY0
 10
4900
 20
-435.767
  0
VERTEX
  8
LAY0
 10
4900
 20
-418.404
  0
VERTEX
  8
LAY0
 10
4900
 20
-392.166
  0
VERTEX
  8
LAY0
 10
4900
 20
-358.157
  0
VERTEX
  8
LAY0
 10
4900
 20
-318.195
  0
VERTEX
  8
LAY0
 10
4900
 20
-272.311
  0
VERTEX
  8
LAY0
 10
4900
 20
-220.536
  0
VERTEX
  8
LAY0
 10
4900
 20
-165.638
  0
VERTEX
  8
LAY0
 10
4900
 20
-112.116
  0
VERTEX
  8
LAY0
 10
4900
 20
-56.1557
  0
VERTEX
  8
LAY0
 10
4900
 20
9.55194e-011
  0
VERTEX
  8
LAY0
 10
4900
 20
56.154
  0
VERTEX
  8
LAY0
 10
4900
 20
112.114
  0
VERTEX
  8
LAY0
 10
4900
 20
165.638
  0
VERTEX
  8
LAY0
 10
4900
 20
220.535
  0
VERTEX
  8
LAY0
 10
4900
 20
272.31
  0
VERTEX
  8
LAY0
 10
4900
 20
318.195
  0
VERTEX
  8
LAY0
 10
4900
 20
358.156
  0
VERTEX
  8
LAY0
 10
4900
 20
392.166
  0
VERTEX
  8
LAY0
 10
4900
 20
418.404
  0
VERTEX
  8
LAY0
 10
4900
 20
435.767
  0
VERTEX
  8
LAY0
 10
4900
 20
446.442
  0
VERTEX
  8
LAY0
 10
4900
 20
450
  0
SEQEND
  0
POLYLINE
  8
LAY0
 62
2
 66
1
  0
VERTEX
  8
LAY0
 10
4700
 20
-450
  0
VERTEX
  8
LAY0
 10
4700
 20
-446.442
  0
VERTEX
  8
LAY0
 10
4700
 20
-435.767
  0
VERTEX
  8
LAY0
 10
4700
 20
-418.404
  0
VERTEX
  8
LAY0
 10
4700
 20
-392.166
  0
VERTEX
  8
LAY0
 10
4700
 20
-358.157
  0
VERTEX
  8
LAY0
 10
4700
 20
-318.195
  0
VERTEX
  8
LAY0
 10
4700
 20
-272.311
  0
VERTEX
  8
LAY0
 10
4700
 20
-220.536
  0
VERTEX
  8
LAY0
 10
4700
 20
-165.638
  0
VERTEX
  8
LAY0
 10
4700
 20
-112.115
  0
VERTEX
  8
LAY0
 10
4700
 20
-56.1545
  0
VERTEX
  8
LAY0
 10
4700
 20
9.55192e-011
  0
VERTEX
  8
LAY0
 10
4700
 20
56.1554
  0
VERTEX
  8
LAY0
 10
4700
 20
112.116
  0
VERTEX
  8
LAY0
 10
4700
 20
165.638
  0
VERTEX
  8
LAY0
 10
4700
 20
220.536
  0
VERTEX
  8
LAY0
 10
4700
 20
272.312
  0
VERTEX
  8
LAY0
 10
4700
 20
318.195
  0
VERTEX
  8
LAY0
 10
4700
 20
358.157
  0
VERTEX
  8
LAY0
 10
4700
 20
392.167
  0
VERTEX
  8
LAY0
 10
4700
 20
418.404
  0
VERTEX
  8
LAY0
 10
4700
 20
435.767
  0
VERTEX
  8
LAY0
 10
4700
 20
446.442
  0
VERTEX
  8
LAY0
 10
4700
 20
450
  0
SEQEND
  0
POLYLINE
  8
LAY0
 62
2
 66
1
  0
VERTEX
  8
LAY0
 10
4500
 20
-450
  0
VERTEX
  8
LAY0
 10
4500
 20
-446.442
  0
VERTEX
  8
LAY0
 10
4500
 20
-435.767
  0
VERTEX
  8
LAY0
 10
4500
 20
-418.404
  0
VERTEX
  8
LAY0
 10
4500
 20
-392.166
  0
VERTEX
  8
LAY0
 10
4500
 20
-358.157
  0
VERTEX
  8
LAY0
 10
4500
 20
-318.195
  0
VERTEX
  8
LAY0
 10
4500
 20
-272.311
  0
VERTEX
  8
LAY0
 10
4500
 20
-220.536
  0
VERTEX
  8
LAY0
 10
4500
 20
-165.638
  0
VERTEX
  8
LAY0
 10
4500
 20
-112.115
  0
VERTEX
  8
LAY0
 10
4500
 20
-56.1549
  0
VERTEX
  8
LAY0
 10
4500
 20
9.55193e-011
  0
VERTEX
  8
LAY0
 10
4500
 20
56.1549
  0
VERTEX
  8
LAY0
 10
4500
 20
112.115
  0
VERTEX
  8
LAY0
 10
4500
 20
165.638
  0
VERTEX
  8
LAY0
 10
4500
 20
220.536
  0
VERTEX
  8
LAY0
 10
4500
 20
272.311
  0
VERTEX
  8
LAY0
 10
4500
 20
318.195
  0
VERTEX
  8
LAY0
 10
4500
 20
358.157
  0
VERTEX
  8
LAY0
 10
4500
 20
392.166
  0
VERTEX
  8
LAY0
 10
4500
 20
418.404
  0
VERTEX
  8
LAY0
 10
4500
 20
435.767
  0
VERTEX
  8
LAY0
 10
4500
 20
446.442
  0
VERTEX
  8
LAY0
 10
4500
 20
450
  0
SEQEND
  0
POLYLINE
  8
LAY0
 62
2
 66
1
  0
VERTEX
  8
LAY0
 10
4300
 20
-450
  0
VERTEX
  8
LAY0
 10
4300
 20
-446.442
  0
VERTEX
  8
LAY0
 10
4300
 20
-435.767
  0
VERTEX
  8
LAY0
 10
4300
 20
-418.404
  0
VERTEX
  8
LAY0
 10
4300
 20
-392.166
  0
VERTEX
  8
LAY0
 10
4300
 20
-358.157
  0
VERTEX
  8
LAY0
 10
4300
 20
-318.195
  0
VERTEX
  8
LAY0
 10
4300
 20
-272.311
  0
VERTEX
  8
LAY0
 10
4300
 20
-220.536
  0
VERTEX
  8
LAY0
 10
4300
 20
-165.638
  0
VERTEX
  8
LAY0
 10
4300
 20
-112.115
  0
VERTEX
  8
LAY0
 10
4300
 20
-56.1553
  0
VERTEX
  8
LAY0
 10
4300
 20
9.55193e-011
  0
VERTEX
  8
LAY0
 10
4300
 20
56.1544
  0
VERTEX
  8
LAY0
 10
4300
 20
112.115
  0
VERTEX
  8
LAY0
 10
4300
 20
165.638
  0
VERTEX
  8
LAY0
 10
4300
 20
220.535
  0
VERTEX
  8
LAY0
 10
4300
 20
272.311
  0
VERTEX
  8
LAY0
 10
4300
 20
318.195
  0
VERTEX
  8
LAY0
 10
4300
 20
358.157
  0
VERTEX
  8
LAY0
 10
4300
 20
392.166
  0
VERTEX
  8
LAY0
 10
4300
 20
418.404
  0
VERTEX
  8
LAY0
 10
4300
 20
435.767
  0
VERTEX
  8
LAY0
 10
4300
 20
446.442
  0
VERTEX
  8
LAY0
 10
4300
 20
450
  0
SEQEND
  0
POLYLINE
  8
LAY0
 62
2
 66
1
  0
VERTEX
  8
LAY0
 10
4100
 20
-450
  0
VERTEX
  8
LAY0
 10
4100
 20
-446.442
  0
VERTEX
  8
LAY0
 10
4100
 20
-435.767
  0
VERTEX
  8
LAY0
 10
4100
 20
-418.404
  0
VERTEX
  8
LAY0
 10
4100
 20
-392.167
  0
VERTEX
  8
LAY0
 10
4100
 20
-358.157
  0
VERTEX
  8
LAY0
 10
4100
 20
-318.195
  0
VERTEX
  8
LAY0
 10
4100
 20
-272.311
  0
VERTEX
  8
LAY0
 10
4100
 20
-220.536
  0
VERTEX
  8
LAY0
 10
4100
 20
-165.638
  0
VERTEX
  8
LAY0
 10
4100
 20
-112.115
  0
VERTEX
  8
LAY0
 10
4100
 20
-56.1541
  0
VERTEX
  8
LAY0
 10
4100
 20
9.55191e-011
  0
VERTEX
  8
LAY0
 10
4100
 20
56.1558
  0
VERTEX
  8
LAY0
 10
4100
 20
112.116
  0
VERTEX
  8
LAY0
 10
4100
 20
165.638
  0
VERTEX
  8
LAY0
 10
4100
 20
220.537
  0
VERTEX
  8
LAY0
 10
4100
 20
272.312
  0
VERTEX
  8
LAY0
 10
4100
 20
318.195
  0
VERTEX
  8
LAY0
 10
4100
 20
358.158
  0
VERTEX
  8
LAY0
 10
4100
 20
392.167
  0
VERTEX
  8
LAY0
 10
4100
 20
418.404
  0
VERTEX
  8
LAY0
 10
4100
 20
435.768
  0
VERTEX
  8
LAY0
 10
4100
 20
446.442
  0
VERTEX
  8
LAY0
 10
4100
 20
450
  0
SEQEND
  0
POLYLINE
  8
LAY0
 62
2
 66
1
  0
VERTEX
  8
LAY0
 10
5900
 20
-452.734
  0
VERTEX
  8
LAY0
 10
5900
 20
-449.155
  0
VERTEX
  8
LAY0
 10
5900
 20
-438.418
  0
VERTEX
  8
LAY0
 10
5900
 20
-420.946
  0
VERTEX
  8
LAY0
 10
5900
 20
-394.551
  0
VERTEX
  8
LAY0
 10
5900
 20
-360.342
  0
VERTEX
  8
LAY0
 10
5900
 20
-320.128
  0
VERTEX
  8
LAY0
 10
5900
 20
-273.968
  0
VERTEX
  8
LAY0
 10
5900
 20
-221.889
  0
VERTEX
  8
LAY0
 10
5900
 20
-166.644
  0
VERTEX
  8
LAY0
 10
5900
 20
-112.795
  0
VERTEX
  8
LAY0
 10
5900
 20
-56.5052
  0
VERTEX
  8
LAY0
 10
5900
 20
9.61331e-011
  0
VERTEX
  8
LAY0
 10
5900
 20
56.4961
  0
VERTEX
  8
LAY0
 10
5900
 20
112.733
  0
VERTEX
  8
LAY0
 10
5900
 20
166.49
  0
VERTEX
  8
LAY0
 10
5900
 20
221.577
  0
VERTEX
  8
LAY0
 10
5900
 20
273.453
  0
VERTEX
  8
LAY0
 10
5900
 20
319.379
  0
VERTEX
  8
LAY0
 10
5900
 20
359.305
  0
VERTEX
  8
LAY0
 10
5900
 20
393.192
  0
VERTEX
  8
LAY0
 10
5900
 20
419.253
  0
VERTEX
  8
LAY0
 10
5900
 20
436.386
  0
VERTEX
  8
LAY0
 10
5900
 20
446.769
  0
VERTEX
  8
LAY0
 10
5900
 20
449.994
  0
SEQEND
  0
POLYLINE
  8
LAY0
 62
2
 66
1
  0
VERTEX
  8
LAY0
 10
5700
 20
-453.645
  0
VERTEX
  8
LAY0
 10
5700
 20
-450.056
  0
VERTEX
  8
LAY0
 10
5700
 20
-439.289
  0
VERTEX
  8
LAY0
 10
5700
 20
-421.793
  0
VERTEX
  8
LAY0
 10
5700
 20
-395.328
  0
VERTEX
  8
LAY0
 10
5700
 20
-361.026
  0
VERTEX
  8
LAY0
 10
5700
 20
-320.772
  0
VERTEX
  8
LAY0
 10
5700
 20
-274.493
  0
VERTEX
  8
LAY0
 10
5700
 20
-222.278
  0
VERTEX
  8
LAY0
 10
5700
 20
-166.98
  0
VERTEX
  8
LAY0
 10
5700
 20
-113.016
  0
VERTEX
  8
LAY0
 10
5700
 20
-56.5849
  0
VERTEX
  8
LAY0
 10
5700
 20
9.62954e-011
  0
VERTEX
  8
LAY0
 10
5700
 20
56.5765
  0
VERTEX
  8
LAY0
 10
5700
 20
112.964
  0
VERTEX
  8
LAY0
 10
5700
 20
166.852
  0
VERTEX
  8
LAY0
 10
5700
 20
222.037
  0
VERTEX
  8
LAY0
 10
5700
 20
274.101
  0
VERTEX
  8
LAY0
 10
5700
 20
320.193
  0
VERTEX
  8
LAY0
 10
5700
 20
360.243
  0
VERTEX
  8
LAY0
 10
5700
 20
394.307
  0
VERTEX
  8
LAY0
 10
5700
 20
420.511
  0
VERTEX
  8
LAY0
 10
5700
 20
437.76
  0
VERTEX
  8
LAY0
 10
5700
 20
448.267
  0
VERTEX
  8
LAY0
 10
5700
 20
451.59
  0
SEQEND
  0
POLYLINE
  8
LAY0
 62
2
 66
1
  0
VERTEX
  8
LAY0
 10
5500
 20
-450.886
  0
VERTEX
  8
LAY0
 10
5500
 20
-447.321
  0
VERTEX
  8
LAY0
 10
5500
 20
-436.625
  0
VERTEX
  8
LAY0
 10
5500
 20
-419.228
  0
VERTEX
  8
LAY0
 10
5500
 20
-392.938
  0
VERTEX
  8
LAY0
 10
5500
 20
-358.862
  0
VERTEX
  8
LAY0
 10
5500
 20
-318.822
  0
VERTEX
  8
LAY0
 10
5500
 20
-272.847
  0
VERTEX
  8
LAY0
 10
5500
 20
-220.97
  0
VERTEX
  8
LAY0
 10
5500
 20
-165.964
  0
VERTEX
  8
LAY0
 10
5500
 20
-112.336
  0
VERTEX
  8
LAY0
 10
5500
 20
-56.2655
  0
VERTEX
  8
LAY0
 10
5500
 20
9.57073e-011
  0
VERTEX
  8
LAY0
 10
5500
 20
56.2654
  0
VERTEX
  8
LAY0
 10
5500
 20
112.336
  0
VERTEX
  8
LAY0
 10
5500
 20
165.964
  0
VERTEX
  8
LAY0
 10
5500
 20
220.97
  0
VERTEX
  8
LAY0
 10
5500
 20
272.847
  0
VERTEX
  8
LAY0
 10
5500
 20
318.822
  0
VERTEX
  8
LAY0
 10
5500
 20
358.862
  0
VERTEX
  8
LAY0
 10
5500
 20
392.938
  0
VERTEX
  8
LAY0
 10
5500
 20
419.228
  0
VERTEX
  8
LAY0
 10
5500
 20
436.625
  0
VERTEX
  8
LAY0
 10
5500
 20
447.321
  0
VERTEX
  8
LAY0
 10
5500
 20
450.886
  0
SEQEND
  0
ENDSEC
  0
EOF
