solid Visualization Toolkit generated SLA File
 facet normal 0 1 0
  outer loop
   vertex -77.674613952636719 42.47015380859375 0
   vertex -84.954887390136719 42.47015380859375 0
   vertex -77.674613952636719 42.47015380859375 5
  endloop
 endfacet
 facet normal 0 1 0
  outer loop
   vertex -77.674613952636719 42.47015380859375 5
   vertex -84.954887390136719 42.47015380859375 0
   vertex -84.954887390136719 42.47015380859375 5
  endloop
 endfacet
 facet normal -0.93575963767304826 -0.35263848414772508 0
  outer loop
   vertex -79.915824890136719 48.41741943359375 0
   vertex -77.674613952636719 42.47015380859375 0
   vertex -79.915824890136719 48.41741943359375 5
  endloop
 endfacet
 facet normal -0.93575963767304826 -0.35263848414772508 0
  outer loop
   vertex -79.915824890136719 48.41741943359375 5
   vertex -77.674613952636719 42.47015380859375 0
   vertex -77.674613952636719 42.47015380859375 5
  endloop
 endfacet
 facet normal -0.95496135619101541 -0.29673019425366315 0
  outer loop
   vertex -81.439262390136719 52.87054443359375 0
   vertex -81.090003967285156 51.746532440185547 0
   vertex -81.439262390136719 52.87054443359375 5
  endloop
 endfacet
 facet normal -0.95496135619101541 -0.29673019425366315 0
  outer loop
   vertex -81.439262390136719 52.87054443359375 5
   vertex -81.090003967285156 51.746532440185547 0
   vertex -81.090003967285156 51.746532440185547 5
  endloop
 endfacet
 facet normal -0.94980801832054573 -0.31283338749883738 0
  outer loop
   vertex -81.090003967285156 51.746532440185547 5
   vertex -81.090003967285156 51.746532440185547 0
   vertex -80.721900939941406 50.628917694091797 0
  endloop
 endfacet
 facet normal -0.94980801832054573 -0.31283338749883738 0
  outer loop
   vertex -81.090003967285156 51.746532440185547 5
   vertex -80.721900939941406 50.628917694091797 0
   vertex -80.721900939941406 50.628917694091797 5
  endloop
 endfacet
 facet normal -0.9418176493499818 -0.33612425585321087 0
  outer loop
   vertex -80.721900939941406 50.628917694091797 5
   vertex -80.721900939941406 50.628917694091797 0
   vertex -80.326362609863281 49.520622253417969 0
  endloop
 endfacet
 facet normal -0.9418176493499818 -0.33612425585321087 0
  outer loop
   vertex -80.721900939941406 50.628917694091797 5
   vertex -80.326362609863281 49.520622253417969 0
   vertex -80.326362609863281 49.520622253417969 5
  endloop
 endfacet
 facet normal -0.93720973127663765 -0.34876628220109318 0
  outer loop
   vertex -80.326362609863281 49.520622253417969 5
   vertex -80.326362609863281 49.520622253417969 0
   vertex -79.915824890136719 48.41741943359375 0
  endloop
 endfacet
 facet normal -0.93720973127663765 -0.34876628220109318 0
  outer loop
   vertex -80.326362609863281 49.520622253417969 5
   vertex -79.915824890136719 48.41741943359375 0
   vertex -79.915824890136719 48.41741943359375 5
  endloop
 endfacet
 facet normal 0.94654802749026112 -0.32256291115733648 0
  outer loop
   vertex -82.596488952636719 48.76898193359375 0
   vertex -82.252326965332031 49.778911590576172 0
   vertex -82.596488952636719 48.76898193359375 5
  endloop
 endfacet
 facet normal 0.94654802749026112 -0.32256291115733648 0
  outer loop
   vertex -82.596488952636719 48.76898193359375 5
   vertex -82.252326965332031 49.778911590576172 0
   vertex -82.252326965332031 49.778911590576172 5
  endloop
 endfacet
 facet normal 0.95223600965628552 -0.3053630329851249 0
  outer loop
   vertex -82.252326965332031 49.778911590576172 5
   vertex -82.252326965332031 49.778911590576172 0
   vertex -82.089553833007812 50.2864990234375 0
  endloop
 endfacet
 facet normal 0.95223600965628552 -0.3053630329851249 0
  outer loop
   vertex -82.252326965332031 49.778911590576172 5
   vertex -82.089553833007812 50.2864990234375 0
   vertex -82.089553833007812 50.2864990234375 5
  endloop
 endfacet
 facet normal 0.95864961335710719 -0.28458903494384463 0
  outer loop
   vertex -82.089553833007812 50.2864990234375 5
   vertex -82.089553833007812 50.2864990234375 0
   vertex -81.937934875488281 50.797233581542969 0
  endloop
 endfacet
 facet normal 0.95864961335710719 -0.28458903494384463 0
  outer loop
   vertex -82.089553833007812 50.2864990234375 5
   vertex -81.937934875488281 50.797233581542969 0
   vertex -81.937934875488281 50.797233581542969 5
  endloop
 endfacet
 facet normal 0.96592644575905873 -0.25881673319797582 0
  outer loop
   vertex -81.937934875488281 50.797233581542969 5
   vertex -81.937934875488281 50.797233581542969 0
   vertex -81.800048828125 51.311836242675781 0
  endloop
 endfacet
 facet normal 0.96592644575905873 -0.25881673319797582 0
  outer loop
   vertex -81.937934875488281 50.797233581542969 5
   vertex -81.800048828125 51.311836242675781 0
   vertex -81.800048828125 51.311836242675781 5
  endloop
 endfacet
 facet normal 0.97140586582186039 -0.23742502784433162 0
  outer loop
   vertex -81.800048828125 51.311836242675781 5
   vertex -81.800048828125 51.311836242675781 0
   vertex -81.673492431640625 51.829631805419922 0
  endloop
 endfacet
 facet normal 0.97140586582186039 -0.23742502784433162 0
  outer loop
   vertex -81.800048828125 51.311836242675781 5
   vertex -81.673492431640625 51.829631805419922 0
   vertex -81.673492431640625 51.829631805419922 5
  endloop
 endfacet
 facet normal 0.97560479798838851 -0.21953423000078071 0
  outer loop
   vertex -81.673492431640625 51.829631805419922 5
   vertex -81.673492431640625 51.829631805419922 0
   vertex -81.439262390136719 52.87054443359375 0
  endloop
 endfacet
 facet normal 0.97560479798838851 -0.21953423000078071 0
  outer loop
   vertex -81.673492431640625 51.829631805419922 5
   vertex -81.439262390136719 52.87054443359375 0
   vertex -81.439262390136719 52.87054443359375 5
  endloop
 endfacet
 facet normal 0.93650806348246873 -0.35064604237366853 0
  outer loop
   vertex -84.954887390136719 42.47015380859375 0
   vertex -82.596488952636719 48.76898193359375 0
   vertex -84.954887390136719 42.47015380859375 5
  endloop
 endfacet
 facet normal 0.93650806348246873 -0.35064604237366853 0
  outer loop
   vertex -84.954887390136719 42.47015380859375 5
   vertex -82.596488952636719 48.76898193359375 0
   vertex -82.596488952636719 48.76898193359375 5
  endloop
 endfacet
 facet normal -0.93352601985323258 0.35850965155345832 0
  outer loop
   vertex -82.904106140136719 55.12640380859375 0
   vertex -91.151176452636719 33.65179443359375 0
   vertex -82.904106140136719 55.12640380859375 5
  endloop
 endfacet
 facet normal -0.93352601985323258 0.35850965155345832 0
  outer loop
   vertex -82.904106140136719 55.12640380859375 5
   vertex -91.151176452636719 33.65179443359375 0
   vertex -91.151176452636719 33.65179443359375 5
  endloop
 endfacet
 facet normal 0 1 0
  outer loop
   vertex -79.842582702636719 55.12640380859375 0
   vertex -82.904106140136719 55.12640380859375 0
   vertex -79.842582702636719 55.12640380859375 5
  endloop
 endfacet
 facet normal 0 1 0
  outer loop
   vertex -79.842582702636719 55.12640380859375 5
   vertex -82.904106140136719 55.12640380859375 0
   vertex -82.904106140136719 55.12640380859375 5
  endloop
 endfacet
 facet normal 0.92548660776430491 0.37878033059930621 0
  outer loop
   vertex -71.053520202636719 33.65179443359375 0
   vertex -79.842582702636719 55.12640380859375 0
   vertex -71.053520202636719 33.65179443359375 5
  endloop
 endfacet
 facet normal 0.92548660776430491 0.37878033059930621 -0
  outer loop
   vertex -71.053520202636719 33.65179443359375 5
   vertex -79.842582702636719 55.12640380859375 0
   vertex -79.842582702636719 55.12640380859375 5
  endloop
 endfacet
 facet normal 0 -1 0
  outer loop
   vertex -74.290824890136719 33.65179443359375 0
   vertex -71.053520202636719 33.65179443359375 0
   vertex -74.290824890136719 33.65179443359375 5
  endloop
 endfacet
 facet normal 0 -1 0
  outer loop
   vertex -74.290824890136719 33.65179443359375 5
   vertex -71.053520202636719 33.65179443359375 0
   vertex -71.053520202636719 33.65179443359375 5
  endloop
 endfacet
 facet normal -0.93318300307845559 -0.3594015619964322 0
  outer loop
   vertex -76.795707702636719 40.15570068359375 0
   vertex -74.290824890136719 33.65179443359375 0
   vertex -76.795707702636719 40.15570068359375 5
  endloop
 endfacet
 facet normal -0.93318300307845559 -0.3594015619964322 0
  outer loop
   vertex -76.795707702636719 40.15570068359375 5
   vertex -74.290824890136719 33.65179443359375 0
   vertex -74.290824890136719 33.65179443359375 5
  endloop
 endfacet
 facet normal 0 -1 0
  outer loop
   vertex -85.775199890136719 40.15570068359375 0
   vertex -76.795707702636719 40.15570068359375 0
   vertex -85.775199890136719 40.15570068359375 5
  endloop
 endfacet
 facet normal 0 -1 0
  outer loop
   vertex -85.775199890136719 40.15570068359375 5
   vertex -76.795707702636719 40.15570068359375 0
   vertex -76.795707702636719 40.15570068359375 5
  endloop
 endfacet
 facet normal 0.94010214084411969 -0.3408928934141966 0
  outer loop
   vertex -88.133598327636719 33.65179443359375 0
   vertex -85.775199890136719 40.15570068359375 0
   vertex -88.133598327636719 33.65179443359375 5
  endloop
 endfacet
 facet normal 0.94010214084411969 -0.3408928934141966 0
  outer loop
   vertex -88.133598327636719 33.65179443359375 5
   vertex -85.775199890136719 40.15570068359375 0
   vertex -85.775199890136719 40.15570068359375 5
  endloop
 endfacet
 facet normal 0 -1 0
  outer loop
   vertex -91.151176452636719 33.65179443359375 0
   vertex -88.133598327636719 33.65179443359375 0
   vertex -91.151176452636719 33.65179443359375 5
  endloop
 endfacet
 facet normal 0 -1 0
  outer loop
   vertex -91.151176452636719 33.65179443359375 5
   vertex -88.133598327636719 33.65179443359375 0
   vertex -88.133598327636719 33.65179443359375 5
  endloop
 endfacet
 facet normal 0 0 1
  outer loop
   vertex -88.133598327636719 33.65179443359375 5
   vertex -85.775199890136719 40.15570068359375 5
   vertex -91.151176452636719 33.65179443359375 5
  endloop
 endfacet
 facet normal 0 -0 1
  outer loop
   vertex -91.151176452636719 33.65179443359375 5
   vertex -85.775199890136719 40.15570068359375 5
   vertex -84.954887390136719 42.47015380859375 5
  endloop
 endfacet
 facet normal 0 -0 1
  outer loop
   vertex -91.151176452636719 33.65179443359375 5
   vertex -84.954887390136719 42.47015380859375 5
   vertex -82.904106140136719 55.12640380859375 5
  endloop
 endfacet
 facet normal 0 0 1
  outer loop
   vertex -82.904106140136719 55.12640380859375 5
   vertex -84.954887390136719 42.47015380859375 5
   vertex -82.596488952636719 48.76898193359375 5
  endloop
 endfacet
 facet normal 0 -0 1
  outer loop
   vertex -82.904106140136719 55.12640380859375 5
   vertex -82.596488952636719 48.76898193359375 5
   vertex -82.252326965332031 49.778911590576172 5
  endloop
 endfacet
 facet normal 0 0 1
  outer loop
   vertex -84.954887390136719 42.47015380859375 5
   vertex -85.775199890136719 40.15570068359375 5
   vertex -77.674613952636719 42.47015380859375 5
  endloop
 endfacet
 facet normal 0 0 1
  outer loop
   vertex -77.674613952636719 42.47015380859375 5
   vertex -85.775199890136719 40.15570068359375 5
   vertex -76.795707702636719 40.15570068359375 5
  endloop
 endfacet
 facet normal -0 -0 1
  outer loop
   vertex -77.674613952636719 42.47015380859375 5
   vertex -76.795707702636719 40.15570068359375 5
   vertex -71.053520202636719 33.65179443359375 5
  endloop
 endfacet
 facet normal 0 0 1
  outer loop
   vertex -71.053520202636719 33.65179443359375 5
   vertex -76.795707702636719 40.15570068359375 5
   vertex -74.290824890136719 33.65179443359375 5
  endloop
 endfacet
 facet normal 0 0 1
  outer loop
   vertex -71.053520202636719 33.65179443359375 5
   vertex -79.842582702636719 55.12640380859375 5
   vertex -77.674613952636719 42.47015380859375 5
  endloop
 endfacet
 facet normal 0 0 1
  outer loop
   vertex -77.674613952636719 42.47015380859375 5
   vertex -79.842582702636719 55.12640380859375 5
   vertex -79.915824890136719 48.41741943359375 5
  endloop
 endfacet
 facet normal 0 0 1
  outer loop
   vertex -79.915824890136719 48.41741943359375 5
   vertex -79.842582702636719 55.12640380859375 5
   vertex -80.326362609863281 49.520622253417969 5
  endloop
 endfacet
 facet normal 0 0 1
  outer loop
   vertex -80.326362609863281 49.520622253417969 5
   vertex -79.842582702636719 55.12640380859375 5
   vertex -80.721900939941406 50.628917694091797 5
  endloop
 endfacet
 facet normal 0 0 1
  outer loop
   vertex -80.721900939941406 50.628917694091797 5
   vertex -79.842582702636719 55.12640380859375 5
   vertex -81.090003967285156 51.746532440185547 5
  endloop
 endfacet
 facet normal 0 0 1
  outer loop
   vertex -81.090003967285156 51.746532440185547 5
   vertex -79.842582702636719 55.12640380859375 5
   vertex -81.439262390136719 52.87054443359375 5
  endloop
 endfacet
 facet normal 0 0 1
  outer loop
   vertex -81.439262390136719 52.87054443359375 5
   vertex -79.842582702636719 55.12640380859375 5
   vertex -82.904106140136719 55.12640380859375 5
  endloop
 endfacet
 facet normal 0 0 1
  outer loop
   vertex -81.439262390136719 52.87054443359375 5
   vertex -82.904106140136719 55.12640380859375 5
   vertex -81.673492431640625 51.829631805419922 5
  endloop
 endfacet
 facet normal 0 0 1
  outer loop
   vertex -81.673492431640625 51.829631805419922 5
   vertex -82.904106140136719 55.12640380859375 5
   vertex -81.800048828125 51.311836242675781 5
  endloop
 endfacet
 facet normal 0 0 1
  outer loop
   vertex -81.800048828125 51.311836242675781 5
   vertex -82.904106140136719 55.12640380859375 5
   vertex -81.937934875488281 50.797233581542969 5
  endloop
 endfacet
 facet normal 0 0 1
  outer loop
   vertex -81.937934875488281 50.797233581542969 5
   vertex -82.904106140136719 55.12640380859375 5
   vertex -82.089553833007812 50.2864990234375 5
  endloop
 endfacet
 facet normal 0 0 1
  outer loop
   vertex -82.089553833007812 50.2864990234375 5
   vertex -82.904106140136719 55.12640380859375 5
   vertex -82.252326965332031 49.778911590576172 5
  endloop
 endfacet
 facet normal 0 0 -1
  outer loop
   vertex -88.133598327636719 33.65179443359375 0
   vertex -91.151176452636719 33.65179443359375 0
   vertex -85.775199890136719 40.15570068359375 0
  endloop
 endfacet
 facet normal 0 0 -1
  outer loop
   vertex -85.775199890136719 40.15570068359375 0
   vertex -91.151176452636719 33.65179443359375 0
   vertex -84.954887390136719 42.47015380859375 0
  endloop
 endfacet
 facet normal 0 -0 -1
  outer loop
   vertex -85.775199890136719 40.15570068359375 0
   vertex -84.954887390136719 42.47015380859375 0
   vertex -77.674613952636719 42.47015380859375 0
  endloop
 endfacet
 facet normal 0 0 -1
  outer loop
   vertex -91.151176452636719 33.65179443359375 0
   vertex -82.904106140136719 55.12640380859375 0
   vertex -84.954887390136719 42.47015380859375 0
  endloop
 endfacet
 facet normal 0 -0 -1
  outer loop
   vertex -84.954887390136719 42.47015380859375 0
   vertex -82.904106140136719 55.12640380859375 0
   vertex -82.596488952636719 48.76898193359375 0
  endloop
 endfacet
 facet normal 0 0 -1
  outer loop
   vertex -82.596488952636719 48.76898193359375 0
   vertex -82.904106140136719 55.12640380859375 0
   vertex -82.252326965332031 49.778911590576172 0
  endloop
 endfacet
 facet normal 0 0 -1
  outer loop
   vertex -82.252326965332031 49.778911590576172 0
   vertex -82.904106140136719 55.12640380859375 0
   vertex -82.089553833007812 50.2864990234375 0
  endloop
 endfacet
 facet normal 0 0 -1
  outer loop
   vertex -82.089553833007812 50.2864990234375 0
   vertex -82.904106140136719 55.12640380859375 0
   vertex -81.937934875488281 50.797233581542969 0
  endloop
 endfacet
 facet normal 0 0 -1
  outer loop
   vertex -81.937934875488281 50.797233581542969 0
   vertex -82.904106140136719 55.12640380859375 0
   vertex -81.800048828125 51.311836242675781 0
  endloop
 endfacet
 facet normal 0 0 -1
  outer loop
   vertex -81.800048828125 51.311836242675781 0
   vertex -82.904106140136719 55.12640380859375 0
   vertex -81.673492431640625 51.829631805419922 0
  endloop
 endfacet
 facet normal 0 0 -1
  outer loop
   vertex -81.673492431640625 51.829631805419922 0
   vertex -82.904106140136719 55.12640380859375 0
   vertex -81.439262390136719 52.87054443359375 0
  endloop
 endfacet
 facet normal 0 0 -1
  outer loop
   vertex -81.439262390136719 52.87054443359375 0
   vertex -82.904106140136719 55.12640380859375 0
   vertex -79.842582702636719 55.12640380859375 0
  endloop
 endfacet
 facet normal 0 0 -1
  outer loop
   vertex -81.439262390136719 52.87054443359375 0
   vertex -79.842582702636719 55.12640380859375 0
   vertex -81.090003967285156 51.746532440185547 0
  endloop
 endfacet
 facet normal 0 0 -1
  outer loop
   vertex -81.090003967285156 51.746532440185547 0
   vertex -79.842582702636719 55.12640380859375 0
   vertex -80.721900939941406 50.628917694091797 0
  endloop
 endfacet
 facet normal 0 0 -1
  outer loop
   vertex -80.721900939941406 50.628917694091797 0
   vertex -79.842582702636719 55.12640380859375 0
   vertex -80.326362609863281 49.520622253417969 0
  endloop
 endfacet
 facet normal 0 0 -1
  outer loop
   vertex -80.326362609863281 49.520622253417969 0
   vertex -79.842582702636719 55.12640380859375 0
   vertex -79.915824890136719 48.41741943359375 0
  endloop
 endfacet
 facet normal 0 -0 -1
  outer loop
   vertex -79.915824890136719 48.41741943359375 0
   vertex -79.842582702636719 55.12640380859375 0
   vertex -77.674613952636719 42.47015380859375 0
  endloop
 endfacet
 facet normal 0 0 -1
  outer loop
   vertex -77.674613952636719 42.47015380859375 0
   vertex -79.842582702636719 55.12640380859375 0
   vertex -71.053520202636719 33.65179443359375 0
  endloop
 endfacet
 facet normal 0 0 -1
  outer loop
   vertex -77.674613952636719 42.47015380859375 0
   vertex -71.053520202636719 33.65179443359375 0
   vertex -76.795707702636719 40.15570068359375 0
  endloop
 endfacet
 facet normal 0 0 -1
  outer loop
   vertex -76.795707702636719 40.15570068359375 0
   vertex -71.053520202636719 33.65179443359375 0
   vertex -74.290824890136719 33.65179443359375 0
  endloop
 endfacet
 facet normal 0 0 -1
  outer loop
   vertex -76.795707702636719 40.15570068359375 0
   vertex -85.775199890136719 40.15570068359375 0
   vertex -77.674613952636719 42.47015380859375 0
  endloop
 endfacet
endsolid
