solid Visualization Toolkit generated SLA File
 facet normal -1 0 0
  outer loop
   vertex 26.299999237060547 55.12640380859375 0
   vertex 26.299999237060547 33.65179443359375 0
   vertex 26.299999237060547 55.12640380859375 5
  endloop
 endfacet
 facet normal -1 0 0
  outer loop
   vertex 26.299999237060547 55.12640380859375 5
   vertex 26.299999237060547 33.65179443359375 0
   vertex 26.299999237060547 33.65179443359375 5
  endloop
 endfacet
 facet normal 0 1 0
  outer loop
   vertex 41.827342987060547 55.12640380859375 0
   vertex 26.299999237060547 55.12640380859375 0
   vertex 41.827342987060547 55.12640380859375 5
  endloop
 endfacet
 facet normal 0 1 0
  outer loop
   vertex 41.827342987060547 55.12640380859375 5
   vertex 26.299999237060547 55.12640380859375 0
   vertex 26.299999237060547 55.12640380859375 5
  endloop
 endfacet
 facet normal 1 0 0
  outer loop
   vertex 41.827342987060547 52.59222412109375 0
   vertex 41.827342987060547 55.12640380859375 0
   vertex 41.827342987060547 52.59222412109375 5
  endloop
 endfacet
 facet normal 1 0 -0
  outer loop
   vertex 41.827342987060547 52.59222412109375 5
   vertex 41.827342987060547 55.12640380859375 0
   vertex 41.827342987060547 55.12640380859375 5
  endloop
 endfacet
 facet normal 0 -1 0
  outer loop
   vertex 29.141796112060547 52.59222412109375 0
   vertex 41.827342987060547 52.59222412109375 0
   vertex 29.141796112060547 52.59222412109375 5
  endloop
 endfacet
 facet normal 0 -1 0
  outer loop
   vertex 29.141796112060547 52.59222412109375 5
   vertex 41.827342987060547 52.59222412109375 0
   vertex 41.827342987060547 52.59222412109375 5
  endloop
 endfacet
 facet normal 1 0 0
  outer loop
   vertex 29.141796112060547 46.01507568359375 0
   vertex 29.141796112060547 52.59222412109375 0
   vertex 29.141796112060547 46.01507568359375 5
  endloop
 endfacet
 facet normal 1 0 -0
  outer loop
   vertex 29.141796112060547 46.01507568359375 5
   vertex 29.141796112060547 52.59222412109375 0
   vertex 29.141796112060547 52.59222412109375 5
  endloop
 endfacet
 facet normal 0 1 0
  outer loop
   vertex 41.021678924560547 46.01507568359375 0
   vertex 29.141796112060547 46.01507568359375 0
   vertex 41.021678924560547 46.01507568359375 5
  endloop
 endfacet
 facet normal 0 1 0
  outer loop
   vertex 41.021678924560547 46.01507568359375 5
   vertex 29.141796112060547 46.01507568359375 0
   vertex 29.141796112060547 46.01507568359375 5
  endloop
 endfacet
 facet normal 1 0 0
  outer loop
   vertex 41.021678924560547 43.49554443359375 0
   vertex 41.021678924560547 46.01507568359375 0
   vertex 41.021678924560547 43.49554443359375 5
  endloop
 endfacet
 facet normal 1 0 -0
  outer loop
   vertex 41.021678924560547 43.49554443359375 5
   vertex 41.021678924560547 46.01507568359375 0
   vertex 41.021678924560547 46.01507568359375 5
  endloop
 endfacet
 facet normal 0 -1 0
  outer loop
   vertex 29.141796112060547 43.49554443359375 0
   vertex 41.021678924560547 43.49554443359375 0
   vertex 29.141796112060547 43.49554443359375 5
  endloop
 endfacet
 facet normal 0 -1 0
  outer loop
   vertex 29.141796112060547 43.49554443359375 5
   vertex 41.021678924560547 43.49554443359375 0
   vertex 41.021678924560547 43.49554443359375 5
  endloop
 endfacet
 facet normal 1 0 0
  outer loop
   vertex 29.141796112060547 36.18597412109375 0
   vertex 29.141796112060547 43.49554443359375 0
   vertex 29.141796112060547 36.18597412109375 5
  endloop
 endfacet
 facet normal 1 0 -0
  outer loop
   vertex 29.141796112060547 36.18597412109375 5
   vertex 29.141796112060547 43.49554443359375 0
   vertex 29.141796112060547 43.49554443359375 5
  endloop
 endfacet
 facet normal 0 1 0
  outer loop
   vertex 42.325389862060547 36.18597412109375 0
   vertex 29.141796112060547 36.18597412109375 0
   vertex 42.325389862060547 36.18597412109375 5
  endloop
 endfacet
 facet normal 0 1 0
  outer loop
   vertex 42.325389862060547 36.18597412109375 5
   vertex 29.141796112060547 36.18597412109375 0
   vertex 29.141796112060547 36.18597412109375 5
  endloop
 endfacet
 facet normal 1 0 0
  outer loop
   vertex 42.325389862060547 33.65179443359375 0
   vertex 42.325389862060547 36.18597412109375 0
   vertex 42.325389862060547 33.65179443359375 5
  endloop
 endfacet
 facet normal 1 0 -0
  outer loop
   vertex 42.325389862060547 33.65179443359375 5
   vertex 42.325389862060547 36.18597412109375 0
   vertex 42.325389862060547 36.18597412109375 5
  endloop
 endfacet
 facet normal 0 -1 0
  outer loop
   vertex 26.299999237060547 33.65179443359375 0
   vertex 42.325389862060547 33.65179443359375 0
   vertex 26.299999237060547 33.65179443359375 5
  endloop
 endfacet
 facet normal 0 -1 0
  outer loop
   vertex 26.299999237060547 33.65179443359375 5
   vertex 42.325389862060547 33.65179443359375 0
   vertex 42.325389862060547 33.65179443359375 5
  endloop
 endfacet
 facet normal 0 0 1
  outer loop
   vertex 42.325389862060547 33.65179443359375 5
   vertex 29.141796112060547 36.18597412109375 5
   vertex 26.299999237060547 33.65179443359375 5
  endloop
 endfacet
 facet normal 0 -0 1
  outer loop
   vertex 26.299999237060547 33.65179443359375 5
   vertex 29.141796112060547 36.18597412109375 5
   vertex 29.141796112060547 43.49554443359375 5
  endloop
 endfacet
 facet normal 0 0 1
  outer loop
   vertex 26.299999237060547 33.65179443359375 5
   vertex 29.141796112060547 43.49554443359375 5
   vertex 26.299999237060547 55.12640380859375 5
  endloop
 endfacet
 facet normal 0 -0 1
  outer loop
   vertex 26.299999237060547 55.12640380859375 5
   vertex 29.141796112060547 43.49554443359375 5
   vertex 29.141796112060547 46.01507568359375 5
  endloop
 endfacet
 facet normal 0 -0 1
  outer loop
   vertex 26.299999237060547 55.12640380859375 5
   vertex 29.141796112060547 46.01507568359375 5
   vertex 29.141796112060547 52.59222412109375 5
  endloop
 endfacet
 facet normal 0 0 1
  outer loop
   vertex 42.325389862060547 33.65179443359375 5
   vertex 42.325389862060547 36.18597412109375 5
   vertex 29.141796112060547 36.18597412109375 5
  endloop
 endfacet
 facet normal 0 0 1
  outer loop
   vertex 29.141796112060547 43.49554443359375 5
   vertex 41.021678924560547 43.49554443359375 5
   vertex 29.141796112060547 46.01507568359375 5
  endloop
 endfacet
 facet normal 0 -0 1
  outer loop
   vertex 29.141796112060547 46.01507568359375 5
   vertex 41.021678924560547 43.49554443359375 5
   vertex 41.021678924560547 46.01507568359375 5
  endloop
 endfacet
 facet normal 0 0 1
  outer loop
   vertex 41.827342987060547 52.59222412109375 5
   vertex 41.827342987060547 55.12640380859375 5
   vertex 29.141796112060547 52.59222412109375 5
  endloop
 endfacet
 facet normal 0 0 1
  outer loop
   vertex 29.141796112060547 52.59222412109375 5
   vertex 41.827342987060547 55.12640380859375 5
   vertex 26.299999237060547 55.12640380859375 5
  endloop
 endfacet
 facet normal 0 0 -1
  outer loop
   vertex 42.325389862060547 36.18597412109375 0
   vertex 42.325389862060547 33.65179443359375 0
   vertex 29.141796112060547 36.18597412109375 0
  endloop
 endfacet
 facet normal 0 0 -1
  outer loop
   vertex 29.141796112060547 36.18597412109375 0
   vertex 42.325389862060547 33.65179443359375 0
   vertex 26.299999237060547 33.65179443359375 0
  endloop
 endfacet
 facet normal 0 0 -1
  outer loop
   vertex 29.141796112060547 36.18597412109375 0
   vertex 26.299999237060547 33.65179443359375 0
   vertex 29.141796112060547 43.49554443359375 0
  endloop
 endfacet
 facet normal 0 0 -1
  outer loop
   vertex 29.141796112060547 43.49554443359375 0
   vertex 26.299999237060547 33.65179443359375 0
   vertex 26.299999237060547 55.12640380859375 0
  endloop
 endfacet
 facet normal 0 0 -1
  outer loop
   vertex 29.141796112060547 43.49554443359375 0
   vertex 26.299999237060547 55.12640380859375 0
   vertex 29.141796112060547 46.01507568359375 0
  endloop
 endfacet
 facet normal 0 0 -1
  outer loop
   vertex 29.141796112060547 46.01507568359375 0
   vertex 26.299999237060547 55.12640380859375 0
   vertex 29.141796112060547 52.59222412109375 0
  endloop
 endfacet
 facet normal 0 0 -1
  outer loop
   vertex 29.141796112060547 52.59222412109375 0
   vertex 26.299999237060547 55.12640380859375 0
   vertex 41.827342987060547 55.12640380859375 0
  endloop
 endfacet
 facet normal 0 -0 -1
  outer loop
   vertex 29.141796112060547 52.59222412109375 0
   vertex 41.827342987060547 55.12640380859375 0
   vertex 41.827342987060547 52.59222412109375 0
  endloop
 endfacet
 facet normal -0 0 -1
  outer loop
   vertex 29.141796112060547 46.01507568359375 0
   vertex 41.021678924560547 46.01507568359375 0
   vertex 29.141796112060547 43.49554443359375 0
  endloop
 endfacet
 facet normal 0 -0 -1
  outer loop
   vertex 29.141796112060547 43.49554443359375 0
   vertex 41.021678924560547 46.01507568359375 0
   vertex 41.021678924560547 43.49554443359375 0
  endloop
 endfacet
endsolid
