solid Visualization Toolkit generated SLA File
 facet normal -1 0 0
  outer loop
   vertex 54.732616424560547 55.12640380859375 0
   vertex 54.732616424560547 33.65179443359375 0
   vertex 54.732616424560547 55.12640380859375 5
  endloop
 endfacet
 facet normal -1 0 0
  outer loop
   vertex 54.732616424560547 55.12640380859375 5
   vertex 54.732616424560547 33.65179443359375 0
   vertex 54.732616424560547 33.65179443359375 5
  endloop
 endfacet
 facet normal 0 1 0
  outer loop
   vertex 69.219917297363281 55.12640380859375 0
   vertex 54.732616424560547 55.12640380859375 0
   vertex 69.219917297363281 55.12640380859375 5
  endloop
 endfacet
 facet normal 0 1 0
  outer loop
   vertex 69.219917297363281 55.12640380859375 5
   vertex 54.732616424560547 55.12640380859375 0
   vertex 54.732616424560547 55.12640380859375 5
  endloop
 endfacet
 facet normal 1 0 0
  outer loop
   vertex 69.219917297363281 52.59222412109375 0
   vertex 69.219917297363281 55.12640380859375 0
   vertex 69.219917297363281 52.59222412109375 5
  endloop
 endfacet
 facet normal 1 0 -0
  outer loop
   vertex 69.219917297363281 52.59222412109375 5
   vertex 69.219917297363281 55.12640380859375 0
   vertex 69.219917297363281 55.12640380859375 5
  endloop
 endfacet
 facet normal 0 -1 0
  outer loop
   vertex 57.574413299560547 52.59222412109375 0
   vertex 69.219917297363281 52.59222412109375 0
   vertex 57.574413299560547 52.59222412109375 5
  endloop
 endfacet
 facet normal 0 -1 0
  outer loop
   vertex 57.574413299560547 52.59222412109375 5
   vertex 69.219917297363281 52.59222412109375 0
   vertex 69.219917297363281 52.59222412109375 5
  endloop
 endfacet
 facet normal 1 0 0
  outer loop
   vertex 57.574413299560547 45.94183349609375 0
   vertex 57.574413299560547 52.59222412109375 0
   vertex 57.574413299560547 45.94183349609375 5
  endloop
 endfacet
 facet normal 1 0 -0
  outer loop
   vertex 57.574413299560547 45.94183349609375 5
   vertex 57.574413299560547 52.59222412109375 0
   vertex 57.574413299560547 52.59222412109375 5
  endloop
 endfacet
 facet normal 0 1 0
  outer loop
   vertex 67.652534484863281 45.94183349609375 0
   vertex 57.574413299560547 45.94183349609375 0
   vertex 67.652534484863281 45.94183349609375 5
  endloop
 endfacet
 facet normal 0 1 0
  outer loop
   vertex 67.652534484863281 45.94183349609375 5
   vertex 57.574413299560547 45.94183349609375 0
   vertex 57.574413299560547 45.94183349609375 5
  endloop
 endfacet
 facet normal 1 0 0
  outer loop
   vertex 67.652534484863281 43.40765380859375 0
   vertex 67.652534484863281 45.94183349609375 0
   vertex 67.652534484863281 43.40765380859375 5
  endloop
 endfacet
 facet normal 1 0 -0
  outer loop
   vertex 67.652534484863281 43.40765380859375 5
   vertex 67.652534484863281 45.94183349609375 0
   vertex 67.652534484863281 45.94183349609375 5
  endloop
 endfacet
 facet normal 0 -1 0
  outer loop
   vertex 57.574413299560547 43.40765380859375 0
   vertex 67.652534484863281 43.40765380859375 0
   vertex 57.574413299560547 43.40765380859375 5
  endloop
 endfacet
 facet normal 0 -1 0
  outer loop
   vertex 57.574413299560547 43.40765380859375 5
   vertex 67.652534484863281 43.40765380859375 0
   vertex 67.652534484863281 43.40765380859375 5
  endloop
 endfacet
 facet normal 1 0 0
  outer loop
   vertex 57.574413299560547 33.65179443359375 0
   vertex 57.574413299560547 43.40765380859375 0
   vertex 57.574413299560547 33.65179443359375 5
  endloop
 endfacet
 facet normal 1 0 -0
  outer loop
   vertex 57.574413299560547 33.65179443359375 5
   vertex 57.574413299560547 43.40765380859375 0
   vertex 57.574413299560547 43.40765380859375 5
  endloop
 endfacet
 facet normal 0 -1 0
  outer loop
   vertex 54.732616424560547 33.65179443359375 0
   vertex 57.574413299560547 33.65179443359375 0
   vertex 54.732616424560547 33.65179443359375 5
  endloop
 endfacet
 facet normal 0 -1 0
  outer loop
   vertex 54.732616424560547 33.65179443359375 5
   vertex 57.574413299560547 33.65179443359375 0
   vertex 57.574413299560547 33.65179443359375 5
  endloop
 endfacet
 facet normal 0 0 1
  outer loop
   vertex 57.574413299560547 33.65179443359375 5
   vertex 57.574413299560547 43.40765380859375 5
   vertex 54.732616424560547 33.65179443359375 5
  endloop
 endfacet
 facet normal 0 0 1
  outer loop
   vertex 54.732616424560547 33.65179443359375 5
   vertex 57.574413299560547 43.40765380859375 5
   vertex 54.732616424560547 55.12640380859375 5
  endloop
 endfacet
 facet normal 0 -0 1
  outer loop
   vertex 54.732616424560547 55.12640380859375 5
   vertex 57.574413299560547 43.40765380859375 5
   vertex 57.574413299560547 45.94183349609375 5
  endloop
 endfacet
 facet normal 0 -0 1
  outer loop
   vertex 54.732616424560547 55.12640380859375 5
   vertex 57.574413299560547 45.94183349609375 5
   vertex 57.574413299560547 52.59222412109375 5
  endloop
 endfacet
 facet normal 0 0 1
  outer loop
   vertex 57.574413299560547 43.40765380859375 5
   vertex 67.652534484863281 43.40765380859375 5
   vertex 57.574413299560547 45.94183349609375 5
  endloop
 endfacet
 facet normal 0 -0 1
  outer loop
   vertex 57.574413299560547 45.94183349609375 5
   vertex 67.652534484863281 43.40765380859375 5
   vertex 67.652534484863281 45.94183349609375 5
  endloop
 endfacet
 facet normal 0 0 1
  outer loop
   vertex 69.219917297363281 52.59222412109375 5
   vertex 69.219917297363281 55.12640380859375 5
   vertex 57.574413299560547 52.59222412109375 5
  endloop
 endfacet
 facet normal 0 0 1
  outer loop
   vertex 57.574413299560547 52.59222412109375 5
   vertex 69.219917297363281 55.12640380859375 5
   vertex 54.732616424560547 55.12640380859375 5
  endloop
 endfacet
 facet normal 0 0 -1
  outer loop
   vertex 57.574413299560547 33.65179443359375 0
   vertex 54.732616424560547 33.65179443359375 0
   vertex 57.574413299560547 43.40765380859375 0
  endloop
 endfacet
 facet normal 0 0 -1
  outer loop
   vertex 57.574413299560547 43.40765380859375 0
   vertex 54.732616424560547 33.65179443359375 0
   vertex 54.732616424560547 55.12640380859375 0
  endloop
 endfacet
 facet normal 0 0 -1
  outer loop
   vertex 57.574413299560547 43.40765380859375 0
   vertex 54.732616424560547 55.12640380859375 0
   vertex 57.574413299560547 45.94183349609375 0
  endloop
 endfacet
 facet normal 0 0 -1
  outer loop
   vertex 57.574413299560547 45.94183349609375 0
   vertex 54.732616424560547 55.12640380859375 0
   vertex 57.574413299560547 52.59222412109375 0
  endloop
 endfacet
 facet normal 0 0 -1
  outer loop
   vertex 57.574413299560547 52.59222412109375 0
   vertex 54.732616424560547 55.12640380859375 0
   vertex 69.219917297363281 55.12640380859375 0
  endloop
 endfacet
 facet normal 0 -0 -1
  outer loop
   vertex 57.574413299560547 52.59222412109375 0
   vertex 69.219917297363281 55.12640380859375 0
   vertex 69.219917297363281 52.59222412109375 0
  endloop
 endfacet
 facet normal -0 0 -1
  outer loop
   vertex 57.574413299560547 45.94183349609375 0
   vertex 67.652534484863281 45.94183349609375 0
   vertex 57.574413299560547 43.40765380859375 0
  endloop
 endfacet
 facet normal 0 -0 -1
  outer loop
   vertex 57.574413299560547 43.40765380859375 0
   vertex 67.652534484863281 45.94183349609375 0
   vertex 67.652534484863281 43.40765380859375 0
  endloop
 endfacet
endsolid
