solid Visualization Toolkit generated SLA File
 facet normal -1 0 0
  outer loop
   vertex -58.81549072265625 15.193264007568359 0
   vertex -58.81549072265625 -6.2813453674316406 0
   vertex -58.81549072265625 15.193264007568359 5
  endloop
 endfacet
 facet normal -1 0 0
  outer loop
   vertex -58.81549072265625 15.193264007568359 5
   vertex -58.81549072265625 -6.2813453674316406 0
   vertex -58.81549072265625 -6.2813453674316406 5
  endloop
 endfacet
 facet normal 0 1 0
  outer loop
   vertex -55.97369384765625 15.193264007568359 0
   vertex -58.81549072265625 15.193264007568359 0
   vertex -55.97369384765625 15.193264007568359 5
  endloop
 endfacet
 facet normal 0 1 0
  outer loop
   vertex -55.97369384765625 15.193264007568359 5
   vertex -58.81549072265625 15.193264007568359 0
   vertex -58.81549072265625 15.193264007568359 5
  endloop
 endfacet
 facet normal 1 0 0
  outer loop
   vertex -55.97369384765625 6.3749046325683594 0
   vertex -55.97369384765625 15.193264007568359 0
   vertex -55.97369384765625 6.3749046325683594 5
  endloop
 endfacet
 facet normal 1 0 -0
  outer loop
   vertex -55.97369384765625 6.3749046325683594 5
   vertex -55.97369384765625 15.193264007568359 0
   vertex -55.97369384765625 15.193264007568359 5
  endloop
 endfacet
 facet normal 0 1 0
  outer loop
   vertex -44.81158447265625 6.3749046325683594 0
   vertex -55.97369384765625 6.3749046325683594 0
   vertex -44.81158447265625 6.3749046325683594 5
  endloop
 endfacet
 facet normal 0 1 0
  outer loop
   vertex -44.81158447265625 6.3749046325683594 5
   vertex -55.97369384765625 6.3749046325683594 0
   vertex -55.97369384765625 6.3749046325683594 5
  endloop
 endfacet
 facet normal -1 0 0
  outer loop
   vertex -44.81158447265625 15.193264007568359 0
   vertex -44.81158447265625 6.3749046325683594 0
   vertex -44.81158447265625 15.193264007568359 5
  endloop
 endfacet
 facet normal -1 0 0
  outer loop
   vertex -44.81158447265625 15.193264007568359 5
   vertex -44.81158447265625 6.3749046325683594 0
   vertex -44.81158447265625 6.3749046325683594 5
  endloop
 endfacet
 facet normal 0 1 0
  outer loop
   vertex -41.96978759765625 15.193264007568359 0
   vertex -44.81158447265625 15.193264007568359 0
   vertex -41.96978759765625 15.193264007568359 5
  endloop
 endfacet
 facet normal 0 1 0
  outer loop
   vertex -41.96978759765625 15.193264007568359 5
   vertex -44.81158447265625 15.193264007568359 0
   vertex -44.81158447265625 15.193264007568359 5
  endloop
 endfacet
 facet normal 1 0 0
  outer loop
   vertex -41.96978759765625 -6.2813453674316406 0
   vertex -41.96978759765625 15.193264007568359 0
   vertex -41.96978759765625 -6.2813453674316406 5
  endloop
 endfacet
 facet normal 1 0 -0
  outer loop
   vertex -41.96978759765625 -6.2813453674316406 5
   vertex -41.96978759765625 15.193264007568359 0
   vertex -41.96978759765625 15.193264007568359 5
  endloop
 endfacet
 facet normal 0 -1 0
  outer loop
   vertex -44.81158447265625 -6.2813453674316406 0
   vertex -41.96978759765625 -6.2813453674316406 0
   vertex -44.81158447265625 -6.2813453674316406 5
  endloop
 endfacet
 facet normal 0 -1 0
  outer loop
   vertex -44.81158447265625 -6.2813453674316406 5
   vertex -41.96978759765625 -6.2813453674316406 0
   vertex -41.96978759765625 -6.2813453674316406 5
  endloop
 endfacet
 facet normal -1 0 0
  outer loop
   vertex -44.81158447265625 3.8407247066497803 0
   vertex -44.81158447265625 -6.2813453674316406 0
   vertex -44.81158447265625 3.8407247066497803 5
  endloop
 endfacet
 facet normal -1 0 0
  outer loop
   vertex -44.81158447265625 3.8407247066497803 5
   vertex -44.81158447265625 -6.2813453674316406 0
   vertex -44.81158447265625 -6.2813453674316406 5
  endloop
 endfacet
 facet normal 0 -1 0
  outer loop
   vertex -55.97369384765625 3.8407247066497803 0
   vertex -44.81158447265625 3.8407247066497803 0
   vertex -55.97369384765625 3.8407247066497803 5
  endloop
 endfacet
 facet normal 0 -1 0
  outer loop
   vertex -55.97369384765625 3.8407247066497803 5
   vertex -44.81158447265625 3.8407247066497803 0
   vertex -44.81158447265625 3.8407247066497803 5
  endloop
 endfacet
 facet normal 1 0 0
  outer loop
   vertex -55.97369384765625 -6.2813453674316406 0
   vertex -55.97369384765625 3.8407247066497803 0
   vertex -55.97369384765625 -6.2813453674316406 5
  endloop
 endfacet
 facet normal 1 0 -0
  outer loop
   vertex -55.97369384765625 -6.2813453674316406 5
   vertex -55.97369384765625 3.8407247066497803 0
   vertex -55.97369384765625 3.8407247066497803 5
  endloop
 endfacet
 facet normal 0 -1 0
  outer loop
   vertex -58.81549072265625 -6.2813453674316406 0
   vertex -55.97369384765625 -6.2813453674316406 0
   vertex -58.81549072265625 -6.2813453674316406 5
  endloop
 endfacet
 facet normal 0 -1 0
  outer loop
   vertex -58.81549072265625 -6.2813453674316406 5
   vertex -55.97369384765625 -6.2813453674316406 0
   vertex -55.97369384765625 -6.2813453674316406 5
  endloop
 endfacet
 facet normal 0 0 1
  outer loop
   vertex -55.97369384765625 -6.2813453674316406 5
   vertex -55.97369384765625 3.8407247066497803 5
   vertex -58.81549072265625 -6.2813453674316406 5
  endloop
 endfacet
 facet normal 0 0 1
  outer loop
   vertex -58.81549072265625 -6.2813453674316406 5
   vertex -55.97369384765625 3.8407247066497803 5
   vertex -58.81549072265625 15.193264007568359 5
  endloop
 endfacet
 facet normal 0 -0 1
  outer loop
   vertex -58.81549072265625 15.193264007568359 5
   vertex -55.97369384765625 3.8407247066497803 5
   vertex -55.97369384765625 6.3749046325683594 5
  endloop
 endfacet
 facet normal 0 -0 1
  outer loop
   vertex -58.81549072265625 15.193264007568359 5
   vertex -55.97369384765625 6.3749046325683594 5
   vertex -55.97369384765625 15.193264007568359 5
  endloop
 endfacet
 facet normal 0 0 1
  outer loop
   vertex -55.97369384765625 3.8407247066497803 5
   vertex -44.81158447265625 3.8407247066497803 5
   vertex -55.97369384765625 6.3749046325683594 5
  endloop
 endfacet
 facet normal 0 -0 1
  outer loop
   vertex -55.97369384765625 6.3749046325683594 5
   vertex -44.81158447265625 3.8407247066497803 5
   vertex -44.81158447265625 6.3749046325683594 5
  endloop
 endfacet
 facet normal 0 0 1
  outer loop
   vertex -44.81158447265625 6.3749046325683594 5
   vertex -44.81158447265625 3.8407247066497803 5
   vertex -41.96978759765625 15.193264007568359 5
  endloop
 endfacet
 facet normal 0 0 1
  outer loop
   vertex -44.81158447265625 6.3749046325683594 5
   vertex -41.96978759765625 15.193264007568359 5
   vertex -44.81158447265625 15.193264007568359 5
  endloop
 endfacet
 facet normal 0 0 1
  outer loop
   vertex -44.81158447265625 -6.2813453674316406 5
   vertex -41.96978759765625 -6.2813453674316406 5
   vertex -44.81158447265625 3.8407247066497803 5
  endloop
 endfacet
 facet normal 0 -0 1
  outer loop
   vertex -44.81158447265625 3.8407247066497803 5
   vertex -41.96978759765625 -6.2813453674316406 5
   vertex -41.96978759765625 15.193264007568359 5
  endloop
 endfacet
 facet normal 0 0 -1
  outer loop
   vertex -55.97369384765625 -6.2813453674316406 0
   vertex -58.81549072265625 -6.2813453674316406 0
   vertex -55.97369384765625 3.8407247066497803 0
  endloop
 endfacet
 facet normal 0 0 -1
  outer loop
   vertex -55.97369384765625 3.8407247066497803 0
   vertex -58.81549072265625 -6.2813453674316406 0
   vertex -58.81549072265625 15.193264007568359 0
  endloop
 endfacet
 facet normal 0 0 -1
  outer loop
   vertex -55.97369384765625 3.8407247066497803 0
   vertex -58.81549072265625 15.193264007568359 0
   vertex -55.97369384765625 6.3749046325683594 0
  endloop
 endfacet
 facet normal 0 0 -1
  outer loop
   vertex -55.97369384765625 6.3749046325683594 0
   vertex -58.81549072265625 15.193264007568359 0
   vertex -55.97369384765625 15.193264007568359 0
  endloop
 endfacet
 facet normal -0 0 -1
  outer loop
   vertex -55.97369384765625 6.3749046325683594 0
   vertex -44.81158447265625 6.3749046325683594 0
   vertex -55.97369384765625 3.8407247066497803 0
  endloop
 endfacet
 facet normal 0 -0 -1
  outer loop
   vertex -55.97369384765625 3.8407247066497803 0
   vertex -44.81158447265625 6.3749046325683594 0
   vertex -44.81158447265625 3.8407247066497803 0
  endloop
 endfacet
 facet normal 0 0 -1
  outer loop
   vertex -44.81158447265625 3.8407247066497803 0
   vertex -44.81158447265625 6.3749046325683594 0
   vertex -41.96978759765625 15.193264007568359 0
  endloop
 endfacet
 facet normal 0 -0 -1
  outer loop
   vertex -44.81158447265625 3.8407247066497803 0
   vertex -41.96978759765625 15.193264007568359 0
   vertex -41.96978759765625 -6.2813453674316406 0
  endloop
 endfacet
 facet normal 0 0 -1
  outer loop
   vertex -44.81158447265625 6.3749046325683594 0
   vertex -44.81158447265625 15.193264007568359 0
   vertex -41.96978759765625 15.193264007568359 0
  endloop
 endfacet
 facet normal 0 0 -1
  outer loop
   vertex -41.96978759765625 -6.2813453674316406 0
   vertex -44.81158447265625 -6.2813453674316406 0
   vertex -44.81158447265625 3.8407247066497803 0
  endloop
 endfacet
endsolid
