solid Visualization Toolkit generated SLA File
 facet normal -1 0 0
  outer loop
   vertex -28.419984817504883 15.193264007568359 0
   vertex -28.419984817504883 -6.2813453674316406 0
   vertex -28.419984817504883 15.193264007568359 5
  endloop
 endfacet
 facet normal -1 0 0
  outer loop
   vertex -28.419984817504883 15.193264007568359 5
   vertex -28.419984817504883 -6.2813453674316406 0
   vertex -28.419984817504883 -6.2813453674316406 5
  endloop
 endfacet
 facet normal 0 1 0
  outer loop
   vertex -25.578187942504883 15.193264007568359 0
   vertex -28.419984817504883 15.193264007568359 0
   vertex -25.578187942504883 15.193264007568359 5
  endloop
 endfacet
 facet normal 0 1 0
  outer loop
   vertex -25.578187942504883 15.193264007568359 5
   vertex -28.419984817504883 15.193264007568359 0
   vertex -28.419984817504883 15.193264007568359 5
  endloop
 endfacet
 facet normal 1 0 0
  outer loop
   vertex -25.578187942504883 -6.2813453674316406 0
   vertex -25.578187942504883 15.193264007568359 0
   vertex -25.578187942504883 -6.2813453674316406 5
  endloop
 endfacet
 facet normal 1 0 -0
  outer loop
   vertex -25.578187942504883 -6.2813453674316406 5
   vertex -25.578187942504883 15.193264007568359 0
   vertex -25.578187942504883 15.193264007568359 5
  endloop
 endfacet
 facet normal 0 -1 0
  outer loop
   vertex -28.419984817504883 -6.2813453674316406 0
   vertex -25.578187942504883 -6.2813453674316406 0
   vertex -28.419984817504883 -6.2813453674316406 5
  endloop
 endfacet
 facet normal 0 -1 0
  outer loop
   vertex -28.419984817504883 -6.2813453674316406 5
   vertex -25.578187942504883 -6.2813453674316406 0
   vertex -25.578187942504883 -6.2813453674316406 5
  endloop
 endfacet
 facet normal 0 0 1
  outer loop
   vertex -28.419984817504883 -6.2813453674316406 5
   vertex -25.578187942504883 -6.2813453674316406 5
   vertex -28.419984817504883 15.193264007568359 5
  endloop
 endfacet
 facet normal 0 -0 1
  outer loop
   vertex -28.419984817504883 15.193264007568359 5
   vertex -25.578187942504883 -6.2813453674316406 5
   vertex -25.578187942504883 15.193264007568359 5
  endloop
 endfacet
 facet normal 0 0 -1
  outer loop
   vertex -25.578187942504883 -6.2813453674316406 0
   vertex -28.419984817504883 -6.2813453674316406 0
   vertex -25.578187942504883 15.193264007568359 0
  endloop
 endfacet
 facet normal 0 0 -1
  outer loop
   vertex -25.578187942504883 15.193264007568359 0
   vertex -28.419984817504883 -6.2813453674316406 0
   vertex -28.419984817504883 15.193264007568359 0
  endloop
 endfacet
endsolid
