solid Visualization Toolkit generated SLA File
 facet normal -0.13587106669385787 0.9907265279760471 0
  outer loop
   vertex -11.120179176330566 0.16396690905094147 0
   vertex -13.683655738830566 -0.18759559094905853 0
   vertex -11.120179176330566 0.16396690905094147 5
  endloop
 endfacet
 facet normal -0.13587106669385787 0.9907265279760471 0
  outer loop
   vertex -11.120179176330566 0.16396690905094147 5
   vertex -13.683655738830566 -0.18759559094905853 0
   vertex -13.683655738830566 -0.18759559094905853 5
  endloop
 endfacet
 facet normal 0.86908270852931702 0.49466680274235736 0
  outer loop
   vertex -10.197327613830566 -3.2051737308502197 0
   vertex -10.418577194213867 -2.8164591789245605 0
   vertex -10.197327613830566 -3.2051737308502197 5
  endloop
 endfacet
 facet normal 0.86908270852931702 0.49466680274235736 -0
  outer loop
   vertex -10.197327613830566 -3.2051737308502197 5
   vertex -10.418577194213867 -2.8164591789245605 0
   vertex -10.418577194213867 -2.8164591789245605 5
  endloop
 endfacet
 facet normal 0.88630298466407242 0.46310584036001623 -0
  outer loop
   vertex -10.418577194213867 -2.8164591789245605 5
   vertex -10.418577194213867 -2.8164591789245605 0
   vertex -10.624188423156738 -2.4229555130004883 0
  endloop
 endfacet
 facet normal 0.88630298466407242 0.46310584036001623 -0
  outer loop
   vertex -10.418577194213867 -2.8164591789245605 5
   vertex -10.624188423156738 -2.4229555130004883 0
   vertex -10.624188423156738 -2.4229555130004883 5
  endloop
 endfacet
 facet normal 0.90843356174980805 0.41802926199795826 -0
  outer loop
   vertex -10.624188423156738 -2.4229555130004883 5
   vertex -10.624188423156738 -2.4229555130004883 0
   vertex -10.716241836547852 -2.2229111194610596 0
  endloop
 endfacet
 facet normal 0.90843356174980805 0.41802926199795826 -0
  outer loop
   vertex -10.624188423156738 -2.4229555130004883 5
   vertex -10.716241836547852 -2.2229111194610596 0
   vertex -10.716241836547852 -2.2229111194610596 5
  endloop
 endfacet
 facet normal 0.92679232861393457 0.37557419988913043 -0
  outer loop
   vertex -10.716241836547852 -2.2229111194610596 5
   vertex -10.716241836547852 -2.2229111194610596 0
   vertex -10.798521041870117 -2.0198733806610107 0
  endloop
 endfacet
 facet normal 0.92679232861393457 0.37557419988913043 -0
  outer loop
   vertex -10.716241836547852 -2.2229111194610596 5
   vertex -10.798521041870117 -2.0198733806610107 0
   vertex -10.798521041870117 -2.0198733806610107 5
  endloop
 endfacet
 facet normal 0.94627481171771932 0.32336354263985129 -0
  outer loop
   vertex -10.798521041870117 -2.0198733806610107 5
   vertex -10.798521041870117 -2.0198733806610107 0
   vertex -10.869125366210938 -1.8132604360580444 0
  endloop
 endfacet
 facet normal 0.94627481171771932 0.32336354263985129 -0
  outer loop
   vertex -10.798521041870117 -2.0198733806610107 5
   vertex -10.869125366210938 -1.8132604360580444 0
   vertex -10.869125366210938 -1.8132604360580444 5
  endloop
 endfacet
 facet normal 0.96339001270642521 0.26810386684550785 -0
  outer loop
   vertex -10.869125366210938 -1.8132604360580444 5
   vertex -10.869125366210938 -1.8132604360580444 0
   vertex -10.927653312683105 -1.6029492616653442 0
  endloop
 endfacet
 facet normal 0.96339001270642521 0.26810386684550785 -0
  outer loop
   vertex -10.869125366210938 -1.8132604360580444 5
   vertex -10.927653312683105 -1.6029492616653442 0
   vertex -10.927653312683105 -1.6029492616653442 5
  endloop
 endfacet
 facet normal 0.97595079907792104 0.21799091214811506 -0
  outer loop
   vertex -10.927653312683105 -1.6029492616653442 5
   vertex -10.927653312683105 -1.6029492616653442 0
   vertex -10.975368499755859 -1.3893271684646606 0
  endloop
 endfacet
 facet normal 0.97595079907792104 0.21799091214811506 -0
  outer loop
   vertex -10.927653312683105 -1.6029492616653442 5
   vertex -10.975368499755859 -1.3893271684646606 0
   vertex -10.975368499755859 -1.3893271684646606 5
  endloop
 endfacet
 facet normal 0.98474663422346731 0.17399444354792709 -0
  outer loop
   vertex -10.975368499755859 -1.3893271684646606 5
   vertex -10.975368499755859 -1.3893271684646606 0
   vertex -11.013625144958496 -1.1728081703186035 0
  endloop
 endfacet
 facet normal 0.98474663422346731 0.17399444354792709 -0
  outer loop
   vertex -10.975368499755859 -1.3893271684646606 5
   vertex -11.013625144958496 -1.1728081703186035 0
   vertex -11.013625144958496 -1.1728081703186035 5
  endloop
 endfacet
 facet normal 0.99268111188668495 0.12076510300337055 -0
  outer loop
   vertex -11.013625144958496 -1.1728081703186035 5
   vertex -11.013625144958496 -1.1728081703186035 0
   vertex -11.06716251373291 -0.7327345609664917 0
  endloop
 endfacet
 facet normal 0.99268111188668495 0.12076510300337055 -0
  outer loop
   vertex -11.013625144958496 -1.1728081703186035 5
   vertex -11.06716251373291 -0.7327345609664917 0
   vertex -11.06716251373291 -0.7327345609664917 5
  endloop
 endfacet
 facet normal 0.9974575967756828 0.071262491076859003 -0
  outer loop
   vertex -11.06716251373291 -0.7327345609664917 5
   vertex -11.06716251373291 -0.7327345609664917 0
   vertex -11.099076271057129 -0.28603926301002502 0
  endloop
 endfacet
 facet normal 0.9974575967756828 0.071262491076859003 -0
  outer loop
   vertex -11.06716251373291 -0.7327345609664917 5
   vertex -11.099076271057129 -0.28603926301002502 0
   vertex -11.099076271057129 -0.28603926301002502 5
  endloop
 endfacet
 facet normal 0.99890225368853847 0.046843223372848755 -0
  outer loop
   vertex -11.099076271057129 -0.28603926301002502 5
   vertex -11.099076271057129 -0.28603926301002502 0
   vertex -11.120179176330566 0.16396690905094147 0
  endloop
 endfacet
 facet normal 0.99890225368853847 0.046843223372848755 -0
  outer loop
   vertex -11.099076271057129 -0.28603926301002502 5
   vertex -11.120179176330566 0.16396690905094147 0
   vertex -11.120179176330566 0.16396690905094147 5
  endloop
 endfacet
 facet normal 0.072420694213489595 0.99737417404384199 0
  outer loop
   vertex -7.9268198013305664 -4.1133766174316406 0
   vertex -8.2478399276733398 -4.0900669097900391 0
   vertex -7.9268198013305664 -4.1133766174316406 5
  endloop
 endfacet
 facet normal 0.072420694213489595 0.99737417404384199 -0
  outer loop
   vertex -7.9268198013305664 -4.1133766174316406 5
   vertex -8.2478399276733398 -4.0900669097900391 0
   vertex -8.2478399276733398 -4.0900669097900391 5
  endloop
 endfacet
 facet normal 0.10829369745628592 0.99411894413658897 -0
  outer loop
   vertex -8.2478399276733398 -4.0900669097900391 5
   vertex -8.2478399276733398 -4.0900669097900391 0
   vertex -8.5642566680908203 -4.055598258972168 0
  endloop
 endfacet
 facet normal 0.10829369745628592 0.99411894413658897 -0
  outer loop
   vertex -8.2478399276733398 -4.0900669097900391 5
   vertex -8.5642566680908203 -4.055598258972168 0
   vertex -8.5642566680908203 -4.055598258972168 5
  endloop
 endfacet
 facet normal 0.18176607800087888 0.98334179860726878 -0
  outer loop
   vertex -8.5642566680908203 -4.055598258972168 5
   vertex -8.5642566680908203 -4.055598258972168 0
   vertex -8.8714704513549805 -3.9988112449645996 0
  endloop
 endfacet
 facet normal 0.18176607800087888 0.98334179860726878 -0
  outer loop
   vertex -8.5642566680908203 -4.055598258972168 5
   vertex -8.8714704513549805 -3.9988112449645996 0
   vertex -8.8714704513549805 -3.9988112449645996 5
  endloop
 endfacet
 facet normal 0.26124810955499594 0.9652716846846493 -0
  outer loop
   vertex -8.8714704513549805 -3.9988112449645996 5
   vertex -8.8714704513549805 -3.9988112449645996 0
   vertex -9.0201873779296875 -3.9585614204406738 0
  endloop
 endfacet
 facet normal 0.26124810955499594 0.9652716846846493 -0
  outer loop
   vertex -8.8714704513549805 -3.9988112449645996 5
   vertex -9.0201873779296875 -3.9585614204406738 0
   vertex -9.0201873779296875 -3.9585614204406738 5
  endloop
 endfacet
 facet normal 0.32669876810121184 0.94512851767426354 -0
  outer loop
   vertex -9.0201873779296875 -3.9585614204406738 5
   vertex -9.0201873779296875 -3.9585614204406738 0
   vertex -9.1648769378662109 -3.9085471630096436 0
  endloop
 endfacet
 facet normal 0.32669876810121184 0.94512851767426354 -0
  outer loop
   vertex -9.0201873779296875 -3.9585614204406738 5
   vertex -9.1648769378662109 -3.9085471630096436 0
   vertex -9.1648769378662109 -3.9085471630096436 5
  endloop
 endfacet
 facet normal 0.39945098715779259 0.91675455213413859 -0
  outer loop
   vertex -9.1648769378662109 -3.9085471630096436 5
   vertex -9.1648769378662109 -3.9085471630096436 0
   vertex -9.3050117492675781 -3.847487211227417 0
  endloop
 endfacet
 facet normal 0.39945098715779259 0.91675455213413859 -0
  outer loop
   vertex -9.1648769378662109 -3.9085471630096436 5
   vertex -9.3050117492675781 -3.847487211227417 0
   vertex -9.3050117492675781 -3.847487211227417 5
  endloop
 endfacet
 facet normal 0.46758016849438161 0.88395066945546552 -0
  outer loop
   vertex -9.3050117492675781 -3.847487211227417 5
   vertex -9.3050117492675781 -3.847487211227417 0
   vertex -9.4407224655151367 -3.7757008075714111 0
  endloop
 endfacet
 facet normal 0.46758016849438161 0.88395066945546552 -0
  outer loop
   vertex -9.3050117492675781 -3.847487211227417 5
   vertex -9.4407224655151367 -3.7757008075714111 0
   vertex -9.4407224655151367 -3.7757008075714111 5
  endloop
 endfacet
 facet normal 0.52330161124969521 0.85214753632424067 -0
  outer loop
   vertex -9.4407224655151367 -3.7757008075714111 5
   vertex -9.4407224655151367 -3.7757008075714111 0
   vertex -9.5726308822631836 -3.6946961879730225 0
  endloop
 endfacet
 facet normal 0.52330161124969521 0.85214753632424067 -0
  outer loop
   vertex -9.4407224655151367 -3.7757008075714111 5
   vertex -9.5726308822631836 -3.6946961879730225 0
   vertex -9.5726308822631836 -3.6946961879730225 5
  endloop
 endfacet
 facet normal 0.56729673233462485 0.82351345919933638 -0
  outer loop
   vertex -9.5726308822631836 -3.6946961879730225 5
   vertex -9.5726308822631836 -3.6946961879730225 0
   vertex -9.7013721466064453 -3.6060097217559814 0
  endloop
 endfacet
 facet normal 0.56729673233462485 0.82351345919933638 -0
  outer loop
   vertex -9.5726308822631836 -3.6946961879730225 5
   vertex -9.7013721466064453 -3.6060097217559814 0
   vertex -9.7013721466064453 -3.6060097217559814 5
  endloop
 endfacet
 facet normal 0.61281920634547893 0.7902231459113922 -0
  outer loop
   vertex -9.7013721466064453 -3.6060097217559814 5
   vertex -9.7013721466064453 -3.6060097217559814 0
   vertex -9.9518842697143555 -3.4117372035980225 0
  endloop
 endfacet
 facet normal 0.61281920634547893 0.7902231459113922 -0
  outer loop
   vertex -9.7013721466064453 -3.6060097217559814 5
   vertex -9.9518842697143555 -3.4117372035980225 0
   vertex -9.9518842697143555 -3.4117372035980225 5
  endloop
 endfacet
 facet normal 0.64390653227380668 0.76510416133695236 -0
  outer loop
   vertex -9.9518842697143555 -3.4117372035980225 5
   vertex -9.9518842697143555 -3.4117372035980225 0
   vertex -10.197327613830566 -3.2051737308502197 0
  endloop
 endfacet
 facet normal 0.64390653227380668 0.76510416133695236 -0
  outer loop
   vertex -9.9518842697143555 -3.4117372035980225 5
   vertex -10.197327613830566 -3.2051737308502197 0
   vertex -10.197327613830566 -3.2051737308502197 5
  endloop
 endfacet
 facet normal -0.44193585791677442 0.89704665290461028 0
  outer loop
   vertex -6.0811166763305664 -3.6226541996002197 0
   vertex -6.5174350738525391 -3.8376092910766602 0
   vertex -6.0811166763305664 -3.6226541996002197 5
  endloop
 endfacet
 facet normal -0.44193585791677442 0.89704665290461028 0
  outer loop
   vertex -6.0811166763305664 -3.6226541996002197 5
   vertex -6.5174350738525391 -3.8376092910766602 0
   vertex -6.5174350738525391 -3.8376092910766602 5
  endloop
 endfacet
 facet normal -0.37939105547382324 0.92523641682894131 0
  outer loop
   vertex -6.5174350738525391 -3.8376092910766602 5
   vertex -6.5174350738525391 -3.8376092910766602 0
   vertex -6.7400054931640625 -3.9288737773895264 0
  endloop
 endfacet
 facet normal -0.37939105547382324 0.92523641682894131 0
  outer loop
   vertex -6.5174350738525391 -3.8376092910766602 5
   vertex -6.7400054931640625 -3.9288737773895264 0
   vertex -6.7400054931640625 -3.9288737773895264 5
  endloop
 endfacet
 facet normal -0.30060142219639224 0.95374985450772487 0
  outer loop
   vertex -6.7400054931640625 -3.9288737773895264 5
   vertex -6.7400054931640625 -3.9288737773895264 0
   vertex -6.967867374420166 -4.0006909370422363 0
  endloop
 endfacet
 facet normal -0.30060142219639224 0.95374985450772487 0
  outer loop
   vertex -6.7400054931640625 -3.9288737773895264 5
   vertex -6.967867374420166 -4.0006909370422363 0
   vertex -6.967867374420166 -4.0006909370422363 5
  endloop
 endfacet
 facet normal -0.2053725100719215 0.97868387751447017 0
  outer loop
   vertex -6.967867374420166 -4.0006909370422363 5
   vertex -6.967867374420166 -4.0006909370422363 0
   vertex -7.2019076347351074 -4.0498032569885254 0
  endloop
 endfacet
 facet normal -0.2053725100719215 0.97868387751447017 0
  outer loop
   vertex -6.967867374420166 -4.0006909370422363 5
   vertex -7.2019076347351074 -4.0498032569885254 0
   vertex -7.2019076347351074 -4.0498032569885254 5
  endloop
 endfacet
 facet normal -0.12933402319916809 0.99160108432933713 0
  outer loop
   vertex -7.2019076347351074 -4.0498032569885254 5
   vertex -7.2019076347351074 -4.0498032569885254 0
   vertex -7.4408316612243652 -4.0809659957885742 0
  endloop
 endfacet
 facet normal -0.12933402319916809 0.99160108432933713 0
  outer loop
   vertex -7.2019076347351074 -4.0498032569885254 5
   vertex -7.4408316612243652 -4.0809659957885742 0
   vertex -7.4408316612243652 -4.0809659957885742 5
  endloop
 endfacet
 facet normal -0.066542337460565495 0.99778360245360032 0
  outer loop
   vertex -7.4408316612243652 -4.0809659957885742 5
   vertex -7.4408316612243652 -4.0809659957885742 0
   vertex -7.9268198013305664 -4.1133766174316406 0
  endloop
 endfacet
 facet normal -0.066542337460565495 0.99778360245360032 0
  outer loop
   vertex -7.4408316612243652 -4.0809659957885742 5
   vertex -7.9268198013305664 -4.1133766174316406 0
   vertex -7.9268198013305664 -4.1133766174316406 5
  endloop
 endfacet
 facet normal -0.90485259775085614 0.42572500084388659 0
  outer loop
   vertex -5.0117807388305664 -2.2896463871002197 0
   vertex -5.1987991333007812 -2.6871426105499268 0
   vertex -5.0117807388305664 -2.2896463871002197 5
  endloop
 endfacet
 facet normal -0.90485259775085614 0.42572500084388659 0
  outer loop
   vertex -5.0117807388305664 -2.2896463871002197 5
   vertex -5.1987991333007812 -2.6871426105499268 0
   vertex -5.1987991333007812 -2.6871426105499268 5
  endloop
 endfacet
 facet normal -0.86823554222820098 0.4961522379388224 0
  outer loop
   vertex -5.1987991333007812 -2.6871426105499268 5
   vertex -5.1987991333007812 -2.6871426105499268 0
   vertex -5.3060789108276367 -2.874875545501709 0
  endloop
 endfacet
 facet normal -0.86823554222820098 0.4961522379388224 0
  outer loop
   vertex -5.1987991333007812 -2.6871426105499268 5
   vertex -5.3060789108276367 -2.874875545501709 0
   vertex -5.3060789108276367 -2.874875545501709 5
  endloop
 endfacet
 facet normal -0.8156041366682063 0.57861031121965811 0
  outer loop
   vertex -5.3060789108276367 -2.874875545501709 5
   vertex -5.3060789108276367 -2.874875545501709 0
   vertex -5.4298839569091797 -3.0493900775909424 0
  endloop
 endfacet
 facet normal -0.8156041366682063 0.57861031121965811 0
  outer loop
   vertex -5.3060789108276367 -2.874875545501709 5
   vertex -5.4298839569091797 -3.0493900775909424 0
   vertex -5.4298839569091797 -3.0493900775909424 5
  endloop
 endfacet
 facet normal -0.74051532861141645 0.67203946914710755 0
  outer loop
   vertex -5.4298839569091797 -3.0493900775909424 5
   vertex -5.4298839569091797 -3.0493900775909424 0
   vertex -5.5737199783325195 -3.2078819274902344 0
  endloop
 endfacet
 facet normal -0.74051532861141645 0.67203946914710755 0
  outer loop
   vertex -5.4298839569091797 -3.0493900775909424 5
   vertex -5.5737199783325195 -3.2078819274902344 0
   vertex -5.5737199783325195 -3.2078819274902344 5
  endloop
 endfacet
 facet normal -0.67252329496893271 0.74007595402372717 0
  outer loop
   vertex -5.5737199783325195 -3.2078819274902344 5
   vertex -5.5737199783325195 -3.2078819274902344 0
   vertex -5.7338175773620605 -3.3533661365509033 0
  endloop
 endfacet
 facet normal -0.67252329496893271 0.74007595402372717 0
  outer loop
   vertex -5.5737199783325195 -3.2078819274902344 5
   vertex -5.7338175773620605 -3.3533661365509033 0
   vertex -5.7338175773620605 -3.3533661365509033 5
  endloop
 endfacet
 facet normal -0.61275825167038112 0.79027041258663966 0
  outer loop
   vertex -5.7338175773620605 -3.3533661365509033 5
   vertex -5.7338175773620605 -3.3533661365509033 0
   vertex -6.0811166763305664 -3.6226541996002197 0
  endloop
 endfacet
 facet normal -0.61275825167038112 0.79027041258663966 0
  outer loop
   vertex -5.7338175773620605 -3.3533661365509033 5
   vertex -6.0811166763305664 -3.6226541996002197 0
   vertex -6.0811166763305664 -3.6226541996002197 5
  endloop
 endfacet
 facet normal -0.99995620452482703 0.0093589012337055889 0
  outer loop
   vertex -4.7188119888305664 0.39834189414978027 0
   vertex -4.7251782417297363 -0.28186339139938354 0
   vertex -4.7188119888305664 0.39834189414978027 5
  endloop
 endfacet
 facet normal -0.99995620452482703 0.0093589012337055889 0
  outer loop
   vertex -4.7188119888305664 0.39834189414978027 5
   vertex -4.7251782417297363 -0.28186339139938354 0
   vertex -4.7251782417297363 -0.28186339139938354 5
  endloop
 endfacet
 facet normal -0.99922109495969491 0.039461416441234562 0
  outer loop
   vertex -4.7251782417297363 -0.28186339139938354 5
   vertex -4.7251782417297363 -0.28186339139938354 0
   vertex -4.7385601997375488 -0.62071424722671509 0
  endloop
 endfacet
 facet normal -0.99922109495969491 0.039461416441234562 0
  outer loop
   vertex -4.7251782417297363 -0.28186339139938354 5
   vertex -4.7385601997375488 -0.62071424722671509 0
   vertex -4.7385601997375488 -0.62071424722671509 5
  endloop
 endfacet
 facet normal -0.99712837141840627 0.075729854829366616 0
  outer loop
   vertex -4.7385601997375488 -0.62071424722671509 5
   vertex -4.7385601997375488 -0.62071424722671509 0
   vertex -4.7641811370849609 -0.95806288719177246 0
  endloop
 endfacet
 facet normal -0.99712837141840627 0.075729854829366616 0
  outer loop
   vertex -4.7385601997375488 -0.62071424722671509 5
   vertex -4.7641811370849609 -0.95806288719177246 0
   vertex -4.7641811370849609 -0.95806288719177246 5
  endloop
 endfacet
 facet normal -0.99228502742296665 0.1239775155106862 0
  outer loop
   vertex -4.7641811370849609 -0.95806288719177246 5
   vertex -4.7641811370849609 -0.95806288719177246 0
   vertex -4.8060803413391113 -1.2934136390686035 0
  endloop
 endfacet
 facet normal -0.99228502742296665 0.1239775155106862 0
  outer loop
   vertex -4.7641811370849609 -0.95806288719177246 5
   vertex -4.8060803413391113 -1.2934136390686035 0
   vertex -4.8060803413391113 -1.2934136390686035 5
  endloop
 endfacet
 facet normal -0.98477423822187315 0.17383814234663655 0
  outer loop
   vertex -4.8060803413391113 -1.2934136390686035 5
   vertex -4.8060803413391113 -1.2934136390686035 0
   vertex -4.8649115562438965 -1.6266860961914062 0
  endloop
 endfacet
 facet normal -0.98477423822187315 0.17383814234663655 0
  outer loop
   vertex -4.8060803413391113 -1.2934136390686035 5
   vertex -4.8649115562438965 -1.6266860961914062 0
   vertex -4.8649115562438965 -1.6266860961914062 5
  endloop
 endfacet
 facet normal -0.97632884999091352 0.21629141609278044 0
  outer loop
   vertex -4.8649115562438965 -1.6266860961914062 5
   vertex -4.8649115562438965 -1.6266860961914062 0
   vertex -5.0117807388305664 -2.2896463871002197 0
  endloop
 endfacet
 facet normal -0.97632884999091352 0.21629141609278044 0
  outer loop
   vertex -4.8649115562438965 -1.6266860961914062 5
   vertex -5.0117807388305664 -2.2896463871002197 0
   vertex -5.0117807388305664 -2.2896463871002197 5
  endloop
 endfacet
 facet normal -1 0 0
  outer loop
   vertex -4.7188119888305664 15.193264007568359 0
   vertex -4.7188119888305664 0.39834189414978027 0
   vertex -4.7188119888305664 15.193264007568359 5
  endloop
 endfacet
 facet normal -1 0 0
  outer loop
   vertex -4.7188119888305664 15.193264007568359 5
   vertex -4.7188119888305664 0.39834189414978027 0
   vertex -4.7188119888305664 0.39834189414978027 5
  endloop
 endfacet
 facet normal 0 1 0
  outer loop
   vertex -1.8770151138305664 15.193264007568359 0
   vertex -4.7188119888305664 15.193264007568359 0
   vertex -1.8770151138305664 15.193264007568359 5
  endloop
 endfacet
 facet normal 0 1 0
  outer loop
   vertex -1.8770151138305664 15.193264007568359 5
   vertex -4.7188119888305664 15.193264007568359 0
   vertex -4.7188119888305664 15.193264007568359 5
  endloop
 endfacet
 facet normal 1 0 0
  outer loop
   vertex -1.8770151138305664 0.55947470664978027 0
   vertex -1.8770151138305664 15.193264007568359 0
   vertex -1.8770151138305664 0.55947470664978027 5
  endloop
 endfacet
 facet normal 1 0 -0
  outer loop
   vertex -1.8770151138305664 0.55947470664978027 5
   vertex -1.8770151138305664 15.193264007568359 0
   vertex -1.8770151138305664 15.193264007568359 5
  endloop
 endfacet
 facet normal 0.95325057223196397 -0.30218098308701269 0
  outer loop
   vertex -2.5288705825805664 -3.6153299808502197 0
   vertex -2.3677215576171875 -3.1069743633270264 0
   vertex -2.5288705825805664 -3.6153299808502197 5
  endloop
 endfacet
 facet normal 0.95325057223196397 -0.30218098308701269 0
  outer loop
   vertex -2.5288705825805664 -3.6153299808502197 5
   vertex -2.3677215576171875 -3.1069743633270264 0
   vertex -2.3677215576171875 -3.1069743633270264 5
  endloop
 endfacet
 facet normal 0.9594393098463353 -0.28191525450317123 0
  outer loop
   vertex -2.3677215576171875 -3.1069743633270264 5
   vertex -2.3677215576171875 -3.1069743633270264 0
   vertex -2.2177913188934326 -2.5967183113098145 0
  endloop
 endfacet
 facet normal 0.9594393098463353 -0.28191525450317123 0
  outer loop
   vertex -2.3677215576171875 -3.1069743633270264 5
   vertex -2.2177913188934326 -2.5967183113098145 0
   vertex -2.2177913188934326 -2.5967183113098145 5
  endloop
 endfacet
 facet normal 0.97059485259929767 -0.24071898991925789 0
  outer loop
   vertex -2.2177913188934326 -2.5967183113098145 5
   vertex -2.2177913188934326 -2.5967183113098145 0
   vertex -2.090299129486084 -2.0826613903045654 0
  endloop
 endfacet
 facet normal 0.97059485259929767 -0.24071898991925789 0
  outer loop
   vertex -2.2177913188934326 -2.5967183113098145 5
   vertex -2.090299129486084 -2.0826613903045654 0
   vertex -2.090299129486084 -2.0826613903045654 5
  endloop
 endfacet
 facet normal 0.98056885486648682 -0.1961752300006975 0
  outer loop
   vertex -2.090299129486084 -2.0826613903045654 5
   vertex -2.090299129486084 -2.0826613903045654 0
   vertex -2.03847336769104 -1.8236137628555298 0
  endloop
 endfacet
 facet normal 0.98056885486648682 -0.1961752300006975 0
  outer loop
   vertex -2.090299129486084 -2.0826613903045654 5
   vertex -2.03847336769104 -1.8236137628555298 0
   vertex -2.03847336769104 -1.8236137628555298 5
  endloop
 endfacet
 facet normal 0.9869860536115439 -0.16080587668462468 0
  outer loop
   vertex -2.03847336769104 -1.8236137628555298 5
   vertex -2.03847336769104 -1.8236137628555298 0
   vertex -1.996009349822998 -1.5629802942276001 0
  endloop
 endfacet
 facet normal 0.9869860536115439 -0.16080587668462468 0
  outer loop
   vertex -2.03847336769104 -1.8236137628555298 5
   vertex -1.996009349822998 -1.5629802942276001 0
   vertex -1.996009349822998 -1.5629802942276001 5
  endloop
 endfacet
 facet normal 0.99353520564499187 -0.11352442531879962 0
  outer loop
   vertex -1.996009349822998 -1.5629802942276001 5
   vertex -1.996009349822998 -1.5629802942276001 0
   vertex -1.9359661340713501 -1.0374982357025146 0
  endloop
 endfacet
 facet normal 0.99353520564499187 -0.11352442531879962 0
  outer loop
   vertex -1.996009349822998 -1.5629802942276001 5
   vertex -1.9359661340713501 -1.0374982357025146 0
   vertex -1.9359661340713501 -1.0374982357025146 5
  endloop
 endfacet
 facet normal 0.99793852535982097 -0.064177095623484309 0
  outer loop
   vertex -1.9359661340713501 -1.0374982357025146 5
   vertex -1.9359661340713501 -1.0374982357025146 0
   vertex -1.9018896818161011 -0.5076175332069397 0
  endloop
 endfacet
 facet normal 0.99793852535982097 -0.064177095623484309 0
  outer loop
   vertex -1.9359661340713501 -1.0374982357025146 5
   vertex -1.9018896818161011 -0.5076175332069397 0
   vertex -1.9018896818161011 -0.5076175332069397 5
  endloop
 endfacet
 facet normal 0.99950533497307592 -0.031449727508506727 0
  outer loop
   vertex -1.9018896818161011 -0.5076175332069397 5
   vertex -1.9018896818161011 -0.5076175332069397 0
   vertex -1.8851245641708374 0.025195494294166565 0
  endloop
 endfacet
 facet normal 0.99950533497307592 -0.031449727508506727 0
  outer loop
   vertex -1.9018896818161011 -0.5076175332069397 5
   vertex -1.8851245641708374 0.025195494294166565 0
   vertex -1.8851245641708374 0.025195494294166565 5
  endloop
 endfacet
 facet normal 0.99988482949910873 -0.015176552228306356 0
  outer loop
   vertex -1.8851245641708374 0.025195494294166565 5
   vertex -1.8851245641708374 0.025195494294166565 0
   vertex -1.8770151138305664 0.55947470664978027 0
  endloop
 endfacet
 facet normal 0.99988482949910873 -0.015176552228306356 0
  outer loop
   vertex -1.8851245641708374 0.025195494294166565 5
   vertex -1.8770151138305664 0.55947470664978027 0
   vertex -1.8770151138305664 0.55947470664978027 5
  endloop
 endfacet
 facet normal 0.55256730849582092 -0.83346827748972208 0
  outer loop
   vertex -4.5943002700805664 -5.8711891174316406 0
   vertex -4.2659296989440918 -5.6534881591796875 0
   vertex -4.5943002700805664 -5.8711891174316406 5
  endloop
 endfacet
 facet normal 0.55256730849582092 -0.83346827748972208 0
  outer loop
   vertex -4.5943002700805664 -5.8711891174316406 5
   vertex -4.2659296989440918 -5.6534881591796875 0
   vertex -4.2659296989440918 -5.6534881591796875 5
  endloop
 endfacet
 facet normal 0.57744624343312601 -0.81642870842772974 0
  outer loop
   vertex -4.2659296989440918 -5.6534881591796875 5
   vertex -4.2659296989440918 -5.6534881591796875 0
   vertex -3.9465234279632568 -5.4275774955749512 0
  endloop
 endfacet
 facet normal 0.57744624343312601 -0.81642870842772974 0
  outer loop
   vertex -4.2659296989440918 -5.6534881591796875 5
   vertex -3.9465234279632568 -5.4275774955749512 0
   vertex -3.9465234279632568 -5.4275774955749512 5
  endloop
 endfacet
 facet normal 0.62650525620711706 -0.7794171950533646 0
  outer loop
   vertex -3.9465234279632568 -5.4275774955749512 5
   vertex -3.9465234279632568 -5.4275774955749512 0
   vertex -3.6450469493865967 -5.1852469444274902 0
  endloop
 endfacet
 facet normal 0.62650525620711706 -0.7794171950533646 0
  outer loop
   vertex -3.9465234279632568 -5.4275774955749512 5
   vertex -3.6450469493865967 -5.1852469444274902 0
   vertex -3.6450469493865967 -5.1852469444274902 5
  endloop
 endfacet
 facet normal 0.67697926601542602 -0.7360020878946032 0
  outer loop
   vertex -3.6450469493865967 -5.1852469444274902 5
   vertex -3.6450469493865967 -5.1852469444274902 0
   vertex -3.5038340091705322 -5.0553584098815918 0
  endloop
 endfacet
 facet normal 0.67697926601542602 -0.7360020878946032 0
  outer loop
   vertex -3.6450469493865967 -5.1852469444274902 5
   vertex -3.5038340091705322 -5.0553584098815918 0
   vertex -3.5038340091705322 -5.0553584098815918 5
  endloop
 endfacet
 facet normal 0.7167212998444229 -0.69735971947720132 0
  outer loop
   vertex -3.5038340091705322 -5.0553584098815918 5
   vertex -3.5038340091705322 -5.0553584098815918 0
   vertex -3.3704648017883301 -4.9182863235473633 0
  endloop
 endfacet
 facet normal 0.7167212998444229 -0.69735971947720132 0
  outer loop
   vertex -3.5038340091705322 -5.0553584098815918 5
   vertex -3.3704648017883301 -4.9182863235473633 0
   vertex -3.3704648017883301 -4.9182863235473633 5
  endloop
 endfacet
 facet normal 0.7578228726009234 -0.65246033884281784 0
  outer loop
   vertex -3.3704648017883301 -4.9182863235473633 5
   vertex -3.3704648017883301 -4.9182863235473633 0
   vertex -3.2456812858581543 -4.7733521461486816 0
  endloop
 endfacet
 facet normal 0.7578228726009234 -0.65246033884281784 0
  outer loop
   vertex -3.3704648017883301 -4.9182863235473633 5
   vertex -3.2456812858581543 -4.7733521461486816 0
   vertex -3.2456812858581543 -4.7733521461486816 5
  endloop
 endfacet
 facet normal 0.79276721283078 -0.6095245247408152 0
  outer loop
   vertex -3.2456812858581543 -4.7733521461486816 5
   vertex -3.2456812858581543 -4.7733521461486816 0
   vertex -3.1287314891815186 -4.6212434768676758 0
  endloop
 endfacet
 facet normal 0.79276721283078 -0.6095245247408152 0
  outer loop
   vertex -3.2456812858581543 -4.7733521461486816 5
   vertex -3.1287314891815186 -4.6212434768676758 0
   vertex -3.1287314891815186 -4.6212434768676758 5
  endloop
 endfacet
 facet normal 0.8315146144349127 -0.55550287666326137 0
  outer loop
   vertex -3.1287314891815186 -4.6212434768676758 5
   vertex -3.1287314891815186 -4.6212434768676758 0
   vertex -2.9138565063476562 -4.2996039390563965 0
  endloop
 endfacet
 facet normal 0.8315146144349127 -0.55550287666326137 0
  outer loop
   vertex -3.1287314891815186 -4.6212434768676758 5
   vertex -2.9138565063476562 -4.2996039390563965 0
   vertex -2.9138565063476562 -4.2996039390563965 5
  endloop
 endfacet
 facet normal 0.86402272271843328 -0.50345281271061093 0
  outer loop
   vertex -2.9138565063476562 -4.2996039390563965 5
   vertex -2.9138565063476562 -4.2996039390563965 0
   vertex -2.7168872356414795 -3.9615664482116699 0
  endloop
 endfacet
 facet normal 0.86402272271843328 -0.50345281271061093 0
  outer loop
   vertex -2.9138565063476562 -4.2996039390563965 5
   vertex -2.7168872356414795 -3.9615664482116699 0
   vertex -2.7168872356414795 -3.9615664482116699 5
  endloop
 endfacet
 facet normal 0.87878987552847476 -0.47720892140513027 0
  outer loop
   vertex -2.7168872356414795 -3.9615664482116699 5
   vertex -2.7168872356414795 -3.9615664482116699 0
   vertex -2.5288705825805664 -3.6153299808502197 0
  endloop
 endfacet
 facet normal 0.87878987552847476 -0.47720892140513027 0
  outer loop
   vertex -2.7168872356414795 -3.9615664482116699 5
   vertex -2.5288705825805664 -3.6153299808502197 0
   vertex -2.5288705825805664 -3.6153299808502197 5
  endloop
 endfacet
 facet normal 0.047320242858650184 -0.99887976985010485 0
  outer loop
   vertex -7.9121713638305664 -6.6475563049316406 0
   vertex -7.4790821075439453 -6.6270394325256348 0
   vertex -7.9121713638305664 -6.6475563049316406 5
  endloop
 endfacet
 facet normal 0.047320242858650184 -0.99887976985010485 0
  outer loop
   vertex -7.9121713638305664 -6.6475563049316406 5
   vertex -7.4790821075439453 -6.6270394325256348 0
   vertex -7.4790821075439453 -6.6270394325256348 5
  endloop
 endfacet
 facet normal 0.069495689908983957 -0.99758225178883086 0
  outer loop
   vertex -7.4790821075439453 -6.6270394325256348 5
   vertex -7.4790821075439453 -6.6270394325256348 0
   vertex -7.0482702255249023 -6.5970273017883301 0
  endloop
 endfacet
 facet normal 0.069495689908983957 -0.99758225178883086 0
  outer loop
   vertex -7.4790821075439453 -6.6270394325256348 5
   vertex -7.0482702255249023 -6.5970273017883301 0
   vertex -7.0482702255249023 -6.5970273017883301 5
  endloop
 endfacet
 facet normal 0.11420577634788655 -0.99345711565662276 0
  outer loop
   vertex -7.0482702255249023 -6.5970273017883301 5
   vertex -7.0482702255249023 -6.5970273017883301 0
   vertex -6.6220126152038574 -6.5480256080627441 0
  endloop
 endfacet
 facet normal 0.11420577634788655 -0.99345711565662276 0
  outer loop
   vertex -7.0482702255249023 -6.5970273017883301 5
   vertex -6.6220126152038574 -6.5480256080627441 0
   vertex -6.6220126152038574 -6.5480256080627441 5
  endloop
 endfacet
 facet normal 0.16198671649925514 -0.9867929386035299 0
  outer loop
   vertex -6.6220126152038574 -6.5480256080627441 5
   vertex -6.6220126152038574 -6.5480256080627441 0
   vertex -6.4113039970397949 -6.5134367942810059 0
  endloop
 endfacet
 facet normal 0.16198671649925514 -0.9867929386035299 0
  outer loop
   vertex -6.6220126152038574 -6.5480256080627441 5
   vertex -6.4113039970397949 -6.5134367942810059 0
   vertex -6.4113039970397949 -6.5134367942810059 5
  endloop
 endfacet
 facet normal 0.20132065374774369 -0.97952539240929382 0
  outer loop
   vertex -6.4113039970397949 -6.5134367942810059 5
   vertex -6.4113039970397949 -6.5134367942810059 0
   vertex -6.2025876045227051 -6.4705395698547363 0
  endloop
 endfacet
 facet normal 0.20132065374774369 -0.97952539240929382 0
  outer loop
   vertex -6.4113039970397949 -6.5134367942810059 5
   vertex -6.2025876045227051 -6.4705395698547363 0
   vertex -6.2025876045227051 -6.4705395698547363 5
  endloop
 endfacet
 facet normal 0.24545294758927719 -0.9694085054917434 0
  outer loop
   vertex -6.2025876045227051 -6.4705395698547363 5
   vertex -6.2025876045227051 -6.4705395698547363 0
   vertex -5.9961209297180176 -6.4182624816894531 0
  endloop
 endfacet
 facet normal 0.24545294758927719 -0.9694085054917434 0
  outer loop
   vertex -6.2025876045227051 -6.4705395698547363 5
   vertex -5.9961209297180176 -6.4182624816894531 0
   vertex -5.9961209297180176 -6.4182624816894531 5
  endloop
 endfacet
 facet normal 0.28749226701961211 -0.95778295892332721 0
  outer loop
   vertex -5.9961209297180176 -6.4182624816894531 5
   vertex -5.9961209297180176 -6.4182624816894531 0
   vertex -5.7918238639831543 -6.3569397926330566 0
  endloop
 endfacet
 facet normal 0.28749226701961211 -0.95778295892332721 0
  outer loop
   vertex -5.9961209297180176 -6.4182624816894531 5
   vertex -5.7918238639831543 -6.3569397926330566 0
   vertex -5.7918238639831543 -6.3569397926330566 5
  endloop
 endfacet
 facet normal 0.33760564123387671 -0.94128764520047903 0
  outer loop
   vertex -5.7918238639831543 -6.3569397926330566 5
   vertex -5.7918238639831543 -6.3569397926330566 0
   vertex -5.3885092735290527 -6.2122855186462402 0
  endloop
 endfacet
 facet normal 0.33760564123387671 -0.94128764520047903 0
  outer loop
   vertex -5.7918238639831543 -6.3569397926330566 5
   vertex -5.3885092735290527 -6.2122855186462402 0
   vertex -5.3885092735290527 -6.2122855186462402 5
  endloop
 endfacet
 facet normal 0.38341320534321904 -0.92357691286023313 0
  outer loop
   vertex -5.3885092735290527 -6.2122855186462402 5
   vertex -5.3885092735290527 -6.2122855186462402 0
   vertex -4.9901623725891113 -6.0469160079956055 0
  endloop
 endfacet
 facet normal 0.38341320534321904 -0.92357691286023313 0
  outer loop
   vertex -5.3885092735290527 -6.2122855186462402 5
   vertex -4.9901623725891113 -6.0469160079956055 0
   vertex -4.9901623725891113 -6.0469160079956055 5
  endloop
 endfacet
 facet normal 0.40573002845613587 -0.9139929671550997 0
  outer loop
   vertex -4.9901623725891113 -6.0469160079956055 5
   vertex -4.9901623725891113 -6.0469160079956055 0
   vertex -4.5943002700805664 -5.8711891174316406 0
  endloop
 endfacet
 facet normal 0.40573002845613587 -0.9139929671550997 0
  outer loop
   vertex -4.9901623725891113 -6.0469160079956055 5
   vertex -4.5943002700805664 -5.8711891174316406 0
   vertex -4.5943002700805664 -5.8711891174316406 5
  endloop
 endfacet
 facet normal -0.62437067103903066 -0.78112820019909057 0
  outer loop
   vertex -12.240784645080566 -5.0215797424316406 0
   vertex -11.76823616027832 -5.399296760559082 0
   vertex -12.240784645080566 -5.0215797424316406 5
  endloop
 endfacet
 facet normal -0.62437067103903066 -0.78112820019909057 0
  outer loop
   vertex -12.240784645080566 -5.0215797424316406 5
   vertex -11.76823616027832 -5.399296760559082 0
   vertex -11.76823616027832 -5.399296760559082 5
  endloop
 endfacet
 facet normal -0.60463894346114033 -0.79649968490276002 0
  outer loop
   vertex -11.76823616027832 -5.399296760559082 5
   vertex -11.76823616027832 -5.399296760559082 0
   vertex -11.529088973999023 -5.5808382034301758 0
  endloop
 endfacet
 facet normal -0.60463894346114033 -0.79649968490276002 0
  outer loop
   vertex -11.76823616027832 -5.399296760559082 5
   vertex -11.529088973999023 -5.5808382034301758 0
   vertex -11.529088973999023 -5.5808382034301758 5
  endloop
 endfacet
 facet normal -0.58007839014638662 -0.81456065537513933 0
  outer loop
   vertex -11.529088973999023 -5.5808382034301758 5
   vertex -11.529088973999023 -5.5808382034301758 0
   vertex -11.286492347717285 -5.7536001205444336 0
  endloop
 endfacet
 facet normal -0.58007839014638662 -0.81456065537513933 0
  outer loop
   vertex -11.529088973999023 -5.5808382034301758 5
   vertex -11.286492347717285 -5.7536001205444336 0
   vertex -11.286492347717285 -5.7536001205444336 5
  endloop
 endfacet
 facet normal -0.54589062006817957 -0.8378564500686132 0
  outer loop
   vertex -11.286492347717285 -5.7536001205444336 5
   vertex -11.286492347717285 -5.7536001205444336 0
   vertex -11.039298057556152 -5.9146552085876465 0
  endloop
 endfacet
 facet normal -0.54589062006817957 -0.8378564500686132 0
  outer loop
   vertex -11.286492347717285 -5.7536001205444336 5
   vertex -11.039298057556152 -5.9146552085876465 0
   vertex -11.039298057556152 -5.9146552085876465 5
  endloop
 endfacet
 facet normal -0.50098809941406475 -0.86545417223876331 0
  outer loop
   vertex -11.039298057556152 -5.9146552085876465 5
   vertex -11.039298057556152 -5.9146552085876465 0
   vertex -10.786355018615723 -6.0610771179199219 0
  endloop
 endfacet
 facet normal -0.50098809941406475 -0.86545417223876331 0
  outer loop
   vertex -11.039298057556152 -5.9146552085876465 5
   vertex -10.786355018615723 -6.0610771179199219 0
   vertex -10.786355018615723 -6.0610771179199219 5
  endloop
 endfacet
 facet normal -0.44429400793538476 -0.89588103814776232 0
  outer loop
   vertex -10.786355018615723 -6.0610771179199219 5
   vertex -10.786355018615723 -6.0610771179199219 0
   vertex -10.526515960693359 -6.189939022064209 0
  endloop
 endfacet
 facet normal -0.44429400793538476 -0.89588103814776232 0
  outer loop
   vertex -10.786355018615723 -6.0610771179199219 5
   vertex -10.526515960693359 -6.189939022064209 0
   vertex -10.526515960693359 -6.189939022064209 5
  endloop
 endfacet
 facet normal -0.37556074588236726 -0.92679778061467111 0
  outer loop
   vertex -10.526515960693359 -6.189939022064209 5
   vertex -10.526515960693359 -6.189939022064209 0
   vertex -10.258689880371094 -6.2984685897827148 0
  endloop
 endfacet
 facet normal -0.37556074588236726 -0.92679778061467111 0
  outer loop
   vertex -10.526515960693359 -6.189939022064209 5
   vertex -10.258689880371094 -6.2984685897827148 0
   vertex -10.258689880371094 -6.2984685897827148 5
  endloop
 endfacet
 facet normal -0.30468448686566818 -0.95245333925783704 0
  outer loop
   vertex -10.258689880371094 -6.2984685897827148 5
   vertex -10.258689880371094 -6.2984685897827148 0
   vertex -9.9828901290893555 -6.386695384979248 0
  endloop
 endfacet
 facet normal -0.30468448686566818 -0.95245333925783704 0
  outer loop
   vertex -10.258689880371094 -6.2984685897827148 5
   vertex -9.9828901290893555 -6.386695384979248 0
   vertex -9.9828901290893555 -6.386695384979248 5
  endloop
 endfacet
 facet normal -0.2415314640379401 -0.97039298837104604 0
  outer loop
   vertex -9.9828901290893555 -6.386695384979248 5
   vertex -9.9828901290893555 -6.386695384979248 0
   vertex -9.7000837326049805 -6.4570860862731934 0
  endloop
 endfacet
 facet normal -0.2415314640379401 -0.97039298837104604 0
  outer loop
   vertex -9.9828901290893555 -6.386695384979248 5
   vertex -9.7000837326049805 -6.4570860862731934 0
   vertex -9.7000837326049805 -6.4570860862731934 5
  endloop
 endfacet
 facet normal -0.18740944898555884 -0.98228188338731415 0
  outer loop
   vertex -9.7000837326049805 -6.4570860862731934 5
   vertex -9.7000837326049805 -6.4570860862731934 0
   vertex -9.4112720489501953 -6.5121884346008301 0
  endloop
 endfacet
 facet normal -0.18740944898555884 -0.98228188338731415 0
  outer loop
   vertex -9.7000837326049805 -6.4570860862731934 5
   vertex -9.4112720489501953 -6.5121884346008301 0
   vertex -9.4112720489501953 -6.5121884346008301 5
  endloop
 endfacet
 facet normal -0.14270284707901251 -0.98976557701081114 0
  outer loop
   vertex -9.4112720489501953 -6.5121884346008301 5
   vertex -9.4112720489501953 -6.5121884346008301 0
   vertex -9.117457389831543 -6.5545501708984375 0
  endloop
 endfacet
 facet normal -0.14270284707901251 -0.98976557701081114 0
  outer loop
   vertex -9.4112720489501953 -6.5121884346008301 5
   vertex -9.117457389831543 -6.5545501708984375 0
   vertex -9.117457389831543 -6.5545501708984375 5
  endloop
 endfacet
 facet normal -0.10739326172684609 -0.99421661992529031 0
  outer loop
   vertex -9.117457389831543 -6.5545501708984375 5
   vertex -9.117457389831543 -6.5545501708984375 0
   vertex -8.8196382522583008 -6.5867199897766113 0
  endloop
 endfacet
 facet normal -0.10739326172684609 -0.99421661992529031 0
  outer loop
   vertex -9.117457389831543 -6.5545501708984375 5
   vertex -8.8196382522583008 -6.5867199897766113 0
   vertex -8.8196382522583008 -6.5867199897766113 5
  endloop
 endfacet
 facet normal -0.081259580206828719 -0.99669297209552454 0
  outer loop
   vertex -8.8196382522583008 -6.5867199897766113 5
   vertex -8.8196382522583008 -6.5867199897766113 0
   vertex -8.5188179016113281 -6.6112456321716309 0
  endloop
 endfacet
 facet normal -0.081259580206828719 -0.99669297209552454 0
  outer loop
   vertex -8.8196382522583008 -6.5867199897766113 5
   vertex -8.5188179016113281 -6.6112456321716309 0
   vertex -8.5188179016113281 -6.6112456321716309 5
  endloop
 endfacet
 facet normal -0.0597478129650727 -0.99821350363832018 0
  outer loop
   vertex -8.5188179016113281 -6.6112456321716309 5
   vertex -8.5188179016113281 -6.6112456321716309 0
   vertex -7.9121713638305664 -6.6475563049316406 0
  endloop
 endfacet
 facet normal -0.0597478129650727 -0.99821350363832018 0
  outer loop
   vertex -8.5188179016113281 -6.6112456321716309 5
   vertex -7.9121713638305664 -6.6475563049316406 0
   vertex -7.9121713638305664 -6.6475563049316406 5
  endloop
 endfacet
 facet normal -0.99977558345354989 -0.021184492680117101 0
  outer loop
   vertex -13.683655738830566 -0.18759559094905853 0
   vertex -13.669722557067871 -0.84515464305877686 0
   vertex -13.683655738830566 -0.18759559094905853 5
  endloop
 endfacet
 facet normal -0.99977558345354989 -0.021184492680117101 0
  outer loop
   vertex -13.683655738830566 -0.18759559094905853 5
   vertex -13.669722557067871 -0.84515464305877686 0
   vertex -13.669722557067871 -0.84515464305877686 5
  endloop
 endfacet
 facet normal -0.99865057879523478 -0.051932855418728621 0
  outer loop
   vertex -13.669722557067871 -0.84515464305877686 5
   vertex -13.669722557067871 -0.84515464305877686 0
   vertex -13.635859489440918 -1.4963295459747314 0
  endloop
 endfacet
 facet normal -0.99865057879523478 -0.051932855418728621 0
  outer loop
   vertex -13.669722557067871 -0.84515464305877686 5
   vertex -13.635859489440918 -1.4963295459747314 0
   vertex -13.635859489440918 -1.4963295459747314 5
  endloop
 endfacet
 facet normal -0.99548298359599896 -0.094940135721452767 0
  outer loop
   vertex -13.635859489440918 -1.4963295459747314 5
   vertex -13.635859489440918 -1.4963295459747314 0
   vertex -13.605226516723633 -1.8175277709960938 0
  endloop
 endfacet
 facet normal -0.99548298359599896 -0.094940135721452767 0
  outer loop
   vertex -13.635859489440918 -1.4963295459747314 5
   vertex -13.605226516723633 -1.8175277709960938 0
   vertex -13.605226516723633 -1.8175277709960938 5
  endloop
 endfacet
 facet normal -0.99089936519254962 -0.13460478468836873 0
  outer loop
   vertex -13.605226516723633 -1.8175277709960938 5
   vertex -13.605226516723633 -1.8175277709960938 0
   vertex -13.562136650085449 -2.1347358226776123 0
  endloop
 endfacet
 facet normal -0.99089936519254962 -0.13460478468836873 0
  outer loop
   vertex -13.605226516723633 -1.8175277709960938 5
   vertex -13.562136650085449 -2.1347358226776123 0
   vertex -13.562136650085449 -2.1347358226776123 5
  endloop
 endfacet
 facet normal -0.98317920022364758 -0.18264353327613034 0
  outer loop
   vertex -13.562136650085449 -2.1347358226776123 5
   vertex -13.562136650085449 -2.1347358226776123 0
   vertex -13.504098892211914 -2.4471559524536133 0
  endloop
 endfacet
 facet normal -0.98317920022364758 -0.18264353327613034 0
  outer loop
   vertex -13.562136650085449 -2.1347358226776123 5
   vertex -13.504098892211914 -2.4471559524536133 0
   vertex -13.504098892211914 -2.4471559524536133 5
  endloop
 endfacet
 facet normal -0.97105281137777111 -0.23886489385283682 0
  outer loop
   vertex -13.504098892211914 -2.4471559524536133 5
   vertex -13.504098892211914 -2.4471559524536133 0
   vertex -13.428622245788574 -2.7539896965026855 0
  endloop
 endfacet
 facet normal -0.97105281137777111 -0.23886489385283682 0
  outer loop
   vertex -13.504098892211914 -2.4471559524536133 5
   vertex -13.428622245788574 -2.7539896965026855 0
   vertex -13.428622245788574 -2.7539896965026855 5
  endloop
 endfacet
 facet normal -0.9531064696546967 -0.30263518880388129 0
  outer loop
   vertex -13.428622245788574 -2.7539896965026855 5
   vertex -13.428622245788574 -2.7539896965026855 0
   vertex -13.333221435546875 -3.054440975189209 0
  endloop
 endfacet
 facet normal -0.9531064696546967 -0.30263518880388129 0
  outer loop
   vertex -13.428622245788574 -2.7539896965026855 5
   vertex -13.333221435546875 -3.054440975189209 0
   vertex -13.333221435546875 -3.054440975189209 5
  endloop
 endfacet
 facet normal -0.92977826798194008 -0.36812005159798561 0
  outer loop
   vertex -13.333221435546875 -3.054440975189209 5
   vertex -13.333221435546875 -3.054440975189209 0
   vertex -13.216917037963867 -3.3481965065002441 0
  endloop
 endfacet
 facet normal -0.92977826798194008 -0.36812005159798561 0
  outer loop
   vertex -13.333221435546875 -3.054440975189209 5
   vertex -13.216917037963867 -3.3481965065002441 0
   vertex -13.216917037963867 -3.3481965065002441 5
  endloop
 endfacet
 facet normal -0.90580756497674653 -0.42368933811331266 0
  outer loop
   vertex -13.216917037963867 -3.3481965065002441 5
   vertex -13.216917037963867 -3.3481965065002441 0
   vertex -13.082262992858887 -3.6360740661621094 0
  endloop
 endfacet
 facet normal -0.90580756497674653 -0.42368933811331266 0
  outer loop
   vertex -13.216917037963867 -3.3481965065002441 5
   vertex -13.082262992858887 -3.6360740661621094 0
   vertex -13.082262992858887 -3.6360740661621094 5
  endloop
 endfacet
 facet normal -0.88361526131366686 -0.46821370118096733 0
  outer loop
   vertex -13.082262992858887 -3.6360740661621094 5
   vertex -13.082262992858887 -3.6360740661621094 0
   vertex -12.932316780090332 -3.919053316116333 0
  endloop
 endfacet
 facet normal -0.88361526131366686 -0.46821370118096733 0
  outer loop
   vertex -13.082262992858887 -3.6360740661621094 5
   vertex -12.932316780090332 -3.919053316116333 0
   vertex -12.932316780090332 -3.919053316116333 5
  endloop
 endfacet
 facet normal -0.8645954100153096 -0.5024686825867446 0
  outer loop
   vertex -12.932316780090332 -3.919053316116333 5
   vertex -12.932316780090332 -3.919053316116333 0
   vertex -12.770137786865234 -4.1981139183044434 0
  endloop
 endfacet
 facet normal -0.8645954100153096 -0.5024686825867446 0
  outer loop
   vertex -12.932316780090332 -3.919053316116333 5
   vertex -12.770137786865234 -4.1981139183044434 0
   vertex -12.770137786865234 -4.1981139183044434 5
  endloop
 endfacet
 facet normal -0.84968455342114346 -0.52729134231230457 0
  outer loop
   vertex -12.770137786865234 -4.1981139183044434 5
   vertex -12.770137786865234 -4.1981139183044434 0
   vertex -12.598784446716309 -4.4742350578308105 0
  endloop
 endfacet
 facet normal -0.84968455342114346 -0.52729134231230457 0
  outer loop
   vertex -12.770137786865234 -4.1981139183044434 5
   vertex -12.598784446716309 -4.4742350578308105 0
   vertex -12.598784446716309 -4.4742350578308105 5
  endloop
 endfacet
 facet normal -0.83688515541562314 -0.54737851313781805 0
  outer loop
   vertex -12.598784446716309 -4.4742350578308105 5
   vertex -12.598784446716309 -4.4742350578308105 0
   vertex -12.240784645080566 -5.0215797424316406 0
  endloop
 endfacet
 facet normal -0.83688515541562314 -0.54737851313781805 0
  outer loop
   vertex -12.598784446716309 -4.4742350578308105 5
   vertex -12.240784645080566 -5.0215797424316406 0
   vertex -12.240784645080566 -5.0215797424316406 5
  endloop
 endfacet
 facet normal -0 0 1
  outer loop
   vertex -11.120179176330566 0.16396690905094147 5
   vertex -13.683655738830566 -0.18759559094905853 5
   vertex -11.099076271057129 -0.28603926301002502 5
  endloop
 endfacet
 facet normal 0 0 1
  outer loop
   vertex -11.099076271057129 -0.28603926301002502 5
   vertex -13.683655738830566 -0.18759559094905853 5
   vertex -13.669722557067871 -0.84515464305877686 5
  endloop
 endfacet
 facet normal 0 0 1
  outer loop
   vertex -11.099076271057129 -0.28603926301002502 5
   vertex -13.669722557067871 -0.84515464305877686 5
   vertex -11.06716251373291 -0.7327345609664917 5
  endloop
 endfacet
 facet normal -0 0 1
  outer loop
   vertex -11.06716251373291 -0.7327345609664917 5
   vertex -13.669722557067871 -0.84515464305877686 5
   vertex -13.635859489440918 -1.4963295459747314 5
  endloop
 endfacet
 facet normal -0 0 1
  outer loop
   vertex -11.06716251373291 -0.7327345609664917 5
   vertex -13.635859489440918 -1.4963295459747314 5
   vertex -13.605226516723633 -1.8175277709960938 5
  endloop
 endfacet
 facet normal 0 -0 1
  outer loop
   vertex -13.605226516723633 -1.8175277709960938 5
   vertex -13.562136650085449 -2.1347358226776123 5
   vertex -11.06716251373291 -0.7327345609664917 5
  endloop
 endfacet
 facet normal 0 0 1
  outer loop
   vertex -11.06716251373291 -0.7327345609664917 5
   vertex -13.562136650085449 -2.1347358226776123 5
   vertex -11.013625144958496 -1.1728081703186035 5
  endloop
 endfacet
 facet normal -0 0 1
  outer loop
   vertex -11.013625144958496 -1.1728081703186035 5
   vertex -13.562136650085449 -2.1347358226776123 5
   vertex -13.504098892211914 -2.4471559524536133 5
  endloop
 endfacet
 facet normal -0 0 1
  outer loop
   vertex -11.013625144958496 -1.1728081703186035 5
   vertex -13.504098892211914 -2.4471559524536133 5
   vertex -13.428622245788574 -2.7539896965026855 5
  endloop
 endfacet
 facet normal 0 -0 1
  outer loop
   vertex -13.428622245788574 -2.7539896965026855 5
   vertex -13.333221435546875 -3.054440975189209 5
   vertex -11.013625144958496 -1.1728081703186035 5
  endloop
 endfacet
 facet normal -0 0 1
  outer loop
   vertex -11.013625144958496 -1.1728081703186035 5
   vertex -13.333221435546875 -3.054440975189209 5
   vertex -13.216917037963867 -3.3481965065002441 5
  endloop
 endfacet
 facet normal -0 0 1
  outer loop
   vertex -11.013625144958496 -1.1728081703186035 5
   vertex -13.216917037963867 -3.3481965065002441 5
   vertex -13.082262992858887 -3.6360740661621094 5
  endloop
 endfacet
 facet normal 0 0 1
  outer loop
   vertex -11.013625144958496 -1.1728081703186035 5
   vertex -13.082262992858887 -3.6360740661621094 5
   vertex -10.975368499755859 -1.3893271684646606 5
  endloop
 endfacet
 facet normal -0 0 1
  outer loop
   vertex -10.975368499755859 -1.3893271684646606 5
   vertex -13.082262992858887 -3.6360740661621094 5
   vertex -12.932316780090332 -3.919053316116333 5
  endloop
 endfacet
 facet normal 0 0 1
  outer loop
   vertex -10.975368499755859 -1.3893271684646606 5
   vertex -12.932316780090332 -3.919053316116333 5
   vertex -10.927653312683105 -1.6029492616653442 5
  endloop
 endfacet
 facet normal -0 0 1
  outer loop
   vertex -10.927653312683105 -1.6029492616653442 5
   vertex -12.932316780090332 -3.919053316116333 5
   vertex -12.770137786865234 -4.1981139183044434 5
  endloop
 endfacet
 facet normal 0 0 1
  outer loop
   vertex -10.927653312683105 -1.6029492616653442 5
   vertex -12.770137786865234 -4.1981139183044434 5
   vertex -10.869125366210938 -1.8132604360580444 5
  endloop
 endfacet
 facet normal -0 0 1
  outer loop
   vertex -10.869125366210938 -1.8132604360580444 5
   vertex -12.770137786865234 -4.1981139183044434 5
   vertex -12.598784446716309 -4.4742350578308105 5
  endloop
 endfacet
 facet normal 0 0 1
  outer loop
   vertex -10.869125366210938 -1.8132604360580444 5
   vertex -12.598784446716309 -4.4742350578308105 5
   vertex -10.798521041870117 -2.0198733806610107 5
  endloop
 endfacet
 facet normal -0 0 1
  outer loop
   vertex -10.798521041870117 -2.0198733806610107 5
   vertex -12.598784446716309 -4.4742350578308105 5
   vertex -11.76823616027832 -5.399296760559082 5
  endloop
 endfacet
 facet normal 0 0 1
  outer loop
   vertex -10.798521041870117 -2.0198733806610107 5
   vertex -11.76823616027832 -5.399296760559082 5
   vertex -10.716241836547852 -2.2229111194610596 5
  endloop
 endfacet
 facet normal 0 0 1
  outer loop
   vertex -10.716241836547852 -2.2229111194610596 5
   vertex -11.76823616027832 -5.399296760559082 5
   vertex -10.624188423156738 -2.4229555130004883 5
  endloop
 endfacet
 facet normal 0 0 1
  outer loop
   vertex -10.624188423156738 -2.4229555130004883 5
   vertex -11.76823616027832 -5.399296760559082 5
   vertex -10.418577194213867 -2.8164591789245605 5
  endloop
 endfacet
 facet normal 0 0 1
  outer loop
   vertex -10.418577194213867 -2.8164591789245605 5
   vertex -11.76823616027832 -5.399296760559082 5
   vertex -10.197327613830566 -3.2051737308502197 5
  endloop
 endfacet
 facet normal 0 0 1
  outer loop
   vertex -10.197327613830566 -3.2051737308502197 5
   vertex -11.76823616027832 -5.399296760559082 5
   vertex -9.9518842697143555 -3.4117372035980225 5
  endloop
 endfacet
 facet normal 0 0 1
  outer loop
   vertex -9.9518842697143555 -3.4117372035980225 5
   vertex -11.76823616027832 -5.399296760559082 5
   vertex -9.7013721466064453 -3.6060097217559814 5
  endloop
 endfacet
 facet normal 0 0 1
  outer loop
   vertex -9.7013721466064453 -3.6060097217559814 5
   vertex -11.76823616027832 -5.399296760559082 5
   vertex -9.5726308822631836 -3.6946961879730225 5
  endloop
 endfacet
 facet normal 0 0 1
  outer loop
   vertex -9.5726308822631836 -3.6946961879730225 5
   vertex -11.76823616027832 -5.399296760559082 5
   vertex -9.4407224655151367 -3.7757008075714111 5
  endloop
 endfacet
 facet normal 0 0 1
  outer loop
   vertex -9.4407224655151367 -3.7757008075714111 5
   vertex -11.76823616027832 -5.399296760559082 5
   vertex -9.3050117492675781 -3.847487211227417 5
  endloop
 endfacet
 facet normal 0 0 1
  outer loop
   vertex -9.3050117492675781 -3.847487211227417 5
   vertex -11.76823616027832 -5.399296760559082 5
   vertex -9.1648769378662109 -3.9085471630096436 5
  endloop
 endfacet
 facet normal 0 0 1
  outer loop
   vertex -9.1648769378662109 -3.9085471630096436 5
   vertex -11.76823616027832 -5.399296760559082 5
   vertex -9.0201873779296875 -3.9585614204406738 5
  endloop
 endfacet
 facet normal 0 0 1
  outer loop
   vertex -9.0201873779296875 -3.9585614204406738 5
   vertex -11.76823616027832 -5.399296760559082 5
   vertex -8.8714704513549805 -3.9988112449645996 5
  endloop
 endfacet
 facet normal 0 0 1
  outer loop
   vertex -8.8714704513549805 -3.9988112449645996 5
   vertex -11.76823616027832 -5.399296760559082 5
   vertex -8.5642566680908203 -4.055598258972168 5
  endloop
 endfacet
 facet normal -0 0 1
  outer loop
   vertex -8.5642566680908203 -4.055598258972168 5
   vertex -11.76823616027832 -5.399296760559082 5
   vertex -11.529088973999023 -5.5808382034301758 5
  endloop
 endfacet
 facet normal 0 0 1
  outer loop
   vertex -8.5642566680908203 -4.055598258972168 5
   vertex -11.529088973999023 -5.5808382034301758 5
   vertex -8.2478399276733398 -4.0900669097900391 5
  endloop
 endfacet
 facet normal -0 0 1
  outer loop
   vertex -8.2478399276733398 -4.0900669097900391 5
   vertex -11.529088973999023 -5.5808382034301758 5
   vertex -11.286492347717285 -5.7536001205444336 5
  endloop
 endfacet
 facet normal -0 0 1
  outer loop
   vertex -8.2478399276733398 -4.0900669097900391 5
   vertex -11.286492347717285 -5.7536001205444336 5
   vertex -11.039298057556152 -5.9146552085876465 5
  endloop
 endfacet
 facet normal -0 -0 1
  outer loop
   vertex -12.598784446716309 -4.4742350578308105 5
   vertex -12.240784645080566 -5.0215797424316406 5
   vertex -11.76823616027832 -5.399296760559082 5
  endloop
 endfacet
 facet normal 0 -0 1
  outer loop
   vertex -11.039298057556152 -5.9146552085876465 5
   vertex -10.786355018615723 -6.0610771179199219 5
   vertex -8.2478399276733398 -4.0900669097900391 5
  endloop
 endfacet
 facet normal -0 0 1
  outer loop
   vertex -8.2478399276733398 -4.0900669097900391 5
   vertex -10.786355018615723 -6.0610771179199219 5
   vertex -10.526515960693359 -6.189939022064209 5
  endloop
 endfacet
 facet normal -0 0 1
  outer loop
   vertex -8.2478399276733398 -4.0900669097900391 5
   vertex -10.526515960693359 -6.189939022064209 5
   vertex -10.258689880371094 -6.2984685897827148 5
  endloop
 endfacet
 facet normal 0 -0 1
  outer loop
   vertex -10.258689880371094 -6.2984685897827148 5
   vertex -9.9828901290893555 -6.386695384979248 5
   vertex -8.2478399276733398 -4.0900669097900391 5
  endloop
 endfacet
 facet normal -0 0 1
  outer loop
   vertex -8.2478399276733398 -4.0900669097900391 5
   vertex -9.9828901290893555 -6.386695384979248 5
   vertex -9.7000837326049805 -6.4570860862731934 5
  endloop
 endfacet
 facet normal -0 0 1
  outer loop
   vertex -8.2478399276733398 -4.0900669097900391 5
   vertex -9.7000837326049805 -6.4570860862731934 5
   vertex -9.4112720489501953 -6.5121884346008301 5
  endloop
 endfacet
 facet normal 0 -0 1
  outer loop
   vertex -9.4112720489501953 -6.5121884346008301 5
   vertex -9.117457389831543 -6.5545501708984375 5
   vertex -8.2478399276733398 -4.0900669097900391 5
  endloop
 endfacet
 facet normal -0 0 1
  outer loop
   vertex -8.2478399276733398 -4.0900669097900391 5
   vertex -9.117457389831543 -6.5545501708984375 5
   vertex -8.8196382522583008 -6.5867199897766113 5
  endloop
 endfacet
 facet normal -0 0 1
  outer loop
   vertex -8.2478399276733398 -4.0900669097900391 5
   vertex -8.8196382522583008 -6.5867199897766113 5
   vertex -8.5188179016113281 -6.6112456321716309 5
  endloop
 endfacet
 facet normal 0 0 1
  outer loop
   vertex -8.5188179016113281 -6.6112456321716309 5
   vertex -7.9121713638305664 -6.6475563049316406 5
   vertex -8.2478399276733398 -4.0900669097900391 5
  endloop
 endfacet
 facet normal 0 0 1
  outer loop
   vertex -8.2478399276733398 -4.0900669097900391 5
   vertex -7.9121713638305664 -6.6475563049316406 5
   vertex -7.9268198013305664 -4.1133766174316406 5
  endloop
 endfacet
 facet normal 0 -0 1
  outer loop
   vertex -7.9268198013305664 -4.1133766174316406 5
   vertex -7.9121713638305664 -6.6475563049316406 5
   vertex -7.4790821075439453 -6.6270394325256348 5
  endloop
 endfacet
 facet normal 0 -0 1
  outer loop
   vertex -7.9268198013305664 -4.1133766174316406 5
   vertex -7.4790821075439453 -6.6270394325256348 5
   vertex -7.4408316612243652 -4.0809659957885742 5
  endloop
 endfacet
 facet normal 0 0 1
  outer loop
   vertex -7.4408316612243652 -4.0809659957885742 5
   vertex -7.4790821075439453 -6.6270394325256348 5
   vertex -7.0482702255249023 -6.5970273017883301 5
  endloop
 endfacet
 facet normal 0 0 1
  outer loop
   vertex -7.4408316612243652 -4.0809659957885742 5
   vertex -7.0482702255249023 -6.5970273017883301 5
   vertex -7.2019076347351074 -4.0498032569885254 5
  endloop
 endfacet
 facet normal 0 -0 1
  outer loop
   vertex -7.2019076347351074 -4.0498032569885254 5
   vertex -7.0482702255249023 -6.5970273017883301 5
   vertex -6.967867374420166 -4.0006909370422363 5
  endloop
 endfacet
 facet normal 0 0 1
  outer loop
   vertex -6.967867374420166 -4.0006909370422363 5
   vertex -7.0482702255249023 -6.5970273017883301 5
   vertex -6.6220126152038574 -6.5480256080627441 5
  endloop
 endfacet
 facet normal 0 0 1
  outer loop
   vertex -6.967867374420166 -4.0006909370422363 5
   vertex -6.6220126152038574 -6.5480256080627441 5
   vertex -6.7400054931640625 -3.9288737773895264 5
  endloop
 endfacet
 facet normal 0 -0 1
  outer loop
   vertex -6.7400054931640625 -3.9288737773895264 5
   vertex -6.6220126152038574 -6.5480256080627441 5
   vertex -6.4113039970397949 -6.5134367942810059 5
  endloop
 endfacet
 facet normal 0 0 1
  outer loop
   vertex -6.7400054931640625 -3.9288737773895264 5
   vertex -6.4113039970397949 -6.5134367942810059 5
   vertex -6.5174350738525391 -3.8376092910766602 5
  endloop
 endfacet
 facet normal 0 -0 1
  outer loop
   vertex -6.5174350738525391 -3.8376092910766602 5
   vertex -6.4113039970397949 -6.5134367942810059 5
   vertex -6.2025876045227051 -6.4705395698547363 5
  endloop
 endfacet
 facet normal 0 -0 1
  outer loop
   vertex -6.5174350738525391 -3.8376092910766602 5
   vertex -6.2025876045227051 -6.4705395698547363 5
   vertex -5.9961209297180176 -6.4182624816894531 5
  endloop
 endfacet
 facet normal 0 0 1
  outer loop
   vertex -6.5174350738525391 -3.8376092910766602 5
   vertex -5.9961209297180176 -6.4182624816894531 5
   vertex -6.0811166763305664 -3.6226541996002197 5
  endloop
 endfacet
 facet normal 0 -0 1
  outer loop
   vertex -6.0811166763305664 -3.6226541996002197 5
   vertex -5.9961209297180176 -6.4182624816894531 5
   vertex -5.7918238639831543 -6.3569397926330566 5
  endloop
 endfacet
 facet normal 0 -0 1
  outer loop
   vertex -6.0811166763305664 -3.6226541996002197 5
   vertex -5.7918238639831543 -6.3569397926330566 5
   vertex -5.3885092735290527 -6.2122855186462402 5
  endloop
 endfacet
 facet normal 0 0 1
  outer loop
   vertex -6.0811166763305664 -3.6226541996002197 5
   vertex -5.3885092735290527 -6.2122855186462402 5
   vertex -5.7338175773620605 -3.3533661365509033 5
  endloop
 endfacet
 facet normal 0 -0 1
  outer loop
   vertex -5.7338175773620605 -3.3533661365509033 5
   vertex -5.3885092735290527 -6.2122855186462402 5
   vertex -4.9901623725891113 -6.0469160079956055 5
  endloop
 endfacet
 facet normal 0 0 1
  outer loop
   vertex -5.7338175773620605 -3.3533661365509033 5
   vertex -4.9901623725891113 -6.0469160079956055 5
   vertex -5.5737199783325195 -3.2078819274902344 5
  endloop
 endfacet
 facet normal 0 0 1
  outer loop
   vertex -5.5737199783325195 -3.2078819274902344 5
   vertex -4.9901623725891113 -6.0469160079956055 5
   vertex -5.4298839569091797 -3.0493900775909424 5
  endloop
 endfacet
 facet normal 0 -0 1
  outer loop
   vertex -5.4298839569091797 -3.0493900775909424 5
   vertex -4.9901623725891113 -6.0469160079956055 5
   vertex -4.5943002700805664 -5.8711891174316406 5
  endloop
 endfacet
 facet normal 0 0 1
  outer loop
   vertex -5.4298839569091797 -3.0493900775909424 5
   vertex -4.5943002700805664 -5.8711891174316406 5
   vertex -5.3060789108276367 -2.874875545501709 5
  endloop
 endfacet
 facet normal 0 -0 1
  outer loop
   vertex -5.3060789108276367 -2.874875545501709 5
   vertex -4.5943002700805664 -5.8711891174316406 5
   vertex -4.2659296989440918 -5.6534881591796875 5
  endloop
 endfacet
 facet normal 0 0 1
  outer loop
   vertex -5.3060789108276367 -2.874875545501709 5
   vertex -4.2659296989440918 -5.6534881591796875 5
   vertex -5.1987991333007812 -2.6871426105499268 5
  endloop
 endfacet
 facet normal 0 -0 1
  outer loop
   vertex -5.1987991333007812 -2.6871426105499268 5
   vertex -4.2659296989440918 -5.6534881591796875 5
   vertex -3.9465234279632568 -5.4275774955749512 5
  endloop
 endfacet
 facet normal 0 0 1
  outer loop
   vertex -5.1987991333007812 -2.6871426105499268 5
   vertex -3.9465234279632568 -5.4275774955749512 5
   vertex -5.0117807388305664 -2.2896463871002197 5
  endloop
 endfacet
 facet normal 0 -0 1
  outer loop
   vertex -5.0117807388305664 -2.2896463871002197 5
   vertex -3.9465234279632568 -5.4275774955749512 5
   vertex -3.6450469493865967 -5.1852469444274902 5
  endloop
 endfacet
 facet normal 0 -0 1
  outer loop
   vertex -5.0117807388305664 -2.2896463871002197 5
   vertex -3.6450469493865967 -5.1852469444274902 5
   vertex -3.5038340091705322 -5.0553584098815918 5
  endloop
 endfacet
 facet normal 0 0 1
  outer loop
   vertex -3.5038340091705322 -5.0553584098815918 5
   vertex -3.3704648017883301 -4.9182863235473633 5
   vertex -5.0117807388305664 -2.2896463871002197 5
  endloop
 endfacet
 facet normal 0 -0 1
  outer loop
   vertex -5.0117807388305664 -2.2896463871002197 5
   vertex -3.3704648017883301 -4.9182863235473633 5
   vertex -3.2456812858581543 -4.7733521461486816 5
  endloop
 endfacet
 facet normal 0 -0 1
  outer loop
   vertex -5.0117807388305664 -2.2896463871002197 5
   vertex -3.2456812858581543 -4.7733521461486816 5
   vertex -3.1287314891815186 -4.6212434768676758 5
  endloop
 endfacet
 facet normal 0 0 1
  outer loop
   vertex -5.0117807388305664 -2.2896463871002197 5
   vertex -3.1287314891815186 -4.6212434768676758 5
   vertex -4.8649115562438965 -1.6266860961914062 5
  endloop
 endfacet
 facet normal 0 -0 1
  outer loop
   vertex -4.8649115562438965 -1.6266860961914062 5
   vertex -3.1287314891815186 -4.6212434768676758 5
   vertex -2.9138565063476562 -4.2996039390563965 5
  endloop
 endfacet
 facet normal 0 -0 1
  outer loop
   vertex -4.8649115562438965 -1.6266860961914062 5
   vertex -2.9138565063476562 -4.2996039390563965 5
   vertex -2.7168872356414795 -3.9615664482116699 5
  endloop
 endfacet
 facet normal 0 0 1
  outer loop
   vertex -4.8649115562438965 -1.6266860961914062 5
   vertex -2.7168872356414795 -3.9615664482116699 5
   vertex -4.8060803413391113 -1.2934136390686035 5
  endloop
 endfacet
 facet normal 0 -0 1
  outer loop
   vertex -4.8060803413391113 -1.2934136390686035 5
   vertex -2.7168872356414795 -3.9615664482116699 5
   vertex -2.5288705825805664 -3.6153299808502197 5
  endloop
 endfacet
 facet normal 0 -0 1
  outer loop
   vertex -4.8060803413391113 -1.2934136390686035 5
   vertex -2.5288705825805664 -3.6153299808502197 5
   vertex -2.3677215576171875 -3.1069743633270264 5
  endloop
 endfacet
 facet normal 0 0 1
  outer loop
   vertex -4.8060803413391113 -1.2934136390686035 5
   vertex -2.3677215576171875 -3.1069743633270264 5
   vertex -4.7641811370849609 -0.95806288719177246 5
  endloop
 endfacet
 facet normal 0 -0 1
  outer loop
   vertex -4.7641811370849609 -0.95806288719177246 5
   vertex -2.3677215576171875 -3.1069743633270264 5
   vertex -2.2177913188934326 -2.5967183113098145 5
  endloop
 endfacet
 facet normal 0 -0 1
  outer loop
   vertex -4.7641811370849609 -0.95806288719177246 5
   vertex -2.2177913188934326 -2.5967183113098145 5
   vertex -2.090299129486084 -2.0826613903045654 5
  endloop
 endfacet
 facet normal 0 0 1
  outer loop
   vertex -4.7641811370849609 -0.95806288719177246 5
   vertex -2.090299129486084 -2.0826613903045654 5
   vertex -4.7385601997375488 -0.62071424722671509 5
  endloop
 endfacet
 facet normal 0 -0 1
  outer loop
   vertex -4.7385601997375488 -0.62071424722671509 5
   vertex -2.090299129486084 -2.0826613903045654 5
   vertex -2.03847336769104 -1.8236137628555298 5
  endloop
 endfacet
 facet normal 0 -0 1
  outer loop
   vertex -4.7385601997375488 -0.62071424722671509 5
   vertex -2.03847336769104 -1.8236137628555298 5
   vertex -1.996009349822998 -1.5629802942276001 5
  endloop
 endfacet
 facet normal 0 0 1
  outer loop
   vertex -1.996009349822998 -1.5629802942276001 5
   vertex -1.9359661340713501 -1.0374982357025146 5
   vertex -4.7385601997375488 -0.62071424722671509 5
  endloop
 endfacet
 facet normal 0 0 1
  outer loop
   vertex -4.7385601997375488 -0.62071424722671509 5
   vertex -1.9359661340713501 -1.0374982357025146 5
   vertex -4.7251782417297363 -0.28186339139938354 5
  endloop
 endfacet
 facet normal 0 -0 1
  outer loop
   vertex -4.7251782417297363 -0.28186339139938354 5
   vertex -1.9359661340713501 -1.0374982357025146 5
   vertex -1.9018896818161011 -0.5076175332069397 5
  endloop
 endfacet
 facet normal 0 -0 1
  outer loop
   vertex -4.7251782417297363 -0.28186339139938354 5
   vertex -1.9018896818161011 -0.5076175332069397 5
   vertex -1.8851245641708374 0.025195494294166565 5
  endloop
 endfacet
 facet normal 0 0 1
  outer loop
   vertex -4.7251782417297363 -0.28186339139938354 5
   vertex -1.8851245641708374 0.025195494294166565 5
   vertex -4.7188119888305664 0.39834189414978027 5
  endloop
 endfacet
 facet normal 0 -0 1
  outer loop
   vertex -4.7188119888305664 0.39834189414978027 5
   vertex -1.8851245641708374 0.025195494294166565 5
   vertex -1.8770151138305664 0.55947470664978027 5
  endloop
 endfacet
 facet normal 0 0 1
  outer loop
   vertex -4.7188119888305664 0.39834189414978027 5
   vertex -1.8770151138305664 0.55947470664978027 5
   vertex -4.7188119888305664 15.193264007568359 5
  endloop
 endfacet
 facet normal 0 -0 1
  outer loop
   vertex -4.7188119888305664 15.193264007568359 5
   vertex -1.8770151138305664 0.55947470664978027 5
   vertex -1.8770151138305664 15.193264007568359 5
  endloop
 endfacet
 facet normal 0 0 -1
  outer loop
   vertex -12.240784645080566 -5.0215797424316406 0
   vertex -12.598784446716309 -4.4742350578308105 0
   vertex -11.76823616027832 -5.399296760559082 0
  endloop
 endfacet
 facet normal 0 0 -1
  outer loop
   vertex -11.76823616027832 -5.399296760559082 0
   vertex -12.598784446716309 -4.4742350578308105 0
   vertex -8.5642566680908203 -4.055598258972168 0
  endloop
 endfacet
 facet normal 0 0 -1
  outer loop
   vertex -11.76823616027832 -5.399296760559082 0
   vertex -8.5642566680908203 -4.055598258972168 0
   vertex -11.529088973999023 -5.5808382034301758 0
  endloop
 endfacet
 facet normal 0 0 -1
  outer loop
   vertex -11.529088973999023 -5.5808382034301758 0
   vertex -8.5642566680908203 -4.055598258972168 0
   vertex -11.286492347717285 -5.7536001205444336 0
  endloop
 endfacet
 facet normal 0 0 -1
  outer loop
   vertex -11.286492347717285 -5.7536001205444336 0
   vertex -8.5642566680908203 -4.055598258972168 0
   vertex -11.039298057556152 -5.9146552085876465 0
  endloop
 endfacet
 facet normal 0 0 -1
  outer loop
   vertex -11.039298057556152 -5.9146552085876465 0
   vertex -8.5642566680908203 -4.055598258972168 0
   vertex -10.786355018615723 -6.0610771179199219 0
  endloop
 endfacet
 facet normal 0 0 -1
  outer loop
   vertex -10.786355018615723 -6.0610771179199219 0
   vertex -8.5642566680908203 -4.055598258972168 0
   vertex -10.526515960693359 -6.189939022064209 0
  endloop
 endfacet
 facet normal 0 0 -1
  outer loop
   vertex -10.526515960693359 -6.189939022064209 0
   vertex -8.5642566680908203 -4.055598258972168 0
   vertex -10.258689880371094 -6.2984685897827148 0
  endloop
 endfacet
 facet normal 0 0 -1
  outer loop
   vertex -10.258689880371094 -6.2984685897827148 0
   vertex -8.5642566680908203 -4.055598258972168 0
   vertex -9.9828901290893555 -6.386695384979248 0
  endloop
 endfacet
 facet normal 0 0 -1
  outer loop
   vertex -9.9828901290893555 -6.386695384979248 0
   vertex -8.5642566680908203 -4.055598258972168 0
   vertex -9.7000837326049805 -6.4570860862731934 0
  endloop
 endfacet
 facet normal 0 -0 -1
  outer loop
   vertex -9.7000837326049805 -6.4570860862731934 0
   vertex -8.5642566680908203 -4.055598258972168 0
   vertex -8.2478399276733398 -4.0900669097900391 0
  endloop
 endfacet
 facet normal 0 0 -1
  outer loop
   vertex -9.7000837326049805 -6.4570860862731934 0
   vertex -8.2478399276733398 -4.0900669097900391 0
   vertex -9.4112720489501953 -6.5121884346008301 0
  endloop
 endfacet
 facet normal 0 0 -1
  outer loop
   vertex -9.4112720489501953 -6.5121884346008301 0
   vertex -8.2478399276733398 -4.0900669097900391 0
   vertex -9.117457389831543 -6.5545501708984375 0
  endloop
 endfacet
 facet normal 0 0 -1
  outer loop
   vertex -9.117457389831543 -6.5545501708984375 0
   vertex -8.2478399276733398 -4.0900669097900391 0
   vertex -8.8196382522583008 -6.5867199897766113 0
  endloop
 endfacet
 facet normal 0 0 -1
  outer loop
   vertex -8.8196382522583008 -6.5867199897766113 0
   vertex -8.2478399276733398 -4.0900669097900391 0
   vertex -8.5188179016113281 -6.6112456321716309 0
  endloop
 endfacet
 facet normal 0 -0 -1
  outer loop
   vertex -8.5188179016113281 -6.6112456321716309 0
   vertex -8.2478399276733398 -4.0900669097900391 0
   vertex -7.9121713638305664 -6.6475563049316406 0
  endloop
 endfacet
 facet normal 0 0 -1
  outer loop
   vertex -7.9121713638305664 -6.6475563049316406 0
   vertex -8.2478399276733398 -4.0900669097900391 0
   vertex -7.9268198013305664 -4.1133766174316406 0
  endloop
 endfacet
 facet normal 0 0 -1
  outer loop
   vertex -7.9121713638305664 -6.6475563049316406 0
   vertex -7.9268198013305664 -4.1133766174316406 0
   vertex -7.4790821075439453 -6.6270394325256348 0
  endloop
 endfacet
 facet normal 0 0 -1
  outer loop
   vertex -7.4790821075439453 -6.6270394325256348 0
   vertex -7.9268198013305664 -4.1133766174316406 0
   vertex -7.4408316612243652 -4.0809659957885742 0
  endloop
 endfacet
 facet normal 0 -0 -1
  outer loop
   vertex -7.4790821075439453 -6.6270394325256348 0
   vertex -7.4408316612243652 -4.0809659957885742 0
   vertex -7.0482702255249023 -6.5970273017883301 0
  endloop
 endfacet
 facet normal 0 0 -1
  outer loop
   vertex -7.0482702255249023 -6.5970273017883301 0
   vertex -7.4408316612243652 -4.0809659957885742 0
   vertex -7.2019076347351074 -4.0498032569885254 0
  endloop
 endfacet
 facet normal 0 0 -1
  outer loop
   vertex -7.0482702255249023 -6.5970273017883301 0
   vertex -7.2019076347351074 -4.0498032569885254 0
   vertex -6.967867374420166 -4.0006909370422363 0
  endloop
 endfacet
 facet normal 0 0 -1
  outer loop
   vertex -12.770137786865234 -4.1981139183044434 0
   vertex -10.869125366210938 -1.8132604360580444 0
   vertex -12.598784446716309 -4.4742350578308105 0
  endloop
 endfacet
 facet normal 0 -0 -1
  outer loop
   vertex -12.598784446716309 -4.4742350578308105 0
   vertex -10.869125366210938 -1.8132604360580444 0
   vertex -10.798521041870117 -2.0198733806610107 0
  endloop
 endfacet
 facet normal 0 -0 -1
  outer loop
   vertex -12.598784446716309 -4.4742350578308105 0
   vertex -10.798521041870117 -2.0198733806610107 0
   vertex -10.716241836547852 -2.2229111194610596 0
  endloop
 endfacet
 facet normal 0 0 -1
  outer loop
   vertex -10.869125366210938 -1.8132604360580444 0
   vertex -12.770137786865234 -4.1981139183044434 0
   vertex -10.927653312683105 -1.6029492616653442 0
  endloop
 endfacet
 facet normal 0 0 -1
  outer loop
   vertex -10.927653312683105 -1.6029492616653442 0
   vertex -12.770137786865234 -4.1981139183044434 0
   vertex -12.932316780090332 -3.919053316116333 0
  endloop
 endfacet
 facet normal 0 0 -1
  outer loop
   vertex -10.927653312683105 -1.6029492616653442 0
   vertex -12.932316780090332 -3.919053316116333 0
   vertex -10.975368499755859 -1.3893271684646606 0
  endloop
 endfacet
 facet normal 0 0 -1
  outer loop
   vertex -10.975368499755859 -1.3893271684646606 0
   vertex -12.932316780090332 -3.919053316116333 0
   vertex -13.082262992858887 -3.6360740661621094 0
  endloop
 endfacet
 facet normal 0 0 -1
  outer loop
   vertex -10.975368499755859 -1.3893271684646606 0
   vertex -13.082262992858887 -3.6360740661621094 0
   vertex -11.013625144958496 -1.1728081703186035 0
  endloop
 endfacet
 facet normal 0 0 -1
  outer loop
   vertex -11.013625144958496 -1.1728081703186035 0
   vertex -13.082262992858887 -3.6360740661621094 0
   vertex -13.216917037963867 -3.3481965065002441 0
  endloop
 endfacet
 facet normal 0 0 -1
  outer loop
   vertex -11.013625144958496 -1.1728081703186035 0
   vertex -13.216917037963867 -3.3481965065002441 0
   vertex -13.333221435546875 -3.054440975189209 0
  endloop
 endfacet
 facet normal 0 0 -1
  outer loop
   vertex -13.333221435546875 -3.054440975189209 0
   vertex -13.428622245788574 -2.7539896965026855 0
   vertex -11.013625144958496 -1.1728081703186035 0
  endloop
 endfacet
 facet normal 0 0 -1
  outer loop
   vertex -11.013625144958496 -1.1728081703186035 0
   vertex -13.428622245788574 -2.7539896965026855 0
   vertex -13.504098892211914 -2.4471559524536133 0
  endloop
 endfacet
 facet normal 0 0 -1
  outer loop
   vertex -11.013625144958496 -1.1728081703186035 0
   vertex -13.504098892211914 -2.4471559524536133 0
   vertex -13.562136650085449 -2.1347358226776123 0
  endloop
 endfacet
 facet normal 0 0 -1
  outer loop
   vertex -11.013625144958496 -1.1728081703186035 0
   vertex -13.562136650085449 -2.1347358226776123 0
   vertex -11.06716251373291 -0.7327345609664917 0
  endloop
 endfacet
 facet normal 0 0 -1
  outer loop
   vertex -11.06716251373291 -0.7327345609664917 0
   vertex -13.562136650085449 -2.1347358226776123 0
   vertex -13.605226516723633 -1.8175277709960938 0
  endloop
 endfacet
 facet normal 0 0 -1
  outer loop
   vertex -11.06716251373291 -0.7327345609664917 0
   vertex -13.605226516723633 -1.8175277709960938 0
   vertex -13.635859489440918 -1.4963295459747314 0
  endloop
 endfacet
 facet normal 0 0 -1
  outer loop
   vertex -13.635859489440918 -1.4963295459747314 0
   vertex -13.669722557067871 -0.84515464305877686 0
   vertex -11.06716251373291 -0.7327345609664917 0
  endloop
 endfacet
 facet normal 0 0 -1
  outer loop
   vertex -11.06716251373291 -0.7327345609664917 0
   vertex -13.669722557067871 -0.84515464305877686 0
   vertex -11.099076271057129 -0.28603926301002502 0
  endloop
 endfacet
 facet normal 0 0 -1
  outer loop
   vertex -11.099076271057129 -0.28603926301002502 0
   vertex -13.669722557067871 -0.84515464305877686 0
   vertex -13.683655738830566 -0.18759559094905853 0
  endloop
 endfacet
 facet normal 0 0 -1
  outer loop
   vertex -11.099076271057129 -0.28603926301002502 0
   vertex -13.683655738830566 -0.18759559094905853 0
   vertex -11.120179176330566 0.16396690905094147 0
  endloop
 endfacet
 facet normal -0 0 -1
  outer loop
   vertex -10.716241836547852 -2.2229111194610596 0
   vertex -10.624188423156738 -2.4229555130004883 0
   vertex -12.598784446716309 -4.4742350578308105 0
  endloop
 endfacet
 facet normal 0 -0 -1
  outer loop
   vertex -12.598784446716309 -4.4742350578308105 0
   vertex -10.624188423156738 -2.4229555130004883 0
   vertex -10.418577194213867 -2.8164591789245605 0
  endloop
 endfacet
 facet normal 0 -0 -1
  outer loop
   vertex -12.598784446716309 -4.4742350578308105 0
   vertex -10.418577194213867 -2.8164591789245605 0
   vertex -10.197327613830566 -3.2051737308502197 0
  endloop
 endfacet
 facet normal -0 0 -1
  outer loop
   vertex -10.197327613830566 -3.2051737308502197 0
   vertex -9.9518842697143555 -3.4117372035980225 0
   vertex -12.598784446716309 -4.4742350578308105 0
  endloop
 endfacet
 facet normal 0 -0 -1
  outer loop
   vertex -12.598784446716309 -4.4742350578308105 0
   vertex -9.9518842697143555 -3.4117372035980225 0
   vertex -9.7013721466064453 -3.6060097217559814 0
  endloop
 endfacet
 facet normal 0 -0 -1
  outer loop
   vertex -12.598784446716309 -4.4742350578308105 0
   vertex -9.7013721466064453 -3.6060097217559814 0
   vertex -9.5726308822631836 -3.6946961879730225 0
  endloop
 endfacet
 facet normal -0 0 -1
  outer loop
   vertex -9.5726308822631836 -3.6946961879730225 0
   vertex -9.4407224655151367 -3.7757008075714111 0
   vertex -12.598784446716309 -4.4742350578308105 0
  endloop
 endfacet
 facet normal 0 -0 -1
  outer loop
   vertex -12.598784446716309 -4.4742350578308105 0
   vertex -9.4407224655151367 -3.7757008075714111 0
   vertex -9.3050117492675781 -3.847487211227417 0
  endloop
 endfacet
 facet normal 0 -0 -1
  outer loop
   vertex -12.598784446716309 -4.4742350578308105 0
   vertex -9.3050117492675781 -3.847487211227417 0
   vertex -9.1648769378662109 -3.9085471630096436 0
  endloop
 endfacet
 facet normal -0 0 -1
  outer loop
   vertex -9.1648769378662109 -3.9085471630096436 0
   vertex -9.0201873779296875 -3.9585614204406738 0
   vertex -12.598784446716309 -4.4742350578308105 0
  endloop
 endfacet
 facet normal 0 -0 -1
  outer loop
   vertex -12.598784446716309 -4.4742350578308105 0
   vertex -9.0201873779296875 -3.9585614204406738 0
   vertex -8.8714704513549805 -3.9988112449645996 0
  endloop
 endfacet
 facet normal 0 -0 -1
  outer loop
   vertex -12.598784446716309 -4.4742350578308105 0
   vertex -8.8714704513549805 -3.9988112449645996 0
   vertex -8.5642566680908203 -4.055598258972168 0
  endloop
 endfacet
 facet normal 0 -0 -1
  outer loop
   vertex -7.0482702255249023 -6.5970273017883301 0
   vertex -6.967867374420166 -4.0006909370422363 0
   vertex -6.6220126152038574 -6.5480256080627441 0
  endloop
 endfacet
 facet normal 0 0 -1
  outer loop
   vertex -6.6220126152038574 -6.5480256080627441 0
   vertex -6.967867374420166 -4.0006909370422363 0
   vertex -6.7400054931640625 -3.9288737773895264 0
  endloop
 endfacet
 facet normal 0 0 -1
  outer loop
   vertex -6.6220126152038574 -6.5480256080627441 0
   vertex -6.7400054931640625 -3.9288737773895264 0
   vertex -6.4113039970397949 -6.5134367942810059 0
  endloop
 endfacet
 facet normal 0 0 -1
  outer loop
   vertex -6.4113039970397949 -6.5134367942810059 0
   vertex -6.7400054931640625 -3.9288737773895264 0
   vertex -6.5174350738525391 -3.8376092910766602 0
  endloop
 endfacet
 facet normal 0 0 -1
  outer loop
   vertex -6.4113039970397949 -6.5134367942810059 0
   vertex -6.5174350738525391 -3.8376092910766602 0
   vertex -6.2025876045227051 -6.4705395698547363 0
  endloop
 endfacet
 facet normal 0 0 -1
  outer loop
   vertex -6.2025876045227051 -6.4705395698547363 0
   vertex -6.5174350738525391 -3.8376092910766602 0
   vertex -5.9961209297180176 -6.4182624816894531 0
  endloop
 endfacet
 facet normal 0 0 -1
  outer loop
   vertex -5.9961209297180176 -6.4182624816894531 0
   vertex -6.5174350738525391 -3.8376092910766602 0
   vertex -6.0811166763305664 -3.6226541996002197 0
  endloop
 endfacet
 facet normal 0 0 -1
  outer loop
   vertex -5.9961209297180176 -6.4182624816894531 0
   vertex -6.0811166763305664 -3.6226541996002197 0
   vertex -5.7918238639831543 -6.3569397926330566 0
  endloop
 endfacet
 facet normal 0 0 -1
  outer loop
   vertex -5.7918238639831543 -6.3569397926330566 0
   vertex -6.0811166763305664 -3.6226541996002197 0
   vertex -5.3885092735290527 -6.2122855186462402 0
  endloop
 endfacet
 facet normal 0 0 -1
  outer loop
   vertex -5.3885092735290527 -6.2122855186462402 0
   vertex -6.0811166763305664 -3.6226541996002197 0
   vertex -5.7338175773620605 -3.3533661365509033 0
  endloop
 endfacet
 facet normal 0 0 -1
  outer loop
   vertex -5.3885092735290527 -6.2122855186462402 0
   vertex -5.7338175773620605 -3.3533661365509033 0
   vertex -4.9901623725891113 -6.0469160079956055 0
  endloop
 endfacet
 facet normal 0 0 -1
  outer loop
   vertex -4.9901623725891113 -6.0469160079956055 0
   vertex -5.7338175773620605 -3.3533661365509033 0
   vertex -5.5737199783325195 -3.2078819274902344 0
  endloop
 endfacet
 facet normal 0 0 -1
  outer loop
   vertex -4.9901623725891113 -6.0469160079956055 0
   vertex -5.5737199783325195 -3.2078819274902344 0
   vertex -5.4298839569091797 -3.0493900775909424 0
  endloop
 endfacet
 facet normal 0 0 -1
  outer loop
   vertex -4.9901623725891113 -6.0469160079956055 0
   vertex -5.4298839569091797 -3.0493900775909424 0
   vertex -4.5943002700805664 -5.8711891174316406 0
  endloop
 endfacet
 facet normal 0 0 -1
  outer loop
   vertex -4.5943002700805664 -5.8711891174316406 0
   vertex -5.4298839569091797 -3.0493900775909424 0
   vertex -5.3060789108276367 -2.874875545501709 0
  endloop
 endfacet
 facet normal 0 0 -1
  outer loop
   vertex -4.5943002700805664 -5.8711891174316406 0
   vertex -5.3060789108276367 -2.874875545501709 0
   vertex -4.2659296989440918 -5.6534881591796875 0
  endloop
 endfacet
 facet normal 0 0 -1
  outer loop
   vertex -4.2659296989440918 -5.6534881591796875 0
   vertex -5.3060789108276367 -2.874875545501709 0
   vertex -5.1987991333007812 -2.6871426105499268 0
  endloop
 endfacet
 facet normal 0 0 -1
  outer loop
   vertex -4.2659296989440918 -5.6534881591796875 0
   vertex -5.1987991333007812 -2.6871426105499268 0
   vertex -3.9465234279632568 -5.4275774955749512 0
  endloop
 endfacet
 facet normal 0 0 -1
  outer loop
   vertex -3.9465234279632568 -5.4275774955749512 0
   vertex -5.1987991333007812 -2.6871426105499268 0
   vertex -5.0117807388305664 -2.2896463871002197 0
  endloop
 endfacet
 facet normal 0 0 -1
  outer loop
   vertex -3.9465234279632568 -5.4275774955749512 0
   vertex -5.0117807388305664 -2.2896463871002197 0
   vertex -3.6450469493865967 -5.1852469444274902 0
  endloop
 endfacet
 facet normal 0 0 -1
  outer loop
   vertex -3.6450469493865967 -5.1852469444274902 0
   vertex -5.0117807388305664 -2.2896463871002197 0
   vertex -3.5038340091705322 -5.0553584098815918 0
  endloop
 endfacet
 facet normal 0 0 -1
  outer loop
   vertex -3.5038340091705322 -5.0553584098815918 0
   vertex -5.0117807388305664 -2.2896463871002197 0
   vertex -3.3704648017883301 -4.9182863235473633 0
  endloop
 endfacet
 facet normal 0 0 -1
  outer loop
   vertex -3.3704648017883301 -4.9182863235473633 0
   vertex -5.0117807388305664 -2.2896463871002197 0
   vertex -3.2456812858581543 -4.7733521461486816 0
  endloop
 endfacet
 facet normal 0 0 -1
  outer loop
   vertex -3.2456812858581543 -4.7733521461486816 0
   vertex -5.0117807388305664 -2.2896463871002197 0
   vertex -3.1287314891815186 -4.6212434768676758 0
  endloop
 endfacet
 facet normal 0 0 -1
  outer loop
   vertex -3.1287314891815186 -4.6212434768676758 0
   vertex -5.0117807388305664 -2.2896463871002197 0
   vertex -4.8649115562438965 -1.6266860961914062 0
  endloop
 endfacet
 facet normal 0 0 -1
  outer loop
   vertex -3.1287314891815186 -4.6212434768676758 0
   vertex -4.8649115562438965 -1.6266860961914062 0
   vertex -2.9138565063476562 -4.2996039390563965 0
  endloop
 endfacet
 facet normal 0 0 -1
  outer loop
   vertex -2.9138565063476562 -4.2996039390563965 0
   vertex -4.8649115562438965 -1.6266860961914062 0
   vertex -2.7168872356414795 -3.9615664482116699 0
  endloop
 endfacet
 facet normal 0 0 -1
  outer loop
   vertex -2.7168872356414795 -3.9615664482116699 0
   vertex -4.8649115562438965 -1.6266860961914062 0
   vertex -4.8060803413391113 -1.2934136390686035 0
  endloop
 endfacet
 facet normal 0 0 -1
  outer loop
   vertex -2.7168872356414795 -3.9615664482116699 0
   vertex -4.8060803413391113 -1.2934136390686035 0
   vertex -2.5288705825805664 -3.6153299808502197 0
  endloop
 endfacet
 facet normal 0 0 -1
  outer loop
   vertex -2.5288705825805664 -3.6153299808502197 0
   vertex -4.8060803413391113 -1.2934136390686035 0
   vertex -2.3677215576171875 -3.1069743633270264 0
  endloop
 endfacet
 facet normal 0 0 -1
  outer loop
   vertex -2.3677215576171875 -3.1069743633270264 0
   vertex -4.8060803413391113 -1.2934136390686035 0
   vertex -4.7641811370849609 -0.95806288719177246 0
  endloop
 endfacet
 facet normal 0 0 -1
  outer loop
   vertex -2.3677215576171875 -3.1069743633270264 0
   vertex -4.7641811370849609 -0.95806288719177246 0
   vertex -2.2177913188934326 -2.5967183113098145 0
  endloop
 endfacet
 facet normal 0 0 -1
  outer loop
   vertex -2.2177913188934326 -2.5967183113098145 0
   vertex -4.7641811370849609 -0.95806288719177246 0
   vertex -2.090299129486084 -2.0826613903045654 0
  endloop
 endfacet
 facet normal 0 0 -1
  outer loop
   vertex -2.090299129486084 -2.0826613903045654 0
   vertex -4.7641811370849609 -0.95806288719177246 0
   vertex -4.7385601997375488 -0.62071424722671509 0
  endloop
 endfacet
 facet normal 0 0 -1
  outer loop
   vertex -2.090299129486084 -2.0826613903045654 0
   vertex -4.7385601997375488 -0.62071424722671509 0
   vertex -2.03847336769104 -1.8236137628555298 0
  endloop
 endfacet
 facet normal 0 0 -1
  outer loop
   vertex -2.03847336769104 -1.8236137628555298 0
   vertex -4.7385601997375488 -0.62071424722671509 0
   vertex -1.996009349822998 -1.5629802942276001 0
  endloop
 endfacet
 facet normal 0 0 -1
  outer loop
   vertex -1.996009349822998 -1.5629802942276001 0
   vertex -4.7385601997375488 -0.62071424722671509 0
   vertex -1.9359661340713501 -1.0374982357025146 0
  endloop
 endfacet
 facet normal 0 0 -1
  outer loop
   vertex -1.9359661340713501 -1.0374982357025146 0
   vertex -4.7385601997375488 -0.62071424722671509 0
   vertex -4.7251782417297363 -0.28186339139938354 0
  endloop
 endfacet
 facet normal 0 0 -1
  outer loop
   vertex -1.9359661340713501 -1.0374982357025146 0
   vertex -4.7251782417297363 -0.28186339139938354 0
   vertex -1.9018896818161011 -0.5076175332069397 0
  endloop
 endfacet
 facet normal 0 0 -1
  outer loop
   vertex -1.9018896818161011 -0.5076175332069397 0
   vertex -4.7251782417297363 -0.28186339139938354 0
   vertex -1.8851245641708374 0.025195494294166565 0
  endloop
 endfacet
 facet normal 0 0 -1
  outer loop
   vertex -1.8851245641708374 0.025195494294166565 0
   vertex -4.7251782417297363 -0.28186339139938354 0
   vertex -4.7188119888305664 0.39834189414978027 0
  endloop
 endfacet
 facet normal 0 0 -1
  outer loop
   vertex -1.8851245641708374 0.025195494294166565 0
   vertex -4.7188119888305664 0.39834189414978027 0
   vertex -1.8770151138305664 0.55947470664978027 0
  endloop
 endfacet
 facet normal 0 0 -1
  outer loop
   vertex -1.8770151138305664 0.55947470664978027 0
   vertex -4.7188119888305664 0.39834189414978027 0
   vertex -4.7188119888305664 15.193264007568359 0
  endloop
 endfacet
 facet normal 0 0 -1
  outer loop
   vertex -1.8770151138305664 0.55947470664978027 0
   vertex -4.7188119888305664 15.193264007568359 0
   vertex -1.8770151138305664 15.193264007568359 0
  endloop
 endfacet
endsolid
