solid Visualization Toolkit generated SLA File
 facet normal -1 0 0
  outer loop
   vertex 10.984313011169434 15.193264007568359 0
   vertex 10.984313011169434 -6.2813453674316406 0
   vertex 10.984313011169434 15.193264007568359 5
  endloop
 endfacet
 facet normal -1 0 0
  outer loop
   vertex 10.984313011169434 15.193264007568359 5
   vertex 10.984313011169434 -6.2813453674316406 0
   vertex 10.984313011169434 -6.2813453674316406 5
  endloop
 endfacet
 facet normal 0 1 0
  outer loop
   vertex 13.826109886169434 15.193264007568359 0
   vertex 10.984313011169434 15.193264007568359 0
   vertex 13.826109886169434 15.193264007568359 5
  endloop
 endfacet
 facet normal 0 1 0
  outer loop
   vertex 13.826109886169434 15.193264007568359 5
   vertex 10.984313011169434 15.193264007568359 0
   vertex 10.984313011169434 15.193264007568359 5
  endloop
 endfacet
 facet normal 1 0 0
  outer loop
   vertex 13.826109886169434 4.5438499450683594 0
   vertex 13.826109886169434 15.193264007568359 0
   vertex 13.826109886169434 4.5438499450683594 5
  endloop
 endfacet
 facet normal 1 0 -0
  outer loop
   vertex 13.826109886169434 4.5438499450683594 5
   vertex 13.826109886169434 15.193264007568359 0
   vertex 13.826109886169434 15.193264007568359 5
  endloop
 endfacet
 facet normal -0.70662066189405803 0.70759256651296409 0
  outer loop
   vertex 24.490171432495117 15.193264007568359 0
   vertex 13.826109886169434 4.5438499450683594 0
   vertex 24.490171432495117 15.193264007568359 5
  endloop
 endfacet
 facet normal -0.70662066189405803 0.70759256651296409 0
  outer loop
   vertex 24.490171432495117 15.193264007568359 5
   vertex 13.826109886169434 4.5438499450683594 0
   vertex 13.826109886169434 4.5438499450683594 5
  endloop
 endfacet
 facet normal 0 1 0
  outer loop
   vertex 28.342710494995117 15.193264007568359 0
   vertex 24.490171432495117 15.193264007568359 0
   vertex 28.342710494995117 15.193264007568359 5
  endloop
 endfacet
 facet normal 0 1 0
  outer loop
   vertex 28.342710494995117 15.193264007568359 5
   vertex 24.490171432495117 15.193264007568359 0
   vertex 24.490171432495117 15.193264007568359 5
  endloop
 endfacet
 facet normal 0.69471973625894889 -0.71928053501557832 0
  outer loop
   vertex 19.333921432495117 6.4920921325683594 0
   vertex 28.342710494995117 15.193264007568359 0
   vertex 19.333921432495117 6.4920921325683594 5
  endloop
 endfacet
 facet normal 0.69471973625894889 -0.71928053501557832 0
  outer loop
   vertex 19.333921432495117 6.4920921325683594 5
   vertex 28.342710494995117 15.193264007568359 0
   vertex 28.342710494995117 15.193264007568359 5
  endloop
 endfacet
 facet normal 0.80528789302893111 0.59288397628964884 0
  outer loop
   vertex 28.738218307495117 -6.2813453674316406 0
   vertex 19.333921432495117 6.4920921325683594 0
   vertex 28.738218307495117 -6.2813453674316406 5
  endloop
 endfacet
 facet normal 0.80528789302893111 0.59288397628964884 -0
  outer loop
   vertex 28.738218307495117 -6.2813453674316406 5
   vertex 19.333921432495117 6.4920921325683594 0
   vertex 19.333921432495117 6.4920921325683594 5
  endloop
 endfacet
 facet normal 0 -1 0
  outer loop
   vertex 24.988218307495117 -6.2813453674316406 0
   vertex 28.738218307495117 -6.2813453674316406 0
   vertex 24.988218307495117 -6.2813453674316406 5
  endloop
 endfacet
 facet normal 0 -1 0
  outer loop
   vertex 24.988218307495117 -6.2813453674316406 5
   vertex 28.738218307495117 -6.2813453674316406 0
   vertex 28.738218307495117 -6.2813453674316406 5
  endloop
 endfacet
 facet normal -0.81788326743020601 -0.57538418544281345 0
  outer loop
   vertex 17.341733932495117 4.5877952575683594 0
   vertex 24.988218307495117 -6.2813453674316406 0
   vertex 17.341733932495117 4.5877952575683594 5
  endloop
 endfacet
 facet normal -0.81788326743020601 -0.57538418544281345 0
  outer loop
   vertex 17.341733932495117 4.5877952575683594 5
   vertex 24.988218307495117 -6.2813453674316406 0
   vertex 24.988218307495117 -6.2813453674316406 5
  endloop
 endfacet
 facet normal 0.69810025810513954 -0.71600002069381097 0
  outer loop
   vertex 13.826109886169434 1.1600606441497803 0
   vertex 17.341733932495117 4.5877952575683594 0
   vertex 13.826109886169434 1.1600606441497803 5
  endloop
 endfacet
 facet normal 0.69810025810513954 -0.71600002069381097 0
  outer loop
   vertex 13.826109886169434 1.1600606441497803 5
   vertex 17.341733932495117 4.5877952575683594 0
   vertex 17.341733932495117 4.5877952575683594 5
  endloop
 endfacet
 facet normal 1 0 0
  outer loop
   vertex 13.826109886169434 -6.2813453674316406 0
   vertex 13.826109886169434 1.1600606441497803 0
   vertex 13.826109886169434 -6.2813453674316406 5
  endloop
 endfacet
 facet normal 1 0 -0
  outer loop
   vertex 13.826109886169434 -6.2813453674316406 5
   vertex 13.826109886169434 1.1600606441497803 0
   vertex 13.826109886169434 1.1600606441497803 5
  endloop
 endfacet
 facet normal 0 -1 0
  outer loop
   vertex 10.984313011169434 -6.2813453674316406 0
   vertex 13.826109886169434 -6.2813453674316406 0
   vertex 10.984313011169434 -6.2813453674316406 5
  endloop
 endfacet
 facet normal 0 -1 0
  outer loop
   vertex 10.984313011169434 -6.2813453674316406 5
   vertex 13.826109886169434 -6.2813453674316406 0
   vertex 13.826109886169434 -6.2813453674316406 5
  endloop
 endfacet
 facet normal 0 0 1
  outer loop
   vertex 13.826109886169434 -6.2813453674316406 5
   vertex 13.826109886169434 1.1600606441497803 5
   vertex 10.984313011169434 -6.2813453674316406 5
  endloop
 endfacet
 facet normal 0 -0 1
  outer loop
   vertex 10.984313011169434 -6.2813453674316406 5
   vertex 13.826109886169434 1.1600606441497803 5
   vertex 13.826109886169434 4.5438499450683594 5
  endloop
 endfacet
 facet normal 0 0 1
  outer loop
   vertex 10.984313011169434 -6.2813453674316406 5
   vertex 13.826109886169434 4.5438499450683594 5
   vertex 10.984313011169434 15.193264007568359 5
  endloop
 endfacet
 facet normal 0 -0 1
  outer loop
   vertex 10.984313011169434 15.193264007568359 5
   vertex 13.826109886169434 4.5438499450683594 5
   vertex 13.826109886169434 15.193264007568359 5
  endloop
 endfacet
 facet normal 0 0 1
  outer loop
   vertex 13.826109886169434 1.1600606441497803 5
   vertex 17.341733932495117 4.5877952575683594 5
   vertex 13.826109886169434 4.5438499450683594 5
  endloop
 endfacet
 facet normal 0 -0 1
  outer loop
   vertex 13.826109886169434 4.5438499450683594 5
   vertex 17.341733932495117 4.5877952575683594 5
   vertex 19.333921432495117 6.4920921325683594 5
  endloop
 endfacet
 facet normal 0 -0 1
  outer loop
   vertex 13.826109886169434 4.5438499450683594 5
   vertex 19.333921432495117 6.4920921325683594 5
   vertex 24.490171432495117 15.193264007568359 5
  endloop
 endfacet
 facet normal 0 0 1
  outer loop
   vertex 24.490171432495117 15.193264007568359 5
   vertex 19.333921432495117 6.4920921325683594 5
   vertex 28.342710494995117 15.193264007568359 5
  endloop
 endfacet
 facet normal 0 0 1
  outer loop
   vertex 17.341733932495117 4.5877952575683594 5
   vertex 24.988218307495117 -6.2813453674316406 5
   vertex 19.333921432495117 6.4920921325683594 5
  endloop
 endfacet
 facet normal 0 -0 1
  outer loop
   vertex 19.333921432495117 6.4920921325683594 5
   vertex 24.988218307495117 -6.2813453674316406 5
   vertex 28.738218307495117 -6.2813453674316406 5
  endloop
 endfacet
 facet normal 0 0 -1
  outer loop
   vertex 13.826109886169434 -6.2813453674316406 0
   vertex 10.984313011169434 -6.2813453674316406 0
   vertex 13.826109886169434 1.1600606441497803 0
  endloop
 endfacet
 facet normal 0 0 -1
  outer loop
   vertex 13.826109886169434 1.1600606441497803 0
   vertex 10.984313011169434 -6.2813453674316406 0
   vertex 13.826109886169434 4.5438499450683594 0
  endloop
 endfacet
 facet normal 0 0 -1
  outer loop
   vertex 13.826109886169434 1.1600606441497803 0
   vertex 13.826109886169434 4.5438499450683594 0
   vertex 17.341733932495117 4.5877952575683594 0
  endloop
 endfacet
 facet normal 0 0 -1
  outer loop
   vertex 17.341733932495117 4.5877952575683594 0
   vertex 13.826109886169434 4.5438499450683594 0
   vertex 19.333921432495117 6.4920921325683594 0
  endloop
 endfacet
 facet normal 0 -0 -1
  outer loop
   vertex 17.341733932495117 4.5877952575683594 0
   vertex 19.333921432495117 6.4920921325683594 0
   vertex 24.988218307495117 -6.2813453674316406 0
  endloop
 endfacet
 facet normal 0 0 -1
  outer loop
   vertex 24.988218307495117 -6.2813453674316406 0
   vertex 19.333921432495117 6.4920921325683594 0
   vertex 28.738218307495117 -6.2813453674316406 0
  endloop
 endfacet
 facet normal 0 0 -1
  outer loop
   vertex 10.984313011169434 -6.2813453674316406 0
   vertex 10.984313011169434 15.193264007568359 0
   vertex 13.826109886169434 4.5438499450683594 0
  endloop
 endfacet
 facet normal 0 0 -1
  outer loop
   vertex 13.826109886169434 4.5438499450683594 0
   vertex 10.984313011169434 15.193264007568359 0
   vertex 13.826109886169434 15.193264007568359 0
  endloop
 endfacet
 facet normal 0 0 -1
  outer loop
   vertex 13.826109886169434 4.5438499450683594 0
   vertex 24.490171432495117 15.193264007568359 0
   vertex 19.333921432495117 6.4920921325683594 0
  endloop
 endfacet
 facet normal 0 -0 -1
  outer loop
   vertex 19.333921432495117 6.4920921325683594 0
   vertex 24.490171432495117 15.193264007568359 0
   vertex 28.342710494995117 15.193264007568359 0
  endloop
 endfacet
endsolid
