solid Visualization Toolkit generated SLA File
 facet normal -1 0 0
  outer loop
   vertex 39.32904052734375 15.193264007568359 0
   vertex 39.32904052734375 -6.2813453674316406 0
   vertex 39.32904052734375 15.193264007568359 5
  endloop
 endfacet
 facet normal -1 0 0
  outer loop
   vertex 39.32904052734375 15.193264007568359 5
   vertex 39.32904052734375 -6.2813453674316406 0
   vertex 39.32904052734375 -6.2813453674316406 5
  endloop
 endfacet
 facet normal 0 1 0
  outer loop
   vertex 42.17083740234375 15.193264007568359 0
   vertex 39.32904052734375 15.193264007568359 0
   vertex 42.17083740234375 15.193264007568359 5
  endloop
 endfacet
 facet normal 0 1 0
  outer loop
   vertex 42.17083740234375 15.193264007568359 5
   vertex 39.32904052734375 15.193264007568359 0
   vertex 39.32904052734375 15.193264007568359 5
  endloop
 endfacet
 facet normal 1 0 0
  outer loop
   vertex 42.17083740234375 -3.7471659183502197 0
   vertex 42.17083740234375 15.193264007568359 0
   vertex 42.17083740234375 -3.7471659183502197 5
  endloop
 endfacet
 facet normal 1 0 -0
  outer loop
   vertex 42.17083740234375 -3.7471659183502197 5
   vertex 42.17083740234375 15.193264007568359 0
   vertex 42.17083740234375 15.193264007568359 5
  endloop
 endfacet
 facet normal 0 1 0
  outer loop
   vertex 52.74700927734375 -3.7471659183502197 0
   vertex 42.17083740234375 -3.7471659183502197 0
   vertex 52.74700927734375 -3.7471659183502197 5
  endloop
 endfacet
 facet normal 0 1 0
  outer loop
   vertex 52.74700927734375 -3.7471659183502197 5
   vertex 42.17083740234375 -3.7471659183502197 0
   vertex 42.17083740234375 -3.7471659183502197 5
  endloop
 endfacet
 facet normal 1 0 0
  outer loop
   vertex 52.74700927734375 -6.2813453674316406 0
   vertex 52.74700927734375 -3.7471659183502197 0
   vertex 52.74700927734375 -6.2813453674316406 5
  endloop
 endfacet
 facet normal 1 0 -0
  outer loop
   vertex 52.74700927734375 -6.2813453674316406 5
   vertex 52.74700927734375 -3.7471659183502197 0
   vertex 52.74700927734375 -3.7471659183502197 5
  endloop
 endfacet
 facet normal 0 -1 0
  outer loop
   vertex 39.32904052734375 -6.2813453674316406 0
   vertex 52.74700927734375 -6.2813453674316406 0
   vertex 39.32904052734375 -6.2813453674316406 5
  endloop
 endfacet
 facet normal 0 -1 0
  outer loop
   vertex 39.32904052734375 -6.2813453674316406 5
   vertex 52.74700927734375 -6.2813453674316406 0
   vertex 52.74700927734375 -6.2813453674316406 5
  endloop
 endfacet
 facet normal 0 0 1
  outer loop
   vertex 39.32904052734375 15.193264007568359 5
   vertex 39.32904052734375 -6.2813453674316406 5
   vertex 42.17083740234375 -3.7471659183502197 5
  endloop
 endfacet
 facet normal 0 0 1
  outer loop
   vertex 42.17083740234375 -3.7471659183502197 5
   vertex 39.32904052734375 -6.2813453674316406 5
   vertex 52.74700927734375 -6.2813453674316406 5
  endloop
 endfacet
 facet normal 0 -0 1
  outer loop
   vertex 42.17083740234375 -3.7471659183502197 5
   vertex 52.74700927734375 -6.2813453674316406 5
   vertex 52.74700927734375 -3.7471659183502197 5
  endloop
 endfacet
 facet normal 0 0 1
  outer loop
   vertex 42.17083740234375 -3.7471659183502197 5
   vertex 42.17083740234375 15.193264007568359 5
   vertex 39.32904052734375 15.193264007568359 5
  endloop
 endfacet
 facet normal 0 0 -1
  outer loop
   vertex 52.74700927734375 -3.7471659183502197 0
   vertex 52.74700927734375 -6.2813453674316406 0
   vertex 42.17083740234375 -3.7471659183502197 0
  endloop
 endfacet
 facet normal 0 0 -1
  outer loop
   vertex 42.17083740234375 -3.7471659183502197 0
   vertex 52.74700927734375 -6.2813453674316406 0
   vertex 39.32904052734375 -6.2813453674316406 0
  endloop
 endfacet
 facet normal 0 0 -1
  outer loop
   vertex 42.17083740234375 -3.7471659183502197 0
   vertex 39.32904052734375 -6.2813453674316406 0
   vertex 39.32904052734375 15.193264007568359 0
  endloop
 endfacet
 facet normal -0 -0 -1
  outer loop
   vertex 39.32904052734375 15.193264007568359 0
   vertex 42.17083740234375 15.193264007568359 0
   vertex 42.17083740234375 -3.7471659183502197 0
  endloop
 endfacet
endsolid
