solid Visualization Toolkit generated SLA File
 facet normal -1 0 0
  outer loop
   vertex 63.26458740234375 15.193264007568359 0
   vertex 63.26458740234375 -6.2813453674316406 0
   vertex 63.26458740234375 15.193264007568359 5
  endloop
 endfacet
 facet normal -1 0 0
  outer loop
   vertex 63.26458740234375 15.193264007568359 5
   vertex 63.26458740234375 -6.2813453674316406 0
   vertex 63.26458740234375 -6.2813453674316406 5
  endloop
 endfacet
 facet normal 0 1 0
  outer loop
   vertex 67.54193115234375 15.193264007568359 0
   vertex 63.26458740234375 15.193264007568359 0
   vertex 67.54193115234375 15.193264007568359 5
  endloop
 endfacet
 facet normal 0 1 0
  outer loop
   vertex 67.54193115234375 15.193264007568359 5
   vertex 63.26458740234375 15.193264007568359 0
   vertex 63.26458740234375 15.193264007568359 5
  endloop
 endfacet
 facet normal 0.94840883650498664 0.31704996268610008 0
  outer loop
   vertex 72.62493896484375 -0.01181434839963913 0
   vertex 67.54193115234375 15.193264007568359 0
   vertex 72.62493896484375 -0.01181434839963913 5
  endloop
 endfacet
 facet normal 0.94840883650498664 0.31704996268610008 -0
  outer loop
   vertex 72.62493896484375 -0.01181434839963913 5
   vertex 67.54193115234375 15.193264007568359 0
   vertex 67.54193115234375 15.193264007568359 5
  endloop
 endfacet
 facet normal 0.95400046720985587 0.29980511764040413 0
  outer loop
   vertex 73.65032958984375 -3.1905252933502197 0
   vertex 73.399986267089844 -2.3939156532287598 0
   vertex 73.65032958984375 -3.1905252933502197 5
  endloop
 endfacet
 facet normal 0.95400046720985587 0.29980511764040413 -0
  outer loop
   vertex 73.65032958984375 -3.1905252933502197 5
   vertex 73.399986267089844 -2.3939156532287598 0
   vertex 73.399986267089844 -2.3939156532287598 5
  endloop
 endfacet
 facet normal 0.95257985522074795 0.30428871064766533 -0
  outer loop
   vertex 73.399986267089844 -2.3939156532287598 5
   vertex 73.399986267089844 -2.3939156532287598 0
   vertex 73.145904541015625 -1.5985094308853149 0
  endloop
 endfacet
 facet normal 0.95257985522074795 0.30428871064766533 -0
  outer loop
   vertex 73.399986267089844 -2.3939156532287598 5
   vertex 73.145904541015625 -1.5985094308853149 0
   vertex 73.145904541015625 -1.5985094308853149 5
  endloop
 endfacet
 facet normal 0.9506242581376444 0.31034419575731287 -0
  outer loop
   vertex 73.145904541015625 -1.5985094308853149 5
   vertex 73.145904541015625 -1.5985094308853149 0
   vertex 72.886764526367188 -0.80473017692565918 0
  endloop
 endfacet
 facet normal 0.9506242581376444 0.31034419575731287 -0
  outer loop
   vertex 73.145904541015625 -1.5985094308853149 5
   vertex 72.886764526367188 -0.80473017692565918 0
   vertex 72.886764526367188 -0.80473017692565918 5
  endloop
 endfacet
 facet normal 0.94957042116801049 0.31355384743741777 -0
  outer loop
   vertex 72.886764526367188 -0.80473017692565918 5
   vertex 72.886764526367188 -0.80473017692565918 0
   vertex 72.62493896484375 -0.01181434839963913 0
  endloop
 endfacet
 facet normal 0.94957042116801049 0.31355384743741777 -0
  outer loop
   vertex 72.886764526367188 -0.80473017692565918 5
   vertex 72.62493896484375 -0.01181434839963913 0
   vertex 72.62493896484375 -0.01181434839963913 5
  endloop
 endfacet
 facet normal -0.94652949053592639 0.3226173019938634 0
  outer loop
   vertex 74.79290771484375 0.25185751914978027 0
   vertex 74.500358581542969 -0.60645473003387451 0
   vertex 74.79290771484375 0.25185751914978027 5
  endloop
 endfacet
 facet normal -0.94652949053592639 0.3226173019938634 0
  outer loop
   vertex 74.79290771484375 0.25185751914978027 5
   vertex 74.500358581542969 -0.60645473003387451 0
   vertex 74.500358581542969 -0.60645473003387451 5
  endloop
 endfacet
 facet normal -0.94779703612326482 0.31887423589238872 0
  outer loop
   vertex 74.500358581542969 -0.60645473003387451 5
   vertex 74.500358581542969 -0.60645473003387451 0
   vertex 74.211212158203125 -1.4658911228179932 0
  endloop
 endfacet
 facet normal -0.94779703612326482 0.31887423589238872 0
  outer loop
   vertex 74.500358581542969 -0.60645473003387451 5
   vertex 74.211212158203125 -1.4658911228179932 0
   vertex 74.211212158203125 -1.4658911228179932 5
  endloop
 endfacet
 facet normal -0.95013097111037992 0.31185114676211495 0
  outer loop
   vertex 74.211212158203125 -1.4658911228179932 5
   vertex 74.211212158203125 -1.4658911228179932 0
   vertex 73.928436279296875 -2.327437162399292 0
  endloop
 endfacet
 facet normal -0.95013097111037992 0.31185114676211495 0
  outer loop
   vertex 74.211212158203125 -1.4658911228179932 5
   vertex 73.928436279296875 -2.327437162399292 0
   vertex 73.928436279296875 -2.327437162399292 5
  endloop
 endfacet
 facet normal -0.95180807837783499 0.30669428089661727 0
  outer loop
   vertex 73.928436279296875 -2.327437162399292 5
   vertex 73.928436279296875 -2.327437162399292 0
   vertex 73.65032958984375 -3.1905252933502197 0
  endloop
 endfacet
 facet normal -0.95180807837783499 0.30669428089661727 0
  outer loop
   vertex 73.928436279296875 -2.327437162399292 5
   vertex 73.65032958984375 -3.1905252933502197 0
   vertex 73.65032958984375 -3.1905252933502197 5
  endloop
 endfacet
 facet normal -0.94557967719008795 0.32539064842906773 0
  outer loop
   vertex 79.93450927734375 15.193264007568359 0
   vertex 74.79290771484375 0.25185751914978027 0
   vertex 79.93450927734375 15.193264007568359 5
  endloop
 endfacet
 facet normal -0.94557967719008795 0.32539064842906773 0
  outer loop
   vertex 79.93450927734375 15.193264007568359 5
   vertex 74.79290771484375 0.25185751914978027 0
   vertex 74.79290771484375 0.25185751914978027 5
  endloop
 endfacet
 facet normal 0 1 0
  outer loop
   vertex 83.75775146484375 15.193264007568359 0
   vertex 79.93450927734375 15.193264007568359 0
   vertex 83.75775146484375 15.193264007568359 5
  endloop
 endfacet
 facet normal 0 1 0
  outer loop
   vertex 83.75775146484375 15.193264007568359 5
   vertex 79.93450927734375 15.193264007568359 0
   vertex 79.93450927734375 15.193264007568359 5
  endloop
 endfacet
 facet normal 1 0 0
  outer loop
   vertex 83.75775146484375 -6.2813453674316406 0
   vertex 83.75775146484375 15.193264007568359 0
   vertex 83.75775146484375 -6.2813453674316406 5
  endloop
 endfacet
 facet normal 1 0 -0
  outer loop
   vertex 83.75775146484375 -6.2813453674316406 5
   vertex 83.75775146484375 15.193264007568359 0
   vertex 83.75775146484375 15.193264007568359 5
  endloop
 endfacet
 facet normal 0 -1 0
  outer loop
   vertex 81.01849365234375 -6.2813453674316406 0
   vertex 83.75775146484375 -6.2813453674316406 0
   vertex 81.01849365234375 -6.2813453674316406 5
  endloop
 endfacet
 facet normal 0 -1 0
  outer loop
   vertex 81.01849365234375 -6.2813453674316406 5
   vertex 83.75775146484375 -6.2813453674316406 0
   vertex 83.75775146484375 -6.2813453674316406 5
  endloop
 endfacet
 facet normal -1 0 0
  outer loop
   vertex 81.01849365234375 11.692287445068359 0
   vertex 81.01849365234375 -6.2813453674316406 0
   vertex 81.01849365234375 11.692287445068359 5
  endloop
 endfacet
 facet normal -1 0 0
  outer loop
   vertex 81.01849365234375 11.692287445068359 5
   vertex 81.01849365234375 -6.2813453674316406 0
   vertex 81.01849365234375 -6.2813453674316406 5
  endloop
 endfacet
 facet normal 0.94468360415159081 -0.32798306061008775 0
  outer loop
   vertex 74.77825927734375 -6.2813453674316406 0
   vertex 81.01849365234375 11.692287445068359 0
   vertex 74.77825927734375 -6.2813453674316406 5
  endloop
 endfacet
 facet normal 0.94468360415159081 -0.32798306061008775 0
  outer loop
   vertex 74.77825927734375 -6.2813453674316406 5
   vertex 81.01849365234375 11.692287445068359 0
   vertex 81.01849365234375 11.692287445068359 5
  endloop
 endfacet
 facet normal 0 -1 0
  outer loop
   vertex 72.21478271484375 -6.2813453674316406 0
   vertex 74.77825927734375 -6.2813453674316406 0
   vertex 72.21478271484375 -6.2813453674316406 5
  endloop
 endfacet
 facet normal 0 -1 0
  outer loop
   vertex 72.21478271484375 -6.2813453674316406 5
   vertex 74.77825927734375 -6.2813453674316406 0
   vertex 74.77825927734375 -6.2813453674316406 5
  endloop
 endfacet
 facet normal -0.94684671192988235 -0.32168510084797286 0
  outer loop
   vertex 66.00384521484375 11.999904632568359 0
   vertex 72.21478271484375 -6.2813453674316406 0
   vertex 66.00384521484375 11.999904632568359 5
  endloop
 endfacet
 facet normal -0.94684671192988235 -0.32168510084797286 0
  outer loop
   vertex 66.00384521484375 11.999904632568359 5
   vertex 72.21478271484375 -6.2813453674316406 0
   vertex 72.21478271484375 -6.2813453674316406 5
  endloop
 endfacet
 facet normal 1 0 0
  outer loop
   vertex 66.00384521484375 -6.2813453674316406 0
   vertex 66.00384521484375 11.999904632568359 0
   vertex 66.00384521484375 -6.2813453674316406 5
  endloop
 endfacet
 facet normal 1 0 -0
  outer loop
   vertex 66.00384521484375 -6.2813453674316406 5
   vertex 66.00384521484375 11.999904632568359 0
   vertex 66.00384521484375 11.999904632568359 5
  endloop
 endfacet
 facet normal 0 -1 0
  outer loop
   vertex 63.26458740234375 -6.2813453674316406 0
   vertex 66.00384521484375 -6.2813453674316406 0
   vertex 63.26458740234375 -6.2813453674316406 5
  endloop
 endfacet
 facet normal 0 -1 0
  outer loop
   vertex 63.26458740234375 -6.2813453674316406 5
   vertex 66.00384521484375 -6.2813453674316406 0
   vertex 66.00384521484375 -6.2813453674316406 5
  endloop
 endfacet
 facet normal 0 0 1
  outer loop
   vertex 66.00384521484375 -6.2813453674316406 5
   vertex 66.00384521484375 11.999904632568359 5
   vertex 63.26458740234375 -6.2813453674316406 5
  endloop
 endfacet
 facet normal 0 0 1
  outer loop
   vertex 63.26458740234375 -6.2813453674316406 5
   vertex 66.00384521484375 11.999904632568359 5
   vertex 63.26458740234375 15.193264007568359 5
  endloop
 endfacet
 facet normal 0 -0 1
  outer loop
   vertex 63.26458740234375 15.193264007568359 5
   vertex 66.00384521484375 11.999904632568359 5
   vertex 67.54193115234375 15.193264007568359 5
  endloop
 endfacet
 facet normal -0 0 1
  outer loop
   vertex 67.54193115234375 15.193264007568359 5
   vertex 66.00384521484375 11.999904632568359 5
   vertex 72.62493896484375 -0.01181434839963913 5
  endloop
 endfacet
 facet normal 0 0 1
  outer loop
   vertex 72.62493896484375 -0.01181434839963913 5
   vertex 66.00384521484375 11.999904632568359 5
   vertex 72.21478271484375 -6.2813453674316406 5
  endloop
 endfacet
 facet normal 0 0 1
  outer loop
   vertex 72.62493896484375 -0.01181434839963913 5
   vertex 72.21478271484375 -6.2813453674316406 5
   vertex 72.886764526367188 -0.80473017692565918 5
  endloop
 endfacet
 facet normal 0 0 1
  outer loop
   vertex 72.886764526367188 -0.80473017692565918 5
   vertex 72.21478271484375 -6.2813453674316406 5
   vertex 73.145904541015625 -1.5985094308853149 5
  endloop
 endfacet
 facet normal 0 0 1
  outer loop
   vertex 73.145904541015625 -1.5985094308853149 5
   vertex 72.21478271484375 -6.2813453674316406 5
   vertex 73.399986267089844 -2.3939156532287598 5
  endloop
 endfacet
 facet normal 0 0 1
  outer loop
   vertex 73.399986267089844 -2.3939156532287598 5
   vertex 72.21478271484375 -6.2813453674316406 5
   vertex 73.65032958984375 -3.1905252933502197 5
  endloop
 endfacet
 facet normal 0 0 1
  outer loop
   vertex 73.65032958984375 -3.1905252933502197 5
   vertex 72.21478271484375 -6.2813453674316406 5
   vertex 74.77825927734375 -6.2813453674316406 5
  endloop
 endfacet
 facet normal 0 0 1
  outer loop
   vertex 73.65032958984375 -3.1905252933502197 5
   vertex 74.77825927734375 -6.2813453674316406 5
   vertex 73.928436279296875 -2.327437162399292 5
  endloop
 endfacet
 facet normal 0 0 1
  outer loop
   vertex 73.928436279296875 -2.327437162399292 5
   vertex 74.77825927734375 -6.2813453674316406 5
   vertex 74.211212158203125 -1.4658911228179932 5
  endloop
 endfacet
 facet normal 0 0 1
  outer loop
   vertex 74.211212158203125 -1.4658911228179932 5
   vertex 74.77825927734375 -6.2813453674316406 5
   vertex 74.500358581542969 -0.60645473003387451 5
  endloop
 endfacet
 facet normal 0 -0 1
  outer loop
   vertex 74.500358581542969 -0.60645473003387451 5
   vertex 74.77825927734375 -6.2813453674316406 5
   vertex 74.79290771484375 0.25185751914978027 5
  endloop
 endfacet
 facet normal 0 0 1
  outer loop
   vertex 74.79290771484375 0.25185751914978027 5
   vertex 74.77825927734375 -6.2813453674316406 5
   vertex 81.01849365234375 11.692287445068359 5
  endloop
 endfacet
 facet normal 0 0 1
  outer loop
   vertex 74.79290771484375 0.25185751914978027 5
   vertex 81.01849365234375 11.692287445068359 5
   vertex 79.93450927734375 15.193264007568359 5
  endloop
 endfacet
 facet normal 0 -0 1
  outer loop
   vertex 79.93450927734375 15.193264007568359 5
   vertex 81.01849365234375 11.692287445068359 5
   vertex 83.75775146484375 15.193264007568359 5
  endloop
 endfacet
 facet normal -0 0 1
  outer loop
   vertex 83.75775146484375 15.193264007568359 5
   vertex 81.01849365234375 11.692287445068359 5
   vertex 83.75775146484375 -6.2813453674316406 5
  endloop
 endfacet
 facet normal 0 0 1
  outer loop
   vertex 83.75775146484375 -6.2813453674316406 5
   vertex 81.01849365234375 11.692287445068359 5
   vertex 81.01849365234375 -6.2813453674316406 5
  endloop
 endfacet
 facet normal 0 0 -1
  outer loop
   vertex 66.00384521484375 -6.2813453674316406 0
   vertex 63.26458740234375 -6.2813453674316406 0
   vertex 66.00384521484375 11.999904632568359 0
  endloop
 endfacet
 facet normal 0 0 -1
  outer loop
   vertex 66.00384521484375 11.999904632568359 0
   vertex 63.26458740234375 -6.2813453674316406 0
   vertex 63.26458740234375 15.193264007568359 0
  endloop
 endfacet
 facet normal 0 0 -1
  outer loop
   vertex 66.00384521484375 11.999904632568359 0
   vertex 63.26458740234375 15.193264007568359 0
   vertex 67.54193115234375 15.193264007568359 0
  endloop
 endfacet
 facet normal 0 0 -1
  outer loop
   vertex 67.54193115234375 15.193264007568359 0
   vertex 72.62493896484375 -0.01181434839963913 0
   vertex 66.00384521484375 11.999904632568359 0
  endloop
 endfacet
 facet normal -0 0 -1
  outer loop
   vertex 66.00384521484375 11.999904632568359 0
   vertex 72.62493896484375 -0.01181434839963913 0
   vertex 72.21478271484375 -6.2813453674316406 0
  endloop
 endfacet
 facet normal 0 -0 -1
  outer loop
   vertex 72.21478271484375 -6.2813453674316406 0
   vertex 72.62493896484375 -0.01181434839963913 0
   vertex 72.886764526367188 -0.80473017692565918 0
  endloop
 endfacet
 facet normal 0 -0 -1
  outer loop
   vertex 72.21478271484375 -6.2813453674316406 0
   vertex 72.886764526367188 -0.80473017692565918 0
   vertex 73.145904541015625 -1.5985094308853149 0
  endloop
 endfacet
 facet normal -0 0 -1
  outer loop
   vertex 73.145904541015625 -1.5985094308853149 0
   vertex 73.399986267089844 -2.3939156532287598 0
   vertex 72.21478271484375 -6.2813453674316406 0
  endloop
 endfacet
 facet normal 0 -0 -1
  outer loop
   vertex 72.21478271484375 -6.2813453674316406 0
   vertex 73.399986267089844 -2.3939156532287598 0
   vertex 73.65032958984375 -3.1905252933502197 0
  endloop
 endfacet
 facet normal 0 -0 -1
  outer loop
   vertex 72.21478271484375 -6.2813453674316406 0
   vertex 73.65032958984375 -3.1905252933502197 0
   vertex 74.77825927734375 -6.2813453674316406 0
  endloop
 endfacet
 facet normal 0 0 -1
  outer loop
   vertex 74.77825927734375 -6.2813453674316406 0
   vertex 73.65032958984375 -3.1905252933502197 0
   vertex 73.928436279296875 -2.327437162399292 0
  endloop
 endfacet
 facet normal 0 0 -1
  outer loop
   vertex 74.77825927734375 -6.2813453674316406 0
   vertex 73.928436279296875 -2.327437162399292 0
   vertex 74.211212158203125 -1.4658911228179932 0
  endloop
 endfacet
 facet normal 0 -0 -1
  outer loop
   vertex 74.211212158203125 -1.4658911228179932 0
   vertex 74.500358581542969 -0.60645473003387451 0
   vertex 74.77825927734375 -6.2813453674316406 0
  endloop
 endfacet
 facet normal 0 0 -1
  outer loop
   vertex 74.77825927734375 -6.2813453674316406 0
   vertex 74.500358581542969 -0.60645473003387451 0
   vertex 74.79290771484375 0.25185751914978027 0
  endloop
 endfacet
 facet normal 0 -0 -1
  outer loop
   vertex 74.77825927734375 -6.2813453674316406 0
   vertex 74.79290771484375 0.25185751914978027 0
   vertex 81.01849365234375 11.692287445068359 0
  endloop
 endfacet
 facet normal 0 0 -1
  outer loop
   vertex 81.01849365234375 11.692287445068359 0
   vertex 74.79290771484375 0.25185751914978027 0
   vertex 79.93450927734375 15.193264007568359 0
  endloop
 endfacet
 facet normal 0 0 -1
  outer loop
   vertex 81.01849365234375 11.692287445068359 0
   vertex 79.93450927734375 15.193264007568359 0
   vertex 83.75775146484375 15.193264007568359 0
  endloop
 endfacet
 facet normal 0 0 -1
  outer loop
   vertex 83.75775146484375 15.193264007568359 0
   vertex 83.75775146484375 -6.2813453674316406 0
   vertex 81.01849365234375 11.692287445068359 0
  endloop
 endfacet
 facet normal 0 0 -1
  outer loop
   vertex 81.01849365234375 11.692287445068359 0
   vertex 83.75775146484375 -6.2813453674316406 0
   vertex 81.01849365234375 -6.2813453674316406 0
  endloop
 endfacet
endsolid
