solid Visualization Toolkit generated SLA File
 facet normal 0 0 1
  outer loop
   vertex -88.151535034179688 -46.177223205566406 5
   vertex -88.151535034179688 -29.302223205566406 5
   vertex -90.876144409179688 -46.177223205566406 5
  endloop
 endfacet
 facet normal 0 0 1
  outer loop
   vertex -90.876144409179688 -46.177223205566406 5
   vertex -88.151535034179688 -29.302223205566406 5
   vertex -90.876144409179688 -24.702613830566406 5
  endloop
 endfacet
 facet normal 0 -0 1
  outer loop
   vertex -90.876144409179688 -24.702613830566406 5
   vertex -88.151535034179688 -29.302223205566406 5
   vertex -87.961105346679688 -24.702613830566406 5
  endloop
 endfacet
 facet normal -0 0 1
  outer loop
   vertex -87.961105346679688 -24.702613830566406 5
   vertex -88.151535034179688 -29.302223205566406 5
   vertex -76.681808471679688 -41.562965393066406 5
  endloop
 endfacet
 facet normal 0 0 1
  outer loop
   vertex -76.681808471679688 -41.562965393066406 5
   vertex -88.151535034179688 -29.302223205566406 5
   vertex -76.872238159179688 -46.177223205566406 5
  endloop
 endfacet
 facet normal 0 0 1
  outer loop
   vertex -76.681808471679688 -41.562965393066406 5
   vertex -76.872238159179688 -46.177223205566406 5
   vertex -73.957199096679688 -46.177223205566406 5
  endloop
 endfacet
 facet normal 0 0 1
  outer loop
   vertex -73.957199096679688 -46.177223205566406 5
   vertex -73.957199096679688 -24.702613830566406 5
   vertex -76.681808471679688 -41.562965393066406 5
  endloop
 endfacet
 facet normal 0 0 1
  outer loop
   vertex -76.681808471679688 -41.562965393066406 5
   vertex -73.957199096679688 -24.702613830566406 5
   vertex -76.681808471679688 -24.702613830566406 5
  endloop
 endfacet
 facet normal -1 0 0
  outer loop
   vertex -90.876144409179688 -24.702613830566406 0
   vertex -90.876144409179688 -46.177223205566406 0
   vertex -90.876144409179688 -24.702613830566406 5
  endloop
 endfacet
 facet normal -1 0 0
  outer loop
   vertex -90.876144409179688 -24.702613830566406 5
   vertex -90.876144409179688 -46.177223205566406 0
   vertex -90.876144409179688 -46.177223205566406 5
  endloop
 endfacet
 facet normal 0 1 0
  outer loop
   vertex -87.961105346679688 -24.702613830566406 0
   vertex -90.876144409179688 -24.702613830566406 0
   vertex -87.961105346679688 -24.702613830566406 5
  endloop
 endfacet
 facet normal 0 1 0
  outer loop
   vertex -87.961105346679688 -24.702613830566406 5
   vertex -90.876144409179688 -24.702613830566406 0
   vertex -90.876144409179688 -24.702613830566406 5
  endloop
 endfacet
 facet normal 0.8311604628836109 0.55603262938347553 0
  outer loop
   vertex -76.681808471679688 -41.562965393066406 0
   vertex -87.961105346679688 -24.702613830566406 0
   vertex -76.681808471679688 -41.562965393066406 5
  endloop
 endfacet
 facet normal 0.8311604628836109 0.55603262938347553 -0
  outer loop
   vertex -76.681808471679688 -41.562965393066406 5
   vertex -87.961105346679688 -24.702613830566406 0
   vertex -87.961105346679688 -24.702613830566406 5
  endloop
 endfacet
 facet normal -1 0 0
  outer loop
   vertex -76.681808471679688 -24.702613830566406 0
   vertex -76.681808471679688 -41.562965393066406 0
   vertex -76.681808471679688 -24.702613830566406 5
  endloop
 endfacet
 facet normal -1 0 0
  outer loop
   vertex -76.681808471679688 -24.702613830566406 5
   vertex -76.681808471679688 -41.562965393066406 0
   vertex -76.681808471679688 -41.562965393066406 5
  endloop
 endfacet
 facet normal 0 1 0
  outer loop
   vertex -73.957199096679688 -24.702613830566406 0
   vertex -76.681808471679688 -24.702613830566406 0
   vertex -73.957199096679688 -24.702613830566406 5
  endloop
 endfacet
 facet normal 0 1 0
  outer loop
   vertex -73.957199096679688 -24.702613830566406 5
   vertex -76.681808471679688 -24.702613830566406 0
   vertex -76.681808471679688 -24.702613830566406 5
  endloop
 endfacet
 facet normal 1 0 0
  outer loop
   vertex -73.957199096679688 -46.177223205566406 0
   vertex -73.957199096679688 -24.702613830566406 0
   vertex -73.957199096679688 -46.177223205566406 5
  endloop
 endfacet
 facet normal 1 0 -0
  outer loop
   vertex -73.957199096679688 -46.177223205566406 5
   vertex -73.957199096679688 -24.702613830566406 0
   vertex -73.957199096679688 -24.702613830566406 5
  endloop
 endfacet
 facet normal 0 -1 0
  outer loop
   vertex -76.872238159179688 -46.177223205566406 0
   vertex -73.957199096679688 -46.177223205566406 0
   vertex -76.872238159179688 -46.177223205566406 5
  endloop
 endfacet
 facet normal 0 -1 0
  outer loop
   vertex -76.872238159179688 -46.177223205566406 5
   vertex -73.957199096679688 -46.177223205566406 0
   vertex -73.957199096679688 -46.177223205566406 5
  endloop
 endfacet
 facet normal -0.83138352160901041 -0.5556990552421337 0
  outer loop
   vertex -88.151535034179688 -29.302223205566406 0
   vertex -76.872238159179688 -46.177223205566406 0
   vertex -88.151535034179688 -29.302223205566406 5
  endloop
 endfacet
 facet normal -0.83138352160901041 -0.5556990552421337 0
  outer loop
   vertex -88.151535034179688 -29.302223205566406 5
   vertex -76.872238159179688 -46.177223205566406 0
   vertex -76.872238159179688 -46.177223205566406 5
  endloop
 endfacet
 facet normal 1 0 0
  outer loop
   vertex -88.151535034179688 -46.177223205566406 0
   vertex -88.151535034179688 -29.302223205566406 0
   vertex -88.151535034179688 -46.177223205566406 5
  endloop
 endfacet
 facet normal 1 0 -0
  outer loop
   vertex -88.151535034179688 -46.177223205566406 5
   vertex -88.151535034179688 -29.302223205566406 0
   vertex -88.151535034179688 -29.302223205566406 5
  endloop
 endfacet
 facet normal 0 -1 0
  outer loop
   vertex -90.876144409179688 -46.177223205566406 0
   vertex -88.151535034179688 -46.177223205566406 0
   vertex -90.876144409179688 -46.177223205566406 5
  endloop
 endfacet
 facet normal 0 -1 0
  outer loop
   vertex -90.876144409179688 -46.177223205566406 5
   vertex -88.151535034179688 -46.177223205566406 0
   vertex -88.151535034179688 -46.177223205566406 5
  endloop
 endfacet
 facet normal 0 0 -1
  outer loop
   vertex -88.151535034179688 -46.177223205566406 0
   vertex -90.876144409179688 -46.177223205566406 0
   vertex -88.151535034179688 -29.302223205566406 0
  endloop
 endfacet
 facet normal 0 0 -1
  outer loop
   vertex -88.151535034179688 -29.302223205566406 0
   vertex -90.876144409179688 -46.177223205566406 0
   vertex -90.876144409179688 -24.702613830566406 0
  endloop
 endfacet
 facet normal 0 0 -1
  outer loop
   vertex -88.151535034179688 -29.302223205566406 0
   vertex -90.876144409179688 -24.702613830566406 0
   vertex -87.961105346679688 -24.702613830566406 0
  endloop
 endfacet
 facet normal 0 0 -1
  outer loop
   vertex -87.961105346679688 -24.702613830566406 0
   vertex -76.681808471679688 -41.562965393066406 0
   vertex -88.151535034179688 -29.302223205566406 0
  endloop
 endfacet
 facet normal -0 0 -1
  outer loop
   vertex -88.151535034179688 -29.302223205566406 0
   vertex -76.681808471679688 -41.562965393066406 0
   vertex -76.872238159179688 -46.177223205566406 0
  endloop
 endfacet
 facet normal 0 -0 -1
  outer loop
   vertex -76.872238159179688 -46.177223205566406 0
   vertex -76.681808471679688 -41.562965393066406 0
   vertex -73.957199096679688 -46.177223205566406 0
  endloop
 endfacet
 facet normal 0 0 -1
  outer loop
   vertex -73.957199096679688 -46.177223205566406 0
   vertex -76.681808471679688 -41.562965393066406 0
   vertex -73.957199096679688 -24.702613830566406 0
  endloop
 endfacet
 facet normal 0 0 -1
  outer loop
   vertex -73.957199096679688 -24.702613830566406 0
   vertex -76.681808471679688 -41.562965393066406 0
   vertex -76.681808471679688 -24.702613830566406 0
  endloop
 endfacet
endsolid
