solid Visualization Toolkit generated SLA File
 facet normal 0 0 1
  outer loop
   vertex -26.335124969482422 -46.177223205566406 5
   vertex -26.335124969482422 -37.446754455566406 5
   vertex -29.176921844482422 -46.177223205566406 5
  endloop
 endfacet
 facet normal 0 -0 1
  outer loop
   vertex -29.176921844482422 -46.177223205566406 5
   vertex -26.335124969482422 -37.446754455566406 5
   vertex -26.335124969482422 -34.912574768066406 5
  endloop
 endfacet
 facet normal 0 0 1
  outer loop
   vertex -29.176921844482422 -46.177223205566406 5
   vertex -26.335124969482422 -34.912574768066406 5
   vertex -29.176921844482422 -24.702613830566406 5
  endloop
 endfacet
 facet normal 0 -0 1
  outer loop
   vertex -29.176921844482422 -24.702613830566406 5
   vertex -26.335124969482422 -34.912574768066406 5
   vertex -26.335124969482422 -27.236793518066406 5
  endloop
 endfacet
 facet normal 0 -0 1
  outer loop
   vertex -29.176921844482422 -24.702613830566406 5
   vertex -26.335124969482422 -27.236793518066406 5
   vertex -21.076335906982422 -24.702613830566406 5
  endloop
 endfacet
 facet normal 0 0 1
  outer loop
   vertex -21.076335906982422 -24.702613830566406 5
   vertex -26.335124969482422 -27.236793518066406 5
   vertex -20.841960906982422 -27.236793518066406 5
  endloop
 endfacet
 facet normal 0 -0 1
  outer loop
   vertex -21.076335906982422 -24.702613830566406 5
   vertex -20.841960906982422 -27.236793518066406 5
   vertex -20.256572723388672 -24.708877563476562 5
  endloop
 endfacet
 facet normal -0 0 1
  outer loop
   vertex -20.256572723388672 -24.708877563476562 5
   vertex -20.841960906982422 -27.236793518066406 5
   vertex -20.175182342529297 -27.237674713134766 5
  endloop
 endfacet
 facet normal 0 -0 1
  outer loop
   vertex -20.256572723388672 -24.708877563476562 5
   vertex -20.175182342529297 -27.237674713134766 5
   vertex -19.438350677490234 -24.737417221069336 5
  endloop
 endfacet
 facet normal -0 0 1
  outer loop
   vertex -19.438350677490234 -24.737417221069336 5
   vertex -20.175182342529297 -27.237674713134766 5
   vertex -19.510280609130859 -27.260812759399414 5
  endloop
 endfacet
 facet normal 0 0 1
  outer loop
   vertex -19.438350677490234 -24.737417221069336 5
   vertex -19.510280609130859 -27.260812759399414 5
   vertex -19.030292510986328 -24.766935348510742 5
  endloop
 endfacet
 facet normal -0 0 1
  outer loop
   vertex -19.030292510986328 -24.766935348510742 5
   vertex -19.510280609130859 -27.260812759399414 5
   vertex -19.179117202758789 -27.287681579589844 5
  endloop
 endfacet
 facet normal -0 0 1
  outer loop
   vertex -19.030292510986328 -24.766935348510742 5
   vertex -19.179117202758789 -27.287681579589844 5
   vertex -18.848991394042969 -27.326868057250977 5
  endloop
 endfacet
 facet normal 0 0 1
  outer loop
   vertex -26.335124969482422 -37.446754455566406 5
   vertex -20.827312469482422 -37.446754455566406 5
   vertex -26.335124969482422 -34.912574768066406 5
  endloop
 endfacet
 facet normal 0 -0 1
  outer loop
   vertex -26.335124969482422 -34.912574768066406 5
   vertex -20.827312469482422 -37.446754455566406 5
   vertex -20.783367156982422 -34.912574768066406 5
  endloop
 endfacet
 facet normal 0 0 1
  outer loop
   vertex -20.783367156982422 -34.912574768066406 5
   vertex -20.827312469482422 -37.446754455566406 5
   vertex -19.965034484863281 -37.432270050048828 5
  endloop
 endfacet
 facet normal 0 -0 1
  outer loop
   vertex -20.783367156982422 -34.912574768066406 5
   vertex -19.965034484863281 -37.432270050048828 5
   vertex -19.536617279052734 -37.416938781738281 5
  endloop
 endfacet
 facet normal 0 0 1
  outer loop
   vertex -19.536617279052734 -37.416938781738281 5
   vertex -19.111465454101562 -37.39190673828125 5
   vertex -20.783367156982422 -34.912574768066406 5
  endloop
 endfacet
 facet normal 0 -0 1
  outer loop
   vertex -20.783367156982422 -34.912574768066406 5
   vertex -19.111465454101562 -37.39190673828125 5
   vertex -18.690668106079102 -37.353935241699219 5
  endloop
 endfacet
 facet normal 0 -0 1
  outer loop
   vertex -20.783367156982422 -34.912574768066406 5
   vertex -18.690668106079102 -37.353935241699219 5
   vertex -18.275314331054688 -37.299789428710938 5
  endloop
 endfacet
 facet normal 0 0 1
  outer loop
   vertex -18.275314331054688 -37.299789428710938 5
   vertex -17.866491317749023 -37.226234436035156 5
   vertex -20.783367156982422 -34.912574768066406 5
  endloop
 endfacet
 facet normal 0 -0 1
  outer loop
   vertex -20.783367156982422 -34.912574768066406 5
   vertex -17.866491317749023 -37.226234436035156 5
   vertex -17.465288162231445 -37.130039215087891 5
  endloop
 endfacet
 facet normal 0 -0 1
  outer loop
   vertex -20.783367156982422 -34.912574768066406 5
   vertex -17.465288162231445 -37.130039215087891 5
   vertex -17.072792053222656 -37.007968902587891 5
  endloop
 endfacet
 facet normal 0 0 1
  outer loop
   vertex -17.072792053222656 -37.007968902587891 5
   vertex -16.689914703369141 -36.857315063476562 5
   vertex -20.783367156982422 -34.912574768066406 5
  endloop
 endfacet
 facet normal 0 -0 1
  outer loop
   vertex -20.783367156982422 -34.912574768066406 5
   vertex -16.689914703369141 -36.857315063476562 5
   vertex -16.315990447998047 -36.680061340332031 5
  endloop
 endfacet
 facet normal 0 -0 1
  outer loop
   vertex -20.783367156982422 -34.912574768066406 5
   vertex -16.315990447998047 -36.680061340332031 5
   vertex -15.949530601501465 -36.480628967285156 5
  endloop
 endfacet
 facet normal 0 0 1
  outer loop
   vertex -15.949530601501465 -36.480628967285156 5
   vertex -15.589043617248535 -36.263442993164062 5
   vertex -20.783367156982422 -34.912574768066406 5
  endloop
 endfacet
 facet normal 0 -0 1
  outer loop
   vertex -20.783367156982422 -34.912574768066406 5
   vertex -15.589043617248535 -36.263442993164062 5
   vertex -15.233035087585449 -36.032951354980469 5
  endloop
 endfacet
 facet normal 0 0 1
  outer loop
   vertex -20.783367156982422 -34.912574768066406 5
   vertex -15.233035087585449 -36.032951354980469 5
   vertex -20.259525299072266 -34.904281616210938 5
  endloop
 endfacet
 facet normal 0 0 1
  outer loop
   vertex -20.259525299072266 -34.904281616210938 5
   vertex -15.233035087585449 -36.032951354980469 5
   vertex -19.739751815795898 -34.882030487060547 5
  endloop
 endfacet
 facet normal 0 0 1
  outer loop
   vertex -19.739751815795898 -34.882030487060547 5
   vertex -15.233035087585449 -36.032951354980469 5
   vertex -19.482660293579102 -34.861316680908203 5
  endloop
 endfacet
 facet normal 0 0 1
  outer loop
   vertex -19.482660293579102 -34.861316680908203 5
   vertex -15.233035087585449 -36.032951354980469 5
   vertex -19.228113174438477 -34.831878662109375 5
  endloop
 endfacet
 facet normal 0 0 1
  outer loop
   vertex -19.228113174438477 -34.831878662109375 5
   vertex -15.233035087585449 -36.032951354980469 5
   vertex -18.976615905761719 -34.791980743408203 5
  endloop
 endfacet
 facet normal 0 0 1
  outer loop
   vertex -18.976615905761719 -34.791980743408203 5
   vertex -15.233035087585449 -36.032951354980469 5
   vertex -18.728677749633789 -34.7398681640625 5
  endloop
 endfacet
 facet normal 0 0 1
  outer loop
   vertex -18.728677749633789 -34.7398681640625 5
   vertex -15.233035087585449 -36.032951354980469 5
   vertex -18.484807968139648 -34.673809051513672 5
  endloop
 endfacet
 facet normal 0 0 1
  outer loop
   vertex -18.484807968139648 -34.673809051513672 5
   vertex -15.233035087585449 -36.032951354980469 5
   vertex -18.245424270629883 -34.592361450195312 5
  endloop
 endfacet
 facet normal 0 0 1
  outer loop
   vertex -18.245424270629883 -34.592361450195312 5
   vertex -15.233035087585449 -36.032951354980469 5
   vertex -18.010198593139648 -34.49664306640625 5
  endloop
 endfacet
 facet normal 0 0 1
  outer loop
   vertex -18.010198593139648 -34.49664306640625 5
   vertex -15.233035087585449 -36.032951354980469 5
   vertex -17.778444290161133 -34.389030456542969 5
  endloop
 endfacet
 facet normal 0 0 1
  outer loop
   vertex -17.778444290161133 -34.389030456542969 5
   vertex -15.233035087585449 -36.032951354980469 5
   vertex -17.322563171386719 -34.147624969482422 5
  endloop
 endfacet
 facet normal 0 0 1
  outer loop
   vertex -17.322563171386719 -34.147624969482422 5
   vertex -15.233035087585449 -36.032951354980469 5
   vertex -16.872234344482422 -33.887184143066406 5
  endloop
 endfacet
 facet normal 0 0 1
  outer loop
   vertex -16.872234344482422 -33.887184143066406 5
   vertex -15.233035087585449 -36.032951354980469 5
   vertex -16.607845306396484 -33.576129913330078 5
  endloop
 endfacet
 facet normal 0 0 1
  outer loop
   vertex -16.607845306396484 -33.576129913330078 5
   vertex -15.233035087585449 -36.032951354980469 5
   vertex -16.359325408935547 -33.258487701416016 5
  endloop
 endfacet
 facet normal 0 -0 1
  outer loop
   vertex -16.359325408935547 -33.258487701416016 5
   vertex -15.233035087585449 -36.032951354980469 5
   vertex -14.528484344482422 -35.549781799316406 5
  endloop
 endfacet
 facet normal 0 0 1
  outer loop
   vertex -16.359325408935547 -33.258487701416016 5
   vertex -14.528484344482422 -35.549781799316406 5
   vertex -16.245975494384766 -33.095146179199219 5
  endloop
 endfacet
 facet normal 0 -0 1
  outer loop
   vertex -16.245975494384766 -33.095146179199219 5
   vertex -14.528484344482422 -35.549781799316406 5
   vertex -14.144182205200195 -35.033451080322266 5
  endloop
 endfacet
 facet normal 0 0 1
  outer loop
   vertex -16.245975494384766 -33.095146179199219 5
   vertex -14.144182205200195 -35.033451080322266 5
   vertex -16.142545700073242 -32.927684783935547 5
  endloop
 endfacet
 facet normal 0 0 1
  outer loop
   vertex -16.142545700073242 -32.927684783935547 5
   vertex -14.144182205200195 -35.033451080322266 5
   vertex -16.051019668579102 -32.755290985107422 5
  endloop
 endfacet
 facet normal 0 -0 1
  outer loop
   vertex -16.051019668579102 -32.755290985107422 5
   vertex -14.144182205200195 -35.033451080322266 5
   vertex -13.781373977661133 -34.508956909179688 5
  endloop
 endfacet
 facet normal 0 0 1
  outer loop
   vertex -16.051019668579102 -32.755290985107422 5
   vertex -13.781373977661133 -34.508956909179688 5
   vertex -15.973331451416016 -32.577156066894531 5
  endloop
 endfacet
 facet normal 0 -0 1
  outer loop
   vertex -15.973331451416016 -32.577156066894531 5
   vertex -13.781373977661133 -34.508956909179688 5
   vertex -13.614747047424316 -34.241096496582031 5
  endloop
 endfacet
 facet normal 0 0 1
  outer loop
   vertex -15.973331451416016 -32.577156066894531 5
   vertex -13.614747047424316 -34.241096496582031 5
   vertex -15.90980339050293 -32.393146514892578 5
  endloop
 endfacet
 facet normal 0 -0 1
  outer loop
   vertex -15.90980339050293 -32.393146514892578 5
   vertex -13.614747047424316 -34.241096496582031 5
   vertex -13.461554527282715 -33.968135833740234 5
  endloop
 endfacet
 facet normal 0 0 1
  outer loop
   vertex -15.90980339050293 -32.393146514892578 5
   vertex -13.461554527282715 -33.968135833740234 5
   vertex -15.858769416809082 -32.203956604003906 5
  endloop
 endfacet
 facet normal 0 -0 1
  outer loop
   vertex -15.858769416809082 -32.203956604003906 5
   vertex -13.461554527282715 -33.968135833740234 5
   vertex -13.324482917785645 -33.689052581787109 5
  endloop
 endfacet
 facet normal 0 -0 1
  outer loop
   vertex -15.858769416809082 -32.203956604003906 5
   vertex -13.324482917785645 -33.689052581787109 5
   vertex -13.206216812133789 -33.402824401855469 5
  endloop
 endfacet
 facet normal 0 0 1
  outer loop
   vertex -15.858769416809082 -32.203956604003906 5
   vertex -13.206216812133789 -33.402824401855469 5
   vertex -15.818447113037109 -32.010322570800781 5
  endloop
 endfacet
 facet normal 0 -0 1
  outer loop
   vertex -15.818447113037109 -32.010322570800781 5
   vertex -13.206216812133789 -33.402824401855469 5
   vertex -13.108159065246582 -33.108924865722656 5
  endloop
 endfacet
 facet normal 0 -0 1
  outer loop
   vertex -15.818447113037109 -32.010322570800781 5
   vertex -13.108159065246582 -33.108924865722656 5
   vertex -13.028278350830078 -32.808120727539062 5
  endloop
 endfacet
 facet normal 0 0 1
  outer loop
   vertex -15.818447113037109 -32.010322570800781 5
   vertex -13.028278350830078 -32.808120727539062 5
   vertex -15.78704833984375 -31.812990188598633 5
  endloop
 endfacet
 facet normal 0 -0 1
  outer loop
   vertex -15.78704833984375 -31.812990188598633 5
   vertex -13.028278350830078 -32.808120727539062 5
   vertex -12.963980674743652 -32.501399993896484 5
  endloop
 endfacet
 facet normal 0 -0 1
  outer loop
   vertex -15.78704833984375 -31.812990188598633 5
   vertex -12.963980674743652 -32.501399993896484 5
   vertex -12.912667274475098 -32.189746856689453 5
  endloop
 endfacet
 facet normal 0 0 1
  outer loop
   vertex -15.78704833984375 -31.812990188598633 5
   vertex -12.912667274475098 -32.189746856689453 5
   vertex -15.743887901306152 -31.410177230834961 5
  endloop
 endfacet
 facet normal 0 -0 1
  outer loop
   vertex -15.743887901306152 -31.410177230834961 5
   vertex -12.912667274475098 -32.189746856689453 5
   vertex -12.838605880737305 -31.555595397949219 5
  endloop
 endfacet
 facet normal 0 0 1
  outer loop
   vertex -15.743887901306152 -31.410177230834961 5
   vertex -12.838605880737305 -31.555595397949219 5
   vertex -15.715007781982422 -31.001441955566406 5
  endloop
 endfacet
 facet normal 0 -0 1
  outer loop
   vertex -15.715007781982422 -31.001441955566406 5
   vertex -12.838605880737305 -31.555595397949219 5
   vertex -12.785320281982422 -30.913551330566406 5
  endloop
 endfacet
 facet normal 0 0 1
  outer loop
   vertex -15.715007781982422 -31.001441955566406 5
   vertex -12.785320281982422 -30.913551330566406 5
   vertex -15.733768463134766 -30.693035125732422 5
  endloop
 endfacet
 facet normal 0 0 1
  outer loop
   vertex -15.733768463134766 -30.693035125732422 5
   vertex -12.785320281982422 -30.913551330566406 5
   vertex -12.832546234130859 -30.155111312866211 5
  endloop
 endfacet
 facet normal 0 0 1
  outer loop
   vertex -15.733768463134766 -30.693035125732422 5
   vertex -12.832546234130859 -30.155111312866211 5
   vertex -15.760801315307617 -30.387121200561523 5
  endloop
 endfacet
 facet normal 0 0 1
  outer loop
   vertex -15.760801315307617 -30.387121200561523 5
   vertex -12.832546234130859 -30.155111312866211 5
   vertex -12.87562084197998 -29.780265808105469 5
  endloop
 endfacet
 facet normal 0 0 1
  outer loop
   vertex -15.760801315307617 -30.387121200561523 5
   vertex -12.87562084197998 -29.780265808105469 5
   vertex -12.942048072814941 -29.410671234130859 5
  endloop
 endfacet
 facet normal 0 0 1
  outer loop
   vertex -15.760801315307617 -30.387121200561523 5
   vertex -12.942048072814941 -29.410671234130859 5
   vertex -15.804381370544434 -30.086196899414062 5
  endloop
 endfacet
 facet normal 0 0 1
  outer loop
   vertex -15.804381370544434 -30.086196899414062 5
   vertex -12.942048072814941 -29.410671234130859 5
   vertex -13.037528038024902 -29.047605514526367 5
  endloop
 endfacet
 facet normal 0 0 1
  outer loop
   vertex -15.804381370544434 -30.086196899414062 5
   vertex -13.037528038024902 -29.047605514526367 5
   vertex -13.157266616821289 -28.689994812011719 5
  endloop
 endfacet
 facet normal 0 0 1
  outer loop
   vertex -15.804381370544434 -30.086196899414062 5
   vertex -13.157266616821289 -28.689994812011719 5
   vertex -15.872781753540039 -29.792757034301758 5
  endloop
 endfacet
 facet normal 0 0 1
  outer loop
   vertex -15.872781753540039 -29.792757034301758 5
   vertex -13.157266616821289 -28.689994812011719 5
   vertex -13.437175750732422 -27.983863830566406 5
  endloop
 endfacet
 facet normal 0 0 1
  outer loop
   vertex -15.872781753540039 -29.792757034301758 5
   vertex -13.437175750732422 -27.983863830566406 5
   vertex -15.972490310668945 -29.508758544921875 5
  endloop
 endfacet
 facet normal 0 0 1
  outer loop
   vertex -15.972490310668945 -29.508758544921875 5
   vertex -13.437175750732422 -27.983863830566406 5
   vertex -13.776005744934082 -27.389022827148438 5
  endloop
 endfacet
 facet normal 0 0 1
  outer loop
   vertex -15.972490310668945 -29.508758544921875 5
   vertex -13.776005744934082 -27.389022827148438 5
   vertex -16.098882675170898 -29.232805252075195 5
  endloop
 endfacet
 facet normal 0 0 1
  outer loop
   vertex -16.098882675170898 -29.232805252075195 5
   vertex -13.776005744934082 -27.389022827148438 5
   vertex -13.960636138916016 -27.104352951049805 5
  endloop
 endfacet
 facet normal 0 0 1
  outer loop
   vertex -16.098882675170898 -29.232805252075195 5
   vertex -13.960636138916016 -27.104352951049805 5
   vertex -14.163522720336914 -26.834983825683594 5
  endloop
 endfacet
 facet normal 0 0 1
  outer loop
   vertex -16.098882675170898 -29.232805252075195 5
   vertex -14.163522720336914 -26.834983825683594 5
   vertex -16.243072509765625 -28.962217330932617 5
  endloop
 endfacet
 facet normal 0 0 1
  outer loop
   vertex -16.243072509765625 -28.962217330932617 5
   vertex -14.163522720336914 -26.834983825683594 5
   vertex -14.389410018920898 -26.584888458251953 5
  endloop
 endfacet
 facet normal 0 0 1
  outer loop
   vertex -16.243072509765625 -28.962217330932617 5
   vertex -14.389410018920898 -26.584888458251953 5
   vertex -14.634859085083008 -26.351184844970703 5
  endloop
 endfacet
 facet normal 0 0 1
  outer loop
   vertex -16.243072509765625 -28.962217330932617 5
   vertex -14.634859085083008 -26.351184844970703 5
   vertex -16.396160125732422 -28.694313049316406 5
  endloop
 endfacet
 facet normal 0 0 1
  outer loop
   vertex -16.396160125732422 -28.694313049316406 5
   vertex -14.634859085083008 -26.351184844970703 5
   vertex -15.158367156982422 -25.911109924316406 5
  endloop
 endfacet
 facet normal 0 0 1
  outer loop
   vertex -16.396160125732422 -28.694313049316406 5
   vertex -15.158367156982422 -25.911109924316406 5
   vertex -16.579191207885742 -28.477363586425781 5
  endloop
 endfacet
 facet normal 0 0 1
  outer loop
   vertex -16.579191207885742 -28.477363586425781 5
   vertex -15.158367156982422 -25.911109924316406 5
   vertex -16.767471313476562 -28.267864227294922 5
  endloop
 endfacet
 facet normal 0 0 1
  outer loop
   vertex -16.767471313476562 -28.267864227294922 5
   vertex -15.158367156982422 -25.911109924316406 5
   vertex -15.78179931640625 -25.5579833984375 5
  endloop
 endfacet
 facet normal 0 0 1
  outer loop
   vertex -16.767471313476562 -28.267864227294922 5
   vertex -15.78179931640625 -25.5579833984375 5
   vertex -16.966253280639648 -28.073265075683594 5
  endloop
 endfacet
 facet normal 0 0 1
  outer loop
   vertex -16.966253280639648 -28.073265075683594 5
   vertex -15.78179931640625 -25.5579833984375 5
   vertex -16.100517272949219 -25.399587631225586 5
  endloop
 endfacet
 facet normal 0 0 1
  outer loop
   vertex -16.966253280639648 -28.073265075683594 5
   vertex -16.100517272949219 -25.399587631225586 5
   vertex -17.180789947509766 -27.901018142700195 5
  endloop
 endfacet
 facet normal 0 0 1
  outer loop
   vertex -17.180789947509766 -27.901018142700195 5
   vertex -16.100517272949219 -25.399587631225586 5
   vertex -16.42762565612793 -25.262969970703125 5
  endloop
 endfacet
 facet normal 0 0 1
  outer loop
   vertex -17.180789947509766 -27.901018142700195 5
   vertex -16.42762565612793 -25.262969970703125 5
   vertex -17.414674758911133 -27.756227493286133 5
  endloop
 endfacet
 facet normal 0 0 1
  outer loop
   vertex -17.414674758911133 -27.756227493286133 5
   vertex -16.42762565612793 -25.262969970703125 5
   vertex -16.764358520507812 -25.151330947875977 5
  endloop
 endfacet
 facet normal 0 0 1
  outer loop
   vertex -17.414674758911133 -27.756227493286133 5
   vertex -16.764358520507812 -25.151330947875977 5
   vertex -17.108631134033203 -25.059249877929688 5
  endloop
 endfacet
 facet normal 0 0 1
  outer loop
   vertex -17.809734344482422 -24.907691955566406 5
   vertex -17.924880981445312 -27.52685546875 5
   vertex -17.108631134033203 -25.059249877929688 5
  endloop
 endfacet
 facet normal -0 0 1
  outer loop
   vertex -17.108631134033203 -25.059249877929688 5
   vertex -17.924880981445312 -27.52685546875 5
   vertex -17.664474487304688 -27.634014129638672 5
  endloop
 endfacet
 facet normal -0 0 1
  outer loop
   vertex -17.108631134033203 -25.059249877929688 5
   vertex -17.664474487304688 -27.634014129638672 5
   vertex -17.414674758911133 -27.756227493286133 5
  endloop
 endfacet
 facet normal 0 0 1
  outer loop
   vertex -17.924880981445312 -27.52685546875 5
   vertex -17.809734344482422 -24.907691955566406 5
   vertex -18.190593719482422 -27.427223205566406 5
  endloop
 endfacet
 facet normal 0 0 1
  outer loop
   vertex -18.190593719482422 -27.427223205566406 5
   vertex -17.809734344482422 -24.907691955566406 5
   vertex -18.623004913330078 -24.807550430297852 5
  endloop
 endfacet
 facet normal 0 0 1
  outer loop
   vertex -18.190593719482422 -27.427223205566406 5
   vertex -18.623004913330078 -24.807550430297852 5
   vertex -18.848991394042969 -27.326868057250977 5
  endloop
 endfacet
 facet normal 0 0 1
  outer loop
   vertex -18.848991394042969 -27.326868057250977 5
   vertex -18.623004913330078 -24.807550430297852 5
   vertex -19.030292510986328 -24.766935348510742 5
  endloop
 endfacet
 facet normal 0 1 0
  outer loop
   vertex -20.783367156982422 -34.912574768066406 0
   vertex -26.335124969482422 -34.912574768066406 0
   vertex -20.783367156982422 -34.912574768066406 5
  endloop
 endfacet
 facet normal 0 1 0
  outer loop
   vertex -20.783367156982422 -34.912574768066406 5
   vertex -26.335124969482422 -34.912574768066406 0
   vertex -26.335124969482422 -34.912574768066406 5
  endloop
 endfacet
 facet normal -0.50063905454988034 0.86565613095466609 0
  outer loop
   vertex -16.872234344482422 -33.887184143066406 0
   vertex -17.322563171386719 -34.147624969482422 0
   vertex -16.872234344482422 -33.887184143066406 5
  endloop
 endfacet
 facet normal -0.50063905454988034 0.86565613095466609 0
  outer loop
   vertex -16.872234344482422 -33.887184143066406 5
   vertex -17.322563171386719 -34.147624969482422 0
   vertex -17.322563171386719 -34.147624969482422 5
  endloop
 endfacet
 facet normal -0.46797350942400195 0.88374249330751531 0
  outer loop
   vertex -17.322563171386719 -34.147624969482422 5
   vertex -17.322563171386719 -34.147624969482422 0
   vertex -17.778444290161133 -34.389030456542969 0
  endloop
 endfacet
 facet normal -0.46797350942400195 0.88374249330751531 0
  outer loop
   vertex -17.322563171386719 -34.147624969482422 5
   vertex -17.778444290161133 -34.389030456542969 0
   vertex -17.778444290161133 -34.389030456542969 5
  endloop
 endfacet
 facet normal -0.42115122154020745 0.90699043467678919 0
  outer loop
   vertex -17.778444290161133 -34.389030456542969 5
   vertex -17.778444290161133 -34.389030456542969 0
   vertex -18.010198593139648 -34.49664306640625 0
  endloop
 endfacet
 facet normal -0.42115122154020745 0.90699043467678919 0
  outer loop
   vertex -17.778444290161133 -34.389030456542969 5
   vertex -18.010198593139648 -34.49664306640625 0
   vertex -18.010198593139648 -34.49664306640625 5
  endloop
 endfacet
 facet normal -0.37691084617374748 0.92624954198994869 0
  outer loop
   vertex -18.010198593139648 -34.49664306640625 5
   vertex -18.010198593139648 -34.49664306640625 0
   vertex -18.245424270629883 -34.592361450195312 0
  endloop
 endfacet
 facet normal -0.37691084617374748 0.92624954198994869 0
  outer loop
   vertex -18.010198593139648 -34.49664306640625 5
   vertex -18.245424270629883 -34.592361450195312 0
   vertex -18.245424270629883 -34.592361450195312 5
  endloop
 endfacet
 facet normal -0.32210529952228467 0.94670384810650221 0
  outer loop
   vertex -18.245424270629883 -34.592361450195312 5
   vertex -18.245424270629883 -34.592361450195312 0
   vertex -18.484807968139648 -34.673809051513672 0
  endloop
 endfacet
 facet normal -0.32210529952228467 0.94670384810650221 0
  outer loop
   vertex -18.245424270629883 -34.592361450195312 5
   vertex -18.484807968139648 -34.673809051513672 0
   vertex -18.484807968139648 -34.673809051513672 5
  endloop
 endfacet
 facet normal -0.26145620960490129 0.9652153389057998 0
  outer loop
   vertex -18.484807968139648 -34.673809051513672 5
   vertex -18.484807968139648 -34.673809051513672 0
   vertex -18.728677749633789 -34.7398681640625 0
  endloop
 endfacet
 facet normal -0.26145620960490129 0.9652153389057998 0
  outer loop
   vertex -18.484807968139648 -34.673809051513672 5
   vertex -18.728677749633789 -34.7398681640625 0
   vertex -18.728677749633789 -34.7398681640625 5
  endloop
 endfacet
 facet normal -0.20568948682664293 0.97861730774036082 0
  outer loop
   vertex -18.728677749633789 -34.7398681640625 5
   vertex -18.728677749633789 -34.7398681640625 0
   vertex -18.976615905761719 -34.791980743408203 0
  endloop
 endfacet
 facet normal -0.20568948682664293 0.97861730774036082 0
  outer loop
   vertex -18.728677749633789 -34.7398681640625 5
   vertex -18.976615905761719 -34.791980743408203 0
   vertex -18.976615905761719 -34.791980743408203 5
  endloop
 endfacet
 facet normal -0.15668218838386716 0.98764907322552686 0
  outer loop
   vertex -18.976615905761719 -34.791980743408203 5
   vertex -18.976615905761719 -34.791980743408203 0
   vertex -19.228113174438477 -34.831878662109375 0
  endloop
 endfacet
 facet normal -0.15668218838386716 0.98764907322552686 0
  outer loop
   vertex -18.976615905761719 -34.791980743408203 5
   vertex -19.228113174438477 -34.831878662109375 0
   vertex -19.228113174438477 -34.831878662109375 5
  endloop
 endfacet
 facet normal -0.11488289865326411 0.99337904125113485 0
  outer loop
   vertex -19.228113174438477 -34.831878662109375 5
   vertex -19.228113174438477 -34.831878662109375 0
   vertex -19.482660293579102 -34.861316680908203 0
  endloop
 endfacet
 facet normal -0.11488289865326411 0.99337904125113485 0
  outer loop
   vertex -19.228113174438477 -34.831878662109375 5
   vertex -19.482660293579102 -34.861316680908203 0
   vertex -19.482660293579102 -34.861316680908203 5
  endloop
 endfacet
 facet normal -0.080309532652162341 0.99676997294520819 0
  outer loop
   vertex -19.482660293579102 -34.861316680908203 5
   vertex -19.482660293579102 -34.861316680908203 0
   vertex -19.739751815795898 -34.882030487060547 0
  endloop
 endfacet
 facet normal -0.080309532652162341 0.99676997294520819 0
  outer loop
   vertex -19.482660293579102 -34.861316680908203 5
   vertex -19.739751815795898 -34.882030487060547 0
   vertex -19.739751815795898 -34.882030487060547 5
  endloop
 endfacet
 facet normal -0.042770108043690698 0.99908494026180328 0
  outer loop
   vertex -19.739751815795898 -34.882030487060547 5
   vertex -19.739751815795898 -34.882030487060547 0
   vertex -20.259525299072266 -34.904281616210938 0
  endloop
 endfacet
 facet normal -0.042770108043690698 0.99908494026180328 0
  outer loop
   vertex -19.739751815795898 -34.882030487060547 5
   vertex -20.259525299072266 -34.904281616210938 0
   vertex -20.259525299072266 -34.904281616210938 5
  endloop
 endfacet
 facet normal -0.015829419996516905 0.99987470688210422 0
  outer loop
   vertex -20.259525299072266 -34.904281616210938 5
   vertex -20.259525299072266 -34.904281616210938 0
   vertex -20.783367156982422 -34.912574768066406 0
  endloop
 endfacet
 facet normal -0.015829419996516905 0.99987470688210422 0
  outer loop
   vertex -20.259525299072266 -34.904281616210938 5
   vertex -20.783367156982422 -34.912574768066406 0
   vertex -20.783367156982422 -34.912574768066406 5
  endloop
 endfacet
 facet normal -0.99751308298303853 0.070481552747323442 0
  outer loop
   vertex -15.715007781982422 -31.001441955566406 0
   vertex -15.743887901306152 -31.410177230834961 0
   vertex -15.715007781982422 -31.001441955566406 5
  endloop
 endfacet
 facet normal -0.99751308298303853 0.070481552747323442 0
  outer loop
   vertex -15.715007781982422 -31.001441955566406 5
   vertex -15.743887901306152 -31.410177230834961 0
   vertex -15.743887901306152 -31.410177230834961 5
  endloop
 endfacet
 facet normal -0.99430865519214817 0.10653777832291077 0
  outer loop
   vertex -15.743887901306152 -31.410177230834961 5
   vertex -15.743887901306152 -31.410177230834961 0
   vertex -15.78704833984375 -31.812990188598633 0
  endloop
 endfacet
 facet normal -0.99430865519214817 0.10653777832291077 0
  outer loop
   vertex -15.743887901306152 -31.410177230834961 5
   vertex -15.78704833984375 -31.812990188598633 0
   vertex -15.78704833984375 -31.812990188598633 5
  endloop
 endfacet
 facet normal -0.98757643490485425 0.15713938150768625 0
  outer loop
   vertex -15.78704833984375 -31.812990188598633 5
   vertex -15.78704833984375 -31.812990188598633 0
   vertex -15.818447113037109 -32.010322570800781 0
  endloop
 endfacet
 facet normal -0.98757643490485425 0.15713938150768625 0
  outer loop
   vertex -15.78704833984375 -31.812990188598633 5
   vertex -15.818447113037109 -32.010322570800781 0
   vertex -15.818447113037109 -32.010322570800781 5
  endloop
 endfacet
 facet normal -0.97899870778748932 0.20386645175316606 0
  outer loop
   vertex -15.818447113037109 -32.010322570800781 5
   vertex -15.818447113037109 -32.010322570800781 0
   vertex -15.858769416809082 -32.203956604003906 0
  endloop
 endfacet
 facet normal -0.97899870778748932 0.20386645175316606 0
  outer loop
   vertex -15.818447113037109 -32.010322570800781 5
   vertex -15.858769416809082 -32.203956604003906 0
   vertex -15.858769416809082 -32.203956604003906 5
  endloop
 endfacet
 facet normal -0.96548980490265723 0.26044085053813842 0
  outer loop
   vertex -15.858769416809082 -32.203956604003906 5
   vertex -15.858769416809082 -32.203956604003906 0
   vertex -15.90980339050293 -32.393146514892578 0
  endloop
 endfacet
 facet normal -0.96548980490265723 0.26044085053813842 0
  outer loop
   vertex -15.858769416809082 -32.203956604003906 5
   vertex -15.90980339050293 -32.393146514892578 0
   vertex -15.90980339050293 -32.393146514892578 5
  endloop
 endfacet
 facet normal -0.94525182108933414 0.3263418372309892 0
  outer loop
   vertex -15.90980339050293 -32.393146514892578 5
   vertex -15.90980339050293 -32.393146514892578 0
   vertex -15.973331451416016 -32.577156066894531 0
  endloop
 endfacet
 facet normal -0.94525182108933414 0.3263418372309892 0
  outer loop
   vertex -15.90980339050293 -32.393146514892578 5
   vertex -15.973331451416016 -32.577156066894531 0
   vertex -15.973331451416016 -32.577156066894531 5
  endloop
 endfacet
 facet normal -0.91662118990007502 0.39975691892220011 0
  outer loop
   vertex -15.973331451416016 -32.577156066894531 5
   vertex -15.973331451416016 -32.577156066894531 0
   vertex -16.051019668579102 -32.755290985107422 0
  endloop
 endfacet
 facet normal -0.91662118990007502 0.39975691892220011 0
  outer loop
   vertex -15.973331451416016 -32.577156066894531 5
   vertex -16.051019668579102 -32.755290985107422 0
   vertex -16.051019668579102 -32.755290985107422 5
  endloop
 endfacet
 facet normal -0.88323917573526389 0.46892276383909071 0
  outer loop
   vertex -16.051019668579102 -32.755290985107422 5
   vertex -16.051019668579102 -32.755290985107422 0
   vertex -16.142545700073242 -32.927684783935547 0
  endloop
 endfacet
 facet normal -0.88323917573526389 0.46892276383909071 0
  outer loop
   vertex -16.051019668579102 -32.755290985107422 5
   vertex -16.142545700073242 -32.927684783935547 0
   vertex -16.142545700073242 -32.927684783935547 5
  endloop
 endfacet
 facet normal -0.85080309436825896 0.5254846283321668 0
  outer loop
   vertex -16.142545700073242 -32.927684783935547 5
   vertex -16.142545700073242 -32.927684783935547 0
   vertex -16.245975494384766 -33.095146179199219 0
  endloop
 endfacet
 facet normal -0.85080309436825896 0.5254846283321668 0
  outer loop
   vertex -16.142545700073242 -32.927684783935547 5
   vertex -16.245975494384766 -33.095146179199219 0
   vertex -16.245975494384766 -33.095146179199219 5
  endloop
 endfacet
 facet normal -0.82156243677145735 0.57011855125591637 0
  outer loop
   vertex -16.245975494384766 -33.095146179199219 5
   vertex -16.245975494384766 -33.095146179199219 0
   vertex -16.359325408935547 -33.258487701416016 0
  endloop
 endfacet
 facet normal -0.82156243677145735 0.57011855125591637 0
  outer loop
   vertex -16.245975494384766 -33.095146179199219 5
   vertex -16.359325408935547 -33.258487701416016 0
   vertex -16.359325408935547 -33.258487701416016 5
  endloop
 endfacet
 facet normal -0.78758882270147312 0.61620114115092917 0
  outer loop
   vertex -16.359325408935547 -33.258487701416016 5
   vertex -16.359325408935547 -33.258487701416016 0
   vertex -16.607845306396484 -33.576129913330078 0
  endloop
 endfacet
 facet normal -0.78758882270147312 0.61620114115092917 0
  outer loop
   vertex -16.359325408935547 -33.258487701416016 5
   vertex -16.607845306396484 -33.576129913330078 0
   vertex -16.607845306396484 -33.576129913330078 5
  endloop
 endfacet
 facet normal -0.7619478483141634 0.64763838401488871 0
  outer loop
   vertex -16.607845306396484 -33.576129913330078 5
   vertex -16.607845306396484 -33.576129913330078 0
   vertex -16.872234344482422 -33.887184143066406 0
  endloop
 endfacet
 facet normal -0.7619478483141634 0.64763838401488871 0
  outer loop
   vertex -16.607845306396484 -33.576129913330078 5
   vertex -16.872234344482422 -33.887184143066406 0
   vertex -16.872234344482422 -33.887184143066406 5
  endloop
 endfacet
 facet normal -0.86824390292045417 -0.49613760696147269 0
  outer loop
   vertex -16.396160125732422 -28.694313049316406 0
   vertex -16.243072509765625 -28.962217330932617 0
   vertex -16.396160125732422 -28.694313049316406 5
  endloop
 endfacet
 facet normal -0.86824390292045417 -0.49613760696147269 0
  outer loop
   vertex -16.396160125732422 -28.694313049316406 5
   vertex -16.243072509765625 -28.962217330932617 0
   vertex -16.243072509765625 -28.962217330932617 5
  endloop
 endfacet
 facet normal -0.88252043794876778 -0.47027404415161489 0
  outer loop
   vertex -16.243072509765625 -28.962217330932617 5
   vertex -16.243072509765625 -28.962217330932617 0
   vertex -16.098882675170898 -29.232805252075195 0
  endloop
 endfacet
 facet normal -0.88252043794876778 -0.47027404415161489 0
  outer loop
   vertex -16.243072509765625 -28.962217330932617 5
   vertex -16.098882675170898 -29.232805252075195 0
   vertex -16.098882675170898 -29.232805252075195 5
  endloop
 endfacet
 facet normal -0.90917239706704289 -0.41641992316814924 0
  outer loop
   vertex -16.098882675170898 -29.232805252075195 5
   vertex -16.098882675170898 -29.232805252075195 0
   vertex -15.972490310668945 -29.508758544921875 0
  endloop
 endfacet
 facet normal -0.90917239706704289 -0.41641992316814924 0
  outer loop
   vertex -16.098882675170898 -29.232805252075195 5
   vertex -15.972490310668945 -29.508758544921875 0
   vertex -15.972490310668945 -29.508758544921875 5
  endloop
 endfacet
 facet normal -0.94353772576463002 -0.33126509031123391 0
  outer loop
   vertex -15.972490310668945 -29.508758544921875 5
   vertex -15.972490310668945 -29.508758544921875 0
   vertex -15.872781753540039 -29.792757034301758 0
  endloop
 endfacet
 facet normal -0.94353772576463002 -0.33126509031123391 0
  outer loop
   vertex -15.972490310668945 -29.508758544921875 5
   vertex -15.872781753540039 -29.792757034301758 0
   vertex -15.872781753540039 -29.792757034301758 5
  endloop
 endfacet
 facet normal -0.97389180099526351 -0.22701268676926845 0
  outer loop
   vertex -15.872781753540039 -29.792757034301758 5
   vertex -15.872781753540039 -29.792757034301758 0
   vertex -15.804381370544434 -30.086196899414062 0
  endloop
 endfacet
 facet normal -0.97389180099526351 -0.22701268676926845 0
  outer loop
   vertex -15.872781753540039 -29.792757034301758 5
   vertex -15.804381370544434 -30.086196899414062 0
   vertex -15.804381370544434 -30.086196899414062 5
  endloop
 endfacet
 facet normal -0.98967560792512654 -0.14332547253726766 0
  outer loop
   vertex -15.804381370544434 -30.086196899414062 5
   vertex -15.804381370544434 -30.086196899414062 0
   vertex -15.760801315307617 -30.387121200561523 0
  endloop
 endfacet
 facet normal -0.98967560792512654 -0.14332547253726766 0
  outer loop
   vertex -15.804381370544434 -30.086196899414062 5
   vertex -15.760801315307617 -30.387121200561523 0
   vertex -15.760801315307617 -30.387121200561523 5
  endloop
 endfacet
 facet normal -0.99611831030987652 -0.08802449582585796 0
  outer loop
   vertex -15.760801315307617 -30.387121200561523 5
   vertex -15.760801315307617 -30.387121200561523 0
   vertex -15.733768463134766 -30.693035125732422 0
  endloop
 endfacet
 facet normal -0.99611831030987652 -0.08802449582585796 0
  outer loop
   vertex -15.760801315307617 -30.387121200561523 5
   vertex -15.733768463134766 -30.693035125732422 0
   vertex -15.733768463134766 -30.693035125732422 5
  endloop
 endfacet
 facet normal -0.99815491671169021 -0.060718714119115023 0
  outer loop
   vertex -15.733768463134766 -30.693035125732422 5
   vertex -15.733768463134766 -30.693035125732422 0
   vertex -15.715007781982422 -31.001441955566406 0
  endloop
 endfacet
 facet normal -0.99815491671169021 -0.060718714119115023 0
  outer loop
   vertex -15.733768463134766 -30.693035125732422 5
   vertex -15.715007781982422 -31.001441955566406 0
   vertex -15.715007781982422 -31.001441955566406 5
  endloop
 endfacet
 facet normal -0.35109250511868018 -0.93634077816225092 0
  outer loop
   vertex -18.190593719482422 -27.427223205566406 0
   vertex -17.924880981445312 -27.52685546875 0
   vertex -18.190593719482422 -27.427223205566406 5
  endloop
 endfacet
 facet normal -0.35109250511868018 -0.93634077816225092 0
  outer loop
   vertex -18.190593719482422 -27.427223205566406 5
   vertex -17.924880981445312 -27.52685546875 0
   vertex -17.924880981445312 -27.52685546875 5
  endloop
 endfacet
 facet normal -0.38054470932714746 -0.92476252313938245 0
  outer loop
   vertex -17.924880981445312 -27.52685546875 5
   vertex -17.924880981445312 -27.52685546875 0
   vertex -17.664474487304688 -27.634014129638672 0
  endloop
 endfacet
 facet normal -0.38054470932714746 -0.92476252313938245 0
  outer loop
   vertex -17.924880981445312 -27.52685546875 5
   vertex -17.664474487304688 -27.634014129638672 0
   vertex -17.664474487304688 -27.634014129638672 5
  endloop
 endfacet
 facet normal -0.43946856416823582 -0.8982579702445781 0
  outer loop
   vertex -17.664474487304688 -27.634014129638672 5
   vertex -17.664474487304688 -27.634014129638672 0
   vertex -17.414674758911133 -27.756227493286133 0
  endloop
 endfacet
 facet normal -0.43946856416823582 -0.8982579702445781 0
  outer loop
   vertex -17.664474487304688 -27.634014129638672 5
   vertex -17.414674758911133 -27.756227493286133 0
   vertex -17.414674758911133 -27.756227493286133 5
  endloop
 endfacet
 facet normal -0.52636726610898621 -0.850257314681239 0
  outer loop
   vertex -17.414674758911133 -27.756227493286133 5
   vertex -17.414674758911133 -27.756227493286133 0
   vertex -17.180789947509766 -27.901018142700195 0
  endloop
 endfacet
 facet normal -0.52636726610898621 -0.850257314681239 0
  outer loop
   vertex -17.414674758911133 -27.756227493286133 5
   vertex -17.180789947509766 -27.901018142700195 0
   vertex -17.180789947509766 -27.901018142700195 5
  endloop
 endfacet
 facet normal -0.62606285481718948 -0.77977259622158479 0
  outer loop
   vertex -17.180789947509766 -27.901018142700195 5
   vertex -17.180789947509766 -27.901018142700195 0
   vertex -16.966253280639648 -28.073265075683594 0
  endloop
 endfacet
 facet normal -0.62606285481718948 -0.77977259622158479 0
  outer loop
   vertex -17.180789947509766 -27.901018142700195 5
   vertex -16.966253280639648 -28.073265075683594 0
   vertex -16.966253280639648 -28.073265075683594 5
  endloop
 endfacet
 facet normal -0.69954858086573846 -0.71458504253079014 0
  outer loop
   vertex -16.966253280639648 -28.073265075683594 5
   vertex -16.966253280639648 -28.073265075683594 0
   vertex -16.767471313476562 -28.267864227294922 0
  endloop
 endfacet
 facet normal -0.69954858086573846 -0.71458504253079014 0
  outer loop
   vertex -16.966253280639648 -28.073265075683594 5
   vertex -16.767471313476562 -28.267864227294922 0
   vertex -16.767471313476562 -28.267864227294922 5
  endloop
 endfacet
 facet normal -0.74376938605076948 -0.66843630988573721 0
  outer loop
   vertex -16.767471313476562 -28.267864227294922 5
   vertex -16.767471313476562 -28.267864227294922 0
   vertex -16.579191207885742 -28.477363586425781 0
  endloop
 endfacet
 facet normal -0.74376938605076948 -0.66843630988573721 0
  outer loop
   vertex -16.767471313476562 -28.267864227294922 5
   vertex -16.579191207885742 -28.477363586425781 0
   vertex -16.579191207885742 -28.477363586425781 5
  endloop
 endfacet
 facet normal -0.76432625773847807 -0.64482972305213537 0
  outer loop
   vertex -16.579191207885742 -28.477363586425781 5
   vertex -16.579191207885742 -28.477363586425781 0
   vertex -16.396160125732422 -28.694313049316406 0
  endloop
 endfacet
 facet normal -0.76432625773847807 -0.64482972305213537 0
  outer loop
   vertex -16.579191207885742 -28.477363586425781 5
   vertex -16.396160125732422 -28.694313049316406 0
   vertex -16.396160125732422 -28.694313049316406 5
  endloop
 endfacet
 facet normal -0.0013215696271786845 -0.99999912672647884 0
  outer loop
   vertex -20.841960906982422 -27.236793518066406 0
   vertex -20.175182342529297 -27.237674713134766 0
   vertex -20.841960906982422 -27.236793518066406 5
  endloop
 endfacet
 facet normal -0.0013215696271786845 -0.99999912672647884 0
  outer loop
   vertex -20.841960906982422 -27.236793518066406 5
   vertex -20.175182342529297 -27.237674713134766 0
   vertex -20.175182342529297 -27.237674713134766 5
  endloop
 endfacet
 facet normal -0.034778145268062069 -0.99939505732803857 0
  outer loop
   vertex -20.175182342529297 -27.237674713134766 5
   vertex -20.175182342529297 -27.237674713134766 0
   vertex -19.510280609130859 -27.260812759399414 0
  endloop
 endfacet
 facet normal -0.034778145268062069 -0.99939505732803857 0
  outer loop
   vertex -20.175182342529297 -27.237674713134766 5
   vertex -19.510280609130859 -27.260812759399414 0
   vertex -19.510280609130859 -27.260812759399414 5
  endloop
 endfacet
 facet normal -0.080868892828118821 -0.99672474744673323 0
  outer loop
   vertex -19.510280609130859 -27.260812759399414 5
   vertex -19.510280609130859 -27.260812759399414 0
   vertex -19.179117202758789 -27.287681579589844 0
  endloop
 endfacet
 facet normal -0.080868892828118821 -0.99672474744673323 0
  outer loop
   vertex -19.510280609130859 -27.260812759399414 5
   vertex -19.179117202758789 -27.287681579589844 0
   vertex -19.179117202758789 -27.287681579589844 5
  endloop
 endfacet
 facet normal -0.11787412512775919 -0.99302854471831037 0
  outer loop
   vertex -19.179117202758789 -27.287681579589844 5
   vertex -19.179117202758789 -27.287681579589844 0
   vertex -18.848991394042969 -27.326868057250977 0
  endloop
 endfacet
 facet normal -0.11787412512775919 -0.99302854471831037 0
  outer loop
   vertex -19.179117202758789 -27.287681579589844 5
   vertex -18.848991394042969 -27.326868057250977 0
   vertex -18.848991394042969 -27.326868057250977 5
  endloop
 endfacet
 facet normal -0.15068295513463623 -0.98858213974959763 0
  outer loop
   vertex -18.848991394042969 -27.326868057250977 5
   vertex -18.848991394042969 -27.326868057250977 0
   vertex -18.190593719482422 -27.427223205566406 0
  endloop
 endfacet
 facet normal -0.15068295513463623 -0.98858213974959763 0
  outer loop
   vertex -18.848991394042969 -27.326868057250977 5
   vertex -18.190593719482422 -27.427223205566406 0
   vertex -18.190593719482422 -27.427223205566406 5
  endloop
 endfacet
 facet normal 0 -1 0
  outer loop
   vertex -26.335124969482422 -27.236793518066406 0
   vertex -20.841960906982422 -27.236793518066406 0
   vertex -26.335124969482422 -27.236793518066406 5
  endloop
 endfacet
 facet normal 0 -1 0
  outer loop
   vertex -26.335124969482422 -27.236793518066406 5
   vertex -20.841960906982422 -27.236793518066406 0
   vertex -20.841960906982422 -27.236793518066406 5
  endloop
 endfacet
 facet normal 1 0 0
  outer loop
   vertex -26.335124969482422 -34.912574768066406 0
   vertex -26.335124969482422 -27.236793518066406 0
   vertex -26.335124969482422 -34.912574768066406 5
  endloop
 endfacet
 facet normal 1 0 -0
  outer loop
   vertex -26.335124969482422 -34.912574768066406 5
   vertex -26.335124969482422 -27.236793518066406 0
   vertex -26.335124969482422 -27.236793518066406 5
  endloop
 endfacet
 facet normal -1 0 0
  outer loop
   vertex -29.176921844482422 -24.702613830566406 0
   vertex -29.176921844482422 -46.177223205566406 0
   vertex -29.176921844482422 -24.702613830566406 5
  endloop
 endfacet
 facet normal -1 0 0
  outer loop
   vertex -29.176921844482422 -24.702613830566406 5
   vertex -29.176921844482422 -46.177223205566406 0
   vertex -29.176921844482422 -46.177223205566406 5
  endloop
 endfacet
 facet normal 0 1 0
  outer loop
   vertex -21.076335906982422 -24.702613830566406 0
   vertex -29.176921844482422 -24.702613830566406 0
   vertex -21.076335906982422 -24.702613830566406 5
  endloop
 endfacet
 facet normal 0 1 0
  outer loop
   vertex -21.076335906982422 -24.702613830566406 5
   vertex -29.176921844482422 -24.702613830566406 0
   vertex -29.176921844482422 -24.702613830566406 5
  endloop
 endfacet
 facet normal 0.12221132595051613 0.99250410165873715 0
  outer loop
   vertex -17.809734344482422 -24.907691955566406 0
   vertex -18.623004913330078 -24.807550430297852 0
   vertex -17.809734344482422 -24.907691955566406 5
  endloop
 endfacet
 facet normal 0.12221132595051613 0.99250410165873715 -0
  outer loop
   vertex -17.809734344482422 -24.907691955566406 5
   vertex -18.623004913330078 -24.807550430297852 0
   vertex -18.623004913330078 -24.807550430297852 5
  endloop
 endfacet
 facet normal 0.099228732705531439 0.99506465046531234 -0
  outer loop
   vertex -18.623004913330078 -24.807550430297852 5
   vertex -18.623004913330078 -24.807550430297852 0
   vertex -19.030292510986328 -24.766935348510742 0
  endloop
 endfacet
 facet normal 0.099228732705531439 0.99506465046531234 -0
  outer loop
   vertex -18.623004913330078 -24.807550430297852 5
   vertex -19.030292510986328 -24.766935348510742 0
   vertex -19.030292510986328 -24.766935348510742 5
  endloop
 endfacet
 facet normal 0.072149513316775882 0.99739382779730112 -0
  outer loop
   vertex -19.030292510986328 -24.766935348510742 5
   vertex -19.030292510986328 -24.766935348510742 0
   vertex -19.438350677490234 -24.737417221069336 0
  endloop
 endfacet
 facet normal 0.072149513316775882 0.99739382779730112 -0
  outer loop
   vertex -19.030292510986328 -24.766935348510742 5
   vertex -19.438350677490234 -24.737417221069336 0
   vertex -19.438350677490234 -24.737417221069336 5
  endloop
 endfacet
 facet normal 0.034858890191756906 0.99939224420374551 -0
  outer loop
   vertex -19.438350677490234 -24.737417221069336 5
   vertex -19.438350677490234 -24.737417221069336 0
   vertex -20.256572723388672 -24.708877563476562 0
  endloop
 endfacet
 facet normal 0.034858890191756906 0.99939224420374551 -0
  outer loop
   vertex -19.438350677490234 -24.737417221069336 5
   vertex -20.256572723388672 -24.708877563476562 0
   vertex -20.256572723388672 -24.708877563476562 5
  endloop
 endfacet
 facet normal 0.0076406823267941267 0.99997080956074957 -0
  outer loop
   vertex -20.256572723388672 -24.708877563476562 5
   vertex -20.256572723388672 -24.708877563476562 0
   vertex -21.076335906982422 -24.702613830566406 0
  endloop
 endfacet
 facet normal 0.0076406823267941267 0.99997080956074957 -0
  outer loop
   vertex -20.256572723388672 -24.708877563476562 5
   vertex -21.076335906982422 -24.702613830566406 0
   vertex -21.076335906982422 -24.702613830566406 5
  endloop
 endfacet
 facet normal 0.4928523031621227 0.87011298534603598 0
  outer loop
   vertex -15.158367156982422 -25.911109924316406 0
   vertex -15.78179931640625 -25.5579833984375 0
   vertex -15.158367156982422 -25.911109924316406 5
  endloop
 endfacet
 facet normal 0.4928523031621227 0.87011298534603598 -0
  outer loop
   vertex -15.158367156982422 -25.911109924316406 5
   vertex -15.78179931640625 -25.5579833984375 0
   vertex -15.78179931640625 -25.5579833984375 5
  endloop
 endfacet
 facet normal 0.44504720525399738 0.8955071105779151 -0
  outer loop
   vertex -15.78179931640625 -25.5579833984375 5
   vertex -15.78179931640625 -25.5579833984375 0
   vertex -16.100517272949219 -25.399587631225586 0
  endloop
 endfacet
 facet normal 0.44504720525399738 0.8955071105779151 -0
  outer loop
   vertex -15.78179931640625 -25.5579833984375 5
   vertex -16.100517272949219 -25.399587631225586 0
   vertex -16.100517272949219 -25.399587631225586 5
  endloop
 endfacet
 facet normal 0.38539042576307797 0.92275360727019295 -0
  outer loop
   vertex -16.100517272949219 -25.399587631225586 5
   vertex -16.100517272949219 -25.399587631225586 0
   vertex -16.42762565612793 -25.262969970703125 0
  endloop
 endfacet
 facet normal 0.38539042576307797 0.92275360727019295 -0
  outer loop
   vertex -16.100517272949219 -25.399587631225586 5
   vertex -16.42762565612793 -25.262969970703125 0
   vertex -16.42762565612793 -25.262969970703125 5
  endloop
 endfacet
 facet normal 0.31469182386167033 0.94919389799693477 -0
  outer loop
   vertex -16.42762565612793 -25.262969970703125 5
   vertex -16.42762565612793 -25.262969970703125 0
   vertex -16.764358520507812 -25.151330947875977 0
  endloop
 endfacet
 facet normal 0.31469182386167033 0.94919389799693477 -0
  outer loop
   vertex -16.42762565612793 -25.262969970703125 5
   vertex -16.764358520507812 -25.151330947875977 0
   vertex -16.764358520507812 -25.151330947875977 5
  endloop
 endfacet
 facet normal 0.25838311309960066 0.96604252849704242 -0
  outer loop
   vertex -16.764358520507812 -25.151330947875977 5
   vertex -16.764358520507812 -25.151330947875977 0
   vertex -17.108631134033203 -25.059249877929688 0
  endloop
 endfacet
 facet normal 0.25838311309960066 0.96604252849704242 -0
  outer loop
   vertex -16.764358520507812 -25.151330947875977 5
   vertex -17.108631134033203 -25.059249877929688 0
   vertex -17.108631134033203 -25.059249877929688 5
  endloop
 endfacet
 facet normal 0.21129022483466914 0.97742336829508791 -0
  outer loop
   vertex -17.108631134033203 -25.059249877929688 5
   vertex -17.108631134033203 -25.059249877929688 0
   vertex -17.809734344482422 -24.907691955566406 0
  endloop
 endfacet
 facet normal 0.21129022483466914 0.97742336829508791 -0
  outer loop
   vertex -17.108631134033203 -25.059249877929688 5
   vertex -17.809734344482422 -24.907691955566406 0
   vertex -17.809734344482422 -24.907691955566406 5
  endloop
 endfacet
 facet normal 0.8689213860319529 0.49495012364511026 0
  outer loop
   vertex -13.437175750732422 -27.983863830566406 0
   vertex -13.776005744934082 -27.389022827148438 0
   vertex -13.437175750732422 -27.983863830566406 5
  endloop
 endfacet
 facet normal 0.8689213860319529 0.49495012364511026 -0
  outer loop
   vertex -13.437175750732422 -27.983863830566406 5
   vertex -13.776005744934082 -27.389022827148438 0
   vertex -13.776005744934082 -27.389022827148438 5
  endloop
 endfacet
 facet normal 0.83898865020124247 0.54414891788323649 -0
  outer loop
   vertex -13.776005744934082 -27.389022827148438 5
   vertex -13.776005744934082 -27.389022827148438 0
   vertex -13.960636138916016 -27.104352951049805 0
  endloop
 endfacet
 facet normal 0.83898865020124247 0.54414891788323649 -0
  outer loop
   vertex -13.776005744934082 -27.389022827148438 5
   vertex -13.960636138916016 -27.104352951049805 0
   vertex -13.960636138916016 -27.104352951049805 5
  endloop
 endfacet
 facet normal 0.79877461206829914 0.60163038413559056 -0
  outer loop
   vertex -13.960636138916016 -27.104352951049805 5
   vertex -13.960636138916016 -27.104352951049805 0
   vertex -14.163522720336914 -26.834983825683594 0
  endloop
 endfacet
 facet normal 0.79877461206829914 0.60163038413559056 -0
  outer loop
   vertex -13.960636138916016 -27.104352951049805 5
   vertex -14.163522720336914 -26.834983825683594 0
   vertex -14.163522720336914 -26.834983825683594 5
  endloop
 endfacet
 facet normal 0.74211045275473497 0.67027761107779982 -0
  outer loop
   vertex -14.163522720336914 -26.834983825683594 5
   vertex -14.163522720336914 -26.834983825683594 0
   vertex -14.389410018920898 -26.584888458251953 0
  endloop
 endfacet
 facet normal 0.74211045275473497 0.67027761107779982 -0
  outer loop
   vertex -14.163522720336914 -26.834983825683594 5
   vertex -14.389410018920898 -26.584888458251953 0
   vertex -14.389410018920898 -26.584888458251953 5
  endloop
 endfacet
 facet normal 0.6895663532953018 0.72422251028466322 -0
  outer loop
   vertex -14.389410018920898 -26.584888458251953 5
   vertex -14.389410018920898 -26.584888458251953 0
   vertex -14.634859085083008 -26.351184844970703 0
  endloop
 endfacet
 facet normal 0.6895663532953018 0.72422251028466322 -0
  outer loop
   vertex -14.389410018920898 -26.584888458251953 5
   vertex -14.634859085083008 -26.351184844970703 0
   vertex -14.634859085083008 -26.351184844970703 5
  endloop
 endfacet
 facet normal 0.64347335373280345 0.76546851211258737 -0
  outer loop
   vertex -14.634859085083008 -26.351184844970703 5
   vertex -14.634859085083008 -26.351184844970703 0
   vertex -15.158367156982422 -25.911109924316406 0
  endloop
 endfacet
 facet normal 0.64347335373280345 0.76546851211258737 -0
  outer loop
   vertex -14.634859085083008 -26.351184844970703 5
   vertex -15.158367156982422 -25.911109924316406 0
   vertex -15.158367156982422 -25.911109924316406 5
  endloop
 endfacet
 facet normal 0.99806701572072021 0.062146859376284218 0
  outer loop
   vertex -12.785320281982422 -30.913551330566406 0
   vertex -12.832546234130859 -30.155111312866211 0
   vertex -12.785320281982422 -30.913551330566406 5
  endloop
 endfacet
 facet normal 0.99806701572072021 0.062146859376284218 -0
  outer loop
   vertex -12.785320281982422 -30.913551330566406 5
   vertex -12.832546234130859 -30.155111312866211 0
   vertex -12.832546234130859 -30.155111312866211 5
  endloop
 endfacet
 facet normal 0.99346218346038362 0.11416168373901589 -0
  outer loop
   vertex -12.832546234130859 -30.155111312866211 5
   vertex -12.832546234130859 -30.155111312866211 0
   vertex -12.87562084197998 -29.780265808105469 0
  endloop
 endfacet
 facet normal 0.99346218346038362 0.11416168373901589 -0
  outer loop
   vertex -12.832546234130859 -30.155111312866211 5
   vertex -12.87562084197998 -29.780265808105469 0
   vertex -12.87562084197998 -29.780265808105469 5
  endloop
 endfacet
 facet normal 0.98422962360559896 0.17689558506978334 -0
  outer loop
   vertex -12.87562084197998 -29.780265808105469 5
   vertex -12.87562084197998 -29.780265808105469 0
   vertex -12.942048072814941 -29.410671234130859 0
  endloop
 endfacet
 facet normal 0.98422962360559896 0.17689558506978334 -0
  outer loop
   vertex -12.87562084197998 -29.780265808105469 5
   vertex -12.942048072814941 -29.410671234130859 0
   vertex -12.942048072814941 -29.410671234130859 5
  endloop
 endfacet
 facet normal 0.96711624918128358 0.25433474117690935 -0
  outer loop
   vertex -12.942048072814941 -29.410671234130859 5
   vertex -12.942048072814941 -29.410671234130859 0
   vertex -13.037528038024902 -29.047605514526367 0
  endloop
 endfacet
 facet normal 0.96711624918128358 0.25433474117690935 -0
  outer loop
   vertex -12.942048072814941 -29.410671234130859 5
   vertex -13.037528038024902 -29.047605514526367 0
   vertex -13.037528038024902 -29.047605514526367 5
  endloop
 endfacet
 facet normal 0.94825684075850603 0.31750427391563923 -0
  outer loop
   vertex -13.037528038024902 -29.047605514526367 5
   vertex -13.037528038024902 -29.047605514526367 0
   vertex -13.157266616821289 -28.689994812011719 0
  endloop
 endfacet
 facet normal 0.94825684075850603 0.31750427391563923 -0
  outer loop
   vertex -13.037528038024902 -29.047605514526367 5
   vertex -13.157266616821289 -28.689994812011719 0
   vertex -13.157266616821289 -28.689994812011719 5
  endloop
 endfacet
 facet normal 0.92962676269265432 0.36850248586078155 -0
  outer loop
   vertex -13.157266616821289 -28.689994812011719 5
   vertex -13.157266616821289 -28.689994812011719 0
   vertex -13.437175750732422 -27.983863830566406 0
  endloop
 endfacet
 facet normal 0.92962676269265432 0.36850248586078155 -0
  outer loop
   vertex -13.157266616821289 -28.689994812011719 5
   vertex -13.437175750732422 -27.983863830566406 0
   vertex -13.437175750732422 -27.983863830566406 5
  endloop
 endfacet
 facet normal 0.80219153258205822 -0.59706678441665861 0
  outer loop
   vertex -14.528484344482422 -35.549781799316406 0
   vertex -14.144182205200195 -35.033451080322266 0
   vertex -14.528484344482422 -35.549781799316406 5
  endloop
 endfacet
 facet normal 0.80219153258205822 -0.59706678441665861 0
  outer loop
   vertex -14.528484344482422 -35.549781799316406 5
   vertex -14.144182205200195 -35.033451080322266 0
   vertex -14.144182205200195 -35.033451080322266 5
  endloop
 endfacet
 facet normal 0.82241456893656695 -0.56888863303891113 0
  outer loop
   vertex -14.144182205200195 -35.033451080322266 5
   vertex -14.144182205200195 -35.033451080322266 0
   vertex -13.781373977661133 -34.508956909179688 0
  endloop
 endfacet
 facet normal 0.82241456893656695 -0.56888863303891113 0
  outer loop
   vertex -14.144182205200195 -35.033451080322266 5
   vertex -13.781373977661133 -34.508956909179688 0
   vertex -13.781373977661133 -34.508956909179688 5
  endloop
 endfacet
 facet normal 0.84911599362704149 -0.5282064268510579 0
  outer loop
   vertex -13.781373977661133 -34.508956909179688 5
   vertex -13.781373977661133 -34.508956909179688 0
   vertex -13.614747047424316 -34.241096496582031 0
  endloop
 endfacet
 facet normal 0.84911599362704149 -0.5282064268510579 0
  outer loop
   vertex -13.781373977661133 -34.508956909179688 5
   vertex -13.614747047424316 -34.241096496582031 0
   vertex -13.614747047424316 -34.241096496582031 5
  endloop
 endfacet
 facet normal 0.87204999233490477 -0.48941680689233841 0
  outer loop
   vertex -13.614747047424316 -34.241096496582031 5
   vertex -13.614747047424316 -34.241096496582031 0
   vertex -13.461554527282715 -33.968135833740234 0
  endloop
 endfacet
 facet normal 0.87204999233490477 -0.48941680689233841 0
  outer loop
   vertex -13.614747047424316 -34.241096496582031 5
   vertex -13.461554527282715 -33.968135833740234 0
   vertex -13.461554527282715 -33.968135833740234 5
  endloop
 endfacet
 facet normal 0.89758222062318727 -0.44084709052135973 0
  outer loop
   vertex -13.461554527282715 -33.968135833740234 5
   vertex -13.461554527282715 -33.968135833740234 0
   vertex -13.324482917785645 -33.689052581787109 0
  endloop
 endfacet
 facet normal 0.89758222062318727 -0.44084709052135973 0
  outer loop
   vertex -13.461554527282715 -33.968135833740234 5
   vertex -13.324482917785645 -33.689052581787109 0
   vertex -13.324482917785645 -33.689052581787109 5
  endloop
 endfacet
 facet normal 0.92421422579312351 -0.38187440977580211 0
  outer loop
   vertex -13.324482917785645 -33.689052581787109 5
   vertex -13.324482917785645 -33.689052581787109 0
   vertex -13.206216812133789 -33.402824401855469 0
  endloop
 endfacet
 facet normal 0.92421422579312351 -0.38187440977580211 0
  outer loop
   vertex -13.324482917785645 -33.689052581787109 5
   vertex -13.206216812133789 -33.402824401855469 0
   vertex -13.206216812133789 -33.402824401855469 5
  endloop
 endfacet
 facet normal 0.94859491971341292 -0.31649277763308248 0
  outer loop
   vertex -13.206216812133789 -33.402824401855469 5
   vertex -13.206216812133789 -33.402824401855469 0
   vertex -13.108159065246582 -33.108924865722656 0
  endloop
 endfacet
 facet normal 0.94859491971341292 -0.31649277763308248 0
  outer loop
   vertex -13.206216812133789 -33.402824401855469 5
   vertex -13.108159065246582 -33.108924865722656 0
   vertex -13.108159065246582 -33.108924865722656 5
  endloop
 endfacet
 facet normal 0.96650137614300746 -0.25666143051435075 0
  outer loop
   vertex -13.108159065246582 -33.108924865722656 5
   vertex -13.108159065246582 -33.108924865722656 0
   vertex -13.028278350830078 -32.808120727539062 0
  endloop
 endfacet
 facet normal 0.96650137614300746 -0.25666143051435075 0
  outer loop
   vertex -13.108159065246582 -33.108924865722656 5
   vertex -13.028278350830078 -32.808120727539062 0
   vertex -13.028278350830078 -32.808120727539062 5
  endloop
 endfacet
 facet normal 0.97872639273208994 -0.20516980325971715 0
  outer loop
   vertex -13.028278350830078 -32.808120727539062 5
   vertex -13.028278350830078 -32.808120727539062 0
   vertex -12.963980674743652 -32.501399993896484 0
  endloop
 endfacet
 facet normal 0.97872639273208994 -0.20516980325971715 0
  outer loop
   vertex -13.028278350830078 -32.808120727539062 5
   vertex -12.963980674743652 -32.501399993896484 0
   vertex -12.963980674743652 -32.501399993896484 5
  endloop
 endfacet
 facet normal 0.9867148526854993 -0.16246168622119261 0
  outer loop
   vertex -12.963980674743652 -32.501399993896484 5
   vertex -12.963980674743652 -32.501399993896484 0
   vertex -12.912667274475098 -32.189746856689453 0
  endloop
 endfacet
 facet normal 0.9867148526854993 -0.16246168622119261 0
  outer loop
   vertex -12.963980674743652 -32.501399993896484 5
   vertex -12.912667274475098 -32.189746856689453 0
   vertex -12.912667274475098 -32.189746856689453 5
  endloop
 endfacet
 facet normal 0.99324924035500706 -0.11599976954374348 0
  outer loop
   vertex -12.912667274475098 -32.189746856689453 5
   vertex -12.912667274475098 -32.189746856689453 0
   vertex -12.838605880737305 -31.555595397949219 0
  endloop
 endfacet
 facet normal 0.99324924035500706 -0.11599976954374348 0
  outer loop
   vertex -12.912667274475098 -32.189746856689453 5
   vertex -12.838605880737305 -31.555595397949219 0
   vertex -12.838605880737305 -31.555595397949219 5
  endloop
 endfacet
 facet normal 0.99657371462319355 -0.082709318230351964 0
  outer loop
   vertex -12.838605880737305 -31.555595397949219 5
   vertex -12.838605880737305 -31.555595397949219 0
   vertex -12.785320281982422 -30.913551330566406 0
  endloop
 endfacet
 facet normal 0.99657371462319355 -0.082709318230351964 0
  outer loop
   vertex -12.838605880737305 -31.555595397949219 5
   vertex -12.785320281982422 -30.913551330566406 0
   vertex -12.785320281982422 -30.913551330566406 5
  endloop
 endfacet
 facet normal 0.016795468161228681 -0.99985894617653193 0
  outer loop
   vertex -20.827312469482422 -37.446754455566406 0
   vertex -19.965034484863281 -37.432270050048828 0
   vertex -20.827312469482422 -37.446754455566406 5
  endloop
 endfacet
 facet normal 0.016795468161228681 -0.99985894617653193 0
  outer loop
   vertex -20.827312469482422 -37.446754455566406 5
   vertex -19.965034484863281 -37.432270050048828 0
   vertex -19.965034484863281 -37.432270050048828 5
  endloop
 endfacet
 facet normal 0.035762944881816486 -0.99936030127946351 0
  outer loop
   vertex -19.965034484863281 -37.432270050048828 5
   vertex -19.965034484863281 -37.432270050048828 0
   vertex -19.536617279052734 -37.416938781738281 0
  endloop
 endfacet
 facet normal 0.035762944881816486 -0.99936030127946351 0
  outer loop
   vertex -19.965034484863281 -37.432270050048828 5
   vertex -19.536617279052734 -37.416938781738281 0
   vertex -19.536617279052734 -37.416938781738281 5
  endloop
 endfacet
 facet normal 0.058776103861881715 -0.99827119041612 0
  outer loop
   vertex -19.536617279052734 -37.416938781738281 5
   vertex -19.536617279052734 -37.416938781738281 0
   vertex -19.111465454101562 -37.39190673828125 0
  endloop
 endfacet
 facet normal 0.058776103861881715 -0.99827119041612 0
  outer loop
   vertex -19.536617279052734 -37.416938781738281 5
   vertex -19.111465454101562 -37.39190673828125 0
   vertex -19.111465454101562 -37.39190673828125 5
  endloop
 endfacet
 facet normal 0.089871856154255012 -0.99595333699495614 0
  outer loop
   vertex -19.111465454101562 -37.39190673828125 5
   vertex -19.111465454101562 -37.39190673828125 0
   vertex -18.690668106079102 -37.353935241699219 0
  endloop
 endfacet
 facet normal 0.089871856154255012 -0.99595333699495614 0
  outer loop
   vertex -19.111465454101562 -37.39190673828125 5
   vertex -18.690668106079102 -37.353935241699219 0
   vertex -18.690668106079102 -37.353935241699219 5
  endloop
 endfacet
 facet normal 0.12926696127531878 -0.99160982887557403 0
  outer loop
   vertex -18.690668106079102 -37.353935241699219 5
   vertex -18.690668106079102 -37.353935241699219 0
   vertex -18.275314331054688 -37.299789428710938 0
  endloop
 endfacet
 facet normal 0.12926696127531878 -0.99160982887557403 0
  outer loop
   vertex -18.690668106079102 -37.353935241699219 5
   vertex -18.275314331054688 -37.299789428710938 0
   vertex -18.275314331054688 -37.299789428710938 5
  endloop
 endfacet
 facet normal 0.1770756979165245 -0.98419723491146616 0
  outer loop
   vertex -18.275314331054688 -37.299789428710938 5
   vertex -18.275314331054688 -37.299789428710938 0
   vertex -17.866491317749023 -37.226234436035156 0
  endloop
 endfacet
 facet normal 0.1770756979165245 -0.98419723491146616 0
  outer loop
   vertex -18.275314331054688 -37.299789428710938 5
   vertex -17.866491317749023 -37.226234436035156 0
   vertex -17.866491317749023 -37.226234436035156 5
  endloop
 endfacet
 facet normal 0.23315858025983743 -0.97243872632223827 0
  outer loop
   vertex -17.866491317749023 -37.226234436035156 5
   vertex -17.866491317749023 -37.226234436035156 0
   vertex -17.465288162231445 -37.130039215087891 0
  endloop
 endfacet
 facet normal 0.23315858025983743 -0.97243872632223827 0
  outer loop
   vertex -17.866491317749023 -37.226234436035156 5
   vertex -17.465288162231445 -37.130039215087891 0
   vertex -17.465288162231445 -37.130039215087891 5
  endloop
 endfacet
 facet normal 0.29697873890539456 -0.9548840917295468 0
  outer loop
   vertex -17.465288162231445 -37.130039215087891 5
   vertex -17.465288162231445 -37.130039215087891 0
   vertex -17.072792053222656 -37.007968902587891 0
  endloop
 endfacet
 facet normal 0.29697873890539456 -0.9548840917295468 0
  outer loop
   vertex -17.465288162231445 -37.130039215087891 5
   vertex -17.072792053222656 -37.007968902587891 0
   vertex -17.072792053222656 -37.007968902587891 5
  endloop
 endfacet
 facet normal 0.36615286923981039 -0.93055471432229842 0
  outer loop
   vertex -17.072792053222656 -37.007968902587891 5
   vertex -17.072792053222656 -37.007968902587891 0
   vertex -16.689914703369141 -36.857315063476562 0
  endloop
 endfacet
 facet normal 0.36615286923981039 -0.93055471432229842 0
  outer loop
   vertex -17.072792053222656 -37.007968902587891 5
   vertex -16.689914703369141 -36.857315063476562 0
   vertex -16.689914703369141 -36.857315063476562 5
  endloop
 endfacet
 facet normal 0.42834628005872977 -0.90361466586142147 0
  outer loop
   vertex -16.689914703369141 -36.857315063476562 5
   vertex -16.689914703369141 -36.857315063476562 0
   vertex -16.315990447998047 -36.680061340332031 0
  endloop
 endfacet
 facet normal 0.42834628005872977 -0.90361466586142147 0
  outer loop
   vertex -16.689914703369141 -36.857315063476562 5
   vertex -16.315990447998047 -36.680061340332031 0
   vertex -16.315990447998047 -36.680061340332031 5
  endloop
 endfacet
 facet normal 0.47801174691016141 -0.87835344242275026 0
  outer loop
   vertex -16.315990447998047 -36.680061340332031 5
   vertex -16.315990447998047 -36.680061340332031 0
   vertex -15.949530601501465 -36.480628967285156 0
  endloop
 endfacet
 facet normal 0.47801174691016141 -0.87835344242275026 0
  outer loop
   vertex -16.315990447998047 -36.680061340332031 5
   vertex -15.949530601501465 -36.480628967285156 0
   vertex -15.949530601501465 -36.480628967285156 5
  endloop
 endfacet
 facet normal 0.5160564631331348 -0.85655456735605562 0
  outer loop
   vertex -15.949530601501465 -36.480628967285156 5
   vertex -15.949530601501465 -36.480628967285156 0
   vertex -15.589043617248535 -36.263442993164062 0
  endloop
 endfacet
 facet normal 0.5160564631331348 -0.85655456735605562 0
  outer loop
   vertex -15.949530601501465 -36.480628967285156 5
   vertex -15.589043617248535 -36.263442993164062 0
   vertex -15.589043617248535 -36.263442993164062 5
  endloop
 endfacet
 facet normal 0.5434726035801889 -0.83942690519054175 0
  outer loop
   vertex -15.589043617248535 -36.263442993164062 5
   vertex -15.589043617248535 -36.263442993164062 0
   vertex -15.233035087585449 -36.032951354980469 0
  endloop
 endfacet
 facet normal 0.5434726035801889 -0.83942690519054175 0
  outer loop
   vertex -15.589043617248535 -36.263442993164062 5
   vertex -15.233035087585449 -36.032951354980469 0
   vertex -15.233035087585449 -36.032951354980469 5
  endloop
 endfacet
 facet normal 0.56556740408094186 -0.82470207435239573 0
  outer loop
   vertex -15.233035087585449 -36.032951354980469 5
   vertex -15.233035087585449 -36.032951354980469 0
   vertex -14.528484344482422 -35.549781799316406 0
  endloop
 endfacet
 facet normal 0.56556740408094186 -0.82470207435239573 0
  outer loop
   vertex -15.233035087585449 -36.032951354980469 5
   vertex -14.528484344482422 -35.549781799316406 0
   vertex -14.528484344482422 -35.549781799316406 5
  endloop
 endfacet
 facet normal 0 -1 0
  outer loop
   vertex -26.335124969482422 -37.446754455566406 0
   vertex -20.827312469482422 -37.446754455566406 0
   vertex -26.335124969482422 -37.446754455566406 5
  endloop
 endfacet
 facet normal 0 -1 0
  outer loop
   vertex -26.335124969482422 -37.446754455566406 5
   vertex -20.827312469482422 -37.446754455566406 0
   vertex -20.827312469482422 -37.446754455566406 5
  endloop
 endfacet
 facet normal 1 0 0
  outer loop
   vertex -26.335124969482422 -46.177223205566406 0
   vertex -26.335124969482422 -37.446754455566406 0
   vertex -26.335124969482422 -46.177223205566406 5
  endloop
 endfacet
 facet normal 1 0 -0
  outer loop
   vertex -26.335124969482422 -46.177223205566406 5
   vertex -26.335124969482422 -37.446754455566406 0
   vertex -26.335124969482422 -37.446754455566406 5
  endloop
 endfacet
 facet normal 0 -1 0
  outer loop
   vertex -29.176921844482422 -46.177223205566406 0
   vertex -26.335124969482422 -46.177223205566406 0
   vertex -29.176921844482422 -46.177223205566406 5
  endloop
 endfacet
 facet normal 0 -1 0
  outer loop
   vertex -29.176921844482422 -46.177223205566406 5
   vertex -26.335124969482422 -46.177223205566406 0
   vertex -26.335124969482422 -46.177223205566406 5
  endloop
 endfacet
 facet normal 0 0 -1
  outer loop
   vertex -26.335124969482422 -46.177223205566406 0
   vertex -29.176921844482422 -46.177223205566406 0
   vertex -26.335124969482422 -37.446754455566406 0
  endloop
 endfacet
 facet normal 0 0 -1
  outer loop
   vertex -26.335124969482422 -37.446754455566406 0
   vertex -29.176921844482422 -46.177223205566406 0
   vertex -26.335124969482422 -34.912574768066406 0
  endloop
 endfacet
 facet normal 0 0 -1
  outer loop
   vertex -26.335124969482422 -37.446754455566406 0
   vertex -26.335124969482422 -34.912574768066406 0
   vertex -20.827312469482422 -37.446754455566406 0
  endloop
 endfacet
 facet normal 0 0 -1
  outer loop
   vertex -20.827312469482422 -37.446754455566406 0
   vertex -26.335124969482422 -34.912574768066406 0
   vertex -20.783367156982422 -34.912574768066406 0
  endloop
 endfacet
 facet normal 0 -0 -1
  outer loop
   vertex -20.827312469482422 -37.446754455566406 0
   vertex -20.783367156982422 -34.912574768066406 0
   vertex -19.965034484863281 -37.432270050048828 0
  endloop
 endfacet
 facet normal 0 0 -1
  outer loop
   vertex -19.965034484863281 -37.432270050048828 0
   vertex -20.783367156982422 -34.912574768066406 0
   vertex -19.536617279052734 -37.416938781738281 0
  endloop
 endfacet
 facet normal 0 0 -1
  outer loop
   vertex -19.536617279052734 -37.416938781738281 0
   vertex -20.783367156982422 -34.912574768066406 0
   vertex -19.111465454101562 -37.39190673828125 0
  endloop
 endfacet
 facet normal 0 0 -1
  outer loop
   vertex -19.111465454101562 -37.39190673828125 0
   vertex -20.783367156982422 -34.912574768066406 0
   vertex -18.690668106079102 -37.353935241699219 0
  endloop
 endfacet
 facet normal 0 0 -1
  outer loop
   vertex -18.690668106079102 -37.353935241699219 0
   vertex -20.783367156982422 -34.912574768066406 0
   vertex -18.275314331054688 -37.299789428710938 0
  endloop
 endfacet
 facet normal 0 0 -1
  outer loop
   vertex -18.275314331054688 -37.299789428710938 0
   vertex -20.783367156982422 -34.912574768066406 0
   vertex -17.866491317749023 -37.226234436035156 0
  endloop
 endfacet
 facet normal 0 0 -1
  outer loop
   vertex -17.866491317749023 -37.226234436035156 0
   vertex -20.783367156982422 -34.912574768066406 0
   vertex -17.465288162231445 -37.130039215087891 0
  endloop
 endfacet
 facet normal 0 0 -1
  outer loop
   vertex -17.465288162231445 -37.130039215087891 0
   vertex -20.783367156982422 -34.912574768066406 0
   vertex -17.072792053222656 -37.007968902587891 0
  endloop
 endfacet
 facet normal 0 0 -1
  outer loop
   vertex -17.072792053222656 -37.007968902587891 0
   vertex -20.783367156982422 -34.912574768066406 0
   vertex -20.259525299072266 -34.904281616210938 0
  endloop
 endfacet
 facet normal 0 0 -1
  outer loop
   vertex -17.072792053222656 -37.007968902587891 0
   vertex -20.259525299072266 -34.904281616210938 0
   vertex -16.689914703369141 -36.857315063476562 0
  endloop
 endfacet
 facet normal 0 0 -1
  outer loop
   vertex -16.689914703369141 -36.857315063476562 0
   vertex -20.259525299072266 -34.904281616210938 0
   vertex -16.315990447998047 -36.680061340332031 0
  endloop
 endfacet
 facet normal 0 0 -1
  outer loop
   vertex -16.315990447998047 -36.680061340332031 0
   vertex -20.259525299072266 -34.904281616210938 0
   vertex -15.949530601501465 -36.480628967285156 0
  endloop
 endfacet
 facet normal 0 0 -1
  outer loop
   vertex -15.949530601501465 -36.480628967285156 0
   vertex -20.259525299072266 -34.904281616210938 0
   vertex -15.589043617248535 -36.263442993164062 0
  endloop
 endfacet
 facet normal 0 0 -1
  outer loop
   vertex -15.589043617248535 -36.263442993164062 0
   vertex -20.259525299072266 -34.904281616210938 0
   vertex -15.233035087585449 -36.032951354980469 0
  endloop
 endfacet
 facet normal 0 0 -1
  outer loop
   vertex -15.233035087585449 -36.032951354980469 0
   vertex -20.259525299072266 -34.904281616210938 0
   vertex -19.739751815795898 -34.882030487060547 0
  endloop
 endfacet
 facet normal 0 0 -1
  outer loop
   vertex -15.233035087585449 -36.032951354980469 0
   vertex -19.739751815795898 -34.882030487060547 0
   vertex -19.482660293579102 -34.861316680908203 0
  endloop
 endfacet
 facet normal 0 0 -1
  outer loop
   vertex -29.176921844482422 -46.177223205566406 0
   vertex -29.176921844482422 -24.702613830566406 0
   vertex -26.335124969482422 -34.912574768066406 0
  endloop
 endfacet
 facet normal 0 0 -1
  outer loop
   vertex -26.335124969482422 -34.912574768066406 0
   vertex -29.176921844482422 -24.702613830566406 0
   vertex -26.335124969482422 -27.236793518066406 0
  endloop
 endfacet
 facet normal 0 0 -1
  outer loop
   vertex -26.335124969482422 -27.236793518066406 0
   vertex -29.176921844482422 -24.702613830566406 0
   vertex -21.076335906982422 -24.702613830566406 0
  endloop
 endfacet
 facet normal 0 -0 -1
  outer loop
   vertex -26.335124969482422 -27.236793518066406 0
   vertex -21.076335906982422 -24.702613830566406 0
   vertex -20.841960906982422 -27.236793518066406 0
  endloop
 endfacet
 facet normal 0 0 -1
  outer loop
   vertex -20.841960906982422 -27.236793518066406 0
   vertex -21.076335906982422 -24.702613830566406 0
   vertex -20.256572723388672 -24.708877563476562 0
  endloop
 endfacet
 facet normal 0 -0 -1
  outer loop
   vertex -20.841960906982422 -27.236793518066406 0
   vertex -20.256572723388672 -24.708877563476562 0
   vertex -20.175182342529297 -27.237674713134766 0
  endloop
 endfacet
 facet normal 0 0 -1
  outer loop
   vertex -20.175182342529297 -27.237674713134766 0
   vertex -20.256572723388672 -24.708877563476562 0
   vertex -19.438350677490234 -24.737417221069336 0
  endloop
 endfacet
 facet normal 0 0 -1
  outer loop
   vertex -20.175182342529297 -27.237674713134766 0
   vertex -19.438350677490234 -24.737417221069336 0
   vertex -19.510280609130859 -27.260812759399414 0
  endloop
 endfacet
 facet normal 0 -0 -1
  outer loop
   vertex -19.510280609130859 -27.260812759399414 0
   vertex -19.438350677490234 -24.737417221069336 0
   vertex -19.030292510986328 -24.766935348510742 0
  endloop
 endfacet
 facet normal 0 0 -1
  outer loop
   vertex -19.510280609130859 -27.260812759399414 0
   vertex -19.030292510986328 -24.766935348510742 0
   vertex -19.179117202758789 -27.287681579589844 0
  endloop
 endfacet
 facet normal 0 -0 -1
  outer loop
   vertex -19.179117202758789 -27.287681579589844 0
   vertex -19.030292510986328 -24.766935348510742 0
   vertex -18.848991394042969 -27.326868057250977 0
  endloop
 endfacet
 facet normal 0 0 -1
  outer loop
   vertex -18.848991394042969 -27.326868057250977 0
   vertex -19.030292510986328 -24.766935348510742 0
   vertex -18.623004913330078 -24.807550430297852 0
  endloop
 endfacet
 facet normal 0 -0 -1
  outer loop
   vertex -18.848991394042969 -27.326868057250977 0
   vertex -18.623004913330078 -24.807550430297852 0
   vertex -18.190593719482422 -27.427223205566406 0
  endloop
 endfacet
 facet normal 0 0 -1
  outer loop
   vertex -18.190593719482422 -27.427223205566406 0
   vertex -18.623004913330078 -24.807550430297852 0
   vertex -17.809734344482422 -24.907691955566406 0
  endloop
 endfacet
 facet normal 0 0 -1
  outer loop
   vertex -18.190593719482422 -27.427223205566406 0
   vertex -17.809734344482422 -24.907691955566406 0
   vertex -17.924880981445312 -27.52685546875 0
  endloop
 endfacet
 facet normal 0 -0 -1
  outer loop
   vertex -17.924880981445312 -27.52685546875 0
   vertex -17.809734344482422 -24.907691955566406 0
   vertex -17.108631134033203 -25.059249877929688 0
  endloop
 endfacet
 facet normal 0 0 -1
  outer loop
   vertex -17.924880981445312 -27.52685546875 0
   vertex -17.108631134033203 -25.059249877929688 0
   vertex -17.664474487304688 -27.634014129638672 0
  endloop
 endfacet
 facet normal 0 0 -1
  outer loop
   vertex -17.664474487304688 -27.634014129638672 0
   vertex -17.108631134033203 -25.059249877929688 0
   vertex -17.414674758911133 -27.756227493286133 0
  endloop
 endfacet
 facet normal 0 -0 -1
  outer loop
   vertex -17.414674758911133 -27.756227493286133 0
   vertex -17.108631134033203 -25.059249877929688 0
   vertex -16.764358520507812 -25.151330947875977 0
  endloop
 endfacet
 facet normal 0 -0 -1
  outer loop
   vertex -17.414674758911133 -27.756227493286133 0
   vertex -16.764358520507812 -25.151330947875977 0
   vertex -16.42762565612793 -25.262969970703125 0
  endloop
 endfacet
 facet normal 0 0 -1
  outer loop
   vertex -17.414674758911133 -27.756227493286133 0
   vertex -16.42762565612793 -25.262969970703125 0
   vertex -17.180789947509766 -27.901018142700195 0
  endloop
 endfacet
 facet normal 0 -0 -1
  outer loop
   vertex -17.180789947509766 -27.901018142700195 0
   vertex -16.42762565612793 -25.262969970703125 0
   vertex -16.100517272949219 -25.399587631225586 0
  endloop
 endfacet
 facet normal 0 0 -1
  outer loop
   vertex -17.180789947509766 -27.901018142700195 0
   vertex -16.100517272949219 -25.399587631225586 0
   vertex -16.966253280639648 -28.073265075683594 0
  endloop
 endfacet
 facet normal 0 -0 -1
  outer loop
   vertex -16.966253280639648 -28.073265075683594 0
   vertex -16.100517272949219 -25.399587631225586 0
   vertex -15.78179931640625 -25.5579833984375 0
  endloop
 endfacet
 facet normal 0 0 -1
  outer loop
   vertex -16.966253280639648 -28.073265075683594 0
   vertex -15.78179931640625 -25.5579833984375 0
   vertex -16.767471313476562 -28.267864227294922 0
  endloop
 endfacet
 facet normal 0 -0 -1
  outer loop
   vertex -16.767471313476562 -28.267864227294922 0
   vertex -15.78179931640625 -25.5579833984375 0
   vertex -15.158367156982422 -25.911109924316406 0
  endloop
 endfacet
 facet normal 0 0 -1
  outer loop
   vertex -16.767471313476562 -28.267864227294922 0
   vertex -15.158367156982422 -25.911109924316406 0
   vertex -16.579191207885742 -28.477363586425781 0
  endloop
 endfacet
 facet normal 0 0 -1
  outer loop
   vertex -16.579191207885742 -28.477363586425781 0
   vertex -15.158367156982422 -25.911109924316406 0
   vertex -16.396160125732422 -28.694313049316406 0
  endloop
 endfacet
 facet normal 0 -0 -1
  outer loop
   vertex -16.396160125732422 -28.694313049316406 0
   vertex -15.158367156982422 -25.911109924316406 0
   vertex -14.634859085083008 -26.351184844970703 0
  endloop
 endfacet
 facet normal 0 0 -1
  outer loop
   vertex -16.396160125732422 -28.694313049316406 0
   vertex -14.634859085083008 -26.351184844970703 0
   vertex -16.243072509765625 -28.962217330932617 0
  endloop
 endfacet
 facet normal 0 -0 -1
  outer loop
   vertex -16.243072509765625 -28.962217330932617 0
   vertex -14.634859085083008 -26.351184844970703 0
   vertex -14.389410018920898 -26.584888458251953 0
  endloop
 endfacet
 facet normal 0 -0 -1
  outer loop
   vertex -16.243072509765625 -28.962217330932617 0
   vertex -14.389410018920898 -26.584888458251953 0
   vertex -14.163522720336914 -26.834983825683594 0
  endloop
 endfacet
 facet normal 0 0 -1
  outer loop
   vertex -16.243072509765625 -28.962217330932617 0
   vertex -14.163522720336914 -26.834983825683594 0
   vertex -16.098882675170898 -29.232805252075195 0
  endloop
 endfacet
 facet normal 0 -0 -1
  outer loop
   vertex -16.098882675170898 -29.232805252075195 0
   vertex -14.163522720336914 -26.834983825683594 0
   vertex -13.960636138916016 -27.104352951049805 0
  endloop
 endfacet
 facet normal 0 -0 -1
  outer loop
   vertex -16.098882675170898 -29.232805252075195 0
   vertex -13.960636138916016 -27.104352951049805 0
   vertex -13.776005744934082 -27.389022827148438 0
  endloop
 endfacet
 facet normal 0 0 -1
  outer loop
   vertex -16.098882675170898 -29.232805252075195 0
   vertex -13.776005744934082 -27.389022827148438 0
   vertex -15.972490310668945 -29.508758544921875 0
  endloop
 endfacet
 facet normal 0 -0 -1
  outer loop
   vertex -15.972490310668945 -29.508758544921875 0
   vertex -13.776005744934082 -27.389022827148438 0
   vertex -13.437175750732422 -27.983863830566406 0
  endloop
 endfacet
 facet normal 0 0 -1
  outer loop
   vertex -15.972490310668945 -29.508758544921875 0
   vertex -13.437175750732422 -27.983863830566406 0
   vertex -15.872781753540039 -29.792757034301758 0
  endloop
 endfacet
 facet normal 0 -0 -1
  outer loop
   vertex -15.872781753540039 -29.792757034301758 0
   vertex -13.437175750732422 -27.983863830566406 0
   vertex -13.157266616821289 -28.689994812011719 0
  endloop
 endfacet
 facet normal 0 0 -1
  outer loop
   vertex -15.872781753540039 -29.792757034301758 0
   vertex -13.157266616821289 -28.689994812011719 0
   vertex -15.804381370544434 -30.086196899414062 0
  endloop
 endfacet
 facet normal 0 -0 -1
  outer loop
   vertex -15.804381370544434 -30.086196899414062 0
   vertex -13.157266616821289 -28.689994812011719 0
   vertex -13.037528038024902 -29.047605514526367 0
  endloop
 endfacet
 facet normal 0 -0 -1
  outer loop
   vertex -15.804381370544434 -30.086196899414062 0
   vertex -13.037528038024902 -29.047605514526367 0
   vertex -12.942048072814941 -29.410671234130859 0
  endloop
 endfacet
 facet normal 0 0 -1
  outer loop
   vertex -15.804381370544434 -30.086196899414062 0
   vertex -12.942048072814941 -29.410671234130859 0
   vertex -15.760801315307617 -30.387121200561523 0
  endloop
 endfacet
 facet normal 0 -0 -1
  outer loop
   vertex -15.760801315307617 -30.387121200561523 0
   vertex -12.942048072814941 -29.410671234130859 0
   vertex -12.87562084197998 -29.780265808105469 0
  endloop
 endfacet
 facet normal 0 -0 -1
  outer loop
   vertex -15.760801315307617 -30.387121200561523 0
   vertex -12.87562084197998 -29.780265808105469 0
   vertex -12.832546234130859 -30.155111312866211 0
  endloop
 endfacet
 facet normal 0 0 -1
  outer loop
   vertex -15.760801315307617 -30.387121200561523 0
   vertex -12.832546234130859 -30.155111312866211 0
   vertex -15.733768463134766 -30.693035125732422 0
  endloop
 endfacet
 facet normal 0 -0 -1
  outer loop
   vertex -15.733768463134766 -30.693035125732422 0
   vertex -12.832546234130859 -30.155111312866211 0
   vertex -12.785320281982422 -30.913551330566406 0
  endloop
 endfacet
 facet normal -0 0 -1
  outer loop
   vertex -15.733768463134766 -30.693035125732422 0
   vertex -12.785320281982422 -30.913551330566406 0
   vertex -15.715007781982422 -31.001441955566406 0
  endloop
 endfacet
 facet normal 0 0 -1
  outer loop
   vertex -15.715007781982422 -31.001441955566406 0
   vertex -12.785320281982422 -30.913551330566406 0
   vertex -12.838605880737305 -31.555595397949219 0
  endloop
 endfacet
 facet normal 0 0 -1
  outer loop
   vertex -15.715007781982422 -31.001441955566406 0
   vertex -12.838605880737305 -31.555595397949219 0
   vertex -15.743887901306152 -31.410177230834961 0
  endloop
 endfacet
 facet normal -0 0 -1
  outer loop
   vertex -15.743887901306152 -31.410177230834961 0
   vertex -12.838605880737305 -31.555595397949219 0
   vertex -12.912667274475098 -32.189746856689453 0
  endloop
 endfacet
 facet normal 0 0 -1
  outer loop
   vertex -15.743887901306152 -31.410177230834961 0
   vertex -12.912667274475098 -32.189746856689453 0
   vertex -15.78704833984375 -31.812990188598633 0
  endloop
 endfacet
 facet normal -0 0 -1
  outer loop
   vertex -15.78704833984375 -31.812990188598633 0
   vertex -12.912667274475098 -32.189746856689453 0
   vertex -12.963980674743652 -32.501399993896484 0
  endloop
 endfacet
 facet normal -0 0 -1
  outer loop
   vertex -15.78704833984375 -31.812990188598633 0
   vertex -12.963980674743652 -32.501399993896484 0
   vertex -13.028278350830078 -32.808120727539062 0
  endloop
 endfacet
 facet normal 0 0 -1
  outer loop
   vertex -15.78704833984375 -31.812990188598633 0
   vertex -13.028278350830078 -32.808120727539062 0
   vertex -15.818447113037109 -32.010322570800781 0
  endloop
 endfacet
 facet normal -0 0 -1
  outer loop
   vertex -15.818447113037109 -32.010322570800781 0
   vertex -13.028278350830078 -32.808120727539062 0
   vertex -13.108159065246582 -33.108924865722656 0
  endloop
 endfacet
 facet normal -0 0 -1
  outer loop
   vertex -15.818447113037109 -32.010322570800781 0
   vertex -13.108159065246582 -33.108924865722656 0
   vertex -13.206216812133789 -33.402824401855469 0
  endloop
 endfacet
 facet normal 0 0 -1
  outer loop
   vertex -15.818447113037109 -32.010322570800781 0
   vertex -13.206216812133789 -33.402824401855469 0
   vertex -15.858769416809082 -32.203956604003906 0
  endloop
 endfacet
 facet normal -0 0 -1
  outer loop
   vertex -15.858769416809082 -32.203956604003906 0
   vertex -13.206216812133789 -33.402824401855469 0
   vertex -13.324482917785645 -33.689052581787109 0
  endloop
 endfacet
 facet normal -0 0 -1
  outer loop
   vertex -15.858769416809082 -32.203956604003906 0
   vertex -13.324482917785645 -33.689052581787109 0
   vertex -13.461554527282715 -33.968135833740234 0
  endloop
 endfacet
 facet normal 0 0 -1
  outer loop
   vertex -15.858769416809082 -32.203956604003906 0
   vertex -13.461554527282715 -33.968135833740234 0
   vertex -15.90980339050293 -32.393146514892578 0
  endloop
 endfacet
 facet normal -0 0 -1
  outer loop
   vertex -15.90980339050293 -32.393146514892578 0
   vertex -13.461554527282715 -33.968135833740234 0
   vertex -13.614747047424316 -34.241096496582031 0
  endloop
 endfacet
 facet normal 0 0 -1
  outer loop
   vertex -15.90980339050293 -32.393146514892578 0
   vertex -13.614747047424316 -34.241096496582031 0
   vertex -15.973331451416016 -32.577156066894531 0
  endloop
 endfacet
 facet normal -0 0 -1
  outer loop
   vertex -15.973331451416016 -32.577156066894531 0
   vertex -13.614747047424316 -34.241096496582031 0
   vertex -13.781373977661133 -34.508956909179688 0
  endloop
 endfacet
 facet normal 0 0 -1
  outer loop
   vertex -15.973331451416016 -32.577156066894531 0
   vertex -13.781373977661133 -34.508956909179688 0
   vertex -16.051019668579102 -32.755290985107422 0
  endloop
 endfacet
 facet normal -0 0 -1
  outer loop
   vertex -16.051019668579102 -32.755290985107422 0
   vertex -13.781373977661133 -34.508956909179688 0
   vertex -14.144182205200195 -35.033451080322266 0
  endloop
 endfacet
 facet normal 0 0 -1
  outer loop
   vertex -16.051019668579102 -32.755290985107422 0
   vertex -14.144182205200195 -35.033451080322266 0
   vertex -16.142545700073242 -32.927684783935547 0
  endloop
 endfacet
 facet normal 0 0 -1
  outer loop
   vertex -16.142545700073242 -32.927684783935547 0
   vertex -14.144182205200195 -35.033451080322266 0
   vertex -16.245975494384766 -33.095146179199219 0
  endloop
 endfacet
 facet normal -0 0 -1
  outer loop
   vertex -16.245975494384766 -33.095146179199219 0
   vertex -14.144182205200195 -35.033451080322266 0
   vertex -15.233035087585449 -36.032951354980469 0
  endloop
 endfacet
 facet normal 0 0 -1
  outer loop
   vertex -16.245975494384766 -33.095146179199219 0
   vertex -15.233035087585449 -36.032951354980469 0
   vertex -16.359325408935547 -33.258487701416016 0
  endloop
 endfacet
 facet normal 0 0 -1
  outer loop
   vertex -16.359325408935547 -33.258487701416016 0
   vertex -15.233035087585449 -36.032951354980469 0
   vertex -16.607845306396484 -33.576129913330078 0
  endloop
 endfacet
 facet normal 0 0 -1
  outer loop
   vertex -16.607845306396484 -33.576129913330078 0
   vertex -15.233035087585449 -36.032951354980469 0
   vertex -16.872234344482422 -33.887184143066406 0
  endloop
 endfacet
 facet normal 0 0 -1
  outer loop
   vertex -16.872234344482422 -33.887184143066406 0
   vertex -15.233035087585449 -36.032951354980469 0
   vertex -17.322563171386719 -34.147624969482422 0
  endloop
 endfacet
 facet normal 0 0 -1
  outer loop
   vertex -17.322563171386719 -34.147624969482422 0
   vertex -15.233035087585449 -36.032951354980469 0
   vertex -17.778444290161133 -34.389030456542969 0
  endloop
 endfacet
 facet normal 0 0 -1
  outer loop
   vertex -17.778444290161133 -34.389030456542969 0
   vertex -15.233035087585449 -36.032951354980469 0
   vertex -18.010198593139648 -34.49664306640625 0
  endloop
 endfacet
 facet normal 0 0 -1
  outer loop
   vertex -18.010198593139648 -34.49664306640625 0
   vertex -15.233035087585449 -36.032951354980469 0
   vertex -18.245424270629883 -34.592361450195312 0
  endloop
 endfacet
 facet normal 0 0 -1
  outer loop
   vertex -18.245424270629883 -34.592361450195312 0
   vertex -15.233035087585449 -36.032951354980469 0
   vertex -18.484807968139648 -34.673809051513672 0
  endloop
 endfacet
 facet normal 0 0 -1
  outer loop
   vertex -18.484807968139648 -34.673809051513672 0
   vertex -15.233035087585449 -36.032951354980469 0
   vertex -18.728677749633789 -34.7398681640625 0
  endloop
 endfacet
 facet normal 0 0 -1
  outer loop
   vertex -18.728677749633789 -34.7398681640625 0
   vertex -15.233035087585449 -36.032951354980469 0
   vertex -18.976615905761719 -34.791980743408203 0
  endloop
 endfacet
 facet normal 0 0 -1
  outer loop
   vertex -18.976615905761719 -34.791980743408203 0
   vertex -15.233035087585449 -36.032951354980469 0
   vertex -19.228113174438477 -34.831878662109375 0
  endloop
 endfacet
 facet normal 0 0 -1
  outer loop
   vertex -19.228113174438477 -34.831878662109375 0
   vertex -15.233035087585449 -36.032951354980469 0
   vertex -19.482660293579102 -34.861316680908203 0
  endloop
 endfacet
 facet normal -0 0 -1
  outer loop
   vertex -14.144182205200195 -35.033451080322266 0
   vertex -14.528484344482422 -35.549781799316406 0
   vertex -15.233035087585449 -36.032951354980469 0
  endloop
 endfacet
endsolid
