solid Visualization Toolkit generated SLA File
 facet normal 0 0 1
  outer loop
   vertex 93.562332153320312 -46.177223205566406 5
   vertex 96.404129028320312 -46.177223205566406 5
   vertex 93.562332153320312 -27.236793518066406 5
  endloop
 endfacet
 facet normal 0 -0 1
  outer loop
   vertex 93.562332153320312 -27.236793518066406 5
   vertex 96.404129028320312 -46.177223205566406 5
   vertex 96.404129028320312 -27.236793518066406 5
  endloop
 endfacet
 facet normal 0 0 1
  outer loop
   vertex 93.562332153320312 -27.236793518066406 5
   vertex 96.404129028320312 -27.236793518066406 5
   vertex 86.487136840820312 -24.702613830566406 5
  endloop
 endfacet
 facet normal 0 -0 1
  outer loop
   vertex 86.487136840820312 -24.702613830566406 5
   vertex 96.404129028320312 -27.236793518066406 5
   vertex 103.50862121582031 -24.702613830566406 5
  endloop
 endfacet
 facet normal 0 0 1
  outer loop
   vertex 103.50862121582031 -24.702613830566406 5
   vertex 96.404129028320312 -27.236793518066406 5
   vertex 103.50862121582031 -27.236793518066406 5
  endloop
 endfacet
 facet normal 0 0 1
  outer loop
   vertex 86.487136840820312 -24.702613830566406 5
   vertex 86.487136840820312 -27.236793518066406 5
   vertex 93.562332153320312 -27.236793518066406 5
  endloop
 endfacet
 facet normal -1 0 0
  outer loop
   vertex 93.562332153320312 -27.236793518066406 0
   vertex 93.562332153320312 -46.177223205566406 0
   vertex 93.562332153320312 -27.236793518066406 5
  endloop
 endfacet
 facet normal -1 0 0
  outer loop
   vertex 93.562332153320312 -27.236793518066406 5
   vertex 93.562332153320312 -46.177223205566406 0
   vertex 93.562332153320312 -46.177223205566406 5
  endloop
 endfacet
 facet normal 0 -1 0
  outer loop
   vertex 86.487136840820312 -27.236793518066406 0
   vertex 93.562332153320312 -27.236793518066406 0
   vertex 86.487136840820312 -27.236793518066406 5
  endloop
 endfacet
 facet normal 0 -1 0
  outer loop
   vertex 86.487136840820312 -27.236793518066406 5
   vertex 93.562332153320312 -27.236793518066406 0
   vertex 93.562332153320312 -27.236793518066406 5
  endloop
 endfacet
 facet normal -1 0 0
  outer loop
   vertex 86.487136840820312 -24.702613830566406 0
   vertex 86.487136840820312 -27.236793518066406 0
   vertex 86.487136840820312 -24.702613830566406 5
  endloop
 endfacet
 facet normal -1 0 0
  outer loop
   vertex 86.487136840820312 -24.702613830566406 5
   vertex 86.487136840820312 -27.236793518066406 0
   vertex 86.487136840820312 -27.236793518066406 5
  endloop
 endfacet
 facet normal 0 1 0
  outer loop
   vertex 103.50862121582031 -24.702613830566406 0
   vertex 86.487136840820312 -24.702613830566406 0
   vertex 103.50862121582031 -24.702613830566406 5
  endloop
 endfacet
 facet normal 0 1 0
  outer loop
   vertex 103.50862121582031 -24.702613830566406 5
   vertex 86.487136840820312 -24.702613830566406 0
   vertex 86.487136840820312 -24.702613830566406 5
  endloop
 endfacet
 facet normal 1 0 0
  outer loop
   vertex 103.50862121582031 -27.236793518066406 0
   vertex 103.50862121582031 -24.702613830566406 0
   vertex 103.50862121582031 -27.236793518066406 5
  endloop
 endfacet
 facet normal 1 0 -0
  outer loop
   vertex 103.50862121582031 -27.236793518066406 5
   vertex 103.50862121582031 -24.702613830566406 0
   vertex 103.50862121582031 -24.702613830566406 5
  endloop
 endfacet
 facet normal 0 -1 0
  outer loop
   vertex 96.404129028320312 -27.236793518066406 0
   vertex 103.50862121582031 -27.236793518066406 0
   vertex 96.404129028320312 -27.236793518066406 5
  endloop
 endfacet
 facet normal 0 -1 0
  outer loop
   vertex 96.404129028320312 -27.236793518066406 5
   vertex 103.50862121582031 -27.236793518066406 0
   vertex 103.50862121582031 -27.236793518066406 5
  endloop
 endfacet
 facet normal 1 0 0
  outer loop
   vertex 96.404129028320312 -46.177223205566406 0
   vertex 96.404129028320312 -27.236793518066406 0
   vertex 96.404129028320312 -46.177223205566406 5
  endloop
 endfacet
 facet normal 1 0 -0
  outer loop
   vertex 96.404129028320312 -46.177223205566406 5
   vertex 96.404129028320312 -27.236793518066406 0
   vertex 96.404129028320312 -27.236793518066406 5
  endloop
 endfacet
 facet normal 0 -1 0
  outer loop
   vertex 93.562332153320312 -46.177223205566406 0
   vertex 96.404129028320312 -46.177223205566406 0
   vertex 93.562332153320312 -46.177223205566406 5
  endloop
 endfacet
 facet normal 0 -1 0
  outer loop
   vertex 93.562332153320312 -46.177223205566406 5
   vertex 96.404129028320312 -46.177223205566406 0
   vertex 96.404129028320312 -46.177223205566406 5
  endloop
 endfacet
 facet normal 0 0 -1
  outer loop
   vertex 96.404129028320312 -46.177223205566406 0
   vertex 93.562332153320312 -46.177223205566406 0
   vertex 96.404129028320312 -27.236793518066406 0
  endloop
 endfacet
 facet normal 0 0 -1
  outer loop
   vertex 96.404129028320312 -27.236793518066406 0
   vertex 93.562332153320312 -46.177223205566406 0
   vertex 93.562332153320312 -27.236793518066406 0
  endloop
 endfacet
 facet normal 0 0 -1
  outer loop
   vertex 96.404129028320312 -27.236793518066406 0
   vertex 93.562332153320312 -27.236793518066406 0
   vertex 86.487136840820312 -24.702613830566406 0
  endloop
 endfacet
 facet normal 0 0 -1
  outer loop
   vertex 86.487136840820312 -24.702613830566406 0
   vertex 93.562332153320312 -27.236793518066406 0
   vertex 86.487136840820312 -27.236793518066406 0
  endloop
 endfacet
 facet normal -0 0 -1
  outer loop
   vertex 86.487136840820312 -24.702613830566406 0
   vertex 103.50862121582031 -24.702613830566406 0
   vertex 96.404129028320312 -27.236793518066406 0
  endloop
 endfacet
 facet normal 0 -0 -1
  outer loop
   vertex 96.404129028320312 -27.236793518066406 0
   vertex 103.50862121582031 -24.702613830566406 0
   vertex 103.50862121582031 -27.236793518066406 0
  endloop
 endfacet
endsolid
