solid Visualization Toolkit generated SLA File
 facet normal -0.93245753630910067 -0.36127959114841007 0
  outer loop
   vertex -63.968471527099609 -68.220283508300781 0
   vertex -55.648159027099609 -89.694892883300781 0
   vertex -63.968471527099609 -68.220283508300781 5
  endloop
 endfacet
 facet normal -0.93245753630910067 -0.36127959114841007 0
  outer loop
   vertex -63.968471527099609 -68.220283508300781 5
   vertex -55.648159027099609 -89.694892883300781 0
   vertex -55.648159027099609 -89.694892883300781 5
  endloop
 endfacet
 facet normal 0 1 0
  outer loop
   vertex -60.892299652099609 -68.220283508300781 0
   vertex -63.968471527099609 -68.220283508300781 0
   vertex -60.892299652099609 -68.220283508300781 5
  endloop
 endfacet
 facet normal 0 1 0
  outer loop
   vertex -60.892299652099609 -68.220283508300781 5
   vertex -63.968471527099609 -68.220283508300781 0
   vertex -63.968471527099609 -68.220283508300781 5
  endloop
 endfacet
 facet normal 0.94156175724548463 0.33684040329627196 0
  outer loop
   vertex -55.311244964599609 -83.820869445800781 0
   vertex -60.892299652099609 -68.220283508300781 0
   vertex -55.311244964599609 -83.820869445800781 5
  endloop
 endfacet
 facet normal 0.94156175724548463 0.33684040329627196 -0
  outer loop
   vertex -55.311244964599609 -83.820869445800781 5
   vertex -60.892299652099609 -68.220283508300781 0
   vertex -60.892299652099609 -68.220283508300781 5
  endloop
 endfacet
 facet normal 0.95979503298869151 0.28070178953871378 0
  outer loop
   vertex -54.183315277099609 -87.336494445800781 0
   vertex -54.442493438720703 -86.450294494628906 0
   vertex -54.183315277099609 -87.336494445800781 5
  endloop
 endfacet
 facet normal 0.95979503298869151 0.28070178953871378 -0
  outer loop
   vertex -54.183315277099609 -87.336494445800781 5
   vertex -54.442493438720703 -86.450294494628906 0
   vertex -54.442493438720703 -86.450294494628906 5
  endloop
 endfacet
 facet normal 0.95560433634930619 0.29465293541792892 -0
  outer loop
   vertex -54.442493438720703 -86.450294494628906 5
   vertex -54.442493438720703 -86.450294494628906 0
   vertex -54.714485168457031 -85.568183898925781 0
  endloop
 endfacet
 facet normal 0.95560433634930619 0.29465293541792892 -0
  outer loop
   vertex -54.442493438720703 -86.450294494628906 5
   vertex -54.714485168457031 -85.568183898925781 0
   vertex -54.714485168457031 -85.568183898925781 5
  endloop
 endfacet
 facet normal 0.94848558067904087 0.3168203011865604 -0
  outer loop
   vertex -54.714485168457031 -85.568183898925781 5
   vertex -54.714485168457031 -85.568183898925781 0
   vertex -55.006942749023438 -84.692634582519531 0
  endloop
 endfacet
 facet normal 0.94848558067904087 0.3168203011865604 -0
  outer loop
   vertex -54.714485168457031 -85.568183898925781 5
   vertex -55.006942749023438 -84.692634582519531 0
   vertex -55.006942749023438 -84.692634582519531 5
  endloop
 endfacet
 facet normal 0.94413344066672789 0.32956341759182922 -0
  outer loop
   vertex -55.006942749023438 -84.692634582519531 5
   vertex -55.006942749023438 -84.692634582519531 0
   vertex -55.311244964599609 -83.820869445800781 0
  endloop
 endfacet
 facet normal 0.94413344066672789 0.32956341759182922 -0
  outer loop
   vertex -55.006942749023438 -84.692634582519531 5
   vertex -55.311244964599609 -83.820869445800781 0
   vertex -55.311244964599609 -83.820869445800781 5
  endloop
 endfacet
 facet normal -0.94061298050053366 0.33948081081837722 0
  outer loop
   vertex -53.026088714599609 -83.820869445800781 0
   vertex -53.340335845947266 -84.691566467285156 0
   vertex -53.026088714599609 -83.820869445800781 5
  endloop
 endfacet
 facet normal -0.94061298050053366 0.33948081081837722 0
  outer loop
   vertex -53.026088714599609 -83.820869445800781 5
   vertex -53.340335845947266 -84.691566467285156 0
   vertex -53.340335845947266 -84.691566467285156 5
  endloop
 endfacet
 facet normal -0.94572769944317014 0.32496017987736403 0
  outer loop
   vertex -53.340335845947266 -84.691566467285156 5
   vertex -53.340335845947266 -84.691566467285156 0
   vertex -53.641048431396484 -85.566726684570312 0
  endloop
 endfacet
 facet normal -0.94572769944317014 0.32496017987736403 0
  outer loop
   vertex -53.340335845947266 -84.691566467285156 5
   vertex -53.641048431396484 -85.566726684570312 0
   vertex -53.641048431396484 -85.566726684570312 5
  endloop
 endfacet
 facet normal -0.95380787141582535 0.30041728383235916 0
  outer loop
   vertex -53.641048431396484 -85.566726684570312 5
   vertex -53.641048431396484 -85.566726684570312 0
   vertex -53.919044494628906 -86.449348449707031 0
  endloop
 endfacet
 facet normal -0.95380787141582535 0.30041728383235916 0
  outer loop
   vertex -53.641048431396484 -85.566726684570312 5
   vertex -53.919044494628906 -86.449348449707031 0
   vertex -53.919044494628906 -86.449348449707031 5
  endloop
 endfacet
 facet normal -0.95838138940568296 0.28549100238156822 0
  outer loop
   vertex -53.919044494628906 -86.449348449707031 5
   vertex -53.919044494628906 -86.449348449707031 0
   vertex -54.183315277099609 -87.336494445800781 0
  endloop
 endfacet
 facet normal -0.95838138940568296 0.28549100238156822 0
  outer loop
   vertex -53.919044494628906 -86.449348449707031 5
   vertex -54.183315277099609 -87.336494445800781 0
   vertex -54.183315277099609 -87.336494445800781 5
  endloop
 endfacet
 facet normal -0.93730210100486022 0.34851796431730014 0
  outer loop
   vertex -47.225307464599609 -68.220283508300781 0
   vertex -53.026088714599609 -83.820869445800781 0
   vertex -47.225307464599609 -68.220283508300781 5
  endloop
 endfacet
 facet normal -0.93730210100486022 0.34851796431730014 0
  outer loop
   vertex -47.225307464599609 -68.220283508300781 5
   vertex -53.026088714599609 -83.820869445800781 0
   vertex -53.026088714599609 -83.820869445800781 5
  endloop
 endfacet
 facet normal 0 1 0
  outer loop
   vertex -44.324916839599609 -68.220283508300781 0
   vertex -47.225307464599609 -68.220283508300781 0
   vertex -44.324916839599609 -68.220283508300781 5
  endloop
 endfacet
 facet normal 0 1 0
  outer loop
   vertex -44.324916839599609 -68.220283508300781 5
   vertex -47.225307464599609 -68.220283508300781 0
   vertex -47.225307464599609 -68.220283508300781 5
  endloop
 endfacet
 facet normal 0.9311677884213424 -0.36459093489348604 0
  outer loop
   vertex -52.733119964599609 -89.694892883300781 0
   vertex -44.324916839599609 -68.220283508300781 0
   vertex -52.733119964599609 -89.694892883300781 5
  endloop
 endfacet
 facet normal 0.9311677884213424 -0.36459093489348604 0
  outer loop
   vertex -52.733119964599609 -89.694892883300781 5
   vertex -44.324916839599609 -68.220283508300781 0
   vertex -44.324916839599609 -68.220283508300781 5
  endloop
 endfacet
 facet normal 0 -1 0
  outer loop
   vertex -55.648159027099609 -89.694892883300781 0
   vertex -52.733119964599609 -89.694892883300781 0
   vertex -55.648159027099609 -89.694892883300781 5
  endloop
 endfacet
 facet normal 0 -1 0
  outer loop
   vertex -55.648159027099609 -89.694892883300781 5
   vertex -52.733119964599609 -89.694892883300781 0
   vertex -52.733119964599609 -89.694892883300781 5
  endloop
 endfacet
 facet normal 0 0 1
  outer loop
   vertex -52.733119964599609 -89.694892883300781 5
   vertex -54.183315277099609 -87.336494445800781 5
   vertex -55.648159027099609 -89.694892883300781 5
  endloop
 endfacet
 facet normal 0 0 1
  outer loop
   vertex -55.648159027099609 -89.694892883300781 5
   vertex -54.183315277099609 -87.336494445800781 5
   vertex -54.442493438720703 -86.450294494628906 5
  endloop
 endfacet
 facet normal 0 0 1
  outer loop
   vertex -55.648159027099609 -89.694892883300781 5
   vertex -54.442493438720703 -86.450294494628906 5
   vertex -54.714485168457031 -85.568183898925781 5
  endloop
 endfacet
 facet normal -0 0 1
  outer loop
   vertex -44.324916839599609 -68.220283508300781 5
   vertex -53.026088714599609 -83.820869445800781 5
   vertex -52.733119964599609 -89.694892883300781 5
  endloop
 endfacet
 facet normal 0 0 1
  outer loop
   vertex -52.733119964599609 -89.694892883300781 5
   vertex -53.026088714599609 -83.820869445800781 5
   vertex -53.340335845947266 -84.691566467285156 5
  endloop
 endfacet
 facet normal 0 0 1
  outer loop
   vertex -52.733119964599609 -89.694892883300781 5
   vertex -53.340335845947266 -84.691566467285156 5
   vertex -53.641048431396484 -85.566726684570312 5
  endloop
 endfacet
 facet normal -0 0 1
  outer loop
   vertex -44.324916839599609 -68.220283508300781 5
   vertex -47.225307464599609 -68.220283508300781 5
   vertex -53.026088714599609 -83.820869445800781 5
  endloop
 endfacet
 facet normal -0 0 1
  outer loop
   vertex -53.641048431396484 -85.566726684570312 5
   vertex -53.919044494628906 -86.449348449707031 5
   vertex -52.733119964599609 -89.694892883300781 5
  endloop
 endfacet
 facet normal 0 0 1
  outer loop
   vertex -52.733119964599609 -89.694892883300781 5
   vertex -53.919044494628906 -86.449348449707031 5
   vertex -54.183315277099609 -87.336494445800781 5
  endloop
 endfacet
 facet normal 0 0 1
  outer loop
   vertex -54.714485168457031 -85.568183898925781 5
   vertex -55.006942749023438 -84.692634582519531 5
   vertex -55.648159027099609 -89.694892883300781 5
  endloop
 endfacet
 facet normal 0 0 1
  outer loop
   vertex -55.648159027099609 -89.694892883300781 5
   vertex -55.006942749023438 -84.692634582519531 5
   vertex -55.311244964599609 -83.820869445800781 5
  endloop
 endfacet
 facet normal 0 0 1
  outer loop
   vertex -55.648159027099609 -89.694892883300781 5
   vertex -55.311244964599609 -83.820869445800781 5
   vertex -63.968471527099609 -68.220283508300781 5
  endloop
 endfacet
 facet normal 0 0 1
  outer loop
   vertex -63.968471527099609 -68.220283508300781 5
   vertex -55.311244964599609 -83.820869445800781 5
   vertex -60.892299652099609 -68.220283508300781 5
  endloop
 endfacet
 facet normal 0 -0 -1
  outer loop
   vertex -55.648159027099609 -89.694892883300781 0
   vertex -54.183315277099609 -87.336494445800781 0
   vertex -52.733119964599609 -89.694892883300781 0
  endloop
 endfacet
 facet normal 0 0 -1
  outer loop
   vertex -52.733119964599609 -89.694892883300781 0
   vertex -54.183315277099609 -87.336494445800781 0
   vertex -53.919044494628906 -86.449348449707031 0
  endloop
 endfacet
 facet normal 0 0 -1
  outer loop
   vertex -52.733119964599609 -89.694892883300781 0
   vertex -53.919044494628906 -86.449348449707031 0
   vertex -53.641048431396484 -85.566726684570312 0
  endloop
 endfacet
 facet normal -0 0 -1
  outer loop
   vertex -63.968471527099609 -68.220283508300781 0
   vertex -55.311244964599609 -83.820869445800781 0
   vertex -55.648159027099609 -89.694892883300781 0
  endloop
 endfacet
 facet normal 0 -0 -1
  outer loop
   vertex -55.648159027099609 -89.694892883300781 0
   vertex -55.311244964599609 -83.820869445800781 0
   vertex -55.006942749023438 -84.692634582519531 0
  endloop
 endfacet
 facet normal 0 -0 -1
  outer loop
   vertex -55.648159027099609 -89.694892883300781 0
   vertex -55.006942749023438 -84.692634582519531 0
   vertex -54.714485168457031 -85.568183898925781 0
  endloop
 endfacet
 facet normal -0 -0 -1
  outer loop
   vertex -63.968471527099609 -68.220283508300781 0
   vertex -60.892299652099609 -68.220283508300781 0
   vertex -55.311244964599609 -83.820869445800781 0
  endloop
 endfacet
 facet normal -0 0 -1
  outer loop
   vertex -54.714485168457031 -85.568183898925781 0
   vertex -54.442493438720703 -86.450294494628906 0
   vertex -55.648159027099609 -89.694892883300781 0
  endloop
 endfacet
 facet normal 0 -0 -1
  outer loop
   vertex -55.648159027099609 -89.694892883300781 0
   vertex -54.442493438720703 -86.450294494628906 0
   vertex -54.183315277099609 -87.336494445800781 0
  endloop
 endfacet
 facet normal 0 -0 -1
  outer loop
   vertex -53.641048431396484 -85.566726684570312 0
   vertex -53.340335845947266 -84.691566467285156 0
   vertex -52.733119964599609 -89.694892883300781 0
  endloop
 endfacet
 facet normal 0 0 -1
  outer loop
   vertex -52.733119964599609 -89.694892883300781 0
   vertex -53.340335845947266 -84.691566467285156 0
   vertex -53.026088714599609 -83.820869445800781 0
  endloop
 endfacet
 facet normal 0 0 -1
  outer loop
   vertex -52.733119964599609 -89.694892883300781 0
   vertex -53.026088714599609 -83.820869445800781 0
   vertex -44.324916839599609 -68.220283508300781 0
  endloop
 endfacet
 facet normal 0 0 -1
  outer loop
   vertex -44.324916839599609 -68.220283508300781 0
   vertex -53.026088714599609 -83.820869445800781 0
   vertex -47.225307464599609 -68.220283508300781 0
  endloop
 endfacet
endsolid
