solid Visualization Toolkit generated SLA File
 facet normal -0.96655153071952937 -0.25647249065686278 0
  outer loop
   vertex -35.389369964599609 -68.220283508300781 0
   vertex -29.691125869750977 -89.694892883300781 0
   vertex -35.389369964599609 -68.220283508300781 5
  endloop
 endfacet
 facet normal -0.96655153071952937 -0.25647249065686278 0
  outer loop
   vertex -35.389369964599609 -68.220283508300781 5
   vertex -29.691125869750977 -89.694892883300781 0
   vertex -29.691125869750977 -89.694892883300781 5
  endloop
 endfacet
 facet normal 0 1 0
  outer loop
   vertex -32.474330902099609 -68.220283508300781 0
   vertex -35.389369964599609 -68.220283508300781 0
   vertex -32.474330902099609 -68.220283508300781 5
  endloop
 endfacet
 facet normal 0 1 0
  outer loop
   vertex -32.474330902099609 -68.220283508300781 5
   vertex -35.389369964599609 -68.220283508300781 0
   vertex -35.389369964599609 -68.220283508300781 5
  endloop
 endfacet
 facet normal 0.97411710301281218 0.2260439550572545 0
  outer loop
   vertex -29.207727432250977 -82.297431945800781 0
   vertex -32.474330902099609 -68.220283508300781 0
   vertex -29.207727432250977 -82.297431945800781 5
  endloop
 endfacet
 facet normal 0.97411710301281218 0.2260439550572545 -0
  outer loop
   vertex -29.207727432250977 -82.297431945800781 5
   vertex -32.474330902099609 -68.220283508300781 0
   vertex -32.474330902099609 -68.220283508300781 5
  endloop
 endfacet
 facet normal 0.98335795962443306 0.18167862626977255 0
  outer loop
   vertex -28.299524307250977 -86.691963195800781 0
   vertex -28.503385543823242 -85.588539123535156 0
   vertex -28.299524307250977 -86.691963195800781 5
  endloop
 endfacet
 facet normal 0.98335795962443306 0.18167862626977255 -0
  outer loop
   vertex -28.299524307250977 -86.691963195800781 5
   vertex -28.503385543823242 -85.588539123535156 0
   vertex -28.503385543823242 -85.588539123535156 5
  endloop
 endfacet
 facet normal 0.98119122065726405 0.19303830838750147 -0
  outer loop
   vertex -28.503385543823242 -85.588539123535156 5
   vertex -28.503385543823242 -85.588539123535156 0
   vertex -28.719955444335938 -84.487739562988281 0
  endloop
 endfacet
 facet normal 0.98119122065726405 0.19303830838750147 -0
  outer loop
   vertex -28.503385543823242 -85.588539123535156 5
   vertex -28.719955444335938 -84.487739562988281 0
   vertex -28.719955444335938 -84.487739562988281 5
  endloop
 endfacet
 facet normal 0.97731403823132557 0.21179535093098459 -0
  outer loop
   vertex -28.719955444335938 -84.487739562988281 5
   vertex -28.719955444335938 -84.487739562988281 0
   vertex -28.957569122314453 -83.391288757324219 0
  endloop
 endfacet
 facet normal 0.97731403823132557 0.21179535093098459 -0
  outer loop
   vertex -28.719955444335938 -84.487739562988281 5
   vertex -28.957569122314453 -83.391288757324219 0
   vertex -28.957569122314453 -83.391288757324219 5
  endloop
 endfacet
 facet normal 0.97483257956597336 0.22293820178863538 -0
  outer loop
   vertex -28.957569122314453 -83.391288757324219 5
   vertex -28.957569122314453 -83.391288757324219 0
   vertex -29.207727432250977 -82.297431945800781 0
  endloop
 endfacet
 facet normal 0.97483257956597336 0.22293820178863538 -0
  outer loop
   vertex -28.957569122314453 -83.391288757324219 5
   vertex -29.207727432250977 -82.297431945800781 0
   vertex -29.207727432250977 -82.297431945800781 5
  endloop
 endfacet
 facet normal -0.96983151739454543 0.24377618396429454 0
  outer loop
   vertex -27.332727432250977 -82.722236633300781 0
   vertex -27.581733703613281 -83.712875366210938 0
   vertex -27.332727432250977 -82.722236633300781 5
  endloop
 endfacet
 facet normal -0.96983151739454543 0.24377618396429454 0
  outer loop
   vertex -27.332727432250977 -82.722236633300781 5
   vertex -27.581733703613281 -83.712875366210938 0
   vertex -27.581733703613281 -83.712875366210938 5
  endloop
 endfacet
 facet normal -0.97111048654011534 0.23863030597939636 0
  outer loop
   vertex -27.581733703613281 -83.712875366210938 5
   vertex -27.581733703613281 -83.712875366210938 0
   vertex -27.825479507446289 -84.704803466796875 0
  endloop
 endfacet
 facet normal -0.97111048654011534 0.23863030597939636 0
  outer loop
   vertex -27.581733703613281 -83.712875366210938 5
   vertex -27.825479507446289 -84.704803466796875 0
   vertex -27.825479507446289 -84.704803466796875 5
  endloop
 endfacet
 facet normal -0.9723887935346327 0.23336673757899071 0
  outer loop
   vertex -27.825479507446289 -84.704803466796875 5
   vertex -27.825479507446289 -84.704803466796875 0
   vertex -28.063852310180664 -85.698051452636719 0
  endloop
 endfacet
 facet normal -0.9723887935346327 0.23336673757899071 0
  outer loop
   vertex -27.825479507446289 -84.704803466796875 5
   vertex -28.063852310180664 -85.698051452636719 0
   vertex -28.063852310180664 -85.698051452636719 5
  endloop
 endfacet
 facet normal -0.973020571178703 0.23071837391735983 0
  outer loop
   vertex -28.063852310180664 -85.698051452636719 5
   vertex -28.063852310180664 -85.698051452636719 0
   vertex -28.299524307250977 -86.691963195800781 0
  endloop
 endfacet
 facet normal -0.973020571178703 0.23071837391735983 0
  outer loop
   vertex -28.063852310180664 -85.698051452636719 5
   vertex -28.299524307250977 -86.691963195800781 0
   vertex -28.299524307250977 -86.691963195800781 5
  endloop
 endfacet
 facet normal -0.96250827159100105 0.27125233108473668 0
  outer loop
   vertex -23.245813369750977 -68.220283508300781 0
   vertex -27.332727432250977 -82.722236633300781 0
   vertex -23.245813369750977 -68.220283508300781 5
  endloop
 endfacet
 facet normal -0.96250827159100105 0.27125233108473668 0
  outer loop
   vertex -23.245813369750977 -68.220283508300781 5
   vertex -27.332727432250977 -82.722236633300781 0
   vertex -27.332727432250977 -82.722236633300781 5
  endloop
 endfacet
 facet normal 0 1 0
  outer loop
   vertex -19.818078994750977 -68.220283508300781 0
   vertex -23.245813369750977 -68.220283508300781 0
   vertex -19.818078994750977 -68.220283508300781 5
  endloop
 endfacet
 facet normal 0 1 0
  outer loop
   vertex -19.818078994750977 -68.220283508300781 5
   vertex -23.245813369750977 -68.220283508300781 0
   vertex -23.245813369750977 -68.220283508300781 5
  endloop
 endfacet
 facet normal 0.9622060458243662 0.27232246579934893 0
  outer loop
   vertex -16.741907119750977 -79.089424133300781 0
   vertex -19.818078994750977 -68.220283508300781 0
   vertex -16.741907119750977 -79.089424133300781 5
  endloop
 endfacet
 facet normal 0.9622060458243662 0.27232246579934893 -0
  outer loop
   vertex -16.741907119750977 -79.089424133300781 5
   vertex -19.818078994750977 -68.220283508300781 0
   vertex -19.818078994750977 -68.220283508300781 5
  endloop
 endfacet
 facet normal 0.98571185340525158 0.16844032194336361 0
  outer loop
   vertex -15.071986198425293 -86.691963195800781 0
   vertex -15.400102615356445 -84.771827697753906 0
   vertex -15.071986198425293 -86.691963195800781 5
  endloop
 endfacet
 facet normal 0.98571185340525158 0.16844032194336361 -0
  outer loop
   vertex -15.071986198425293 -86.691963195800781 5
   vertex -15.400102615356445 -84.771827697753906 0
   vertex -15.400102615356445 -84.771827697753906 5
  endloop
 endfacet
 facet normal 0.98280237345471733 0.1846604850307024 -0
  outer loop
   vertex -15.400102615356445 -84.771827697753906 5
   vertex -15.400102615356445 -84.771827697753906 0
   vertex -15.579849243164062 -83.815177917480469 0
  endloop
 endfacet
 facet normal 0.98280237345471733 0.1846604850307024 -0
  outer loop
   vertex -15.400102615356445 -84.771827697753906 5
   vertex -15.579849243164062 -83.815177917480469 0
   vertex -15.579849243164062 -83.815177917480469 5
  endloop
 endfacet
 facet normal 0.97895595036005467 0.20407167185732089 -0
  outer loop
   vertex -15.579849243164062 -83.815177917480469 5
   vertex -15.579849243164062 -83.815177917480469 0
   vertex -15.778413772583008 -82.862640380859375 0
  endloop
 endfacet
 facet normal 0.97895595036005467 0.20407167185732089 -0
  outer loop
   vertex -15.579849243164062 -83.815177917480469 5
   vertex -15.778413772583008 -82.862640380859375 0
   vertex -15.778413772583008 -82.862640380859375 5
  endloop
 endfacet
 facet normal 0.97397140621430267 0.2266709065516212 -0
  outer loop
   vertex -15.778413772583008 -82.862640380859375 5
   vertex -15.778413772583008 -82.862640380859375 0
   vertex -15.998979568481445 -81.914901733398438 0
  endloop
 endfacet
 facet normal 0.97397140621430267 0.2266709065516212 -0
  outer loop
   vertex -15.778413772583008 -82.862640380859375 5
   vertex -15.998979568481445 -81.914901733398438 0
   vertex -15.998979568481445 -81.914901733398438 5
  endloop
 endfacet
 facet normal 0.96965974940401478 0.24445852487844077 -0
  outer loop
   vertex -15.998979568481445 -81.914901733398438 5
   vertex -15.998979568481445 -81.914901733398438 0
   vertex -16.23695182800293 -80.970970153808594 0
  endloop
 endfacet
 facet normal 0.96965974940401478 0.24445852487844077 -0
  outer loop
   vertex -15.998979568481445 -81.914901733398438 5
   vertex -16.23695182800293 -80.970970153808594 0
   vertex -16.23695182800293 -80.970970153808594 5
  endloop
 endfacet
 facet normal 0.96582353028203516 0.25920051765678759 -0
  outer loop
   vertex -16.23695182800293 -80.970970153808594 5
   vertex -16.23695182800293 -80.970970153808594 0
   vertex -16.741907119750977 -79.089424133300781 0
  endloop
 endfacet
 facet normal 0.96582353028203516 0.25920051765678759 -0
  outer loop
   vertex -16.23695182800293 -80.970970153808594 5
   vertex -16.741907119750977 -79.089424133300781 0
   vertex -16.741907119750977 -79.089424133300781 5
  endloop
 endfacet
 facet normal -0.97125632461672062 0.2380360306592664 0
  outer loop
   vertex -14.002650260925293 -82.019111633300781 0
   vertex -14.287952423095703 -83.1832275390625 0
   vertex -14.002650260925293 -82.019111633300781 5
  endloop
 endfacet
 facet normal -0.97125632461672062 0.2380360306592664 0
  outer loop
   vertex -14.002650260925293 -82.019111633300781 5
   vertex -14.287952423095703 -83.1832275390625 0
   vertex -14.287952423095703 -83.1832275390625 5
  endloop
 endfacet
 facet normal -0.97313204388485797 0.23024774736027051 0
  outer loop
   vertex -14.287952423095703 -83.1832275390625 5
   vertex -14.287952423095703 -83.1832275390625 0
   vertex -14.56389331817627 -84.349479675292969 0
  endloop
 endfacet
 facet normal -0.97313204388485797 0.23024774736027051 0
  outer loop
   vertex -14.287952423095703 -83.1832275390625 5
   vertex -14.56389331817627 -84.349479675292969 0
   vertex -14.56389331817627 -84.349479675292969 5
  endloop
 endfacet
 facet normal -0.9762949018400926 0.21644459947303851 0
  outer loop
   vertex -14.56389331817627 -84.349479675292969 5
   vertex -14.56389331817627 -84.349479675292969 0
   vertex -14.823287010192871 -85.519500732421875 0
  endloop
 endfacet
 facet normal -0.9762949018400926 0.21644459947303851 0
  outer loop
   vertex -14.56389331817627 -84.349479675292969 5
   vertex -14.823287010192871 -85.519500732421875 0
   vertex -14.823287010192871 -85.519500732421875 5
  endloop
 endfacet
 facet normal -0.9782349669324315 0.20750023968830689 0
  outer loop
   vertex -14.823287010192871 -85.519500732421875 5
   vertex -14.823287010192871 -85.519500732421875 0
   vertex -15.071986198425293 -86.691963195800781 0
  endloop
 endfacet
 facet normal -0.9782349669324315 0.20750023968830689 0
  outer loop
   vertex -14.823287010192871 -85.519500732421875 5
   vertex -15.071986198425293 -86.691963195800781 0
   vertex -15.071986198425293 -86.691963195800781 5
  endloop
 endfacet
 facet normal -0.971462405427715 0.23719358094307266 0
  outer loop
   vertex -10.633509635925293 -68.220283508300781 0
   vertex -14.002650260925293 -82.019111633300781 0
   vertex -10.633509635925293 -68.220283508300781 5
  endloop
 endfacet
 facet normal -0.971462405427715 0.23719358094307266 0
  outer loop
   vertex -10.633509635925293 -68.220283508300781 5
   vertex -14.002650260925293 -82.019111633300781 0
   vertex -14.002650260925293 -82.019111633300781 5
  endloop
 endfacet
 facet normal 0 1 0
  outer loop
   vertex -7.7770638465881348 -68.220283508300781 0
   vertex -10.633509635925293 -68.220283508300781 0
   vertex -7.7770638465881348 -68.220283508300781 5
  endloop
 endfacet
 facet normal 0 1 0
  outer loop
   vertex -7.7770638465881348 -68.220283508300781 5
   vertex -10.633509635925293 -68.220283508300781 0
   vertex -10.633509635925293 -68.220283508300781 5
  endloop
 endfacet
 facet normal 0.96439854674693803 -0.26445310176360914 0
  outer loop
   vertex -13.665736198425293 -89.694892883300781 0
   vertex -7.7770638465881348 -68.220283508300781 0
   vertex -13.665736198425293 -89.694892883300781 5
  endloop
 endfacet
 facet normal 0.96439854674693803 -0.26445310176360914 0
  outer loop
   vertex -13.665736198425293 -89.694892883300781 5
   vertex -7.7770638465881348 -68.220283508300781 0
   vertex -7.7770638465881348 -68.220283508300781 5
  endloop
 endfacet
 facet normal 0 -1 0
  outer loop
   vertex -16.404993057250977 -89.694892883300781 0
   vertex -13.665736198425293 -89.694892883300781 0
   vertex -16.404993057250977 -89.694892883300781 5
  endloop
 endfacet
 facet normal 0 -1 0
  outer loop
   vertex -16.404993057250977 -89.694892883300781 5
   vertex -13.665736198425293 -89.694892883300781 0
   vertex -13.665736198425293 -89.694892883300781 5
  endloop
 endfacet
 facet normal -0.96380168564778035 -0.26662016192046922 0
  outer loop
   vertex -20.931360244750977 -73.332588195800781 0
   vertex -16.404993057250977 -89.694892883300781 0
   vertex -20.931360244750977 -73.332588195800781 5
  endloop
 endfacet
 facet normal -0.96380168564778035 -0.26662016192046922 0
  outer loop
   vertex -20.931360244750977 -73.332588195800781 5
   vertex -16.404993057250977 -89.694892883300781 0
   vertex -16.404993057250977 -89.694892883300781 5
  endloop
 endfacet
 facet normal -0.969535889207359 -0.24494929993550874 0
  outer loop
   vertex -21.605188369750977 -70.813056945800781 0
   vertex -21.445466995239258 -71.44525146484375 0
   vertex -21.605188369750977 -70.813056945800781 5
  endloop
 endfacet
 facet normal -0.969535889207359 -0.24494929993550874 0
  outer loop
   vertex -21.605188369750977 -70.813056945800781 5
   vertex -21.445466995239258 -71.44525146484375 0
   vertex -21.445466995239258 -71.44525146484375 5
  endloop
 endfacet
 facet normal -0.96712930748253456 -0.25428508137197769 0
  outer loop
   vertex -21.445466995239258 -71.44525146484375 5
   vertex -21.445466995239258 -71.44525146484375 0
   vertex -21.279668807983398 -72.075836181640625 0
  endloop
 endfacet
 facet normal -0.96712930748253456 -0.25428508137197769 0
  outer loop
   vertex -21.445466995239258 -71.44525146484375 5
   vertex -21.279668807983398 -72.075836181640625 0
   vertex -21.279668807983398 -72.075836181640625 5
  endloop
 endfacet
 facet normal -0.96438473453659102 -0.26450346650429551 0
  outer loop
   vertex -21.279668807983398 -72.075836181640625 5
   vertex -21.279668807983398 -72.075836181640625 0
   vertex -21.107200622558594 -72.704658508300781 0
  endloop
 endfacet
 facet normal -0.96438473453659102 -0.26450346650429551 0
  outer loop
   vertex -21.279668807983398 -72.075836181640625 5
   vertex -21.107200622558594 -72.704658508300781 0
   vertex -21.107200622558594 -72.704658508300781 5
  endloop
 endfacet
 facet normal -0.96295602979485551 -0.26965845931794785 0
  outer loop
   vertex -21.107200622558594 -72.704658508300781 5
   vertex -21.107200622558594 -72.704658508300781 0
   vertex -20.931360244750977 -73.332588195800781 0
  endloop
 endfacet
 facet normal -0.96295602979485551 -0.26965845931794785 0
  outer loop
   vertex -21.107200622558594 -72.704658508300781 5
   vertex -20.931360244750977 -73.332588195800781 0
   vertex -20.931360244750977 -73.332588195800781 5
  endloop
 endfacet
 facet normal 0.96576896154980241 -0.25940376424989736 0
  outer loop
   vertex -22.235071182250977 -73.332588195800781 0
   vertex -22.066625595092773 -72.705459594726562 0
   vertex -22.235071182250977 -73.332588195800781 5
  endloop
 endfacet
 facet normal 0.96576896154980241 -0.25940376424989736 0
  outer loop
   vertex -22.235071182250977 -73.332588195800781 5
   vertex -22.066625595092773 -72.705459594726562 0
   vertex -22.066625595092773 -72.705459594726562 5
  endloop
 endfacet
 facet normal 0.96834861278310702 -0.24960161081417762 0
  outer loop
   vertex -22.066625595092773 -72.705459594726562 5
   vertex -22.066625595092773 -72.705459594726562 0
   vertex -21.904563903808594 -72.076728820800781 0
  endloop
 endfacet
 facet normal 0.96834861278310702 -0.24960161081417762 0
  outer loop
   vertex -22.066625595092773 -72.705459594726562 5
   vertex -21.904563903808594 -72.076728820800781 0
   vertex -21.904563903808594 -72.076728820800781 5
  endloop
 endfacet
 facet normal 0.97206836725493828 -0.23469786829521588 0
  outer loop
   vertex -21.904563903808594 -72.076728820800781 5
   vertex -21.904563903808594 -72.076728820800781 0
   vertex -21.752176284790039 -71.445571899414062 0
  endloop
 endfacet
 facet normal 0.97206836725493828 -0.23469786829521588 0
  outer loop
   vertex -21.904563903808594 -72.076728820800781 5
   vertex -21.752176284790039 -71.445571899414062 0
   vertex -21.752176284790039 -71.445571899414062 5
  endloop
 endfacet
 facet normal 0.97404490659948995 -0.22635485399608918 0
  outer loop
   vertex -21.752176284790039 -71.445571899414062 5
   vertex -21.752176284790039 -71.445571899414062 0
   vertex -21.605188369750977 -70.813056945800781 0
  endloop
 endfacet
 facet normal 0.97404490659948995 -0.22635485399608918 0
  outer loop
   vertex -21.752176284790039 -71.445571899414062 5
   vertex -21.605188369750977 -70.813056945800781 0
   vertex -21.605188369750977 -70.813056945800781 5
  endloop
 endfacet
 facet normal 0.96335710780617978 -0.26822207746438848 0
  outer loop
   vertex -26.790735244750977 -89.694892883300781 0
   vertex -22.235071182250977 -73.332588195800781 0
   vertex -26.790735244750977 -89.694892883300781 5
  endloop
 endfacet
 facet normal 0.96335710780617978 -0.26822207746438848 0
  outer loop
   vertex -26.790735244750977 -89.694892883300781 5
   vertex -22.235071182250977 -73.332588195800781 0
   vertex -22.235071182250977 -73.332588195800781 5
  endloop
 endfacet
 facet normal 0 -1 0
  outer loop
   vertex -29.691125869750977 -89.694892883300781 0
   vertex -26.790735244750977 -89.694892883300781 0
   vertex -29.691125869750977 -89.694892883300781 5
  endloop
 endfacet
 facet normal 0 -1 0
  outer loop
   vertex -29.691125869750977 -89.694892883300781 5
   vertex -26.790735244750977 -89.694892883300781 0
   vertex -26.790735244750977 -89.694892883300781 5
  endloop
 endfacet
 facet normal 0 0 1
  outer loop
   vertex -26.790735244750977 -89.694892883300781 5
   vertex -28.299524307250977 -86.691963195800781 5
   vertex -29.691125869750977 -89.694892883300781 5
  endloop
 endfacet
 facet normal 0 0 1
  outer loop
   vertex -29.691125869750977 -89.694892883300781 5
   vertex -28.299524307250977 -86.691963195800781 5
   vertex -28.503385543823242 -85.588539123535156 5
  endloop
 endfacet
 facet normal 0 0 1
  outer loop
   vertex -29.691125869750977 -89.694892883300781 5
   vertex -28.503385543823242 -85.588539123535156 5
   vertex -28.719955444335938 -84.487739562988281 5
  endloop
 endfacet
 facet normal -0 0 1
  outer loop
   vertex -22.235071182250977 -73.332588195800781 5
   vertex -27.332727432250977 -82.722236633300781 5
   vertex -26.790735244750977 -89.694892883300781 5
  endloop
 endfacet
 facet normal 0 0 1
  outer loop
   vertex -26.790735244750977 -89.694892883300781 5
   vertex -27.332727432250977 -82.722236633300781 5
   vertex -27.581733703613281 -83.712875366210938 5
  endloop
 endfacet
 facet normal 0 0 1
  outer loop
   vertex -26.790735244750977 -89.694892883300781 5
   vertex -27.581733703613281 -83.712875366210938 5
   vertex -27.825479507446289 -84.704803466796875 5
  endloop
 endfacet
 facet normal 0 0 1
  outer loop
   vertex -27.332727432250977 -82.722236633300781 5
   vertex -22.235071182250977 -73.332588195800781 5
   vertex -23.245813369750977 -68.220283508300781 5
  endloop
 endfacet
 facet normal 0 -0 1
  outer loop
   vertex -23.245813369750977 -68.220283508300781 5
   vertex -22.235071182250977 -73.332588195800781 5
   vertex -22.066625595092773 -72.705459594726562 5
  endloop
 endfacet
 facet normal 0 -0 1
  outer loop
   vertex -23.245813369750977 -68.220283508300781 5
   vertex -22.066625595092773 -72.705459594726562 5
   vertex -21.904563903808594 -72.076728820800781 5
  endloop
 endfacet
 facet normal 0 0 1
  outer loop
   vertex -21.904563903808594 -72.076728820800781 5
   vertex -21.752176284790039 -71.445571899414062 5
   vertex -23.245813369750977 -68.220283508300781 5
  endloop
 endfacet
 facet normal 0 -0 1
  outer loop
   vertex -23.245813369750977 -68.220283508300781 5
   vertex -21.752176284790039 -71.445571899414062 5
   vertex -21.605188369750977 -70.813056945800781 5
  endloop
 endfacet
 facet normal 0 -0 1
  outer loop
   vertex -23.245813369750977 -68.220283508300781 5
   vertex -21.605188369750977 -70.813056945800781 5
   vertex -19.818078994750977 -68.220283508300781 5
  endloop
 endfacet
 facet normal -0 0 1
  outer loop
   vertex -19.818078994750977 -68.220283508300781 5
   vertex -21.605188369750977 -70.813056945800781 5
   vertex -21.445466995239258 -71.44525146484375 5
  endloop
 endfacet
 facet normal -0 0 1
  outer loop
   vertex -19.818078994750977 -68.220283508300781 5
   vertex -21.445466995239258 -71.44525146484375 5
   vertex -21.279668807983398 -72.075836181640625 5
  endloop
 endfacet
 facet normal 0 -0 1
  outer loop
   vertex -21.279668807983398 -72.075836181640625 5
   vertex -21.107200622558594 -72.704658508300781 5
   vertex -19.818078994750977 -68.220283508300781 5
  endloop
 endfacet
 facet normal -0 0 1
  outer loop
   vertex -19.818078994750977 -68.220283508300781 5
   vertex -21.107200622558594 -72.704658508300781 5
   vertex -20.931360244750977 -73.332588195800781 5
  endloop
 endfacet
 facet normal -0 0 1
  outer loop
   vertex -19.818078994750977 -68.220283508300781 5
   vertex -20.931360244750977 -73.332588195800781 5
   vertex -16.741907119750977 -79.089424133300781 5
  endloop
 endfacet
 facet normal 0 0 1
  outer loop
   vertex -16.741907119750977 -79.089424133300781 5
   vertex -20.931360244750977 -73.332588195800781 5
   vertex -16.23695182800293 -80.970970153808594 5
  endloop
 endfacet
 facet normal 0 0 1
  outer loop
   vertex -16.23695182800293 -80.970970153808594 5
   vertex -20.931360244750977 -73.332588195800781 5
   vertex -15.998979568481445 -81.914901733398438 5
  endloop
 endfacet
 facet normal 0 0 1
  outer loop
   vertex -15.998979568481445 -81.914901733398438 5
   vertex -20.931360244750977 -73.332588195800781 5
   vertex -16.404993057250977 -89.694892883300781 5
  endloop
 endfacet
 facet normal 0 0 1
  outer loop
   vertex -15.998979568481445 -81.914901733398438 5
   vertex -16.404993057250977 -89.694892883300781 5
   vertex -15.778413772583008 -82.862640380859375 5
  endloop
 endfacet
 facet normal 0 0 1
  outer loop
   vertex -15.778413772583008 -82.862640380859375 5
   vertex -16.404993057250977 -89.694892883300781 5
   vertex -15.579849243164062 -83.815177917480469 5
  endloop
 endfacet
 facet normal 0 0 1
  outer loop
   vertex -15.579849243164062 -83.815177917480469 5
   vertex -16.404993057250977 -89.694892883300781 5
   vertex -15.400102615356445 -84.771827697753906 5
  endloop
 endfacet
 facet normal 0 0 1
  outer loop
   vertex -15.400102615356445 -84.771827697753906 5
   vertex -16.404993057250977 -89.694892883300781 5
   vertex -15.071986198425293 -86.691963195800781 5
  endloop
 endfacet
 facet normal 0 0 1
  outer loop
   vertex -15.071986198425293 -86.691963195800781 5
   vertex -16.404993057250977 -89.694892883300781 5
   vertex -13.665736198425293 -89.694892883300781 5
  endloop
 endfacet
 facet normal 0 0 1
  outer loop
   vertex -15.071986198425293 -86.691963195800781 5
   vertex -13.665736198425293 -89.694892883300781 5
   vertex -14.823287010192871 -85.519500732421875 5
  endloop
 endfacet
 facet normal 0 0 1
  outer loop
   vertex -14.823287010192871 -85.519500732421875 5
   vertex -13.665736198425293 -89.694892883300781 5
   vertex -14.56389331817627 -84.349479675292969 5
  endloop
 endfacet
 facet normal 0 0 1
  outer loop
   vertex -14.56389331817627 -84.349479675292969 5
   vertex -13.665736198425293 -89.694892883300781 5
   vertex -14.287952423095703 -83.1832275390625 5
  endloop
 endfacet
 facet normal 0 0 1
  outer loop
   vertex -14.287952423095703 -83.1832275390625 5
   vertex -13.665736198425293 -89.694892883300781 5
   vertex -14.002650260925293 -82.019111633300781 5
  endloop
 endfacet
 facet normal 0 -0 1
  outer loop
   vertex -14.002650260925293 -82.019111633300781 5
   vertex -13.665736198425293 -89.694892883300781 5
   vertex -7.7770638465881348 -68.220283508300781 5
  endloop
 endfacet
 facet normal 0 0 1
  outer loop
   vertex -14.002650260925293 -82.019111633300781 5
   vertex -7.7770638465881348 -68.220283508300781 5
   vertex -10.633509635925293 -68.220283508300781 5
  endloop
 endfacet
 facet normal -0 0 1
  outer loop
   vertex -27.825479507446289 -84.704803466796875 5
   vertex -28.063852310180664 -85.698051452636719 5
   vertex -26.790735244750977 -89.694892883300781 5
  endloop
 endfacet
 facet normal 0 0 1
  outer loop
   vertex -26.790735244750977 -89.694892883300781 5
   vertex -28.063852310180664 -85.698051452636719 5
   vertex -28.299524307250977 -86.691963195800781 5
  endloop
 endfacet
 facet normal 0 0 1
  outer loop
   vertex -28.719955444335938 -84.487739562988281 5
   vertex -28.957569122314453 -83.391288757324219 5
   vertex -29.691125869750977 -89.694892883300781 5
  endloop
 endfacet
 facet normal 0 0 1
  outer loop
   vertex -29.691125869750977 -89.694892883300781 5
   vertex -28.957569122314453 -83.391288757324219 5
   vertex -29.207727432250977 -82.297431945800781 5
  endloop
 endfacet
 facet normal 0 0 1
  outer loop
   vertex -29.691125869750977 -89.694892883300781 5
   vertex -29.207727432250977 -82.297431945800781 5
   vertex -35.389369964599609 -68.220283508300781 5
  endloop
 endfacet
 facet normal 0 0 1
  outer loop
   vertex -35.389369964599609 -68.220283508300781 5
   vertex -29.207727432250977 -82.297431945800781 5
   vertex -32.474330902099609 -68.220283508300781 5
  endloop
 endfacet
 facet normal 0 -0 -1
  outer loop
   vertex -29.691125869750977 -89.694892883300781 0
   vertex -28.299524307250977 -86.691963195800781 0
   vertex -26.790735244750977 -89.694892883300781 0
  endloop
 endfacet
 facet normal 0 0 -1
  outer loop
   vertex -26.790735244750977 -89.694892883300781 0
   vertex -28.299524307250977 -86.691963195800781 0
   vertex -28.063852310180664 -85.698051452636719 0
  endloop
 endfacet
 facet normal 0 0 -1
  outer loop
   vertex -26.790735244750977 -89.694892883300781 0
   vertex -28.063852310180664 -85.698051452636719 0
   vertex -27.825479507446289 -84.704803466796875 0
  endloop
 endfacet
 facet normal -0 0 -1
  outer loop
   vertex -35.389369964599609 -68.220283508300781 0
   vertex -29.207727432250977 -82.297431945800781 0
   vertex -29.691125869750977 -89.694892883300781 0
  endloop
 endfacet
 facet normal 0 -0 -1
  outer loop
   vertex -29.691125869750977 -89.694892883300781 0
   vertex -29.207727432250977 -82.297431945800781 0
   vertex -28.957569122314453 -83.391288757324219 0
  endloop
 endfacet
 facet normal 0 -0 -1
  outer loop
   vertex -29.691125869750977 -89.694892883300781 0
   vertex -28.957569122314453 -83.391288757324219 0
   vertex -28.719955444335938 -84.487739562988281 0
  endloop
 endfacet
 facet normal -0 -0 -1
  outer loop
   vertex -35.389369964599609 -68.220283508300781 0
   vertex -32.474330902099609 -68.220283508300781 0
   vertex -29.207727432250977 -82.297431945800781 0
  endloop
 endfacet
 facet normal -0 0 -1
  outer loop
   vertex -28.719955444335938 -84.487739562988281 0
   vertex -28.503385543823242 -85.588539123535156 0
   vertex -29.691125869750977 -89.694892883300781 0
  endloop
 endfacet
 facet normal 0 -0 -1
  outer loop
   vertex -29.691125869750977 -89.694892883300781 0
   vertex -28.503385543823242 -85.588539123535156 0
   vertex -28.299524307250977 -86.691963195800781 0
  endloop
 endfacet
 facet normal 0 -0 -1
  outer loop
   vertex -27.825479507446289 -84.704803466796875 0
   vertex -27.581733703613281 -83.712875366210938 0
   vertex -26.790735244750977 -89.694892883300781 0
  endloop
 endfacet
 facet normal 0 0 -1
  outer loop
   vertex -26.790735244750977 -89.694892883300781 0
   vertex -27.581733703613281 -83.712875366210938 0
   vertex -27.332727432250977 -82.722236633300781 0
  endloop
 endfacet
 facet normal 0 0 -1
  outer loop
   vertex -26.790735244750977 -89.694892883300781 0
   vertex -27.332727432250977 -82.722236633300781 0
   vertex -22.235071182250977 -73.332588195800781 0
  endloop
 endfacet
 facet normal 0 0 -1
  outer loop
   vertex -22.235071182250977 -73.332588195800781 0
   vertex -27.332727432250977 -82.722236633300781 0
   vertex -23.245813369750977 -68.220283508300781 0
  endloop
 endfacet
 facet normal 0 0 -1
  outer loop
   vertex -22.235071182250977 -73.332588195800781 0
   vertex -23.245813369750977 -68.220283508300781 0
   vertex -22.066625595092773 -72.705459594726562 0
  endloop
 endfacet
 facet normal 0 0 -1
  outer loop
   vertex -22.066625595092773 -72.705459594726562 0
   vertex -23.245813369750977 -68.220283508300781 0
   vertex -21.904563903808594 -72.076728820800781 0
  endloop
 endfacet
 facet normal 0 0 -1
  outer loop
   vertex -21.904563903808594 -72.076728820800781 0
   vertex -23.245813369750977 -68.220283508300781 0
   vertex -21.752176284790039 -71.445571899414062 0
  endloop
 endfacet
 facet normal 0 0 -1
  outer loop
   vertex -21.752176284790039 -71.445571899414062 0
   vertex -23.245813369750977 -68.220283508300781 0
   vertex -21.605188369750977 -70.813056945800781 0
  endloop
 endfacet
 facet normal 0 0 -1
  outer loop
   vertex -21.605188369750977 -70.813056945800781 0
   vertex -23.245813369750977 -68.220283508300781 0
   vertex -19.818078994750977 -68.220283508300781 0
  endloop
 endfacet
 facet normal 0 0 -1
  outer loop
   vertex -21.605188369750977 -70.813056945800781 0
   vertex -19.818078994750977 -68.220283508300781 0
   vertex -21.445466995239258 -71.44525146484375 0
  endloop
 endfacet
 facet normal 0 0 -1
  outer loop
   vertex -21.445466995239258 -71.44525146484375 0
   vertex -19.818078994750977 -68.220283508300781 0
   vertex -21.279668807983398 -72.075836181640625 0
  endloop
 endfacet
 facet normal 0 0 -1
  outer loop
   vertex -21.279668807983398 -72.075836181640625 0
   vertex -19.818078994750977 -68.220283508300781 0
   vertex -21.107200622558594 -72.704658508300781 0
  endloop
 endfacet
 facet normal 0 0 -1
  outer loop
   vertex -21.107200622558594 -72.704658508300781 0
   vertex -19.818078994750977 -68.220283508300781 0
   vertex -20.931360244750977 -73.332588195800781 0
  endloop
 endfacet
 facet normal 0 -0 -1
  outer loop
   vertex -20.931360244750977 -73.332588195800781 0
   vertex -19.818078994750977 -68.220283508300781 0
   vertex -16.741907119750977 -79.089424133300781 0
  endloop
 endfacet
 facet normal -0 -0 -1
  outer loop
   vertex -20.931360244750977 -73.332588195800781 0
   vertex -16.741907119750977 -79.089424133300781 0
   vertex -16.23695182800293 -80.970970153808594 0
  endloop
 endfacet
 facet normal 0 0 -1
  outer loop
   vertex -16.23695182800293 -80.970970153808594 0
   vertex -15.998979568481445 -81.914901733398438 0
   vertex -20.931360244750977 -73.332588195800781 0
  endloop
 endfacet
 facet normal -0 0 -1
  outer loop
   vertex -20.931360244750977 -73.332588195800781 0
   vertex -15.998979568481445 -81.914901733398438 0
   vertex -16.404993057250977 -89.694892883300781 0
  endloop
 endfacet
 facet normal 0 -0 -1
  outer loop
   vertex -16.404993057250977 -89.694892883300781 0
   vertex -15.998979568481445 -81.914901733398438 0
   vertex -15.778413772583008 -82.862640380859375 0
  endloop
 endfacet
 facet normal 0 -0 -1
  outer loop
   vertex -16.404993057250977 -89.694892883300781 0
   vertex -15.778413772583008 -82.862640380859375 0
   vertex -15.579849243164062 -83.815177917480469 0
  endloop
 endfacet
 facet normal -0 0 -1
  outer loop
   vertex -15.579849243164062 -83.815177917480469 0
   vertex -15.400102615356445 -84.771827697753906 0
   vertex -16.404993057250977 -89.694892883300781 0
  endloop
 endfacet
 facet normal 0 -0 -1
  outer loop
   vertex -16.404993057250977 -89.694892883300781 0
   vertex -15.400102615356445 -84.771827697753906 0
   vertex -15.071986198425293 -86.691963195800781 0
  endloop
 endfacet
 facet normal 0 -0 -1
  outer loop
   vertex -16.404993057250977 -89.694892883300781 0
   vertex -15.071986198425293 -86.691963195800781 0
   vertex -13.665736198425293 -89.694892883300781 0
  endloop
 endfacet
 facet normal 0 0 -1
  outer loop
   vertex -13.665736198425293 -89.694892883300781 0
   vertex -15.071986198425293 -86.691963195800781 0
   vertex -14.823287010192871 -85.519500732421875 0
  endloop
 endfacet
 facet normal 0 0 -1
  outer loop
   vertex -13.665736198425293 -89.694892883300781 0
   vertex -14.823287010192871 -85.519500732421875 0
   vertex -14.56389331817627 -84.349479675292969 0
  endloop
 endfacet
 facet normal 0 -0 -1
  outer loop
   vertex -14.56389331817627 -84.349479675292969 0
   vertex -14.287952423095703 -83.1832275390625 0
   vertex -13.665736198425293 -89.694892883300781 0
  endloop
 endfacet
 facet normal 0 0 -1
  outer loop
   vertex -13.665736198425293 -89.694892883300781 0
   vertex -14.287952423095703 -83.1832275390625 0
   vertex -14.002650260925293 -82.019111633300781 0
  endloop
 endfacet
 facet normal 0 0 -1
  outer loop
   vertex -13.665736198425293 -89.694892883300781 0
   vertex -14.002650260925293 -82.019111633300781 0
   vertex -7.7770638465881348 -68.220283508300781 0
  endloop
 endfacet
 facet normal 0 0 -1
  outer loop
   vertex -7.7770638465881348 -68.220283508300781 0
   vertex -14.002650260925293 -82.019111633300781 0
   vertex -10.633509635925293 -68.220283508300781 0
  endloop
 endfacet
endsolid
