solid Visualization Toolkit generated SLA File
 facet normal -0.80301691437091804 0.5959562360058076 0
  outer loop
   vertex 9.332310676574707 -78.503486633300781 0
   vertex 1.0266470909118652 -89.694892883300781 0
   vertex 9.332310676574707 -78.503486633300781 5
  endloop
 endfacet
 facet normal -0.80301691437091804 0.5959562360058076 0
  outer loop
   vertex 9.332310676574707 -78.503486633300781 5
   vertex 1.0266470909118652 -89.694892883300781 0
   vertex 1.0266470909118652 -89.694892883300781 5
  endloop
 endfacet
 facet normal -0.81451672197033032 -0.58014007759394437 0
  outer loop
   vertex 2.0080924034118652 -68.220283508300781 0
   vertex 9.332310676574707 -78.503486633300781 0
   vertex 2.0080924034118652 -68.220283508300781 5
  endloop
 endfacet
 facet normal -0.81451672197033032 -0.58014007759394437 0
  outer loop
   vertex 2.0080924034118652 -68.220283508300781 5
   vertex 9.332310676574707 -78.503486633300781 0
   vertex 9.332310676574707 -78.503486633300781 5
  endloop
 endfacet
 facet normal 0 1 0
  outer loop
   vertex 5.3918814659118652 -68.220283508300781 0
   vertex 2.0080924034118652 -68.220283508300781 0
   vertex 5.3918814659118652 -68.220283508300781 5
  endloop
 endfacet
 facet normal 0 1 0
  outer loop
   vertex 5.3918814659118652 -68.220283508300781 5
   vertex 2.0080924034118652 -68.220283508300781 0
   vertex 2.0080924034118652 -68.220283508300781 5
  endloop
 endfacet
 facet normal 0.81636573767899401 0.57753526502182684 0
  outer loop
   vertex 9.288365364074707 -73.728096008300781 0
   vertex 5.3918814659118652 -68.220283508300781 0
   vertex 9.288365364074707 -73.728096008300781 5
  endloop
 endfacet
 facet normal 0.81636573767899401 0.57753526502182684 -0
  outer loop
   vertex 9.288365364074707 -73.728096008300781 5
   vertex 5.3918814659118652 -68.220283508300781 0
   vertex 5.3918814659118652 -68.220283508300781 5
  endloop
 endfacet
 facet normal 0.85553830985418167 0.51773951015143738 0
  outer loop
   vertex 11.016880989074707 -76.364814758300781 0
   vertex 10.608597755432129 -75.690147399902344 0
   vertex 11.016880989074707 -76.364814758300781 5
  endloop
 endfacet
 facet normal 0.85553830985418167 0.51773951015143738 -0
  outer loop
   vertex 11.016880989074707 -76.364814758300781 5
   vertex 10.608597755432129 -75.690147399902344 0
   vertex 10.608597755432129 -75.690147399902344 5
  endloop
 endfacet
 facet normal 0.84373466450548928 0.53676048281501632 -0
  outer loop
   vertex 10.608597755432129 -75.690147399902344 5
   vertex 10.608597755432129 -75.690147399902344 0
   vertex 10.185508728027344 -75.025093078613281 0
  endloop
 endfacet
 facet normal 0.84373466450548928 0.53676048281501632 -0
  outer loop
   vertex 10.608597755432129 -75.690147399902344 5
   vertex 10.185508728027344 -75.025093078613281 0
   vertex 10.185508728027344 -75.025093078613281 5
  endloop
 endfacet
 facet normal 0.82699997885084964 0.56220195213169988 -0
  outer loop
   vertex 10.185508728027344 -75.025093078613281 5
   vertex 10.185508728027344 -75.025093078613281 0
   vertex 9.7422885894775391 -74.373115539550781 0
  endloop
 endfacet
 facet normal 0.82699997885084964 0.56220195213169988 -0
  outer loop
   vertex 10.185508728027344 -75.025093078613281 5
   vertex 9.7422885894775391 -74.373115539550781 0
   vertex 9.7422885894775391 -74.373115539550781 5
  endloop
 endfacet
 facet normal 0.81779413151991009 0.57551086736185619 -0
  outer loop
   vertex 9.7422885894775391 -74.373115539550781 5
   vertex 9.7422885894775391 -74.373115539550781 0
   vertex 9.288365364074707 -73.728096008300781 0
  endloop
 endfacet
 facet normal 0.81779413151991009 0.57551086736185619 -0
  outer loop
   vertex 9.7422885894775391 -74.373115539550781 5
   vertex 9.288365364074707 -73.728096008300781 0
   vertex 9.288365364074707 -73.728096008300781 5
  endloop
 endfacet
 facet normal -0.80016706506619684 0.59977718194621965 0
  outer loop
   vertex 12.716099739074707 -73.918525695800781 0
   vertex 12.26917552947998 -74.5147705078125 0
   vertex 12.716099739074707 -73.918525695800781 5
  endloop
 endfacet
 facet normal -0.80016706506619684 0.59977718194621965 0
  outer loop
   vertex 12.716099739074707 -73.918525695800781 5
   vertex 12.26917552947998 -74.5147705078125 0
   vertex 12.26917552947998 -74.5147705078125 5
  endloop
 endfacet
 facet normal -0.81150772069782551 0.58434169733797037 0
  outer loop
   vertex 12.26917552947998 -74.5147705078125 5
   vertex 12.26917552947998 -74.5147705078125 0
   vertex 11.833987236022949 -75.119140625 0
  endloop
 endfacet
 facet normal -0.81150772069782551 0.58434169733797037 0
  outer loop
   vertex 12.26917552947998 -74.5147705078125 5
   vertex 11.833987236022949 -75.119140625 0
   vertex 11.833987236022949 -75.119140625 5
  endloop
 endfacet
 facet normal -0.83043027579406059 0.5571225691395032 0
  outer loop
   vertex 11.833987236022949 -75.119140625 5
   vertex 11.833987236022949 -75.119140625 0
   vertex 11.419086456298828 -75.737579345703125 0
  endloop
 endfacet
 facet normal -0.83043027579406059 0.5571225691395032 0
  outer loop
   vertex 11.833987236022949 -75.119140625 5
   vertex 11.419086456298828 -75.737579345703125 0
   vertex 11.419086456298828 -75.737579345703125 5
  endloop
 endfacet
 facet normal -0.84179895665654059 0.53979117867186366 0
  outer loop
   vertex 11.419086456298828 -75.737579345703125 5
   vertex 11.419086456298828 -75.737579345703125 0
   vertex 11.016880989074707 -76.364814758300781 0
  endloop
 endfacet
 facet normal -0.84179895665654059 0.53979117867186366 0
  outer loop
   vertex 11.419086456298828 -75.737579345703125 5
   vertex 11.016880989074707 -76.364814758300781 0
   vertex 11.016880989074707 -76.364814758300781 5
  endloop
 endfacet
 facet normal -0.79679322446114464 0.60425206450024826 0
  outer loop
   vertex 17.037389755249023 -68.220283508300781 0
   vertex 12.716099739074707 -73.918525695800781 0
   vertex 17.037389755249023 -68.220283508300781 5
  endloop
 endfacet
 facet normal -0.79679322446114464 0.60425206450024826 0
  outer loop
   vertex 17.037389755249023 -68.220283508300781 5
   vertex 12.716099739074707 -73.918525695800781 0
   vertex 12.716099739074707 -73.918525695800781 5
  endloop
 endfacet
 facet normal 0 1 0
  outer loop
   vertex 20.128210067749023 -68.220283508300781 0
   vertex 17.037389755249023 -68.220283508300781 0
   vertex 20.128210067749023 -68.220283508300781 5
  endloop
 endfacet
 facet normal 0 1 0
  outer loop
   vertex 20.128210067749023 -68.220283508300781 5
   vertex 17.037389755249023 -68.220283508300781 0
   vertex 17.037389755249023 -68.220283508300781 5
  endloop
 endfacet
 facet normal 0.80180647958775553 -0.59758377596040058 0
  outer loop
   vertex 12.584263801574707 -78.342353820800781 0
   vertex 20.128210067749023 -68.220283508300781 0
   vertex 12.584263801574707 -78.342353820800781 5
  endloop
 endfacet
 facet normal 0.80180647958775553 -0.59758377596040058 0
  outer loop
   vertex 12.584263801574707 -78.342353820800781 5
   vertex 20.128210067749023 -68.220283508300781 0
   vertex 20.128210067749023 -68.220283508300781 5
  endloop
 endfacet
 facet normal 0.81302400724250024 0.58223016380753301 0
  outer loop
   vertex 20.714147567749023 -89.694892883300781 0
   vertex 12.584263801574707 -78.342353820800781 0
   vertex 20.714147567749023 -89.694892883300781 5
  endloop
 endfacet
 facet normal 0.81302400724250024 0.58223016380753301 -0
  outer loop
   vertex 20.714147567749023 -89.694892883300781 5
   vertex 12.584263801574707 -78.342353820800781 0
   vertex 12.584263801574707 -78.342353820800781 5
  endloop
 endfacet
 facet normal 0 -1 0
  outer loop
   vertex 17.198522567749023 -89.694892883300781 0
   vertex 20.714147567749023 -89.694892883300781 0
   vertex 17.198522567749023 -89.694892883300781 5
  endloop
 endfacet
 facet normal 0 -1 0
  outer loop
   vertex 17.198522567749023 -89.694892883300781 5
   vertex 20.714147567749023 -89.694892883300781 0
   vertex 20.714147567749023 -89.694892883300781 5
  endloop
 endfacet
 facet normal -0.81709768797920446 -0.57649923529787861 0
  outer loop
   vertex 11.793248176574707 -82.033760070800781 0
   vertex 17.198522567749023 -89.694892883300781 0
   vertex 11.793248176574707 -82.033760070800781 5
  endloop
 endfacet
 facet normal -0.81709768797920446 -0.57649923529787861 0
  outer loop
   vertex 11.793248176574707 -82.033760070800781 5
   vertex 17.198522567749023 -89.694892883300781 0
   vertex 17.198522567749023 -89.694892883300781 5
  endloop
 endfacet
 facet normal -0.8457682652089199 -0.53355041145658766 0
  outer loop
   vertex 10.855748176574707 -80.598213195800781 0
   vertex 11.084480285644531 -80.960792541503906 0
   vertex 10.855748176574707 -80.598213195800781 5
  endloop
 endfacet
 facet normal -0.8457682652089199 -0.53355041145658766 0
  outer loop
   vertex 10.855748176574707 -80.598213195800781 5
   vertex 11.084480285644531 -80.960792541503906 0
   vertex 11.084480285644531 -80.960792541503906 5
  endloop
 endfacet
 facet normal -0.84126159624353547 -0.54062827033533767 0
  outer loop
   vertex 11.084480285644531 -80.960792541503906 5
   vertex 11.084480285644531 -80.960792541503906 0
   vertex 11.316218376159668 -81.321395874023438 0
  endloop
 endfacet
 facet normal -0.84126159624353547 -0.54062827033533767 0
  outer loop
   vertex 11.084480285644531 -80.960792541503906 5
   vertex 11.316218376159668 -81.321395874023438 0
   vertex 11.316218376159668 -81.321395874023438 5
  endloop
 endfacet
 facet normal -0.83338961008392809 -0.55268594862196219 0
  outer loop
   vertex 11.316218376159668 -81.321395874023438 5
   vertex 11.316218376159668 -81.321395874023438 0
   vertex 11.553126335144043 -81.678627014160156 0
  endloop
 endfacet
 facet normal -0.83338961008392809 -0.55268594862196219 0
  outer loop
   vertex 11.316218376159668 -81.321395874023438 5
   vertex 11.553126335144043 -81.678627014160156 0
   vertex 11.553126335144043 -81.678627014160156 5
  endloop
 endfacet
 facet normal -0.82840813431556437 -0.56012495302370324 0
  outer loop
   vertex 11.553126335144043 -81.678627014160156 5
   vertex 11.553126335144043 -81.678627014160156 0
   vertex 11.793248176574707 -82.033760070800781 0
  endloop
 endfacet
 facet normal -0.82840813431556437 -0.56012495302370324 0
  outer loop
   vertex 11.553126335144043 -81.678627014160156 5
   vertex 11.793248176574707 -82.033760070800781 0
   vertex 11.793248176574707 -82.033760070800781 5
  endloop
 endfacet
 facet normal 0.83341314839172598 -0.552650453802212 0
  outer loop
   vertex 9.830357551574707 -82.209541320800781 0
   vertex 10.094269752502441 -81.811553955078125 0
   vertex 9.830357551574707 -82.209541320800781 5
  endloop
 endfacet
 facet normal 0.83341314839172598 -0.552650453802212 0
  outer loop
   vertex 9.830357551574707 -82.209541320800781 5
   vertex 10.094269752502441 -81.811553955078125 0
   vertex 10.094269752502441 -81.811553955078125 5
  endloop
 endfacet
 facet normal 0.84008185383359191 -0.54245965643494232 0
  outer loop
   vertex 10.094269752502441 -81.811553955078125 5
   vertex 10.094269752502441 -81.811553955078125 0
   vertex 10.353283882141113 -81.410430908203125 0
  endloop
 endfacet
 facet normal 0.84008185383359191 -0.54245965643494232 0
  outer loop
   vertex 10.094269752502441 -81.811553955078125 5
   vertex 10.353283882141113 -81.410430908203125 0
   vertex 10.353283882141113 -81.410430908203125 5
  endloop
 endfacet
 facet normal 0.84831769698845449 -0.52948756829240529 0
  outer loop
   vertex 10.353283882141113 -81.410430908203125 5
   vertex 10.353283882141113 -81.410430908203125 0
   vertex 10.606121063232422 -81.005348205566406 0
  endloop
 endfacet
 facet normal 0.84831769698845449 -0.52948756829240529 0
  outer loop
   vertex 10.353283882141113 -81.410430908203125 5
   vertex 10.606121063232422 -81.005348205566406 0
   vertex 10.606121063232422 -81.005348205566406 5
  endloop
 endfacet
 facet normal 0.85251470947100694 -0.52270323333184465 0
  outer loop
   vertex 10.606121063232422 -81.005348205566406 5
   vertex 10.606121063232422 -81.005348205566406 0
   vertex 10.855748176574707 -80.598213195800781 0
  endloop
 endfacet
 facet normal 0.85251470947100694 -0.52270323333184465 0
  outer loop
   vertex 10.606121063232422 -81.005348205566406 5
   vertex 10.855748176574707 -80.598213195800781 0
   vertex 10.855748176574707 -80.598213195800781 5
  endloop
 endfacet
 facet normal 0.81147412094672899 -0.58438835634681618 0
  outer loop
   vertex 4.4397330284118652 -89.694892883300781 0
   vertex 9.830357551574707 -82.209541320800781 0
   vertex 4.4397330284118652 -89.694892883300781 5
  endloop
 endfacet
 facet normal 0.81147412094672899 -0.58438835634681618 0
  outer loop
   vertex 4.4397330284118652 -89.694892883300781 5
   vertex 9.830357551574707 -82.209541320800781 0
   vertex 9.830357551574707 -82.209541320800781 5
  endloop
 endfacet
 facet normal 0 -1 0
  outer loop
   vertex 1.0266470909118652 -89.694892883300781 0
   vertex 4.4397330284118652 -89.694892883300781 0
   vertex 1.0266470909118652 -89.694892883300781 5
  endloop
 endfacet
 facet normal 0 -1 0
  outer loop
   vertex 1.0266470909118652 -89.694892883300781 5
   vertex 4.4397330284118652 -89.694892883300781 0
   vertex 4.4397330284118652 -89.694892883300781 5
  endloop
 endfacet
 facet normal 0 0 1
  outer loop
   vertex 4.4397330284118652 -89.694892883300781 5
   vertex 9.830357551574707 -82.209541320800781 5
   vertex 1.0266470909118652 -89.694892883300781 5
  endloop
 endfacet
 facet normal 0 0 1
  outer loop
   vertex 1.0266470909118652 -89.694892883300781 5
   vertex 9.830357551574707 -82.209541320800781 5
   vertex 9.332310676574707 -78.503486633300781 5
  endloop
 endfacet
 facet normal 0 -0 1
  outer loop
   vertex 9.332310676574707 -78.503486633300781 5
   vertex 9.830357551574707 -82.209541320800781 5
   vertex 10.094269752502441 -81.811553955078125 5
  endloop
 endfacet
 facet normal 0 -0 1
  outer loop
   vertex 9.332310676574707 -78.503486633300781 5
   vertex 10.094269752502441 -81.811553955078125 5
   vertex 10.353283882141113 -81.410430908203125 5
  endloop
 endfacet
 facet normal 0 0 1
  outer loop
   vertex 10.353283882141113 -81.410430908203125 5
   vertex 10.606121063232422 -81.005348205566406 5
   vertex 9.332310676574707 -78.503486633300781 5
  endloop
 endfacet
 facet normal 0 -0 1
  outer loop
   vertex 9.332310676574707 -78.503486633300781 5
   vertex 10.606121063232422 -81.005348205566406 5
   vertex 10.855748176574707 -80.598213195800781 5
  endloop
 endfacet
 facet normal 0 -0 1
  outer loop
   vertex 9.332310676574707 -78.503486633300781 5
   vertex 10.855748176574707 -80.598213195800781 5
   vertex 12.584263801574707 -78.342353820800781 5
  endloop
 endfacet
 facet normal -0 0 1
  outer loop
   vertex 12.584263801574707 -78.342353820800781 5
   vertex 10.855748176574707 -80.598213195800781 5
   vertex 11.084480285644531 -80.960792541503906 5
  endloop
 endfacet
 facet normal -0 0 1
  outer loop
   vertex 12.584263801574707 -78.342353820800781 5
   vertex 11.084480285644531 -80.960792541503906 5
   vertex 11.316218376159668 -81.321395874023438 5
  endloop
 endfacet
 facet normal 0 -0 1
  outer loop
   vertex 11.316218376159668 -81.321395874023438 5
   vertex 11.553126335144043 -81.678627014160156 5
   vertex 12.584263801574707 -78.342353820800781 5
  endloop
 endfacet
 facet normal -0 0 1
  outer loop
   vertex 12.584263801574707 -78.342353820800781 5
   vertex 11.553126335144043 -81.678627014160156 5
   vertex 11.793248176574707 -82.033760070800781 5
  endloop
 endfacet
 facet normal -0 0 1
  outer loop
   vertex 12.584263801574707 -78.342353820800781 5
   vertex 11.793248176574707 -82.033760070800781 5
   vertex 20.714147567749023 -89.694892883300781 5
  endloop
 endfacet
 facet normal 0 0 1
  outer loop
   vertex 20.714147567749023 -89.694892883300781 5
   vertex 11.793248176574707 -82.033760070800781 5
   vertex 17.198522567749023 -89.694892883300781 5
  endloop
 endfacet
 facet normal -0 0 1
  outer loop
   vertex 20.128210067749023 -68.220283508300781 5
   vertex 12.716099739074707 -73.918525695800781 5
   vertex 12.584263801574707 -78.342353820800781 5
  endloop
 endfacet
 facet normal 0 0 1
  outer loop
   vertex 12.584263801574707 -78.342353820800781 5
   vertex 12.716099739074707 -73.918525695800781 5
   vertex 12.26917552947998 -74.5147705078125 5
  endloop
 endfacet
 facet normal 0 0 1
  outer loop
   vertex 12.584263801574707 -78.342353820800781 5
   vertex 12.26917552947998 -74.5147705078125 5
   vertex 11.833987236022949 -75.119140625 5
  endloop
 endfacet
 facet normal -0 0 1
  outer loop
   vertex 20.128210067749023 -68.220283508300781 5
   vertex 17.037389755249023 -68.220283508300781 5
   vertex 12.716099739074707 -73.918525695800781 5
  endloop
 endfacet
 facet normal -0 0 1
  outer loop
   vertex 11.833987236022949 -75.119140625 5
   vertex 11.419086456298828 -75.737579345703125 5
   vertex 12.584263801574707 -78.342353820800781 5
  endloop
 endfacet
 facet normal 0 0 1
  outer loop
   vertex 12.584263801574707 -78.342353820800781 5
   vertex 11.419086456298828 -75.737579345703125 5
   vertex 11.016880989074707 -76.364814758300781 5
  endloop
 endfacet
 facet normal 0 0 1
  outer loop
   vertex 12.584263801574707 -78.342353820800781 5
   vertex 11.016880989074707 -76.364814758300781 5
   vertex 9.332310676574707 -78.503486633300781 5
  endloop
 endfacet
 facet normal 0 0 1
  outer loop
   vertex 9.332310676574707 -78.503486633300781 5
   vertex 11.016880989074707 -76.364814758300781 5
   vertex 10.608597755432129 -75.690147399902344 5
  endloop
 endfacet
 facet normal 0 0 1
  outer loop
   vertex 9.332310676574707 -78.503486633300781 5
   vertex 10.608597755432129 -75.690147399902344 5
   vertex 10.185508728027344 -75.025093078613281 5
  endloop
 endfacet
 facet normal 0 0 1
  outer loop
   vertex 10.185508728027344 -75.025093078613281 5
   vertex 9.7422885894775391 -74.373115539550781 5
   vertex 9.332310676574707 -78.503486633300781 5
  endloop
 endfacet
 facet normal 0 0 1
  outer loop
   vertex 9.332310676574707 -78.503486633300781 5
   vertex 9.7422885894775391 -74.373115539550781 5
   vertex 9.288365364074707 -73.728096008300781 5
  endloop
 endfacet
 facet normal 0 0 1
  outer loop
   vertex 9.332310676574707 -78.503486633300781 5
   vertex 9.288365364074707 -73.728096008300781 5
   vertex 2.0080924034118652 -68.220283508300781 5
  endloop
 endfacet
 facet normal 0 0 1
  outer loop
   vertex 2.0080924034118652 -68.220283508300781 5
   vertex 9.288365364074707 -73.728096008300781 5
   vertex 5.3918814659118652 -68.220283508300781 5
  endloop
 endfacet
 facet normal 0 0 -1
  outer loop
   vertex 4.4397330284118652 -89.694892883300781 0
   vertex 1.0266470909118652 -89.694892883300781 0
   vertex 9.830357551574707 -82.209541320800781 0
  endloop
 endfacet
 facet normal 0 0 -1
  outer loop
   vertex 9.830357551574707 -82.209541320800781 0
   vertex 1.0266470909118652 -89.694892883300781 0
   vertex 9.332310676574707 -78.503486633300781 0
  endloop
 endfacet
 facet normal 0 0 -1
  outer loop
   vertex 9.830357551574707 -82.209541320800781 0
   vertex 9.332310676574707 -78.503486633300781 0
   vertex 10.094269752502441 -81.811553955078125 0
  endloop
 endfacet
 facet normal 0 0 -1
  outer loop
   vertex 10.094269752502441 -81.811553955078125 0
   vertex 9.332310676574707 -78.503486633300781 0
   vertex 10.353283882141113 -81.410430908203125 0
  endloop
 endfacet
 facet normal 0 0 -1
  outer loop
   vertex 10.353283882141113 -81.410430908203125 0
   vertex 9.332310676574707 -78.503486633300781 0
   vertex 10.606121063232422 -81.005348205566406 0
  endloop
 endfacet
 facet normal 0 0 -1
  outer loop
   vertex 10.606121063232422 -81.005348205566406 0
   vertex 9.332310676574707 -78.503486633300781 0
   vertex 10.855748176574707 -80.598213195800781 0
  endloop
 endfacet
 facet normal 0 0 -1
  outer loop
   vertex 10.855748176574707 -80.598213195800781 0
   vertex 9.332310676574707 -78.503486633300781 0
   vertex 12.584263801574707 -78.342353820800781 0
  endloop
 endfacet
 facet normal 0 0 -1
  outer loop
   vertex 10.855748176574707 -80.598213195800781 0
   vertex 12.584263801574707 -78.342353820800781 0
   vertex 11.084480285644531 -80.960792541503906 0
  endloop
 endfacet
 facet normal 0 0 -1
  outer loop
   vertex 11.084480285644531 -80.960792541503906 0
   vertex 12.584263801574707 -78.342353820800781 0
   vertex 11.316218376159668 -81.321395874023438 0
  endloop
 endfacet
 facet normal 0 0 -1
  outer loop
   vertex 11.316218376159668 -81.321395874023438 0
   vertex 12.584263801574707 -78.342353820800781 0
   vertex 11.553126335144043 -81.678627014160156 0
  endloop
 endfacet
 facet normal 0 0 -1
  outer loop
   vertex 11.553126335144043 -81.678627014160156 0
   vertex 12.584263801574707 -78.342353820800781 0
   vertex 11.793248176574707 -82.033760070800781 0
  endloop
 endfacet
 facet normal 0 -0 -1
  outer loop
   vertex 11.793248176574707 -82.033760070800781 0
   vertex 12.584263801574707 -78.342353820800781 0
   vertex 20.714147567749023 -89.694892883300781 0
  endloop
 endfacet
 facet normal 0 0 -1
  outer loop
   vertex 11.793248176574707 -82.033760070800781 0
   vertex 20.714147567749023 -89.694892883300781 0
   vertex 17.198522567749023 -89.694892883300781 0
  endloop
 endfacet
 facet normal -0 -0 -1
  outer loop
   vertex 2.0080924034118652 -68.220283508300781 0
   vertex 9.288365364074707 -73.728096008300781 0
   vertex 9.332310676574707 -78.503486633300781 0
  endloop
 endfacet
 facet normal 0 0 -1
  outer loop
   vertex 9.332310676574707 -78.503486633300781 0
   vertex 9.288365364074707 -73.728096008300781 0
   vertex 9.7422885894775391 -74.373115539550781 0
  endloop
 endfacet
 facet normal 0 -0 -1
  outer loop
   vertex 9.332310676574707 -78.503486633300781 0
   vertex 9.7422885894775391 -74.373115539550781 0
   vertex 10.185508728027344 -75.025093078613281 0
  endloop
 endfacet
 facet normal -0 -0 -1
  outer loop
   vertex 2.0080924034118652 -68.220283508300781 0
   vertex 5.3918814659118652 -68.220283508300781 0
   vertex 9.288365364074707 -73.728096008300781 0
  endloop
 endfacet
 facet normal -0 0 -1
  outer loop
   vertex 10.185508728027344 -75.025093078613281 0
   vertex 10.608597755432129 -75.690147399902344 0
   vertex 9.332310676574707 -78.503486633300781 0
  endloop
 endfacet
 facet normal 0 -0 -1
  outer loop
   vertex 9.332310676574707 -78.503486633300781 0
   vertex 10.608597755432129 -75.690147399902344 0
   vertex 11.016880989074707 -76.364814758300781 0
  endloop
 endfacet
 facet normal 0 -0 -1
  outer loop
   vertex 9.332310676574707 -78.503486633300781 0
   vertex 11.016880989074707 -76.364814758300781 0
   vertex 12.584263801574707 -78.342353820800781 0
  endloop
 endfacet
 facet normal 0 0 -1
  outer loop
   vertex 12.584263801574707 -78.342353820800781 0
   vertex 11.016880989074707 -76.364814758300781 0
   vertex 11.419086456298828 -75.737579345703125 0
  endloop
 endfacet
 facet normal 0 0 -1
  outer loop
   vertex 12.584263801574707 -78.342353820800781 0
   vertex 11.419086456298828 -75.737579345703125 0
   vertex 11.833987236022949 -75.119140625 0
  endloop
 endfacet
 facet normal 0 -0 -1
  outer loop
   vertex 11.833987236022949 -75.119140625 0
   vertex 12.26917552947998 -74.5147705078125 0
   vertex 12.584263801574707 -78.342353820800781 0
  endloop
 endfacet
 facet normal 0 0 -1
  outer loop
   vertex 12.584263801574707 -78.342353820800781 0
   vertex 12.26917552947998 -74.5147705078125 0
   vertex 12.716099739074707 -73.918525695800781 0
  endloop
 endfacet
 facet normal 0 -0 -1
  outer loop
   vertex 12.584263801574707 -78.342353820800781 0
   vertex 12.716099739074707 -73.918525695800781 0
   vertex 20.128210067749023 -68.220283508300781 0
  endloop
 endfacet
 facet normal 0 0 -1
  outer loop
   vertex 20.128210067749023 -68.220283508300781 0
   vertex 12.716099739074707 -73.918525695800781 0
   vertex 17.037389755249023 -68.220283508300781 0
  endloop
 endfacet
endsolid
