solid Visualization Toolkit generated SLA File
 facet normal -1 0 0
  outer loop
   vertex 37.061801910400391 -80.598213195800781 0
   vertex 37.061801910400391 -89.694892883300781 0
   vertex 37.061801910400391 -80.598213195800781 5
  endloop
 endfacet
 facet normal -1 0 0
  outer loop
   vertex 37.061801910400391 -80.598213195800781 5
   vertex 37.061801910400391 -89.694892883300781 0
   vertex 37.061801910400391 -89.694892883300781 5
  endloop
 endfacet
 facet normal -0.83129282658993731 -0.55583472045214333 0
  outer loop
   vertex 28.785436630249023 -68.220283508300781 0
   vertex 37.061801910400391 -80.598213195800781 0
   vertex 28.785436630249023 -68.220283508300781 5
  endloop
 endfacet
 facet normal -0.83129282658993731 -0.55583472045214333 0
  outer loop
   vertex 28.785436630249023 -68.220283508300781 5
   vertex 37.061801910400391 -80.598213195800781 0
   vertex 37.061801910400391 -80.598213195800781 5
  endloop
 endfacet
 facet normal 0 1 0
  outer loop
   vertex 32.242465972900391 -68.220283508300781 0
   vertex 28.785436630249023 -68.220283508300781 0
   vertex 32.242465972900391 -68.220283508300781 5
  endloop
 endfacet
 facet normal 0 1 0
  outer loop
   vertex 32.242465972900391 -68.220283508300781 5
   vertex 28.785436630249023 -68.220283508300781 0
   vertex 28.785436630249023 -68.220283508300781 5
  endloop
 endfacet
 facet normal 0.83696961397354563 0.54724936298270288 0
  outer loop
   vertex 36.475864410400391 -74.694892883300781 0
   vertex 32.242465972900391 -68.220283508300781 0
   vertex 36.475864410400391 -74.694892883300781 5
  endloop
 endfacet
 facet normal 0.83696961397354563 0.54724936298270288 -0
  outer loop
   vertex 36.475864410400391 -74.694892883300781 5
   vertex 32.242465972900391 -68.220283508300781 0
   vertex 32.242465972900391 -68.220283508300781 5
  endloop
 endfacet
 facet normal 0.86853936750572924 0.49562018430724541 0
  outer loop
   vertex 38.658481597900391 -78.327705383300781 0
   vertex 38.133235931396484 -77.407249450683594 0
   vertex 38.658481597900391 -78.327705383300781 5
  endloop
 endfacet
 facet normal 0.86853936750572924 0.49562018430724541 -0
  outer loop
   vertex 38.658481597900391 -78.327705383300781 5
   vertex 38.133235931396484 -77.407249450683594 0
   vertex 38.133235931396484 -77.407249450683594 5
  endloop
 endfacet
 facet normal 0.86235844524729488 0.50629824403277213 -0
  outer loop
   vertex 38.133235931396484 -77.407249450683594 5
   vertex 38.133235931396484 -77.407249450683594 0
   vertex 37.596778869628906 -76.493522644042969 0
  endloop
 endfacet
 facet normal 0.86235844524729488 0.50629824403277213 -0
  outer loop
   vertex 38.133235931396484 -77.407249450683594 5
   vertex 37.596778869628906 -76.493522644042969 0
   vertex 37.596778869628906 -76.493522644042969 5
  endloop
 endfacet
 facet normal 0.85186851309168354 0.5237557029789407 -0
  outer loop
   vertex 37.596778869628906 -76.493522644042969 5
   vertex 37.596778869628906 -76.493522644042969 0
   vertex 37.041820526123047 -75.590904235839844 0
  endloop
 endfacet
 facet normal 0.85186851309168354 0.5237557029789407 -0
  outer loop
   vertex 37.596778869628906 -76.493522644042969 5
   vertex 37.041820526123047 -75.590904235839844 0
   vertex 37.041820526123047 -75.590904235839844 5
  endloop
 endfacet
 facet normal 0.84546580839528307 0.5340295561432068 -0
  outer loop
   vertex 37.041820526123047 -75.590904235839844 5
   vertex 37.041820526123047 -75.590904235839844 0
   vertex 36.475864410400391 -74.694892883300781 0
  endloop
 endfacet
 facet normal 0.84546580839528307 0.5340295561432068 -0
  outer loop
   vertex 37.041820526123047 -75.590904235839844 5
   vertex 36.475864410400391 -74.694892883300781 0
   vertex 36.475864410400391 -74.694892883300781 5
  endloop
 endfacet
 facet normal -0.84056082343020078 0.54171717908364569 0
  outer loop
   vertex 41.002231597900391 -74.533760070800781 0
   vertex 40.398162841796875 -75.4710693359375 0
   vertex 41.002231597900391 -74.533760070800781 5
  endloop
 endfacet
 facet normal -0.84056082343020078 0.54171717908364569 0
  outer loop
   vertex 41.002231597900391 -74.533760070800781 5
   vertex 40.398162841796875 -75.4710693359375 0
   vertex 40.398162841796875 -75.4710693359375 5
  endloop
 endfacet
 facet normal -0.8459154688055136 0.53331699732480697 0
  outer loop
   vertex 40.398162841796875 -75.4710693359375 5
   vertex 40.398162841796875 -75.4710693359375 0
   vertex 39.803550720214844 -76.414207458496094 0
  endloop
 endfacet
 facet normal -0.8459154688055136 0.53331699732480697 0
  outer loop
   vertex 40.398162841796875 -75.4710693359375 5
   vertex 39.803550720214844 -76.414207458496094 0
   vertex 39.803550720214844 -76.414207458496094 5
  endloop
 endfacet
 facet normal -0.85516653288094735 0.51835335538643845 0
  outer loop
   vertex 39.803550720214844 -76.414207458496094 5
   vertex 39.803550720214844 -76.414207458496094 0
   vertex 39.225635528564453 -77.367637634277344 0
  endloop
 endfacet
 facet normal -0.85516653288094735 0.51835335538643845 0
  outer loop
   vertex 39.803550720214844 -76.414207458496094 5
   vertex 39.225635528564453 -77.367637634277344 0
   vertex 39.225635528564453 -77.367637634277344 5
  endloop
 endfacet
 facet normal -0.86098890691603625 0.50862373338994826 0
  outer loop
   vertex 39.225635528564453 -77.367637634277344 5
   vertex 39.225635528564453 -77.367637634277344 0
   vertex 38.658481597900391 -78.327705383300781 0
  endloop
 endfacet
 facet normal -0.86098890691603625 0.50862373338994826 0
  outer loop
   vertex 39.225635528564453 -77.367637634277344 5
   vertex 38.658481597900391 -78.327705383300781 0
   vertex 38.658481597900391 -78.327705383300781 5
  endloop
 endfacet
 facet normal -0.83501889586462485 0.55022126780870872 0
  outer loop
   vertex 45.162387847900391 -68.220283508300781 0
   vertex 41.002231597900391 -74.533760070800781 0
   vertex 45.162387847900391 -68.220283508300781 5
  endloop
 endfacet
 facet normal -0.83501889586462485 0.55022126780870872 0
  outer loop
   vertex 45.162387847900391 -68.220283508300781 5
   vertex 41.002231597900391 -74.533760070800781 0
   vertex 41.002231597900391 -74.533760070800781 5
  endloop
 endfacet
 facet normal 0 1 0
  outer loop
   vertex 48.472934722900391 -68.220283508300781 0
   vertex 45.162387847900391 -68.220283508300781 0
   vertex 48.472934722900391 -68.220283508300781 5
  endloop
 endfacet
 facet normal 0 1 0
  outer loop
   vertex 48.472934722900391 -68.220283508300781 5
   vertex 45.162387847900391 -68.220283508300781 0
   vertex 45.162387847900391 -68.220283508300781 5
  endloop
 endfacet
 facet normal 0.82219219164377855 -0.56920997883030822 0
  outer loop
   vertex 39.903598785400391 -80.598213195800781 0
   vertex 48.472934722900391 -68.220283508300781 0
   vertex 39.903598785400391 -80.598213195800781 5
  endloop
 endfacet
 facet normal 0.82219219164377855 -0.56920997883030822 0
  outer loop
   vertex 39.903598785400391 -80.598213195800781 5
   vertex 48.472934722900391 -68.220283508300781 0
   vertex 48.472934722900391 -68.220283508300781 5
  endloop
 endfacet
 facet normal 1 0 0
  outer loop
   vertex 39.903598785400391 -89.694892883300781 0
   vertex 39.903598785400391 -80.598213195800781 0
   vertex 39.903598785400391 -89.694892883300781 5
  endloop
 endfacet
 facet normal 1 0 -0
  outer loop
   vertex 39.903598785400391 -89.694892883300781 5
   vertex 39.903598785400391 -80.598213195800781 0
   vertex 39.903598785400391 -80.598213195800781 5
  endloop
 endfacet
 facet normal 0 -1 0
  outer loop
   vertex 37.061801910400391 -89.694892883300781 0
   vertex 39.903598785400391 -89.694892883300781 0
   vertex 37.061801910400391 -89.694892883300781 5
  endloop
 endfacet
 facet normal 0 -1 0
  outer loop
   vertex 37.061801910400391 -89.694892883300781 5
   vertex 39.903598785400391 -89.694892883300781 0
   vertex 39.903598785400391 -89.694892883300781 5
  endloop
 endfacet
 facet normal 0 0 1
  outer loop
   vertex 37.061801910400391 -89.694892883300781 5
   vertex 39.903598785400391 -89.694892883300781 5
   vertex 37.061801910400391 -80.598213195800781 5
  endloop
 endfacet
 facet normal 0 -0 1
  outer loop
   vertex 37.061801910400391 -80.598213195800781 5
   vertex 39.903598785400391 -89.694892883300781 5
   vertex 39.903598785400391 -80.598213195800781 5
  endloop
 endfacet
 facet normal 0 0 1
  outer loop
   vertex 37.061801910400391 -80.598213195800781 5
   vertex 39.903598785400391 -80.598213195800781 5
   vertex 38.658481597900391 -78.327705383300781 5
  endloop
 endfacet
 facet normal 0 0 1
  outer loop
   vertex 38.658481597900391 -78.327705383300781 5
   vertex 39.903598785400391 -80.598213195800781 5
   vertex 39.225635528564453 -77.367637634277344 5
  endloop
 endfacet
 facet normal 0 0 1
  outer loop
   vertex 39.225635528564453 -77.367637634277344 5
   vertex 39.903598785400391 -80.598213195800781 5
   vertex 39.803550720214844 -76.414207458496094 5
  endloop
 endfacet
 facet normal 0 -0 1
  outer loop
   vertex 39.803550720214844 -76.414207458496094 5
   vertex 39.903598785400391 -80.598213195800781 5
   vertex 40.398162841796875 -75.4710693359375 5
  endloop
 endfacet
 facet normal 0 0 1
  outer loop
   vertex 40.398162841796875 -75.4710693359375 5
   vertex 39.903598785400391 -80.598213195800781 5
   vertex 41.002231597900391 -74.533760070800781 5
  endloop
 endfacet
 facet normal 0 0 1
  outer loop
   vertex 41.002231597900391 -74.533760070800781 5
   vertex 39.903598785400391 -80.598213195800781 5
   vertex 48.472934722900391 -68.220283508300781 5
  endloop
 endfacet
 facet normal 0 0 1
  outer loop
   vertex 41.002231597900391 -74.533760070800781 5
   vertex 48.472934722900391 -68.220283508300781 5
   vertex 45.162387847900391 -68.220283508300781 5
  endloop
 endfacet
 facet normal 0 0 1
  outer loop
   vertex 38.658481597900391 -78.327705383300781 5
   vertex 38.133235931396484 -77.407249450683594 5
   vertex 37.061801910400391 -80.598213195800781 5
  endloop
 endfacet
 facet normal 0 0 1
  outer loop
   vertex 37.061801910400391 -80.598213195800781 5
   vertex 38.133235931396484 -77.407249450683594 5
   vertex 37.596778869628906 -76.493522644042969 5
  endloop
 endfacet
 facet normal 0 0 1
  outer loop
   vertex 37.061801910400391 -80.598213195800781 5
   vertex 37.596778869628906 -76.493522644042969 5
   vertex 37.041820526123047 -75.590904235839844 5
  endloop
 endfacet
 facet normal 0 0 1
  outer loop
   vertex 37.041820526123047 -75.590904235839844 5
   vertex 36.475864410400391 -74.694892883300781 5
   vertex 37.061801910400391 -80.598213195800781 5
  endloop
 endfacet
 facet normal 0 0 1
  outer loop
   vertex 37.061801910400391 -80.598213195800781 5
   vertex 36.475864410400391 -74.694892883300781 5
   vertex 28.785436630249023 -68.220283508300781 5
  endloop
 endfacet
 facet normal 0 0 1
  outer loop
   vertex 28.785436630249023 -68.220283508300781 5
   vertex 36.475864410400391 -74.694892883300781 5
   vertex 32.242465972900391 -68.220283508300781 5
  endloop
 endfacet
 facet normal 0 0 -1
  outer loop
   vertex 39.903598785400391 -89.694892883300781 0
   vertex 37.061801910400391 -89.694892883300781 0
   vertex 39.903598785400391 -80.598213195800781 0
  endloop
 endfacet
 facet normal 0 0 -1
  outer loop
   vertex 39.903598785400391 -80.598213195800781 0
   vertex 37.061801910400391 -89.694892883300781 0
   vertex 37.061801910400391 -80.598213195800781 0
  endloop
 endfacet
 facet normal 0 0 -1
  outer loop
   vertex 39.903598785400391 -80.598213195800781 0
   vertex 37.061801910400391 -80.598213195800781 0
   vertex 38.658481597900391 -78.327705383300781 0
  endloop
 endfacet
 facet normal 0 0 -1
  outer loop
   vertex 38.658481597900391 -78.327705383300781 0
   vertex 37.061801910400391 -80.598213195800781 0
   vertex 38.133235931396484 -77.407249450683594 0
  endloop
 endfacet
 facet normal 0 0 -1
  outer loop
   vertex 38.133235931396484 -77.407249450683594 0
   vertex 37.061801910400391 -80.598213195800781 0
   vertex 37.596778869628906 -76.493522644042969 0
  endloop
 endfacet
 facet normal 0 0 -1
  outer loop
   vertex 37.596778869628906 -76.493522644042969 0
   vertex 37.061801910400391 -80.598213195800781 0
   vertex 37.041820526123047 -75.590904235839844 0
  endloop
 endfacet
 facet normal 0 0 -1
  outer loop
   vertex 37.041820526123047 -75.590904235839844 0
   vertex 37.061801910400391 -80.598213195800781 0
   vertex 36.475864410400391 -74.694892883300781 0
  endloop
 endfacet
 facet normal 0 0 -1
  outer loop
   vertex 36.475864410400391 -74.694892883300781 0
   vertex 37.061801910400391 -80.598213195800781 0
   vertex 28.785436630249023 -68.220283508300781 0
  endloop
 endfacet
 facet normal 0 0 -1
  outer loop
   vertex 36.475864410400391 -74.694892883300781 0
   vertex 28.785436630249023 -68.220283508300781 0
   vertex 32.242465972900391 -68.220283508300781 0
  endloop
 endfacet
 facet normal 0 -0 -1
  outer loop
   vertex 38.658481597900391 -78.327705383300781 0
   vertex 39.225635528564453 -77.367637634277344 0
   vertex 39.903598785400391 -80.598213195800781 0
  endloop
 endfacet
 facet normal 0 0 -1
  outer loop
   vertex 39.903598785400391 -80.598213195800781 0
   vertex 39.225635528564453 -77.367637634277344 0
   vertex 39.803550720214844 -76.414207458496094 0
  endloop
 endfacet
 facet normal 0 0 -1
  outer loop
   vertex 39.903598785400391 -80.598213195800781 0
   vertex 39.803550720214844 -76.414207458496094 0
   vertex 40.398162841796875 -75.4710693359375 0
  endloop
 endfacet
 facet normal 0 0 -1
  outer loop
   vertex 40.398162841796875 -75.4710693359375 0
   vertex 41.002231597900391 -74.533760070800781 0
   vertex 39.903598785400391 -80.598213195800781 0
  endloop
 endfacet
 facet normal 0 -0 -1
  outer loop
   vertex 39.903598785400391 -80.598213195800781 0
   vertex 41.002231597900391 -74.533760070800781 0
   vertex 48.472934722900391 -68.220283508300781 0
  endloop
 endfacet
 facet normal 0 0 -1
  outer loop
   vertex 48.472934722900391 -68.220283508300781 0
   vertex 41.002231597900391 -74.533760070800781 0
   vertex 45.162387847900391 -68.220283508300781 0
  endloop
 endfacet
endsolid
