solid Visualization Toolkit generated SLA File
 facet normal -1 0 0
  outer loop
   vertex 57.100864410400391 -87.058174133300781 0
   vertex 57.100864410400391 -89.694892883300781 0
   vertex 57.100864410400391 -87.058174133300781 5
  endloop
 endfacet
 facet normal -1 0 0
  outer loop
   vertex 57.100864410400391 -87.058174133300781 5
   vertex 57.100864410400391 -89.694892883300781 0
   vertex 57.100864410400391 -89.694892883300781 5
  endloop
 endfacet
 facet normal -0.78094983697550513 0.62459374967088155 0
  outer loop
   vertex 68.101844787597656 -73.303291320800781 0
   vertex 57.100864410400391 -87.058174133300781 0
   vertex 68.101844787597656 -73.303291320800781 5
  endloop
 endfacet
 facet normal -0.78094983697550513 0.62459374967088155 0
  outer loop
   vertex 68.101844787597656 -73.303291320800781 5
   vertex 57.100864410400391 -87.058174133300781 0
   vertex 57.100864410400391 -87.058174133300781 5
  endloop
 endfacet
 facet normal -0.73062985018769577 0.68277377074306633 0
  outer loop
   vertex 70.328407287597656 -70.754463195800781 0
   vertex 69.750411987304688 -71.372970581054688 0
   vertex 70.328407287597656 -70.754463195800781 5
  endloop
 endfacet
 facet normal -0.73062985018769577 0.68277377074306633 0
  outer loop
   vertex 70.328407287597656 -70.754463195800781 5
   vertex 69.750411987304688 -71.372970581054688 0
   vertex 69.750411987304688 -71.372970581054688 5
  endloop
 endfacet
 facet normal -0.74350840893741998 0.66872658526437101 0
  outer loop
   vertex 69.750411987304688 -71.372970581054688 5
   vertex 69.750411987304688 -71.372970581054688 0
   vertex 69.184555053710938 -72.002105712890625 0
  endloop
 endfacet
 facet normal -0.74350840893741998 0.66872658526437101 0
  outer loop
   vertex 69.750411987304688 -71.372970581054688 5
   vertex 69.184555053710938 -72.002105712890625 0
   vertex 69.184555053710938 -72.002105712890625 5
  endloop
 endfacet
 facet normal -0.76318653125213698 0.64617824051520878 0
  outer loop
   vertex 69.184555053710938 -72.002105712890625 5
   vertex 69.184555053710938 -72.002105712890625 0
   vertex 68.637748718261719 -72.647926330566406 0
  endloop
 endfacet
 facet normal -0.76318653125213698 0.64617824051520878 0
  outer loop
   vertex 69.184555053710938 -72.002105712890625 5
   vertex 68.637748718261719 -72.647926330566406 0
   vertex 68.637748718261719 -72.647926330566406 5
  endloop
 endfacet
 facet normal -0.7741331377270565 0.63302281560214091 0
  outer loop
   vertex 68.637748718261719 -72.647926330566406 5
   vertex 68.637748718261719 -72.647926330566406 0
   vertex 68.101844787597656 -73.303291320800781 0
  endloop
 endfacet
 facet normal -0.7741331377270565 0.63302281560214091 0
  outer loop
   vertex 68.637748718261719 -72.647926330566406 5
   vertex 68.101844787597656 -73.303291320800781 0
   vertex 68.101844787597656 -73.303291320800781 5
  endloop
 endfacet
 facet normal 0 -1 0
  outer loop
   vertex 58.345981597900391 -70.754463195800781 0
   vertex 70.328407287597656 -70.754463195800781 0
   vertex 58.345981597900391 -70.754463195800781 5
  endloop
 endfacet
 facet normal 0 -1 0
  outer loop
   vertex 58.345981597900391 -70.754463195800781 5
   vertex 70.328407287597656 -70.754463195800781 0
   vertex 70.328407287597656 -70.754463195800781 5
  endloop
 endfacet
 facet normal -1 0 0
  outer loop
   vertex 58.345981597900391 -68.220283508300781 0
   vertex 58.345981597900391 -70.754463195800781 0
   vertex 58.345981597900391 -68.220283508300781 5
  endloop
 endfacet
 facet normal -1 0 0
  outer loop
   vertex 58.345981597900391 -68.220283508300781 5
   vertex 58.345981597900391 -70.754463195800781 0
   vertex 58.345981597900391 -70.754463195800781 5
  endloop
 endfacet
 facet normal 0 1 0
  outer loop
   vertex 73.726844787597656 -68.220283508300781 0
   vertex 58.345981597900391 -68.220283508300781 0
   vertex 73.726844787597656 -68.220283508300781 5
  endloop
 endfacet
 facet normal 0 1 0
  outer loop
   vertex 73.726844787597656 -68.220283508300781 5
   vertex 58.345981597900391 -68.220283508300781 0
   vertex 58.345981597900391 -68.220283508300781 5
  endloop
 endfacet
 facet normal 1 0 0
  outer loop
   vertex 73.726844787597656 -70.754463195800781 0
   vertex 73.726844787597656 -68.220283508300781 0
   vertex 73.726844787597656 -70.754463195800781 5
  endloop
 endfacet
 facet normal 1 0 -0
  outer loop
   vertex 73.726844787597656 -70.754463195800781 5
   vertex 73.726844787597656 -68.220283508300781 0
   vertex 73.726844787597656 -68.220283508300781 5
  endloop
 endfacet
 facet normal 0.77735156282155704 -0.6290664096730032 0
  outer loop
   vertex 61.671176910400391 -85.651924133300781 0
   vertex 73.726844787597656 -70.754463195800781 0
   vertex 61.671176910400391 -85.651924133300781 5
  endloop
 endfacet
 facet normal 0.77735156282155704 -0.6290664096730032 0
  outer loop
   vertex 61.671176910400391 -85.651924133300781 5
   vertex 73.726844787597656 -70.754463195800781 0
   vertex 73.726844787597656 -70.754463195800781 5
  endloop
 endfacet
 facet normal 0.7566578029472294 -0.6538111112844992 0
  outer loop
   vertex 60.367465972900391 -87.160713195800781 0
   vertex 61.671176910400391 -85.651924133300781 0
   vertex 60.367465972900391 -87.160713195800781 5
  endloop
 endfacet
 facet normal 0.7566578029472294 -0.6538111112844992 0
  outer loop
   vertex 60.367465972900391 -87.160713195800781 5
   vertex 61.671176910400391 -85.651924133300781 0
   vertex 61.671176910400391 -85.651924133300781 5
  endloop
 endfacet
 facet normal 0 1 0
  outer loop
   vertex 74.078407287597656 -87.160713195800781 0
   vertex 60.367465972900391 -87.160713195800781 0
   vertex 74.078407287597656 -87.160713195800781 5
  endloop
 endfacet
 facet normal 0 1 0
  outer loop
   vertex 74.078407287597656 -87.160713195800781 5
   vertex 60.367465972900391 -87.160713195800781 0
   vertex 60.367465972900391 -87.160713195800781 5
  endloop
 endfacet
 facet normal 1 0 0
  outer loop
   vertex 74.078407287597656 -89.694892883300781 0
   vertex 74.078407287597656 -87.160713195800781 0
   vertex 74.078407287597656 -89.694892883300781 5
  endloop
 endfacet
 facet normal 1 0 -0
  outer loop
   vertex 74.078407287597656 -89.694892883300781 5
   vertex 74.078407287597656 -87.160713195800781 0
   vertex 74.078407287597656 -87.160713195800781 5
  endloop
 endfacet
 facet normal 0 -1 0
  outer loop
   vertex 57.100864410400391 -89.694892883300781 0
   vertex 74.078407287597656 -89.694892883300781 0
   vertex 57.100864410400391 -89.694892883300781 5
  endloop
 endfacet
 facet normal 0 -1 0
  outer loop
   vertex 57.100864410400391 -89.694892883300781 5
   vertex 74.078407287597656 -89.694892883300781 0
   vertex 74.078407287597656 -89.694892883300781 5
  endloop
 endfacet
 facet normal 0 0 1
  outer loop
   vertex 57.100864410400391 -87.058174133300781 5
   vertex 57.100864410400391 -89.694892883300781 5
   vertex 60.367465972900391 -87.160713195800781 5
  endloop
 endfacet
 facet normal 0 0 1
  outer loop
   vertex 60.367465972900391 -87.160713195800781 5
   vertex 57.100864410400391 -89.694892883300781 5
   vertex 74.078407287597656 -89.694892883300781 5
  endloop
 endfacet
 facet normal 0 -0 1
  outer loop
   vertex 60.367465972900391 -87.160713195800781 5
   vertex 74.078407287597656 -89.694892883300781 5
   vertex 74.078407287597656 -87.160713195800781 5
  endloop
 endfacet
 facet normal 0 0 1
  outer loop
   vertex 60.367465972900391 -87.160713195800781 5
   vertex 61.671176910400391 -85.651924133300781 5
   vertex 57.100864410400391 -87.058174133300781 5
  endloop
 endfacet
 facet normal 0 -0 1
  outer loop
   vertex 57.100864410400391 -87.058174133300781 5
   vertex 61.671176910400391 -85.651924133300781 5
   vertex 68.101844787597656 -73.303291320800781 5
  endloop
 endfacet
 facet normal 0 0 1
  outer loop
   vertex 68.101844787597656 -73.303291320800781 5
   vertex 61.671176910400391 -85.651924133300781 5
   vertex 73.726844787597656 -70.754463195800781 5
  endloop
 endfacet
 facet normal 0 0 1
  outer loop
   vertex 68.101844787597656 -73.303291320800781 5
   vertex 73.726844787597656 -70.754463195800781 5
   vertex 68.637748718261719 -72.647926330566406 5
  endloop
 endfacet
 facet normal 0 0 1
  outer loop
   vertex 68.637748718261719 -72.647926330566406 5
   vertex 73.726844787597656 -70.754463195800781 5
   vertex 69.184555053710938 -72.002105712890625 5
  endloop
 endfacet
 facet normal 0 0 1
  outer loop
   vertex 69.184555053710938 -72.002105712890625 5
   vertex 73.726844787597656 -70.754463195800781 5
   vertex 69.750411987304688 -71.372970581054688 5
  endloop
 endfacet
 facet normal 0 0 1
  outer loop
   vertex 69.750411987304688 -71.372970581054688 5
   vertex 73.726844787597656 -70.754463195800781 5
   vertex 70.328407287597656 -70.754463195800781 5
  endloop
 endfacet
 facet normal 0 -0 1
  outer loop
   vertex 70.328407287597656 -70.754463195800781 5
   vertex 73.726844787597656 -70.754463195800781 5
   vertex 73.726844787597656 -68.220283508300781 5
  endloop
 endfacet
 facet normal 0 0 1
  outer loop
   vertex 70.328407287597656 -70.754463195800781 5
   vertex 73.726844787597656 -68.220283508300781 5
   vertex 58.345981597900391 -68.220283508300781 5
  endloop
 endfacet
 facet normal 0 0 1
  outer loop
   vertex 58.345981597900391 -68.220283508300781 5
   vertex 58.345981597900391 -70.754463195800781 5
   vertex 70.328407287597656 -70.754463195800781 5
  endloop
 endfacet
 facet normal 0 0 -1
  outer loop
   vertex 74.078407287597656 -87.160713195800781 0
   vertex 74.078407287597656 -89.694892883300781 0
   vertex 60.367465972900391 -87.160713195800781 0
  endloop
 endfacet
 facet normal 0 0 -1
  outer loop
   vertex 60.367465972900391 -87.160713195800781 0
   vertex 74.078407287597656 -89.694892883300781 0
   vertex 57.100864410400391 -89.694892883300781 0
  endloop
 endfacet
 facet normal 0 0 -1
  outer loop
   vertex 60.367465972900391 -87.160713195800781 0
   vertex 57.100864410400391 -89.694892883300781 0
   vertex 57.100864410400391 -87.058174133300781 0
  endloop
 endfacet
 facet normal 0 0 -1
  outer loop
   vertex 60.367465972900391 -87.160713195800781 0
   vertex 57.100864410400391 -87.058174133300781 0
   vertex 61.671176910400391 -85.651924133300781 0
  endloop
 endfacet
 facet normal 0 0 -1
  outer loop
   vertex 61.671176910400391 -85.651924133300781 0
   vertex 57.100864410400391 -87.058174133300781 0
   vertex 68.101844787597656 -73.303291320800781 0
  endloop
 endfacet
 facet normal 0 -0 -1
  outer loop
   vertex 61.671176910400391 -85.651924133300781 0
   vertex 68.101844787597656 -73.303291320800781 0
   vertex 73.726844787597656 -70.754463195800781 0
  endloop
 endfacet
 facet normal 0 0 -1
  outer loop
   vertex 73.726844787597656 -70.754463195800781 0
   vertex 68.101844787597656 -73.303291320800781 0
   vertex 68.637748718261719 -72.647926330566406 0
  endloop
 endfacet
 facet normal 0 0 -1
  outer loop
   vertex 73.726844787597656 -70.754463195800781 0
   vertex 68.637748718261719 -72.647926330566406 0
   vertex 69.184555053710938 -72.002105712890625 0
  endloop
 endfacet
 facet normal 0 -0 -1
  outer loop
   vertex 69.184555053710938 -72.002105712890625 0
   vertex 69.750411987304688 -71.372970581054688 0
   vertex 73.726844787597656 -70.754463195800781 0
  endloop
 endfacet
 facet normal 0 0 -1
  outer loop
   vertex 73.726844787597656 -70.754463195800781 0
   vertex 69.750411987304688 -71.372970581054688 0
   vertex 70.328407287597656 -70.754463195800781 0
  endloop
 endfacet
 facet normal 0 0 -1
  outer loop
   vertex 73.726844787597656 -70.754463195800781 0
   vertex 70.328407287597656 -70.754463195800781 0
   vertex 73.726844787597656 -68.220283508300781 0
  endloop
 endfacet
 facet normal 0 0 -1
  outer loop
   vertex 73.726844787597656 -68.220283508300781 0
   vertex 70.328407287597656 -70.754463195800781 0
   vertex 58.345981597900391 -68.220283508300781 0
  endloop
 endfacet
 facet normal 0 0 -1
  outer loop
   vertex 58.345981597900391 -68.220283508300781 0
   vertex 70.328407287597656 -70.754463195800781 0
   vertex 58.345981597900391 -70.754463195800781 0
  endloop
 endfacet
endsolid
